<svg id="certification-diploma-proof-svgrepo-com" xmlns="http://www.w3.org/2000/svg" width="221.412" height="197.648" viewBox="0 0 221.412 197.648">
  <path id="Path_1937" data-name="Path 1937" d="M207.6,5H17.815A15.815,15.815,0,0,0,2,20.815V155.244a15.815,15.815,0,0,0,15.815,15.815H128.521v23.723a7.809,7.809,0,0,0,12.1,6.563l19.532-12.889,19.374,12.889a7.908,7.908,0,0,0,12.257-6.563V171.059H207.6a15.815,15.815,0,0,0,15.815-15.815V20.815A15.815,15.815,0,0,0,207.6,5Zm-42.78,133.954A23.723,23.723,0,1,1,183.4,120.371,23.723,23.723,0,0,1,164.817,138.954Zm11.15,41.04L164.5,172.087a7.908,7.908,0,0,0-8.7,0l-11.466,7.908V151.923a39.538,39.538,0,0,0,31.63,0Zm31.63-24.751H191.782V139.429h0a38.984,38.984,0,0,0,6.959-32.421,39.538,39.538,0,0,0-78.127,8.7,38.984,38.984,0,0,0,7.908,23.723h0v15.815H17.815V20.815H207.6Z" transform="translate(-2 -5)" fill="#fff"/>
  <path id="Path_1938" data-name="Path 1938" d="M13.908,25.815H156.244a7.908,7.908,0,1,0,0-15.815H13.908a7.908,7.908,0,1,0,0,15.815Z" transform="translate(25.63 29.538)" fill="#fff"/>
  <path id="Path_1939" data-name="Path 1939" d="M13.908,29.815H77.168a7.908,7.908,0,1,0,0-15.815H13.908a7.908,7.908,0,1,0,0,15.815Z" transform="translate(25.63 57.168)" fill="#fff"/>
  <path id="Path_1940" data-name="Path 1940" d="M13.908,33.815H77.168a7.908,7.908,0,1,0,0-15.815H13.908a7.908,7.908,0,1,0,0,15.815Z" transform="translate(25.63 84.798)" fill="#fff"/>
</svg>
