<svg id="danger-svgrepo-com" xmlns="http://www.w3.org/2000/svg" width="178.245" height="178.193" viewBox="0 0 178.245 178.193">
  <g id="Group_928" data-name="Group 928" transform="translate(0 0)">
    <g id="Group_927" data-name="Group 927" transform="translate(0 0)">
      <path id="Path_1933" data-name="Path 1933" d="M177.107,166.513,95.973,4.244A7.551,7.551,0,0,0,89.149.074a7.162,7.162,0,0,0-6.824,4.17L.811,167.651a7.04,7.04,0,0,0,.379,7.2,8.444,8.444,0,0,0,6.445,3.412H170.662a7.72,7.72,0,0,0,6.445-11.754ZM19.388,163.48,89.149,23.959,158.53,163.48Z" transform="translate(0 -0.074)" fill="#fff"/>
    </g>
  </g>
  <g id="Group_930" data-name="Group 930" transform="translate(72.522 75.759)">
    <g id="Group_929" data-name="Group 929">
      <path id="Path_1934" data-name="Path 1934" d="M236.587,249.681a7.7,7.7,0,0,0-4.55-4.55l-9.478-3.412,9.857-17.44a7.549,7.549,0,1,0-13.269-7.2l-14.028,25.4a6.863,6.863,0,0,0-.379,6.066,8.2,8.2,0,0,0,4.55,4.17l9.478,3.033-13.649,23.885a7.479,7.479,0,1,0,12.891,7.583l18.2-31.468A6.863,6.863,0,0,0,236.587,249.681Z" transform="translate(-204.037 -213.217)" fill="#fff"/>
    </g>
  </g>
</svg>
