<svg id="_23._Bomb" data-name="23. Bomb" xmlns="http://www.w3.org/2000/svg" width="169.321" height="226.138" viewBox="0 0 169.321 226.138">
  <path id="Path_1931" data-name="Path 1931" d="M118.618,62.048a2.756,2.756,0,0,1-1.7-2.615A17.031,17.031,0,0,0,99.892,42.4h-2.9a21.2,21.2,0,0,1,19.928-14.133h8.339a21.2,21.2,0,1,0,0-14.133h-8.339A35.335,35.335,0,0,0,82.294,42.409L77.419,42.4A17.031,17.031,0,0,0,60.389,59.433a2.9,2.9,0,0,1-1.7,2.685A84.8,84.8,0,0,0,79.257,225.642a86.29,86.29,0,0,0,9.4.495,83.6,83.6,0,0,0,56.534-21.695A84.8,84.8,0,0,0,118.618,62.048Zm26.571-47.912a7.067,7.067,0,1,1-7.067,7.067A7.067,7.067,0,0,1,145.189,14.135Zm-9.328,179.777A70.667,70.667,0,1,1,63.639,75.333a17.031,17.031,0,0,0,10.883-15.9,2.968,2.968,0,0,1,2.9-2.9H99.892a2.968,2.968,0,0,1,2.9,2.9,17.1,17.1,0,0,0,10.809,15.9,70.667,70.667,0,0,1,22.263,118.581Z" transform="translate(-4.024 0)" fill="#fff"/>
  <path id="Path_1932" data-name="Path 1932" d="M34.2,35.2H48.334a7.067,7.067,0,0,0,0-14.133H41.267a7.067,7.067,0,1,0-14.133,0v1.272A21.2,21.2,0,0,0,34.2,63.467a7.067,7.067,0,0,1,0,14.133H20.067a7.067,7.067,0,0,0,0,14.133h7.067a7.067,7.067,0,1,0,14.133,0V90.462A21.2,21.2,0,0,0,34.2,49.334a7.067,7.067,0,1,1,0-14.133Z" transform="translate(50.431 84.936)" fill="#fff"/>
</svg>
