<svg xmlns="http://www.w3.org/2000/svg" width="226.122" height="226.121" viewBox="0 0 226.122 226.121">
  <g id="security-svgrepo-com" transform="translate(1.5 1.5)">
    <path id="Path_1935" data-name="Path 1935" d="M637.129,526.535a24.537,24.537,0,0,0-49.074,0v9.35H571.518v28.273a41.076,41.076,0,0,0,82.147-.04V535.885H637.129Zm8.693,17.194v20.349a33.232,33.232,0,0,1-66.46.04V543.729ZM595.9,535.885v-9.35a16.693,16.693,0,0,1,33.386,0v9.35Z" transform="translate(-501.03 -440.204)" fill="#fff" stroke="#fff" stroke-width="3"/>
    <path id="Path_1936" data-name="Path 1936" d="M215.505,101.773A98,98,0,0,0,136.962,23.23a17.749,17.749,0,0,0-35.191,0,97.994,97.994,0,0,0-78.542,78.543,17.748,17.748,0,0,0,0,35.191,97.993,97.993,0,0,0,78.542,78.543,17.749,17.749,0,0,0,35.191,0,97.993,97.993,0,0,0,78.543-78.542,17.749,17.749,0,0,0,0-35.191ZM119.367,15.652a9.949,9.949,0,1,1-9.267,6.43A9.917,9.917,0,0,1,119.367,15.652ZM22.08,128.636a9.773,9.773,0,1,1,3.48.642A9.917,9.917,0,0,1,22.08,128.636Zm97.287,94.449a9.949,9.949,0,1,1,9.267-6.43A9.917,9.917,0,0,1,119.367,223.085Zm16.871-15.427a17.75,17.75,0,0,0-33.743,0A90.134,90.134,0,0,1,31.077,136.24a17.749,17.749,0,0,0,0-33.743,90.134,90.134,0,0,1,71.418-71.419,17.749,17.749,0,0,0,33.743,0A90.134,90.134,0,0,1,207.657,102.5a17.749,17.749,0,0,0,0,33.743A90.133,90.133,0,0,1,136.238,207.658Zm80.415-79.022a9.893,9.893,0,1,1,6.43-9.267A9.845,9.845,0,0,1,216.653,128.636Z" transform="translate(-7.806 -7.808)" fill="#fff" stroke="#fff" stroke-width="3"/>
  </g>
</svg>
