<?xml version="1.0" encoding="utf-8"?>
<!-- Generator: Adobe Illustrator 23.0.6, SVG Export Plug-In . SVG Version: 6.00 Build 0)  -->
<svg version="1.1" id="Layer_1" xmlns="http://www.w3.org/2000/svg" xmlns:xlink="http://www.w3.org/1999/xlink" x="0px" y="0px"
	 width="214.6px" height="62.8px" viewBox="0 0 214.6 62.8" style="enable-background:new 0 0 214.6 62.8;" xml:space="preserve">
<style type="text/css">
	.st0{fill:#174A7C;}
</style>
<g>
	<path class="st0" d="M73.4,33.8c0-8.6-6.1-14.4-13.6-14.4c-7.9,0-14.2,6.3-14.2,15.1c0,8.8,6,14.6,13.7,14.6
		C67.6,49.1,73.4,42.6,73.4,33.8L73.4,33.8z M68.6,35c0,5.4-2.4,12.1-8.6,12.1c-6.2,0-9.3-7.2-9.3-13.6c0-7.7,3.5-12.2,8.5-12.2
		C65.8,21.3,68.6,29,68.6,35L68.6,35z"/>
	<path class="st0" d="M99.7,19.5c0.8-0.2,1.2,0.5,0.4,1.1c-1.5,1-2.1,2.7-3.2,5.3C95.5,29,87.8,48.5,87.5,49
		c-0.4,0.7-0.8,0.8-1.1,0.2c-0.2-0.7-8.7-21.7-9.4-23.2c-1.4-3.3-2.6-5-3.5-5.4c-0.8-0.3-1-1,0-1.1c0.7-0.1,2.3,0.2,3.7,0.2
		c1.3,0,2.7-0.2,3.3-0.2c0.9-0.2,0.9,0.6,0.3,1.3c-0.4,0.4-0.7,1.2-0.2,2.5c0.9,2.4,6.6,16.5,7,17.5c0.2,0.7,0.6,0.7,0.9,0
		c0.7-1.1,4.9-13.1,5.8-16.2c0.5-1.9,0-3.2-0.6-3.8c-0.5-0.5-0.3-1.4,0.6-1.3c1,0.1,1.9,0.2,2.6,0.2C97.9,19.7,98.6,19.7,99.7,19.5
		L99.7,19.5z"/>
	<path class="st0" d="M110.4,47.9c-1-0.7-1.6-2.4-1.6-9.2c0-1.6,0-3-0.1-4.2v-9c0-0.9,0.1-3.9,0.2-5.2c0.2-0.9-0.3-1.2-0.9-0.9
		c-1.1,0.4-2.7,0.8-4.5,1.2c-0.6,0.2-0.9,0.5-0.3,1c0.4,0.4,1.1,1,1.3,3.2c0,1.3,0.1,7.1,0.1,13.9s-0.5,8.5-1.6,9.2
		c-0.7,0.5-0.5,1.2,0.5,1c0.8-0.1,2.1-0.2,3.2-0.2c0.9,0,2.4,0.2,3.3,0.2C110.9,49.1,111.1,48.4,110.4,47.9L110.4,47.9z"/>
	<path class="st0" d="M109.7,9.7c0,2.2-1.5,3.2-3.2,3.2c-1.9,0.1-3.1-1.4-3.1-3c-0.1-2,1.4-3.3,3.2-3.3S109.7,8,109.7,9.7L109.7,9.7
		z"/>
	<path class="st0" d="M165.5,33.8c0-8.6-6.1-14.4-13.6-14.4c-7.9,0-14.2,6.3-14.2,15.1c0,8.8,6,14.6,13.7,14.6
		C159.7,49.1,165.5,42.6,165.5,33.8L165.5,33.8z M160.7,35c0,5.4-2.4,12.1-8.6,12.1c-6.2,0-9.3-7.2-9.3-13.6
		c0-7.7,3.5-12.2,8.5-12.2C157.9,21.3,160.7,29,160.7,35L160.7,35z"/>
	<path class="st0" d="M177.5,20c0.9-0.4,1.9-0.5,2.6-0.5c1.9,0,3.1,0.9,3.2,1.8c0.2,0.9-0.9,3.1-1.2,3.3c-0.6,0.7-0.8,1.2-1.6-0.5
		c-1.6-3.8-6.6-1.3-6.6,2.6c0,1.9,0.1,12.1,0.1,12.2c0,6.6,0.8,8.2,2.7,9.1c0.8,0.4,0.5,1.2-0.5,1c-0.8,0-3.2-0.2-4.2-0.2
		c-0.9,0-2.4,0.1-3.2,0.2c-0.9,0.2-1.2-0.5-0.5-1c1.2-0.7,1.8-2.4,1.6-9.1c0-6.8-0.1-12.5-0.1-13.8c-0.2-2.1-0.8-2.9-1.3-3.2
		c-0.5-0.5-0.4-0.8,0.3-1c1.9-0.4,2.4-0.8,3.7-1.2c0.6-0.2,1-0.3,1,0.8v0.9c0,0.9,0.7,0.8,1.3,0.3C175.4,21.1,176.4,20.4,177.5,20
		L177.5,20z"/>
	<path class="st0" d="M213.8,19.5c0.7-0.1,1.1,0.5,0.4,1.1c-1.5,1-2.2,2.6-3.2,5.2c-0.3,0.2-9.6,23.6-9.9,23.9
		c-1.8,4.1-3.3,8.9-5.8,11c-4.2,3.4-7.3,1.7-7.6,1.7c-0.4-0.2-0.8-0.8,0.1-0.9c5.3-1.2,8.1-7.2,9.9-11.6c0.6-1.5,0.8-1.9,1.3-3.1
		c0.4-0.9,0.2-1.5,0-1.9c-0.4-1-7.3-18-7.7-19.1c-1.4-3.3-2.6-4.9-3.5-5.2c-0.8-0.4-1-1.1,0.1-1.2c0.7-0.1,2.4,0.2,3.7,0.2
		c1.1,0,2.9-0.1,3.3-0.2c0.9-0.1,0.9,0.7,0.3,1.3c-0.4,0.5-0.4,1.6-0.2,2.4c0.7,2.5,6.1,15.8,6.5,16.9c0.2,0.7,0.6,0.6,0.8,0
		c0.6-1.3,5-12.2,6-15.5c0.5-1.4,0.8-2,1.7-3.2c0.5-0.8,1.8-1.3,2.6-1.5C213.2,19.5,213.5,19.5,213.8,19.5L213.8,19.5z"/>
	<path class="st0" d="M134,22.4c0-2,0.2-1.6,0.2-3c0-1.6-4.5-3-8.2-3c-12.1-0.6-16,12.3-7.9,18.3c3.5,2.5,6.3,3.9,9.1,5.8
		c5,3.3,6,8,1.6,13.4c-0.9,1.3-1.8,1.7-3,2.2c-0.3,0.1-2.5,0.4-2.9,0.6c-0.4,0.2-0.5,0.6-0.5,0.6l0,0.4c0,0,0.2,0.5,0.6,0.7
		c0.4,0.2,2.5,0.2,3,0.1c4.4-0.9,8.1-5.4,9.2-10c0.9-4,0-8.1-3.4-11.1c-1.5-1.2-4-2.7-6.2-4.2c-1.3-0.9-2.6-1.7-4.1-2.6
		c-5.8-3.3-4.2-12,2.7-12c4,0,5.7,1.7,8.1,4.5C132.9,24,134,23.9,134,22.4L134,22.4z"/>
	<path class="st0" d="M48.6,51.5c0.5-1.9-0.8-1.8-1.9-0.8c-3.9,3.9-10.1,5-16.4,5c-8.6,0-23-5.9-23-27.5c0-17.7,12-25.2,24-25.2
		c5.9,0,11.5,1.2,13.3,6.1c0.5,1.2,1.8,1.2,1.8-0.1c0.3-2.5,0.1-2.1,0.4-3.7c0.6-2.7-8.5-5.5-14.6-5.4C12.6,0.2,0,12.7,0,29.2
		C0,46.5,12.3,59,30.1,59c6.3,0,13.5-1.2,15.4-1.8c1-0.4,1.5-0.3,2.1-2.1C48.2,53.1,48.1,53,48.6,51.5L48.6,51.5z"/>
</g>
</svg>
