<?xml version="1.0" encoding="UTF-8"?>
<svg id="Layer_1" data-name="Layer 1" xmlns="http://www.w3.org/2000/svg" viewBox="0 0 43.2 43.2">
  <defs>
    <style>
      .cls-1 {
        fill: #000;
        stroke-width: 0px;
      }
    </style>
  </defs>
  <g id="Group_1703" data-name="Group 1703">
    <path id="Path_3174" data-name="Path 3174" class="cls-1" d="M9.04,42.86h-4.23c-2.65,0-4.8-2.16-4.8-4.81v-20.02c0-2.66,2.15-4.81,4.8-4.81h4.23c2.65,0,4.8,2.16,4.8,4.81v20.02c0,2.66-2.15,4.81-4.8,4.81M4.8,14.28c-2.06,0-3.73,1.68-3.73,3.74v20.02c0,2.07,1.67,3.74,3.73,3.74h4.23c2.06,0,3.73-1.68,3.73-3.74v-20.02c0-2.07-1.67-3.74-3.73-3.74h-4.23Z"/>
    <path id="Path_3175" data-name="Path 3175" class="cls-1" d="M23.77,43.08h-4.23c-2.65,0-4.8-2.16-4.8-4.81V12.99c0-2.66,2.15-4.81,4.8-4.81h4.23c2.65,0,4.8,2.16,4.8,4.81v25.28c0,2.66-2.15,4.81-4.8,4.81M19.53,9.25c-2.06,0-3.73,1.68-3.73,3.74v25.28c0,2.07,1.67,3.74,3.73,3.74h4.23c2.06,0,3.73-1.68,3.73-3.74V12.99c0-2.07-1.67-3.74-3.73-3.74h-4.23Z"/>
    <path id="Path_3176" data-name="Path 3176" class="cls-1" d="M38.4,43.2h-4.23c-2.65,0-4.8-2.16-4.8-4.81V4.81c0-2.66,2.15-4.81,4.8-4.81h4.23c2.65,0,4.8,2.16,4.8,4.81v33.57c0,2.66-2.15,4.81-4.8,4.81M34.16,1.07c-2.06,0-3.73,1.68-3.73,3.74v33.57c0,2.07,1.67,3.74,3.73,3.74h4.23c2.06,0,3.73-1.68,3.73-3.74V4.81c0-2.07-1.67-3.74-3.73-3.74h-4.23Z"/>
  </g>
</svg>