<?xml version="1.0" encoding="UTF-8"?>
<svg id="Layer_1" data-name="Layer 1" xmlns="http://www.w3.org/2000/svg" viewBox="0 0 43.2 43.2">
  <defs>
    <style>
      .cls-1 {
        fill: #000;
        stroke-width: 0px;
      }
    </style>
  </defs>
  <g id="Group_1658" data-name="Group 1658">
    <g id="Group_1657" data-name="Group 1657">
      <path id="Path_3022" data-name="Path 3022" class="cls-1" d="M13.58,6.17c.65-.41,1.26-.9,1.84-1.48C18.82.51,22.8-.95,27.3.61c4.25,1.29,7.55,5.65,8.5,11.21.17.69.55,1.25,1.05,1.54,4.3,1.92,6.76,6.37,6.29,11.54-.5,5.4-3.78,9.32-8.31,9.6-1.03-.05-1.97.78-2.32,2.05-1.03,2.95-2.91,5.24-5.22,6.39-.73.32-1.52.33-2.26.02-2.46-1.22-4.43-3.71-5.44-6.88-.28-1.05-1.09-1.69-1.93-1.51-2.9.07-5.8.05-8.69.02-2.53.12-4.98-1.19-6.73-3.59-3.07-4.19-2.97-10.84.23-14.86.35-.43.72-.83,1.12-1.18.55-.51.99-1.19,1.28-1.98,1.42-4.55,4.97-7.33,8.71-6.81M34.28,30.92c3.03.41,5.77-2.4,6.19-6.36.27-3.97-1.94-7.49-4.96-7.91-1.21-.2-2.06-.56-2.22-2.45-.44-5.31-2.77-8.65-6.64-10.16-3.65-1.46-7.6.19-9.92,4.15-.54,1.12-1.58,1.64-2.55,1.29-3.08-.74-6.09,1.69-6.98,5.62-.21.83-.62,1.56-1.17,2.06-2.64,2.1-3.8,4.99-3.17,8.22.67,3.43,2.9,5.6,5.92,5.69,1.8.05,3.6.01,5.4.01h3.86c-.2-2.07-.35-3.81-.54-5.55-.18-1.76.41-2.51,1.73-2.98,2-.71,3.92-1.83,5.89-2.68.57-.29,1.2-.35,1.8-.17,2.17.91,4.27,2.07,6.45,2.95,1.05.43,1.54,1.11,1.43,2.5-.16,1.87-.33,3.74-.51,5.74M32.01,26.33c-1.93-1.01-3.76-1.98-5.6-2.91-.24-.07-.48-.03-.7.11-1.75.89-3.5,1.8-5.41,2.79.36,4.31,1.12,8.54,3.73,11.78,1.65,2.05,2.51,2.04,4.17.04,2.67-3.2,3.38-7.46,3.81-11.8"/>
    </g>
  </g>
</svg>