<svg xmlns="http://www.w3.org/2000/svg" xmlns:xlink="http://www.w3.org/1999/xlink" width="437.868" height="316.831" viewBox="0 0 437.868 316.831">
  <defs>
    <style>
      .cls-1 {
        fill: none;
      }

      .cls-3 {
        fill: #000000;
      }
    </style>
  </defs>
  <g id="Group_1358" data-name="Group 1358" transform="translate(0 0.001)">
    <g id="Group_1357" data-name="Group 1357" class="cls-1" transform="translate(0 -0.001)">
      <path id="Path_2534" data-name="Path 2534" class="cls-3" d="M138.078,32.682A80.818,80.818,0,1,0,218.9,113.5a80.819,80.819,0,0,0-80.821-80.818m56.311,60.162-67.034,67.034a14.559,14.559,0,0,1-20.591,0L77.65,130.76a14.557,14.557,0,0,1,20.586-20.589L117.061,129,173.8,72.258a14.557,14.557,0,0,1,20.586,20.586" transform="translate(81.255 46.377)"/>
      <path id="Path_2535" data-name="Path 2535" class="cls-3" d="M436.114,114.274a6.043,6.043,0,0,0-8.551-.039l-35.63,35.311a242.052,242.052,0,0,0-47.3-47.072l29.626-42.812a6.049,6.049,0,1,0-9.947-6.885l-29.512,42.65a215.48,215.48,0,0,0-48.1-24.5l13-51.436a6.048,6.048,0,1,0-11.728-2.961L275.162,67.2a198.7,198.7,0,0,0-49.782-7.8V6.048a6.048,6.048,0,1,0-12.1,0V59.383a199.023,199.023,0,0,0-50.512,8.065L149.9,16.488a6.048,6.048,0,1,0-11.728,2.961l13.08,51.773A216.324,216.324,0,0,0,102.232,96.6L73.559,55.154a6.048,6.048,0,1,0-9.945,6.885L92.442,103.7a239.292,239.292,0,0,0-47.058,47.68L10.305,116.615a6.048,6.048,0,1,0-8.515,8.59l40.316,39.958a6,6,0,0,0,3.684,1.7,239.661,239.661,0,0,0,45.793,46.485L61.258,257.172a6.048,6.048,0,0,0,9.945,6.885l30.144-43.562a217.177,217.177,0,0,0,47.542,25.119L135.815,297.34a6.051,6.051,0,0,0,4.383,7.347,6.155,6.155,0,0,0,1.485.186,6.053,6.053,0,0,0,5.859-4.57l12.823-50.74a198.512,198.512,0,0,0,49.765,8.6v52.619a6.048,6.048,0,0,0,12.1,0V258.355a199.028,199.028,0,0,0,50.36-7.146l13.027,51.555A6.048,6.048,0,0,0,297.34,299.8l-13.177-52.14a214.359,214.359,0,0,0,49.412-24.578l28.378,41.01a6.047,6.047,0,1,0,9.945-6.882L343.45,216.1c30.741-22.875,48.3-47.45,51.7-52.44a6.427,6.427,0,0,0,.363-.67c.08-.073.172-.126.249-.206l40.318-39.955a6.043,6.043,0,0,0,.039-8.551m-101.92,93.692a5.9,5.9,0,0,0-5.085,3.578A201.815,201.815,0,0,1,276.628,237.4a6.159,6.159,0,0,0-1.248.177,5.959,5.959,0,0,0-1.7.75,187.376,187.376,0,0,1-54.361,8c-.965,0-1.942-.01-2.92-.024a186.888,186.888,0,0,1-55.554-9.292,5.946,5.946,0,0,0-5.7-1.95C97.34,214.13,63.094,170.3,54.915,158.845a225.86,225.86,0,0,1,47.75-47.791,5.888,5.888,0,0,0,3.162-2.327,204.392,204.392,0,0,1,51.746-26.97,5.881,5.881,0,0,0,2.557-.085A5.988,5.988,0,0,0,163,79.986,187.3,187.3,0,0,1,219.34,71.36q1.451,0,2.922.024a187.177,187.177,0,0,1,52.23,8.2,5.882,5.882,0,0,0,6.336,2.071c59.453,20.528,94.619,65.561,102.921,77.19a226.177,226.177,0,0,1-49.554,49.119" transform="translate(0 0)"/>
    </g>
  </g>
</svg>
