<svg xmlns="http://www.w3.org/2000/svg" width="215.146" height="286.544" viewBox="0 0 215.146 286.544">
  <defs>
    <style>
      .cls-1 {
        fill: #000000;
      }
    </style>
  </defs>
  <g id="Group_1497" data-name="Group 1497" transform="translate(-204.304 -25.762)">
    <path id="Path_2429" data-name="Path 2429" class="cls-1" d="M271.222,47.046h-2.387V43.727c0-17.691-14.889-32.084-33.187-32.084H158.121c-18.3,0-33.187,14.394-33.187,32.084v3.319H122.45c-18.3,0-33.187,14.394-33.187,32.084V266.1c0,17.691,14.889,32.084,33.187,32.084H271.222c18.3,0,33.187-14.394,33.187-32.084V79.13c0-17.691-14.889-32.084-33.187-32.084M136.378,43.727c0-11.59,9.755-21.021,21.743-21.021h77.526c11.989,0,21.743,9.431,21.743,21.021v3.319H136.378ZM292.965,266.1c0,11.59-9.755,21.021-21.744,21.021H122.45c-11.989,0-21.743-9.431-21.743-21.021V79.13c0-11.59,9.755-21.021,21.743-21.021H271.222c11.989,0,21.744,9.431,21.744,21.021Z" transform="translate(115.041 14.119)"/>
    <path id="Path_2430" data-name="Path 2430" class="cls-1" d="M117.886,82.666a5.811,5.811,0,0,1-4.047-1.62L102.4,69.983a5.405,5.405,0,0,1,0-7.824,5.865,5.865,0,0,1,8.093,0l7.4,7.151,22.3-21.558a5.862,5.862,0,0,1,8.091,0,5.4,5.4,0,0,1,0,7.822L121.932,81.046a5.811,5.811,0,0,1-4.047,1.62" transform="translate(129.807 55.945)"/>
    <path id="Path_2431" data-name="Path 2431" class="cls-1" d="M117.646,110.623h0A5.825,5.825,0,0,1,113.6,109L102.155,97.94a5.4,5.4,0,0,1,0-7.824,5.862,5.862,0,0,1,8.091,0l7.4,7.151,22.3-21.556a5.86,5.86,0,0,1,8.093,0,5.4,5.4,0,0,1,0,7.822L121.69,109a5.814,5.814,0,0,1-4.044,1.62" transform="translate(129.495 89.85)"/>
    <path id="Path_2432" data-name="Path 2432" class="cls-1" d="M117.4,138.583h0a5.839,5.839,0,0,1-4.049-1.62L101.912,125.9a5.405,5.405,0,0,1,0-7.824,5.865,5.865,0,0,1,8.093,0l7.4,7.154,22.3-21.558a5.858,5.858,0,0,1,8.091,0,5.4,5.4,0,0,1,0,7.822l-26.346,25.47a5.833,5.833,0,0,1-4.047,1.62" transform="translate(129.184 123.756)"/>
    <path id="Path_2433" data-name="Path 2433" class="cls-1" d="M223.349,68.706H132.942a5.535,5.535,0,1,1,0-11.063h90.407a5.535,5.535,0,1,1,0,11.063" transform="translate(163.959 69.904)"/>
    <path id="Path_2434" data-name="Path 2434" class="cls-1" d="M223.349,95.706H132.942a5.535,5.535,0,1,1,0-11.063h90.407a5.535,5.535,0,1,1,0,11.063" transform="translate(163.959 102.646)"/>
    <path id="Path_2435" data-name="Path 2435" class="cls-1" d="M223.349,124.706H132.942a5.535,5.535,0,1,1,0-11.063h90.407a5.535,5.535,0,1,1,0,11.063" transform="translate(163.959 137.814)"/>
  </g>
</svg>
