<svg id="Group_1366" data-name="Group 1366" xmlns="http://www.w3.org/2000/svg" xmlns:xlink="http://www.w3.org/1999/xlink" width="340.01" height="327.813" viewBox="0 0 340.01 327.813">
  <defs>
    <style>
      .cls-1 {
        fill: none;
      }

      .cls-3 {
        fill: #000000;
      }

    </style>
  </defs>
  <g id="Group_1365" data-name="Group 1365" class="cls-2" transform="translate(0 0)">
    <path id="Path_2538" data-name="Path 2538" class="cls-3" d="M335.2,304.888c-9.482,15.153-27.095,15.993-34.626,16.353-9.872.45-20.284.69-31.146.69q-16.248,0-33.726-.69a21.132,21.132,0,0,1,.81-42.248h.87c20.1.78,38.947.87,56.11.24-7.291-14.223-43.538-84.555-73.9-143.516l7.711-20.4-4.471-4.621h-.99a78.887,78.887,0,0,0-13.382-5.941c-1.86-.6-3.751-1.17-5.7-1.68-6.241-12.122-11.792-22.924-16.233-31.536v-1.26h-.66c-5.491-10.652-9.122-17.7-9.962-19.324a35.384,35.384,0,0,0-5.641-7.831,33.361,33.361,0,0,0-6.541,8.432c-.27.48-.57.93-.87,1.38-2.79,4.531-15.183,28.235-31.746,60.341a52.4,52.4,0,0,0-20.884,32.856,42.8,42.8,0,0,0-.66,4.621c-.18,1.65-.24,3.331-.27,5.041C88.348,196.748,65,242.6,46.58,278.993h56.86a23,23,0,0,1,4.111.42l-2.13,6.3,3.6,2.58a57.254,57.254,0,0,0,9.272,5.341c1.86.87,3.841,1.68,5.851,2.46a22.283,22.283,0,0,1,.42,4.021,21.116,21.116,0,0,1-21.124,21.124H40.369c-21.544,0-31.506-9.332-36.067-17.133-2.761-4.741-5.641-12.692-3.631-23.554A60.735,60.735,0,0,1,7.723,262.13c2.67-5.281,29.705-58.571,57.07-112.16C116.373,49.061,124.985,33.578,127.655,29.527,139.087,10.354,154.36-.148,170.773,0a40.441,40.441,0,0,1,24.845,9.182c6.421,5.1,12.092,12.092,17.313,21.364l-.03.03c.51.87,1.05,1.92,1.74,3.241L332.053,261.77c9.362,15.633,10.532,31.3,3.151,43.118" transform="translate(0 0.001)"/>
    <path id="Path_2539" data-name="Path 2539" class="cls-3" d="M62.6,23.421v1.26c-.21-.42-.45-.84-.66-1.26Z" transform="translate(123.922 46.855)"/>
    <path id="Path_2540" data-name="Path 2540" class="cls-3" d="M98.475,135.728v.45H79.181V105.243c-13.743-.24-27.845-3.6-38.5-8.672a6.792,6.792,0,0,0-.6-.78c10.742,5.251,25.145,8.732,39.187,8.972v30.966Z" transform="translate(80.19 191.634)"/>
    <path id="Path_2541" data-name="Path 2541" class="cls-3" d="M53.914,25.421V55.907a.11.11,0,0,0-.09.03V25.421Z" transform="translate(107.677 50.856)"/>
    <path id="Path_2542" data-name="Path 2542" class="cls-3" d="M123.179,149.859a27.429,27.429,0,0,0,.39-4.771c0-16.863-11.942-27.275-34.626-36.457C57.708,96.359,38.414,82.287,38.414,55.612a48.7,48.7,0,0,1,.27-5.161c-.15,1.56-.21,3.121-.21,4.711,0,26.645,19.324,40.747,50.559,52.99,22.684,9.212,34.626,19.624,34.626,36.457a27.348,27.348,0,0,1-.48,5.251" transform="translate(76.849 100.93)"/>
    <path id="Path_2543" data-name="Path 2543" class="cls-3" d="M121.017,44.471,117.837,52.9A73.993,73.993,0,0,0,79.22,42.491c-19.894,0-29.345,10.022-31.806,20.524,2.28-10.652,11.7-21,31.9-21a74.382,74.382,0,0,1,38.617,10.412l3.031-8.041c.03.03.06.06.06.09" transform="translate(94.854 84.045)"/>
    <path id="Path_2544" data-name="Path 2544" class="cls-3" d="M107.193,84.111c-3.481,20.794-19.864,38.947-47.619,43.538v-.42c27.635-4.561,43.958-22.474,47.619-43.118" transform="translate(119.181 168.268)"/>
    <path id="Path_2545" data-name="Path 2545" class="cls-3" d="M45.866,99.552a51.48,51.48,0,0,1-8.372-4.8l.15-.45a53.7,53.7,0,0,0,7.621,4.471,6.792,6.792,0,0,1,.6.78" transform="translate(75.009 188.654)"/>
    <path id="Path_2546" data-name="Path 2546" class="cls-3" d="M76.455,38.921,71.984,50.713c0-.03-.03-.06-.06-.09l4.441-11.732a.11.11,0,0,1,.09.03" transform="translate(143.887 77.803)"/>
    <path id="Path_2547" data-name="Path 2547" class="cls-3" d="M72.344,40.451l-.69,1.83c-.48-.93-.96-1.86-1.41-2.761.69.3,1.41.6,2.1.93" transform="translate(140.526 79.064)"/>
    <path id="Path_2548" data-name="Path 2548" class="cls-3" d="M83.172,35.591v.42c-1.35.21-2.7.48-3.991.75-1.59.36-3.151.78-4.681,1.23q-1.845.54-3.6,1.17c-1.11.39-2.19.81-3.271,1.29-.3.12-.6.24-.93.39-.87.39-1.74.81-2.58,1.23-1.32.66-2.61,1.38-3.871,2.13q-1.62.99-3.151,2.07a31.814,31.814,0,0,0-2.76,2.1A45.893,45.893,0,0,0,48.1,54.434l-1.17,1.44a17.162,17.162,0,0,0-1.11,1.47q-1.08,1.485-2.07,3.061c-.33.51-.63,1.05-.93,1.59-.57,1.08-1.14,2.19-1.65,3.3-.24.54-.48,1.05-.69,1.59a1.065,1.065,0,0,0-.12.27c-.42,1.11-.84,2.19-1.2,3.331,5.491-18.093,21.514-31.206,44.018-34.9" transform="translate(78.329 71.201)"/>
    <path id="Path_2549" data-name="Path 2549" class="cls-3" d="M132.47,149.069a44.762,44.762,0,0,0,.21-4.5c0-27.245-15.933-43.178-47.5-56.05C58.536,77.476,47.194,69.525,47.194,53.592a22.056,22.056,0,0,1,.33-3.961,27.516,27.516,0,0,0-.24,3.481c0,15.933,11.312,23.914,37.987,34.926,31.566,12.872,47.469,28.805,47.469,56.08a45.618,45.618,0,0,1-.27,4.951" transform="translate(94.414 99.289)"/>
    <path id="Path_2550" data-name="Path 2550" class="cls-3" d="M59.634,98.621v31.446h-.09V98.651a.11.11,0,0,0,.09-.03" transform="translate(119.121 197.296)"/>
    <path id="Path_2551" data-name="Path 2551" class="cls-3" d="M38.154,93.8l-.57,1.56c-.03,0-.03-.03-.06-.03l.57-1.56c.03,0,.06,0,.06.03" transform="translate(75.069 187.593)"/>
    <path id="Path_2552" data-name="Path 2552" class="cls-3" d="M82.927,43l-.18.45a72.107,72.107,0,0,0-13.682-6.241,5.946,5.946,0,0,0-.33-.6A74.131,74.131,0,0,1,82.927,43" transform="translate(137.506 73.242)"/>
    <path id="Path_2553" data-name="Path 2553" class="cls-3" d="M104.486,136.951C77.841,125.909,66.5,117.958,66.5,102.025a22.056,22.056,0,0,1,.33-3.961c.09-.63.18-1.23.33-1.86,2.28-10.652,11.7-21,31.9-21a74.382,74.382,0,0,1,38.617,10.412l3.031-8.041,4.441-11.732A72.107,72.107,0,0,0,131.461,59.6a91.314,91.314,0,0,0-26.045-4.471V25.421H86.483V55.907a.11.11,0,0,0-.09.03v.42c-1.35.21-2.7.48-3.991.75-1.59.36-3.151.78-4.681,1.23q-1.845.54-3.6,1.17c-1.11.39-2.19.81-3.271,1.29-.3.12-.6.24-.93.39-.87.39-1.74.81-2.58,1.23-1.32.66-2.61,1.38-3.871,2.13q-1.62.99-3.151,2.07a31.816,31.816,0,0,0-2.76,2.1,45.893,45.893,0,0,0-6.241,6.061l-1.17,1.44a17.163,17.163,0,0,0-1.11,1.47q-1.08,1.485-2.07,3.061c-.33.51-.63,1.05-.93,1.59-.57,1.08-1.14,2.19-1.65,3.3-.24.54-.48,1.05-.69,1.59a1.065,1.065,0,0,0-.12.27c-.42,1.11-.84,2.19-1.2,3.331v.03c-.21.6-.36,1.2-.54,1.8-.15.6-.3,1.23-.45,1.86-.12.63-.27,1.29-.39,1.95a36.543,36.543,0,0,0-.57,4.051c-.15,1.56-.21,3.121-.21,4.711,0,26.645,19.324,40.747,50.559,52.99,22.684,9.212,34.626,19.624,34.626,36.457a27.348,27.348,0,0,1-.48,5.251,8.206,8.206,0,0,1-.3,1.44v.09c-3.331,13.832-16.863,23.254-35.677,23.254a81.586,81.586,0,0,1-44.108-13.172l-6.781,18.963c.03,0,.06,0,.06.03l-.57,1.56a53.7,53.7,0,0,0,7.621,4.471c10.742,5.251,25.145,8.732,39.187,8.972v30.966h19.2V245.091a.11.11,0,0,0,.09-.03v-.42c27.635-4.561,43.958-22.474,47.619-43.118a35.9,35.9,0,0,0,.51-4.021,44.766,44.766,0,0,0,.21-4.5c0-27.245-15.933-43.178-47.5-56.05m33.276-68.292-.69,1.83c-.48-.93-.96-1.86-1.41-2.761.69.3,1.41.6,2.1.93" transform="translate(75.109 50.856)"/>
  </g>
</svg>
