<?xml version="1.0" encoding="UTF-8"?>
<svg id="Layer_1" data-name="Layer 1" xmlns="http://www.w3.org/2000/svg" viewBox="0 0 43.2 43.2">
  <defs>
    <style>
      .cls-1 {
        fill: #000;
        stroke-width: 0px;
      }
    </style>
  </defs>
  <g id="ogPT7z.tif">
    <path class="cls-1" d="M36.82,35.96c.09,1.28.2,2.24.21,3.2.03,2.37-1.26,3.99-3.38,4-7.9.05-15.8.05-23.7,0-2.01-.01-3.35-1.6-3.38-3.85-.02-1.02.11-2.03.19-3.34-.99,0-1.95.02-2.9,0-2.54-.07-3.77-1.47-3.84-4.26-.09-3.64.4-7.04,3.49-9.13,1.4-.94,2.96-1.59,4.56-2.44-1.01-1.65-1.97-3.24-2.96-4.8-1.12-1.77-1.51-3.58-.51-5.6.24-.47.31-1.08.35-1.63.32-3.97,2.4-6.8,5.76-7.78,3.57-1.05,7.23.38,9.17,3.58,1.19,1.97,2.43,1.96,3.63-.03,1.85-3.06,5.21-4.42,8.74-3.53,3.3.83,5.48,3.49,5.99,7.19.13.99.47,1.95.72,2.92.43,1.63.27,3.16-.61,4.58-1.02,1.63-2.04,3.26-3.17,5.09,1.2.64,2.33,1.27,3.49,1.84,4.52,2.2,4.92,7.29,4.3,11.35-.25,1.66-1.53,2.54-3.08,2.63-.97.06-1.94.01-3.07.01ZM21.75,40.1c3.67,0,7.34.04,11-.04.51-.01,1.4-.5,1.47-.9.58-3.41-1.87-8.08-4.83-9.56-1.27-.63-2.47-1.43-3.74-2.03-.47-.22-1.09-.17-1.62-.1-1.16.16-2.43.86-3.42.51-1.7-.6-3.03-.35-4.35.8-.24.21-.54.35-.83.45-4,1.4-5.6,4.7-5.99,9.05-.12,1.38.21,1.86,1.47,1.84,3.62-.06,7.23-.02,10.85-.02ZM27.14,24.98c.73.42,1.52.98,2.37,1.33,2.67,1.11,4.75,2.93,6.06,5.79.38.84,3.95,1.19,4.53.48.13-.15.21-.4.22-.61.17-3.88-.32-6.18-3.58-7.66-1.61-.73-3.14-1.72-4.63-2.74-1.13-.78-1.02-1.74-.17-2.81,1.48-1.87,2.83-3.86,4.18-5.84.19-.27.22-.78.15-1.14-.26-1.35-.67-2.67-.87-4.03-.34-2.32-1.85-4.18-3.87-4.55-2.88-.54-4.89.47-5.98,3.11,3.49,1.64,3.44,5.5,4.52,8.76,1.4,4.24-1.99,6.4-2.92,9.92ZM17.78,6.05c-1.72-2.69-4.02-3.57-6.58-2.74-2.14.69-3.28,2.56-3.51,5.47-.07.91-.5,1.78-.65,2.69-.09.51-.13,1.21.11,1.57,1.33,2.01,2.72,3.98,4.18,5.88.86,1.12.9,2.03-.26,2.8-1.32.89-2.73,1.62-4.1,2.41-.78.45-1.62.79-2.32,1.34-1.42,1.11-2.65,5.2-1.69,6.68.46.71,2.09.49,3.18.68,1.11.2,1.75-.3,2.29-1.44,1.05-2.2,2.77-3.64,4.85-4.58.98-.44,1.92-1,2.7-1.42-.94-3.64-4.62-5.78-3.22-10.26,1.08-3.46,1.16-7.43,5.01-9.08ZM21.47,8.25c-2.91,0-4.89,1.74-5.28,4.62-.18,1.36.26,2.9-.91,4.02-.13.12-.04.7.11.96.95,1.75,1.81,3.59,2.95,5.19,1.95,2.75,4.24,2.78,6.19.06,1.14-1.59,2.02-3.42,2.96-5.18.16-.29.13-.78.05-1.14-.23-1.06-.67-2.09-.76-3.16-.29-3.44-2.13-5.37-5.29-5.37Z"/>
  </g>
</svg>