<?xml version="1.0" encoding="UTF-8"?>
<svg id="Layer_1" data-name="Layer 1" xmlns="http://www.w3.org/2000/svg" viewBox="0 0 43.2 43.2">
  <defs>
    <style>
      .cls-1 {
        fill: #000;
        stroke-width: 0px;
      }
    </style>
  </defs>
  <g id="Group_1699" data-name="Group 1699">
    <path id="Path_3161" data-name="Path 3161" class="cls-1" d="M31.42,23.27c0-1.44-.03-2.91,0-4.38-.15-1.6,1.03-3.01,2.63-3.16.18-.02.35-.02.53,0,1.8-.04,3.59-.04,5.39,0,2.04.04,3.19,1.11,3.2,3.12.03,7.08.03,14.16,0,21.25.15,1.55-.99,2.93-2.54,3.09-.17.02-.34.02-.52,0-7.13.03-14.27.03-21.4,0-1.55.09-2.88-1.09-2.98-2.64,0-.12,0-.24,0-.36-.06-1.91-.06-3.81,0-5.72-.08-1.59,1.14-2.95,2.74-3.04.13,0,.26,0,.38,0,.76-.03,1.52,0,2.29,0h2.42c0-1.65-.03-3.15,0-4.66-.16-1.6,1.02-3.03,2.62-3.18.17-.02.35-.02.52,0,1.47-.05,2.94-.04,4.41-.06.04,0,.08-.07.29-.24M35.5,19.72c-.06.13-.1.27-.13.41-.01,1.25-.01,2.5-.03,3.75-.02,2.55-1.03,3.58-3.54,3.6-1.4.01-2.79,0-4.3,0,0,1.6.02,3.01,0,4.41-.03,2.34-1.08,3.4-3.38,3.44-1.45.02-2.9,0-4.35,0v3.8h19.42v-19.41h-3.69Z"/>
    <path id="Path_3162" data-name="Path 3162" class="cls-1" d="M5.92.02c.98,0,1.96-.04,2.94,0,1.56-.05,2.87,1.18,2.91,2.75,0,.05,0,.1,0,.15.07,1.96.06,3.92,0,5.88.08,1.54-1.1,2.86-2.65,2.95-.07,0-.13,0-.2,0-2.02.07-4.03.07-6.05,0-1.53.03-2.79-1.18-2.82-2.7,0-.03,0-.07,0-.1C-.02,6.94-.02,4.92.05,2.91.02,1.34,1.27.05,2.83.02c.05,0,.1,0,.15,0,.98-.05,1.96,0,2.94,0M7.76,4.06h-3.73v3.72h3.73v-3.72Z"/>
    <path id="Path_3163" data-name="Path 3163" class="cls-1" d="M21.6,19.63c-.98,0-1.96.04-2.94-.01-1.56.04-2.87-1.19-2.91-2.75,0-.05,0-.1,0-.15-.07-1.96-.06-3.92,0-5.88-.08-1.54,1.11-2.86,2.65-2.94.07,0,.14,0,.21,0,2.02-.07,4.03-.07,6.05,0,1.53-.03,2.79,1.18,2.82,2.7,0,.03,0,.07,0,.1.08,2.02.07,4.03,0,6.05.03,1.56-1.21,2.85-2.77,2.88-.05,0-.11,0-.16,0-.98.05-1.96,0-2.94,0M23.5,11.88h-3.74v3.72h3.74v-3.72Z"/>
    <path id="Path_3164" data-name="Path 3164" class="cls-1" d="M13.76,25.58c0,.87.02,1.74,0,2.62-.06,2.04-1.12,3.16-3.11,3.21-1.85.05-3.7.05-5.56,0-1.58.12-2.96-1.06-3.08-2.64-.01-.14-.01-.29,0-.43-.05-1.85-.05-3.71,0-5.56-.13-1.6,1.05-3,2.65-3.13.18-.01.36-.01.54,0,1.74-.04,3.49-.03,5.23,0,2.23.03,3.29,1.1,3.34,3.32.02.87,0,1.74,0,2.62M5.99,27.4h3.74v-3.72h-3.74v3.72Z"/>
  </g>
</svg>