<?xml version="1.0" encoding="UTF-8"?>
<svg id="Layer_1" data-name="Layer 1" xmlns="http://www.w3.org/2000/svg" viewBox="0 0 43.19 43.2">
  <defs>
    <style>
      .cls-1 {
        fill: #000;
        stroke-width: 0px;
      }
    </style>
  </defs>
  <g id="Group_1674" data-name="Group 1674">
    <path id="Path_3055" data-name="Path 3055" class="cls-1" d="M23.06,33.62c0,2.08-.06,3.98.06,5.86.02.31.82.79,1.27.81,1.95.09,3.91.04,5.87.04,1.02,0,1.82.31,1.79,1.5-.03,1.08-.79,1.37-1.74,1.37H12.88c-.95,0-1.7-.32-1.72-1.39-.02-1.18.8-1.47,1.81-1.47,1.9,0,3.81-.06,5.71.02,1.2.05,1.57-.41,1.52-1.56-.07-1.66-.02-3.33-.02-5.17-3.34,0-6.46.07-9.58-.02-1.79-.04-3.56-.23-5.32-.58-2.47-.41-4.39-2.38-4.75-4.86C.18,25.96.02,23.74.04,21.51-.01,17.04-.03,12.56.12,8.09.3,2.79,2.78.37,8.05.1c1.73-.09,3.47-.07,5.2-.08.95,0,1.68.35,1.67,1.43,0,1.08-.73,1.4-1.68,1.43-2.01.07-4.03.06-6.03.24-2.61.24-3.95,1.44-4.06,4.04-.21,4.64-.21,9.28-.21,13.92,0,.36.65.76,1.06,1.07.14.11.43.02.66.02,11.3,0,22.61,0,33.91,0,.92,0,1.76.1,1.93-1.24.05-.38.97-.91,1.49-.9.4,0,1.15.77,1.12,1.15-.18,2.76-.19,5.6-.9,8.24s-3.16,3.73-5.75,3.89c-3.74.23-7.49.21-11.23.3-.65.01-1.31,0-2.16,0M40,25.17H3.22c-.35,3.16.84,4.79,3.81,5.25,1.1.17,2.22.25,3.33.26,5.53.03,11.07.04,16.6,0,3.07-.02,6.15,0,9.2-.29,3-.29,4.16-2.03,3.83-5.22"/>
    <path id="Path_3056" data-name="Path 3056" class="cls-1" d="M38.3,14.47c-1.33,2.67-3.48,3.45-6.18,3.35-2.63-.09-5.26,0-7.89-.03-3.72-.04-5.58-1.91-5.6-5.6-.01-2.07-.01-4.14,0-6.21.03-3.7,2.24-5.91,5.98-5.94,2.46-.02,4.93.08,7.39-.03,2.74-.13,4.99.54,6.27,3.24.51-.19.91-.36,1.33-.5,1.75-.6,3.35.17,3.47,1.99.17,2.79.17,5.58,0,8.37-.1,1.62-1.66,2.45-3.23,2-.52-.19-1.03-.41-1.53-.65M28.32,14.87h0c1.62,0,3.24.03,4.85-.02,1.56-.05,2.46-.9,2.48-2.36.04-2.4.03-4.8,0-7.2.13-1.15-.7-2.18-1.85-2.3-.09-.01-.19-.01-.28-.01-3.12-.07-6.25-.08-9.37,0-1.66.04-2.53,1.02-2.56,2.69-.05,2.29,0,4.58-.01,6.86,0,1.61.85,2.33,2.4,2.33h4.35M40.26,5.88c-2.47,1.03-1.37,2.97-1.5,4.45-.04.48.74,1.03,1.14,1.55l.35-.27v-5.72Z"/>
  </g>
</svg>