<?xml version="1.0" encoding="UTF-8"?>
<svg id="Layer_1" data-name="Layer 1" xmlns="http://www.w3.org/2000/svg" viewBox="0 0 43.2 43.2">
  <defs>
    <style>
      .cls-1 {
        fill: #000;
        stroke-width: 0px;
      }
    </style>
  </defs>
  <g id="pbWPVA.tif">
    <g>
      <path class="cls-1" d="M43.2,43.2H.08c-.03-.62-.07-1.17-.07-1.73C0,29.06,0,16.65,0,4.24,0,.99.96,0,4.14,0,11.74,0,19.33,0,26.93,0c2.87,0,3.92,1.06,3.93,3.93,0,3.77,0,7.53,0,11.52,2.88,0,5.66,0,8.43,0,2.85,0,3.9,1.07,3.91,3.95,0,7.44,0,14.87,0,22.31v1.48ZM3.16,40.06h24.47V3.18H3.16v36.87ZM39.99,40.1v-21.42h-9.05v21.42h9.05Z"/>
      <path class="cls-1" d="M12.22,15.39h-2.87v-6.03h2.87v6.03Z"/>
      <path class="cls-1" d="M21.46,15.39h-2.84v-6.03h2.84v6.03Z"/>
      <path class="cls-1" d="M9.33,24.64v-5.97h2.91v5.97h-2.91Z"/>
      <path class="cls-1" d="M21.49,24.7h-2.85v-6.03h2.85v6.03Z"/>
      <path class="cls-1" d="M12.27,27.91v5.97h-2.91v-5.97h2.91Z"/>
      <path class="cls-1" d="M21.54,27.89v6h-2.93v-6h2.93Z"/>
    </g>
  </g>
</svg>