<?xml version="1.0" encoding="UTF-8"?>
<svg id="Layer_1" data-name="Layer 1" xmlns="http://www.w3.org/2000/svg" viewBox="0 0 43.2 43.2">
  <defs>
    <style>
      .cls-1 {
        fill: #000;
        stroke-width: 0px;
      }
    </style>
  </defs>
  <g id="Group_1666" data-name="Group 1666">
    <g id="Group_1665" data-name="Group 1665">
      <path id="Path_3040" data-name="Path 3040" class="cls-1" d="M43,41.16c-.26.27-.68.27-.94,0,0,0,0,0,0,0l-16.94-17.76c-.28-.06-.56-.15-.83-.27-2.17-.86-3.92-2.57-4.89-4.78-.48.23-.89.43-1.78.86,1.42,1.55,2.67,2.9,3.91,4.27.35.39.92.82.91,1.22-.06,1.54.86,2.4,1.75,3.34,2.74,2.98,4.89,6.51,6.32,10.37,1.85-.64,3.62-1.34,5.45-1.81.3-.08.83.86,1.14,1.21-2.57,1.8-5.05,3.54-7.69,5.39-.31-.61-.7-1.37-1.07-2.13-.55-1.14-1.11-2.27-1.62-3.42-1.35-3.06-3.13-5.51-6.53-6.36-1.44-.37-2.74-1.4-4.05-2.21-3.89-2.38-3.96-5.49-2.12-8.88,1.02-1.7,2.31-3.2,3.81-4.45l-1.19-1.26c-.58.46-1.14.95-1.68,1.44-1.67,1.51-3.12,3.29-4.79,4.81-1.74,1.59-2.72,1.44-4.33-.31-3.26-3.26-3.8-8.52-1.27-12.43.73-1.26,1.61-2.4,2.63-3.41L3.96,1.19c-.23-.24-.26-.63-.07-.91.02-.03.04-.05.06-.07.26-.27.68-.27.94,0,0,0,0,0,0,0l12.85,13.48,1.1,1.16,8.22,8.63,15.93,16.71c.26.27.26.71,0,.98h0"/>
      <path id="Path_3041" data-name="Path 3041" class="cls-1" d="M25.76,14.98L13.02,1.62c.1-.02.19-.04.29-.05,3.44-.48,6.29.67,8.21,3.73,1.01,1.68,1.88,3.45,2.59,5.29.58,1.44,1.12,2.92,1.64,4.39"/>
      <path id="Path_3042" data-name="Path 3042" class="cls-1" d="M10.45,30.54l2.05-2.52,4.98,3.9c-2.66.84-4.92,1.63-7.23,2.22-.65.02-1.27-.29-1.66-.83-.98-1.5-1.78-3.12-2.4-4.82-.53-1.63-1.32-2.16-2.87-1.89-1.1.13-2.2.19-3.3.19.08-.84.15-1.53.2-2.1l7.01-.89,3.23,6.74"/>
      <path id="Path_3043" data-name="Path 3043" class="cls-1" d="M31.37,16.31c-.67.58-1.45,1-2.29,1.25-.26.15-.58.05-.72-.21-.01-.02-.02-.04-.03-.07l-1.04-2.72-.11-.29c-.53-1.57.1-3.31,1.48-4.12,1.38-.65,2.51-.73,3.34-.23.84.59,1.36,1.57,1.4,2.63.11,1.91-1.42,3.23-2.03,3.75"/>
    </g>
  </g>
</svg>