<?xml version="1.0" encoding="UTF-8"?>
<svg id="Layer_1" data-name="Layer 1" xmlns="http://www.w3.org/2000/svg" viewBox="0 0 43.2 43.21">
  <defs>
    <style>
      .cls-1 {
        fill: #000;
        stroke-width: 0px;
      }
    </style>
  </defs>
  <g id="Group_1656" data-name="Group 1656">
    <g id="Group_1655" data-name="Group 1655">
      <path id="Path_3018" data-name="Path 3018" class="cls-1" d="M41.71,43.21H1.43c-.7.07-1.33-.37-1.43-.97v-22.81c.1-.61.73-1.04,1.43-.97h40.28c.7-.07,1.33.37,1.43.97v22.81c-.1.61-.73,1.04-1.43.97M2.86,41.26h37.42v-20.86H2.86v20.86ZM28.21,29.43h-13.2c-.7.07-1.33-.37-1.43-.97v-4.48c.1-.61.73-1.04,1.43-.97h13.2c.7-.07,1.33.37,1.43.97v4.48c-.1.61-.73,1.04-1.43.97M16.44,27.48h10.34v-2.54h-10.34v2.54Z"/>
      <path id="Path_3019" data-name="Path 3019" class="cls-1" d="M41.77,17.07H1.47c-.7.07-1.33-.37-1.43-.97v-2.99c.1-.61.73-1.04,1.43-.97h40.29c.7-.07,1.33.37,1.43.97v2.99c-.1.61-.73,1.04-1.43.97M2.91,15.12h37.43v-1.04H2.91v1.04Z"/>
      <path id="Path_3020" data-name="Path 3020" class="cls-1" d="M41.77,10.96H1.47c-.7.07-1.33-.37-1.43-.97v-2.99c.1-.61.73-1.04,1.43-.97h40.29c.7-.07,1.33.37,1.43.97v2.99c-.1.61-.73,1.04-1.43.97M2.91,9.01h37.43v-1.04H2.91v1.04Z"/>
      <path id="Path_3021" data-name="Path 3021" class="cls-1" d="M41.77,4.95H1.47c-.7.07-1.33-.37-1.43-.97V.98C.14.37.77-.06,1.47,0h40.29c.7-.07,1.33.37,1.43.97v2.99c-.1.61-.73,1.04-1.43.97M2.91,3h37.43v-1.04H2.91v1.04Z"/>
    </g>
  </g>
</svg>