<?xml version="1.0" encoding="UTF-8"?>
<svg id="Layer_1" data-name="Layer 1" xmlns="http://www.w3.org/2000/svg" viewBox="0 0 43.2 43.2">
  <defs>
    <style>
      .cls-1 {
        fill: #000;
        stroke-width: 0px;
      }
    </style>
  </defs>
  <path class="cls-1" d="M43.2,15.95c0-1.47-.75-2.1-2.22-2.08-3.3.04-6.6.02-9.9,0-.45,0-.91-.1-1.65-.19.88-1.16,1.64-2.05,2.26-3.03.29-.47.58-1.23.39-1.63-.19-.4-.97-.65-1.52-.71-1.07-.11-2.17-.03-3.36-.03,0-2.34-.06-4.32.02-6.3.06-1.47-.6-1.99-2-1.97-2.37.04-4.73.05-7.1,0-1.49-.03-2.16.53-2.1,2.08.09,2.01.02,4.02.02,6.19-1.23,0-2.17-.09-3.08.03-.67.09-1.51.3-1.87.77-.22.29.21,1.22.54,1.75.58.93,1.3,1.76,2.28,3.06-4.29,0-8.02.02-11.74-.01C.69,13.86,0,14.52,0,15.98c0,8.36,0,16.71,0,25.07,0,1.46.73,2.15,2.19,2.15,12.95,0,25.9,0,38.85,0,1.48,0,2.16-.75,2.16-2.18,0-8.36,0-16.71,0-25.07ZM18.55,6.33v-3.79h6.16c0,1.81,0,3.58,0,5.34,0,2.61.02,2.62,2.69,2.78.23.01.46.08,1.04.19-2.31,3.04-4.48,5.89-6.84,8.99-2.35-3.08-4.52-5.93-6.77-8.87q3.72-.82,3.72-4.64ZM5.59,16.43c3.1,0,6.2-.05,9.3.04.56.02,1.23.51,1.62.97,1.31,1.57,2.5,3.23,3.75,4.85.9,1.18,1.81,1.18,2.71,0,1.24-1.62,2.45-3.27,3.74-4.86.35-.43.95-.94,1.44-.95,3.16-.09,6.32-.04,9.69.35-5.37,4.6-10.73,9.2-16.3,13.98-5.41-4.67-10.77-9.29-16.12-13.92.06-.15.12-.3.19-.46ZM2.67,18.04c2.99,2.58,5.73,4.94,8.79,7.58-2.82,3.89-5.64,7.79-8.79,12.15v-19.73ZM3.97,40.47c3.26-4.5,6.34-8.74,9.49-13.1,2.04,1.75,3.9,3.38,5.79,4.97,1.84,1.56,2.87,1.55,4.73-.02,1.88-1.59,3.74-3.22,5.76-4.95,3.17,4.37,6.24,8.62,9.49,13.1H3.97ZM40.53,37.74c-3.1-4.28-5.88-8.12-8.78-12.13,2.89-2.49,5.71-4.92,8.78-7.57v19.7Z"/>
</svg>