<?xml version="1.0" encoding="UTF-8"?>
<svg id="Layer_1" data-name="Layer 1" xmlns="http://www.w3.org/2000/svg" viewBox="0 0 43.2 43.19">
  <defs>
    <style>
      .cls-1 {
        fill: #000;
        stroke-width: 0px;
      }
    </style>
  </defs>
  <g id="Group_1663" data-name="Group 1663">
    <path id="Path_3038" data-name="Path 3038" class="cls-1" d="M11.95,4.53c1.68.39,3.17-.47,4.5-1.8.47-.47,1-.9,1.51-1.33,2.1-1.86,5.25-1.86,7.36-.02.53.41,1.03.85,1.5,1.33,1.27,1.36,3.09,2.05,4.94,1.87,5.03-.13,6.99,1.81,6.87,6.79-.05,2.04.4,3.72,1.92,5.1.49.46.93.96,1.34,1.49,1.69,2.07,1.73,5.03.1,7.14-.2.27-.42.52-.67.75-2.14,1.85-2.9,4.12-2.72,6.99.22,3.52-2.18,5.77-5.68,5.82-.61.03-1.23.03-1.84-.01-1.41-.17-2.81.36-3.77,1.41-.63.63-1.31,1.22-2,1.78-2.13,1.81-5.26,1.8-7.38-.02-.36-.27-.69-.57-1-.89-1.63-1.88-3.65-2.43-6.12-2.32-4.19.18-6.39-2.03-6.21-6.24.15-2.29-.69-4.53-2.31-6.15-3.11-3.37-3.07-5.77-.02-9.24,1.41-1.6,2.42-3.14,2.34-5.47-.18-5.23,1.73-6.99,7.31-6.99M40.57,21.49c-.44-.83-.97-1.62-1.58-2.34-2.44-2.14-3.67-5.33-3.3-8.55.21-2.25-.83-3.28-3.11-3.07-3.15.34-6.27-.85-8.41-3.2-1.95-1.96-3.08-1.97-5-.06-2.17,2.39-5.35,3.6-8.56,3.25-2.26-.22-3.26.81-3.06,3.1.33,3.16-.84,6.29-3.17,8.45-1.99,2.02-1.96,3.07.04,5.14,2.27,2.35,3.44,4.95,3.13,8.29-.22,2.41.76,3.39,3.14,3.18,3.15-.33,6.27.86,8.41,3.21,2,2.01,3.07,1.99,5.11-.02,2.33-2.28,4.9-3.65,8.24-3.15.22.02.45.02.67,0,1.35.08,2.51-.94,2.6-2.3,0-.12,0-.23,0-.35.03-.78.04-1.57,0-2.35-.13-1.81.51-3.59,1.78-4.89.7-.73,1.35-1.49,1.95-2.3.41-.66.78-1.34,1.1-2.04"/>
    <path id="Path_3039" data-name="Path 3039" class="cls-1" d="M19.12,24.45l7.56-7.55c.36-.36.71-.71,1.07-1.06.7-.69,1.59-.92,2.14-.07.32.65.29,1.41-.08,2.03-3.11,3.28-6.3,6.48-9.58,9.6-.68.34-1.48.31-2.13-.08-1.65-1.42-3.19-2.97-4.6-4.62-.37-.43-.16-1.36-.21-2.06.75.02,1.73-.27,2.19.11,1.29,1.16,2.5,2.39,3.64,3.7"/>
  </g>
</svg>