<?xml version="1.0" encoding="UTF-8"?>
<svg id="Layer_1" data-name="Layer 1" xmlns="http://www.w3.org/2000/svg" viewBox="0 0 43.2 43.2">
  <defs>
    <style>
      .cls-1 {
        fill: #000;
        stroke-width: 0px;
      }
    </style>
  </defs>
  <g id="JszAoP.tif">
    <g>
      <path class="cls-1" d="M6.2,0c3.4.01,6.17,2.82,6.14,6.23-.03,3.38-2.88,6.15-6.28,6.09C2.73,12.27,0,9.51,0,6.18,0,2.78,2.8-.01,6.2,0ZM6.2,9.22c1.66-.02,3.05-1.4,3.06-3.04,0-1.65-1.36-3.04-3.02-3.08-1.72-.04-3.18,1.42-3.14,3.13.04,1.64,1.45,3.01,3.11,2.99Z"/>
      <path class="cls-1" d="M27.77,6.18c0,3.39-2.83,6.18-6.23,6.15-3.4-.03-6.15-2.85-6.11-6.26C15.47,2.75,18.24.02,21.58,0c3.4-.02,6.2,2.78,6.2,6.18ZM21.59,3.1c-1.65,0-3.05,1.38-3.07,3.02-.02,1.64,1.34,3.05,3,3.1,1.72.05,3.19-1.4,3.16-3.11-.03-1.65-1.43-3.01-3.09-3.01Z"/>
      <path class="cls-1" d="M36.95,12.33c-3.4-.04-6.14-2.86-6.09-6.28C30.91,2.67,33.79-.09,37.19,0c3.33.09,6.02,2.86,6.01,6.2-.01,3.39-2.84,6.17-6.25,6.13ZM37.09,9.22c1.66-.03,3.03-1.43,3.02-3.07,0-1.65-1.39-3.03-3.05-3.04-1.72-.02-3.17,1.45-3.11,3.16.05,1.64,1.49,2.99,3.14,2.96Z"/>
      <path class="cls-1" d="M12.34,21.56c.01,3.4-2.77,6.2-6.18,6.2C2.76,27.76-.02,24.96,0,21.55c.02-3.32,2.75-6.07,6.09-6.11,3.4-.04,6.24,2.73,6.25,6.13ZM6.23,24.66c1.66-.03,3.03-1.43,3.02-3.07,0-1.65-1.39-3.03-3.05-3.04-1.72-.02-3.17,1.45-3.11,3.16.05,1.64,1.49,2.99,3.14,2.96Z"/>
      <path class="cls-1" d="M27.77,21.67c-.03,3.38-2.89,6.15-6.29,6.09-3.4-.06-6.11-2.9-6.05-6.32.06-3.3,2.87-6.02,6.2-6,3.4.02,6.17,2.83,6.14,6.24ZM21.6,24.66c1.66,0,3.06-1.36,3.09-3.01.03-1.64-1.33-3.05-2.99-3.11-1.72-.06-3.19,1.39-3.17,3.1.02,1.64,1.42,3.02,3.08,3.02Z"/>
      <path class="cls-1" d="M43.2,21.64c-.02,3.39-2.85,6.17-6.25,6.12-3.4-.05-6.13-2.87-6.09-6.29.05-3.31,2.83-6.03,6.17-6.04,3.4,0,6.19,2.8,6.17,6.2ZM40.11,21.55c-.03-1.65-1.43-3.01-3.09-3.01-1.66,0-3.05,1.38-3.08,3.02-.02,1.71,1.46,3.15,3.17,3.1,1.66-.06,3.02-1.46,2.99-3.11Z"/>
      <path class="cls-1" d="M12.34,37.05c0,3.39-2.82,6.18-6.22,6.15C2.72,43.17-.03,40.36,0,36.94c.03-3.31,2.8-6.05,6.14-6.07,3.4-.02,6.21,2.78,6.21,6.17ZM9.25,37.1c.03-1.64-1.32-3.06-2.98-3.12-1.64-.06-3.1,1.27-3.18,2.91-.08,1.71,1.34,3.19,3.06,3.2,1.65.01,3.07-1.35,3.1-3Z"/>
      <path class="cls-1" d="M21.58,43.2c-3.4-.02-6.17-2.82-6.14-6.23.03-3.39,2.88-6.15,6.28-6.09,3.33.06,6.05,2.82,6.06,6.15,0,3.4-2.8,6.19-6.2,6.18ZM21.57,40.1c1.65.02,3.07-1.34,3.11-2.99.04-1.64-1.31-3.06-2.97-3.13-1.71-.07-3.2,1.36-3.19,3.07,0,1.65,1.39,3.03,3.05,3.04Z"/>
      <path class="cls-1" d="M37.06,43.2c-3.4.01-6.2-2.78-6.2-6.18,0-3.4,2.82-6.18,6.23-6.15,3.33.03,6.09,2.78,6.11,6.09.03,3.41-2.74,6.22-6.14,6.23ZM40.11,37.12c.04-1.64-1.3-3.06-2.96-3.14-1.64-.07-3.11,1.26-3.2,2.89-.09,1.71,1.31,3.2,3.04,3.22,1.65.02,3.07-1.34,3.12-2.98Z"/>
    </g>
  </g>
</svg>