<?xml version="1.0" encoding="UTF-8"?>
<svg id="Layer_1" data-name="Layer 1" xmlns="http://www.w3.org/2000/svg" viewBox="0 0 43.2 43.2">
  <defs>
    <style>
      .cls-1 {
        fill: #000;
        stroke-width: 0px;
      }
    </style>
  </defs>
  <g id="Group_1623" data-name="Group 1623">
    <g id="Group_1622" data-name="Group 1622">
      <path id="Path_2863" data-name="Path 2863" class="cls-1" d="M21.69,19.48v2.16h1.88c4.91,0,9.83-.02,14.74,0,3.17.01,4.84,1.72,4.87,4.93.02,2.58.04,5.17,0,7.75.17,2.38-1.62,4.45-4,4.62-.21.01-.41.01-.62,0-5.57.04-11.13.01-16.8.01-.38,1.76.44,4.45-2.54,4.23-2.39-.18-1.84-2.38-1.97-4.23-1.72.09-3.44.07-5.15-.05-1.57-.19-3.1-.62-4.54-1.27-1.71-.86-3.36-1.84-4.94-2.94-3.45-2.23-3.49-6.52-.06-8.75,1.96-1.27,3.96-2.49,6.01-3.59.85-.42,1.78-.65,2.73-.68,1.91-.1,3.82-.03,5.9-.03l.1-2.16H5.91C1.37,19.48.02,18.13.02,13.6.02,11.49.01,9.39.02,7.29.04,3.85,1.66,2.19,5.06,2.18c4.01-.01,8.02,0,11.99,0,1.41-2.77,2.67-2.86,4.54-.47.38.32.87.48,1.36.45,2.88.04,5.76-.07,8.63.06,1.24.08,2.44.41,3.55.97,1.85.98,3.66,2.05,5.4,3.21,3.55,2.27,3.56,6.58.02,8.84-1.87,1.2-3.74,2.39-5.7,3.41-.95.48-1.99.75-3.05.79-3.34.1-6.68.04-10.1.04M39.49,10.99c-1.25-.85-2-1.3-2.68-1.83-2.74-2.05-6.13-3.02-9.53-2.73-7,.23-14.01.07-21.01.07h-1.83v8.65h2.04c7.96,0,15.93-.04,23.89.02,3.63.03,5.71-2.76,9.12-4.18M38.72,34.63v-8.65h-2.02c-7.96,0-15.93.03-23.89-.01-3.61-.02-5.73,2.71-8.61,4.32,2.16,1.56,4.4,2.99,6.72,4.3.23.07.47.09.71.05h27.09"/>
    </g>
  </g>
</svg>