<?xml version="1.0" encoding="UTF-8"?>
<svg id="Layer_1" data-name="Layer 1" xmlns="http://www.w3.org/2000/svg" viewBox="0 0 43.22 43.2">
  <defs>
    <style>
      .cls-1 {
        fill: #000;
        stroke-width: 0px;
      }
    </style>
  </defs>
  <g id="Group_1659" data-name="Group 1659">
    <path id="Path_3023" data-name="Path 3023" class="cls-1" d="M43.07,15.38c0,2.04-.09,4.09.02,6.12.27,4.81-1.94,8.93-5.72,12.63-3.6,3.49-8.08,6.38-13.17,8.49-1.46.73-3.34.76-4.83.07-7.94-3.38-14.23-7.98-17.77-14.5-.88-1.73-1.36-3.56-1.41-5.42C-.03,17.49-.04,12.21.07,6.93c.12-.91.73-1.73,1.69-2.26,13.1-6.19,26.3-6.19,39.54-.19,1.28.49,2.04,1.53,1.91,2.62-.11,2.76-.03,5.52-.03,8.28h-.09M38.88,15.9h.06c0-2.46.09-4.93-.06-7.38-.05-.72-.5-1.4-1.24-1.84-10.58-4.48-21.21-4.58-31.88-.11-1.08.37-1.72,1.23-1.58,2.13.09,4.14.23,8.29.06,12.43-.15,3.94,1.62,7.79,4.96,10.78,1.86,1.85,4.01,3.51,6.4,4.96,7.06,4.03,5.33,3.92,11.95.15,7.36-4.2,12.18-9.6,11.33-17.14-.15-1.31-.02-2.64-.02-3.96"/>
    <path id="Path_3024" data-name="Path 3024" class="cls-1" d="M33.06,14.77c-.02,1.6-1.34,2.29-2.58,1.71-1.05-.5-2.05-1.13-3.12-1.57-4.2-1.81-9.04-1.57-13.04.64-.39.19-.76.4-1.12.63-.98.66-1.97.93-2.74-.19-.86-1.25.03-2.01,1.03-2.61,4.58-2.75,9.5-3.75,14.73-2.27,1.93.63,3.79,1.43,5.57,2.4.59.29.97.96,1.26,1.26"/>
    <path id="Path_3025" data-name="Path 3025" class="cls-1" d="M21.54,16.05c3.17.19,6.2,1.32,8.69,3.24.88.67,1.33,1.51.57,2.47-.76.95-1.69.78-2.6.1-4.47-3.3-8.92-3.41-13.36.08-.85.67-1.9.75-2.38-.19-.28-.77-.15-1.62.35-2.28,2.38-2.13,5.49-3.35,8.73-3.42"/>
    <path id="Path_3026" data-name="Path 3026" class="cls-1" d="M21.4,21.24c1.98.79,3.91,1.68,5.79,2.67.47.28.35,1.5.51,2.29-.77.1-1.79.55-2.28.24-2.63-1.71-5.07-1.94-7.7.02-.74.26-1.56.12-2.16-.36-.29-.71-.17-1.52.31-2.12,1.79-1.01,3.64-1.93,5.53-2.74"/>
    <path id="Path_3027" data-name="Path 3027" class="cls-1" d="M21.55,31.13c-1.26,0-2.27-1-2.26-2.22,0-.04,0-.07,0-.11-.02-1.18.95-2.15,2.16-2.17.02,0,.05,0,.07,0,1.27-.04,2.32.93,2.36,2.16,0,.03,0,.05,0,.08,0,1.25-1.03,2.26-2.31,2.27-.01,0-.02,0-.03,0"/>
  </g>
</svg>