<?xml version="1.0" encoding="UTF-8"?>
<svg id="Layer_1" data-name="Layer 1" xmlns="http://www.w3.org/2000/svg" viewBox="0 0 43.2 43.2">
  <defs>
    <style>
      .cls-1 {
        fill: #000;
        stroke-width: 0px;
      }
    </style>
  </defs>
  <g id="Group_1608" data-name="Group 1608">
    <g id="Group_1607" data-name="Group 1607">
      <path id="Path_2822" data-name="Path 2822" class="cls-1" d="M34.72,36.48c-.02,1.58-.03,3.16-.06,4.73-.03,1.43-.57,1.97-2.07,1.97-9.35.01-18.69.01-28.04,0-1.51,0-2.01-.5-2.1-1.96-.03-.49.02-.93-.7-1.1-1.47-.34-1.72-.71-1.73-2.22C.02,34.87.03,31.82.03,28.78c0-6.88.01-13.76-.02-20.64-.04-.94.36-1.85,1.09-2.48,1.73-1.58,3.4-3.21,5.07-4.86C6.66.27,7.38-.02,8.13,0,15.48.02,22.84,0,30.19.01c1.4,0,1.98.55,2.02,1.91.02.62.09,1.11.88,1.2,1.27.15,1.63.98,1.63,2.09-.01,3.5,0,6.99,0,10.49-.02,4.13-.06,8.27-.09,12.4-.51-.09-.97-.37-1.28-.77.03-.15.04-.3.05-.45,0-7.14,0-14.28,0-21.41,0-.15,0-.3-.02-.45.01-.31-.24-.57-.57-.58,0,0-.02,0-.03,0-.39,0-.54.25-.54.59,0,.3,0,.6,0,.9,0,6.99-.01,13.98-.02,20.97-.54-.03-1.03-.29-1.34-.71.02-3.38.06-6.76.07-10.15.01-4.51,0-9.02,0-13.53,0-.71-.08-1.24-1.05-1.23-7,.02-14,.02-21,0-.76,0-1.05.3-1.03,1.01.03,1.13.02,2.26,0,3.38.11.93-.58,1.77-1.55,1.88-.12.01-.25.02-.38,0-.9.01-1.8-.01-2.7,0-1.98.05-1.91-.35-1.91,1.8,0,8.91,0,17.82,0,26.73,0,3.4-.23,2.75,2.83,2.76,8.44.03,16.89,0,25.33.05,1.09,0,1.46-.3,1.39-1.34-.07-1.08,0-2.18,0-3.27.56-.17,1.16.1,1.38.63-.02,1.13-.04,2.25-.04,3.38,0,1.79-.05,1.85-1.89,1.85-8.44,0-16.88.01-25.33.02-.62,0-1.19,0-1.22.83-.03.8.43.93,1.11.93,9.11,0,18.21,0,27.32,0,.88,0,1.15-.35,1.13-1.16-.03-1.61.03-3.23.05-4.84.5.02.97.21,1.32.55M4.43,6.31c2.22-.02,2.12.25,2.12-1.93,0-.3,0-.6,0-.9,0-.26.07-.59-.21-.71s-.49.15-.67.33c-.59.55-1.18,1.09-1.73,1.67-.38.4-1.2.72-1,1.27.23.61,1.05.14,1.5.27"/>
      <path id="Path_2823" data-name="Path 2823" class="cls-1" d="M34.71,36.48c-.36-.33-.83-.53-1.32-.54-.1-.62-.36-1.08-1.12-1.02-.22-.52-.82-.8-1.38-.63-.03-.42-.28-.79-.66-.99-2.12-1.15-3.86-3.06-6.58-3.01-.15-.5-.44-.95-.84-1.3.08-.58-.31-.73-.78-.72-.49.01-.54.34-.44.72-.66.3-1.2.64-.54,1.41-1.04.88-.83,2.08-.92,3.21-.57.3-1.04.74-1.35,1.29h-2.07c-.36-1.16-1.57-1.02-2.41-1.45-1.3-1.01-2.89-1.54-4.29-2.38-1.94-1.18-2.05-3.18-.14-4.4.37-.23.74-.41.72-.91.49-.35,1.03-.66,1.2-1.29,1.12-.92,1.89-2.18,2.2-3.56.44-.21.7-.65.67-1.11,1.03-.87,1.68-2.08,1.82-3.39.25-.39.37-.84.36-1.3.26-.09.44-.33.44-.6.03-1.09.58-2.1,1.5-2.73.72-.11,1.45-.11,2.16,0,.29.4.7.7,1.17.88,1.92,1.07,3.87,2.1,5.76,3.23,1.14.61,1.55,1.98.92,3.08-.2.34-.49.63-.84.84-1.17.69-1.72,1.89-2.71,2.71-.39.23-.52.72-.3,1.1.26.35.72.51,1.15.4.94-.21,1.9.22,2.34,1.05.48.84,1.47,1.29,2.46,1.12.31.42.81.68,1.34.71.15.41.63.62,1.05.47.03-.01.06-.02.09-.04.31.41.77.68,1.28.77.82.99,2.12,1.22,3.16,1.84,1.15.69,2.42,1.21,3.57,1.9,1.69.86,2.34,2.88,1.45,4.51-.03.05-.06.11-.09.16-.95,1.65-3.12,2.25-4.84,1.33-.04-.02-.07-.04-.11-.06-.69-.34-1.35-.75-2.01-1.14-.33-.19-.62-.5-1.04-.17M24.08,21.92c-.08-.3-.3-.54-.59-.66-1.76-.98-3.53-1.93-5.27-2.92-.64-.37-.94-.03-1.21.42-1.09,1.82-2.15,3.66-3.26,5.46-.44.72-.18,1.06.49,1.41,1.58.82,3.15,1.66,4.67,2.56.79.47,1.25.36,1.69-.39,1.01-1.73,2.07-3.44,3.11-5.16.14-.23.24-.47.37-.72M41.84,34.28c-.02-.61-.79-1.22-1.71-1.71-3.55-1.9-7.22-3.55-10.81-5.37-1.25-.63-1.63-.02-2.14.83-.51.85-.74,1.48.37,2.13,2.49,1.47,4.9,3.06,7.37,4.57,1.18.73,2.39,1.41,3.65,2.02,1.6.77,3.31-.29,3.27-2.47M26.3,19.01c.75.01,1.2-.23,1.37-.82.19-.56-.08-1.18-.64-1.43-2.16-1.21-4.32-2.41-6.49-3.59-.54-.37-1.29-.25-1.67.27,0,0,0,0,0,.01-.63.8-.25,1.44.51,1.87,2.08,1.19,4.18,2.34,6.28,3.49.21.09.42.16.65.2M11.21,27.71c-.53-.08-1.06.19-1.28.67-.27.49-.13,1.09.34,1.42.48.32.98.61,1.5.86,1.76.96,3.52,1.91,5.29,2.86.47.31,1.11.24,1.49-.17.37-.35.46-.9.21-1.35-.19-.33-.49-.59-.85-.74-1.96-1.08-3.91-2.17-5.87-3.23-.26-.13-.54-.23-.82-.31M12.51,26.05c-.11.09-.29.16-.32.27-.09.36.23.51.47.69,1.83,1.34,4.01,2.08,5.93,3.27.25.15.63.31.81-.05.17-.34-.2-.53-.45-.68-1.98-1.11-3.97-2.21-5.96-3.31-.15-.07-.31-.14-.47-.2M18.44,16.32c-.1.06-.26.09-.28.17-.13.4.25.52.49.66,1.87,1.08,3.75,2.15,5.63,3.2.3.17.72.57.99.08.25-.45-.27-.64-.59-.81-1.9-1.02-3.8-2.03-5.71-3.04-.17-.09-.35-.17-.53-.26M24.78,29.18c.1-.04.2-.1.29-.18.79-.97,1.42-2.04,1.9-3.18.08-.18,0-.39-.19-.47-.23-.09-.49.01-.58.23-.62.96-1.23,1.91-1.79,2.89-.19.33-.15.66.38.72M23.25,27.41c.34.05.49-.19.61-.42.32-.61.96-1.11.82-1.87-.05-.25-.4-.32-.69-.25-.65.52-1.1,1.23-1.28,2.02.04.26.26.47.54.51"/>
      <path id="Path_2824" data-name="Path 2824" class="cls-1" d="M6.9,11.59v.06c.54-.03,1.09-.03,1.63-.09.33-.04.61-.2.57-.59-.02-.28-.26-.49-.55-.5-1.09-.12-2.18-.11-3.27.01-.29,0-.52.24-.52.52,0,.31.26.57.59.57,0,0,.01,0,.02,0,.5.04,1.01.01,1.52.01M5.86,24.41c-.47.03-1.07-.05-1.11.56-.03.66.57.71,1.09.71s1.11-.07,1.09-.71c-.02-.63-.64-.51-1.07-.56M5.89,30.41c.49-.03,1.05-.08,1.04-.65-.02-.65-.62-.65-1.14-.65s-1.04.07-1.03.65c.01.66.64.63,1.13.66M6.06,35.02c.28-.03.83-.04.81-.64-.02-.59-.57-.6-1.04-.6s-1.02.02-.99.63c.03.57.55.62,1.23.61"/>
      <path id="Path_2825" data-name="Path 2825" class="cls-1" d="M16.44,16.42l-9.7-.04c-.23,0-.47,0-.7,0-.54-.03-1.26,0-1.26-.68,0-.73.74-.62,1.27-.62,3.58,0,7.16.03,10.75.04.02.46-.11.91-.36,1.3"/>
      <path id="Path_2826" data-name="Path 2826" class="cls-1" d="M18.74,11.79c-1.85-.37-3.72-.07-5.58-.16-.54-.03-1.09,0-1.63-.06-.33.01-.6-.23-.61-.55,0,0,0,0,0-.01-.01-.39.28-.5.61-.54.19-.02.39-.03.58-.03,4.48,0,8.97,0,13.45.01.19,0,.39,0,.58.01.35.04.73.07.72.55-.01.44-.36.58-.72.59-1.13.03-2.26,0-3.39.03-.62-.08-1.25-.03-1.84.15-.72-.1-1.45-.1-2.16,0"/>
      <path id="Path_2827" data-name="Path 2827" class="cls-1" d="M13.95,20.92c-2.79.21-5.59.05-8.38.08-.43,0-.78-.22-.72-.69.06-.49.48-.54.89-.53,2.96,0,5.93.02,8.9.03.03.47-.24.9-.67,1.11"/>
      <path id="Path_2828" data-name="Path 2828" class="cls-1" d="M16.69,34.93c-2.64.2-5.3.07-7.95.1-.43,0-.81-.15-.8-.63.02-.46.41-.6.84-.6,1.48-.02,2.97-.01,4.45-.04.36,0,.8.15,1.05-.28.84.43,2.05.29,2.41,1.46"/>
      <path id="Path_2829" data-name="Path 2829" class="cls-1" d="M20.11,33.63c1.55.12,3.1.15,4.65.1.42.02.84.1,1.26.14s.45.28.45.62c0,.39-.25.44-.51.46-.54.05-1.08.07-1.63.05-1.86-.07-3.72.19-5.57-.09.31-.55.78-.99,1.35-1.29"/>
      <path id="Path_2830" data-name="Path 2830" class="cls-1" d="M10.56,25.78c-.66-.03-1.32-.03-1.98-.1-.35-.04-.7-.22-.69-.63.01-.34.31-.61.67-.6.02,0,.03,0,.05,0,1.05,0,2.1.02,3.14.04-.16.63-.71.94-1.2,1.29"/>
      <path id="Path_2831" data-name="Path 2831" class="cls-1" d="M23.64,30.3c-.86.12-1.73.16-2.6.12-.66-.77-.12-1.11.54-1.41.4.11.83.11,1.23,0,.4.35.69.8.84,1.3"/>
      <path id="Path_2832" data-name="Path 2832" class="cls-1" d="M6.9,11.59c-.51,0-1.02.03-1.52-.01-.33,0-.6-.24-.61-.55,0,0,0-.01,0-.02,0-.28.23-.51.52-.52,1.08-.12,2.18-.13,3.27-.01.29,0,.53.22.55.5.03.38-.25.55-.57.59-.54.06-1.09.06-1.63.09v-.06"/>
      <path id="Path_2833" data-name="Path 2833" class="cls-1" d="M5.86,24.41c.44.05,1.05-.07,1.07.56.02.64-.56.72-1.09.71s-1.12-.06-1.09-.71c.03-.61.64-.53,1.11-.56"/>
      <path id="Path_2834" data-name="Path 2834" class="cls-1" d="M5.89,30.41c-.49-.03-1.11,0-1.13-.66-.01-.58.53-.65,1.03-.65.52,0,1.12,0,1.14.65.02.58-.54.63-1.04.65"/>
      <path id="Path_2835" data-name="Path 2835" class="cls-1" d="M6.06,35.02c-.67,0-1.2-.04-1.23-.61-.03-.61.52-.63.99-.63s1.02,0,1.04.6c.02.61-.53.62-.81.64"/>
    </g>
  </g>
</svg>