<?xml version="1.0" encoding="UTF-8"?>
<svg id="Layer_1" data-name="Layer 1" xmlns="http://www.w3.org/2000/svg" viewBox="0 0 43.2 43.2">
  <defs>
    <style>
      .cls-1 {
        fill: #000;
        stroke-width: 0px;
      }
    </style>
  </defs>
  <g id="Group_1670" data-name="Group 1670">
    <g id="Group_1669" data-name="Group 1669">
      <path id="Path_3050" data-name="Path 3050" class="cls-1" d="M29.08,22.57c.08,2.84-1.02,5.58-3.03,7.59-3.25,3.32-6.54,6.6-9.83,9.89-1.56,1.64-3.62,2.7-5.86,3.04-3.98.56-7.35-1-9.19-4.16-1.9-3.5-1.48-7.8,1.06-10.87,1.8-2.07,3.72-4.03,5.76-5.86.39-.36,1.35-.11,2.05-.13-.04.74.21,1.73-.18,2.18-1.53,1.78-3.3,3.35-4.9,5.07-2.5,2.68-2.75,6.64-.63,9.03,2.41,2.57,6.45,2.7,9.02.29.02-.02.04-.03.05-.05,3.8-3.56,7.47-7.26,11.03-11.06,2.36-2.53,2.3-5.88.2-8.75-.56-.77-.85-1.54-.06-2.23.83-.73,1.65-.42,2.33.36,1.41,1.55,2.18,3.58,2.17,5.67"/>
      <path id="Path_3051" data-name="Path 3051" class="cls-1" d="M43.19,8.95c0,2.55-.97,5.01-2.74,6.85-1.6,1.72-3.31,3.34-4.95,5.02-.7.72-1.48,1.13-2.32.31-.83-.81-.49-1.61.23-2.33,1.62-1.62,3.27-3.23,4.83-4.9,2.36-2.52,2.72-6.2.94-8.64-2.02-2.76-6.09-3.16-9.15-.87-.36.27-.65.76-1.03.83-.64.11-1.7.19-1.89-.12-.31-.64-.28-1.39.06-2.01,2.13-2.72,7.02-3.83,10.48-2.53,3.46,1.32,5.68,4.71,5.53,8.41"/>
      <path id="Path_3052" data-name="Path 3052" class="cls-1" d="M14.14,20.44c-.11-2.26.63-4.49,2.08-6.23,1.68-1.95,3.48-3.79,5.39-5.52.38-.35,1.35-.05,2.05-.05-.04.71.2,1.65-.16,2.09-1.21,1.46-2.64,2.73-3.96,4.1-3.05,3.15-3.26,6.07-.89,9.79.31.49.01,1.38,0,2.08-.74-.09-1.75.08-2.19-.33-1.58-1.56-2.42-3.71-2.31-5.92"/>
    </g>
  </g>
</svg>