<svg id="Group_1618" data-name="Group 1618" xmlns="http://www.w3.org/2000/svg" xmlns:xlink="http://www.w3.org/1999/xlink" width="60.309" height="70" viewBox="0 0 60.309 70">
  <defs>
    <clipPath id="clip-path">
      <rect id="Rectangle_775" data-name="Rectangle 775" width="60.309" height="70" fill="none"/>
    </clipPath>
    <style>
      .cls-1 {
        fill: none;
      }

      .cls-3 {
        fill: #000000;
      }
    </style>
  </defs>
  <g id="Group_1617" data-name="Group 1617" clip-path="url(#clip-path)">
    <path id="Path_2853" data-name="Path 2853" class="cls-3" d="M8.874,63.04C7.483,64.922,6.1,66.81,4.7,68.681c-1.024,1.364-2.341,1.8-3.727.681a2.238,2.238,0,0,1-.146-3.581c4.231-3.973,4.219-9.045,4.137-14.265-.122-7.768-.022-15.539-.039-23.309,0-1.827.108-3.548,2.459-3.784,1.248-.126.986-1.06,1.086-1.81a29.274,29.274,0,0,1,6-14.585c8.445-10.7,23-10.7,31.445,0a29.146,29.146,0,0,1,5.958,14.319c.153,1.093.067,2,1.65,2.225,2,.279,1.93,2.065,1.93,3.636,0,8.583.136,17.169-.059,25.748-.1,4.261.6,8.046,3.705,11.144a5.106,5.106,0,0,1,.637.875c.863,1.34.813,2.644-.531,3.559a2.3,2.3,0,0,1-3.348-.639c-1.479-1.928-2.9-3.9-4.348-5.85L50.374,58.7q.054-9.894.109-19.788l.192-.881c-.443-.072-.511.208-.516.548a46.325,46.325,0,0,1-4.306,7.165c-8.215,10.253-21.908,10.625-30.625.83a39.1,39.1,0,0,1-5.006-8c-.01-.339-.078-.622-.522-.544l.193.882Q9.947,48.8,10,58.689L8.874,63.04M47.251,26.848a24.937,24.937,0,0,0-4.592-15.013c-6.429-8.889-17.17-9.3-24.179-.973-7.132,8.475-7.137,23.454-.012,31.936,6.766,8.054,16.827,8.046,23.507-.1,3.76-4.585,5.243-10,5.276-15.851" transform="translate(0)"/>
    <path id="Path_2854" data-name="Path 2854" class="cls-3" d="M24.124,163.9l1.126-4.352,40.374.009,1.132,4.343q-19.3.077-38.595.145c-1.346,0-2.692-.095-4.037-.146" transform="translate(-15.25 -100.859)"/>
    <path id="Path_2855" data-name="Path 2855" class="cls-3" d="M26.894,103.914a.289.289,0,0,1-.33.338l-.192-.882c.444-.078.512.205.522.544" transform="translate(-16.671 -65.338)"/>
    <path id="Path_2856" data-name="Path 2856" class="cls-3" d="M136.682,104.244a.279.279,0,0,1-.324-.332c.006-.34.073-.621.516-.548q-.1.44-.192.881" transform="translate(-86.199 -65.334)"/>
    <path id="Path_2857" data-name="Path 2857" class="cls-3" d="M71.645,65.644h-.011l-9.791-.064a1.655,1.655,0,0,1-1.6-2.028L62.354,54.4A9.112,9.112,0,0,1,58.5,46.871a8.633,8.633,0,0,1,17.266,0,8.989,8.989,0,0,1-4.348,7.859l1.847,8.922a1.655,1.655,0,0,1-1.621,1.991m-7.713-3.361,5.677.037L67.926,54.19a1.655,1.655,0,0,1,.945-1.846,5.876,5.876,0,0,0,3.587-5.375,5.324,5.324,0,1,0-10.648,0,5.891,5.891,0,0,0,3.209,5.2A1.656,1.656,0,0,1,65.843,54Z" transform="translate(-36.979 -24.203)"/>
  </g>
</svg>
