<?xml version="1.0" encoding="UTF-8"?>
<svg id="Layer_1" data-name="Layer 1" xmlns="http://www.w3.org/2000/svg" viewBox="0 0 43.2 43.2">
  <defs>
    <style>
      .cls-1 {
        fill: #000;
        stroke-width: 0px;
      }
    </style>
  </defs>
  <g id="Group_1617" data-name="Group 1617">
    <path id="Path_2853" data-name="Path 2853" class="cls-1" d="M6.36,38.9c-1,1.16-1.99,2.33-2.99,3.48-.73.84-1.68,1.11-2.67.42-.73-.43-.92-1.29-.41-1.92.09-.11.19-.21.31-.29,3.03-2.45,3.02-5.58,2.96-8.8-.09-4.79-.02-9.59-.03-14.38,0-1.13.08-2.19,1.76-2.34.89-.08.71-.65.78-1.12.45-3.28,1.94-6.4,4.3-9,6.05-6.6,16.48-6.6,22.52,0,2.32,2.56,3.8,5.61,4.27,8.84.11.67.05,1.23,1.18,1.37,1.43.17,1.38,1.27,1.38,2.24,0,5.3.1,10.6-.04,15.89-.07,2.63.43,4.97,2.65,6.88.17.17.33.35.46.54.62.83.58,1.63-.38,2.2-.73.47-1.76.35-2.31-.28-.03-.04-.06-.08-.09-.12-1.06-1.19-2.08-2.41-3.11-3.61l-.81-2.68c.03-4.07.05-8.14.08-12.21l.14-.54c-.32-.04-.37.13-.37.34-.87,1.55-1.9,3.03-3.08,4.42-5.88,6.33-15.69,6.56-21.94.51-1.42-1.51-2.63-3.17-3.59-4.94,0-.21-.06-.38-.37-.34l.14.54c.03,4.07.05,8.14.08,12.21l-.81,2.69M33.85,16.57c.09-3.31-1.06-6.56-3.29-9.27-4.61-5.49-12.3-5.74-17.32-.6-5.11,5.23-5.11,14.47,0,19.71,4.85,4.97,12.05,4.97,16.84-.06,2.69-2.83,3.76-6.17,3.78-9.78"/>
    <path id="Path_2854" data-name="Path 2854" class="cls-1" d="M6.36,38.9l.81-2.69h28.92s.81,2.69.81,2.69c-9.22.03-18.43.06-27.65.09-.96,0-1.93-.06-2.89-.09"/>
    <path id="Path_2855" data-name="Path 2855" class="cls-1" d="M7.32,23.81c.02.1-.05.19-.17.21-.02,0-.05,0-.07,0l-.14-.54c.32-.05.37.13.37.34"/>
    <path id="Path_2856" data-name="Path 2856" class="cls-1" d="M36.16,24.01c-.11.02-.21-.04-.23-.14,0-.02,0-.05,0-.07,0-.21.05-.38.37-.34-.05.18-.09.36-.14.54"/>
    <path id="Path_2857" data-name="Path 2857" class="cls-1" d="M24.83,25.57h0l-7.01-.04c-.65,0-1.18-.46-1.18-1.03,0-.07.01-.15.03-.22l1.51-5.65c-1.75-1.06-2.78-2.8-2.76-4.65,0-2.94,2.77-5.33,6.19-5.33,3.41,0,6.18,2.38,6.18,5.33.04,1.98-1.15,3.83-3.11,4.85l1.32,5.51c.13.55-.28,1.09-.92,1.21-.08.01-.16.02-.24.02M19.31,23.5l4.07.02-1.2-5.02c-.11-.47.17-.94.68-1.14,1.55-.56,2.56-1.87,2.57-3.32,0-1.81-1.71-3.29-3.81-3.29-2.11,0-3.81,1.47-3.82,3.28h0c.01,1.36.9,2.59,2.3,3.21.47.22.71.68.59,1.13l-1.37,5.11Z"/>
  </g>
</svg>