<?xml version="1.0" encoding="UTF-8"?>
<svg id="Layer_1" data-name="Layer 1" xmlns="http://www.w3.org/2000/svg" viewBox="0 0 43.2 43.2">
  <defs>
    <style>
      .cls-1 {
        fill: #000;
        stroke-width: 0px;
      }
    </style>
  </defs>
  <g id="Group_1606" data-name="Group 1606">
    <g id="Group_1605" data-name="Group 1605">
      <path id="Path_2817" data-name="Path 2817" class="cls-1" d="M33.75,29.35h3.83c.83,0,.84.01.85.6v4.18c0,.54.04.57.77.57,1.16,0,2.31,0,3.47,0,.18,0,.44-.07.53.1.07.13-.14.22-.25.32-2.93,2.59-5.87,5.18-8.8,7.77-.29.26-.48.21-.74-.01-2.2-1.95-4.41-3.89-6.61-5.83-.77-.68-1.54-1.36-2.3-2.04-.08-.07-.25-.15-.14-.25.05-.05.21-.06.33-.06,1.24-.01,2.47-.04,3.7-.01.55.01.7-.1.7-.47-.02-1.38,0-2.76,0-4.14q0-.72,1.03-.72h3.65"/>
      <path id="Path_2818" data-name="Path 2818" class="cls-1" d="M18.24,43.18c-3.47.13-6.94-.39-10.18-1.53-4.42-1.47-7.5-5.11-7.93-9.35-.39-3.39.1-6.82,1.43-10.01,1.17-3.12,2.99-6,5.36-8.5,1.07-1.12,2.27-2.13,3.59-3,.21-.2.56-.2.78-.01.02.02.05.04.07.07.27.24.55.46.86.66.31.2.34.34,0,.54-2.17,1.3-4.02,3-5.43,4.98-2.52,3.33-4.11,7.17-4.61,11.18-.31,2.06-.11,4.15.59,6.13,1.01,2.6,3.25,4.64,6.11,5.58,2.29.81,4.71,1.27,7.16,1.35,3.02.2,6.05-.04,8.99-.7.51-.12,1.01-.26,1.49-.43.37-.14.63-.13.86.2.21.28.45.54.71.79.26.26.22.4-.15.54-1.66.59-3.39,1-5.15,1.23-1.5.21-3.02.3-4.54.27"/>
      <path id="Path_2819" data-name="Path 2819" class="cls-1" d="M15.87,34.73c0-1.03,0-1.04-1.25-1.19-.98-.12-1.94-.34-2.84-.67-.45-.16-.62-.37-.43-.77.18-.42.34-.85.46-1.28.11-.35.28-.43.7-.26,1.34.58,2.84.85,4.35.79.6-.01,1.19-.16,1.71-.42.94-.48,1.22-1.48.63-2.24-.06-.08-.14-.16-.22-.23-.62-.52-1.39-.9-2.24-1.12-.89-.25-1.75-.56-2.58-.92-1.27-.48-2.23-1.38-2.63-2.47-.54-1.71.44-3.49,2.36-4.31.49-.23,1.02-.4,1.58-.5.42-.07.54-.25.53-.57-.02-.46,0-.92,0-1.38,0-.31.14-.45.53-.43.44.01.89.02,1.33,0s.62.11.6.47c-.02.4.01.81-.01,1.21-.02.33.11.48.56.51,1.03.05,2.03.25,2.98.59.32.12.43.25.32.53-.19.48-.37.96-.52,1.45-.1.31-.27.35-.61.22-1.12-.43-2.36-.65-3.6-.63-.46,0-.92.08-1.35.22-.93.25-1.42,1.07-1.11,1.82.11.26.3.49.57.66.52.35,1.11.63,1.74.82.94.33,1.91.61,2.82,1,2.49.89,3.61,3.25,2.51,5.27-.06.11-.12.21-.19.31-.73,1.11-2.03,1.9-3.55,2.16q-.76.16-.77.8c0,.43-.02.86,0,1.29.01.32-.12.48-.54.47-.44-.01-.89,0-1.33,0-.35,0-.53-.11-.51-.41.01-.26,0-.52,0-.78"/>
      <path id="Path_2820" data-name="Path 2820" class="cls-1" d="M7.46,2.55c-.03-.5.02-1.01.14-1.5.09-.65.81-1.12,1.62-1.04.17.02.33.05.48.11.78.24,1.53.54,2.24.88,1.71.81,3.65,1.22,5.63,1.2,1.7-.1,3.35-.51,4.83-1.19.58-.24,1.16-.5,1.74-.73,1.59-.61,2.61-.13,2.72,1.29.15,1.69-.12,3.4-.79,5.01-.69,1.81-2.06,3.4-3.92,4.55-3.82,2.24-9.15,1.55-11.92-1.55-.07-.08-.14-.16-.2-.24-1.71-2-2.61-4.37-2.57-6.8M17.15,10.64c1.89,0,3.68-.69,4.89-1.87,1.74-1.78,2.68-4,2.64-6.27.02-.31-.12-.35-.44-.22-.6.25-1.19.5-1.8.74-2.91,1.21-6.32,1.35-9.37.39-1-.32-1.98-.7-2.93-1.12-.4-.17-.51-.07-.47.25.03.29.05.57.08.86.13,1.77.87,3.48,2.13,4.93,1.19,1.42,3.15,2.28,5.27,2.3"/>
      <path id="Path_2821" data-name="Path 2821" class="cls-1" d="M34.26,27.67c-1.12-.02-1.03.15-1.24-.75-1.05-4.91-3.78-9.43-7.85-12.99-.81-.7-1.71-1.32-2.69-1.84-.4-.21-.38-.36-.01-.58.32-.19.62-.41.89-.65.34-.31.62-.27,1-.03,2.84,1.83,5.21,4.15,6.95,6.8,1.97,2.87,3.33,6.03,4,9.31.15.72.13.73-.72.73h-.32"/>
    </g>
  </g>
</svg>