<svg xmlns="http://www.w3.org/2000/svg" xmlns:xlink="http://www.w3.org/1999/xlink" width="47.393" height="58.02" viewBox="0 0 47.393 58.02">
  <defs>
    <clipPath id="clip-path">
      <rect id="Rectangle_769" data-name="Rectangle 769" width="47.393" height="58.02" fill="none"/>
    </clipPath>
  </defs>
  <g id="Group_1606" data-name="Group 1606" transform="translate(7.43 4.32)">
    <g id="Group_1605" data-name="Group 1605" transform="translate(-7.43 -4.32)" clip-path="url(#clip-path)">
      <path id="Path_2817" data-name="Path 2817" d="M141.275,179.013q1.853,0,3.705,0c.806,0,.818.014.819.8,0,1.872,0,3.744,0,5.616,0,.728.036.762.744.765,1.119,0,2.239,0,3.358.005.179,0,.427-.09.516.134.072.181-.133.3-.239.43q-4.261,5.223-8.521,10.446c-.285.35-.468.287-.716-.018q-3.2-3.925-6.405-7.842-1.116-1.366-2.229-2.736c-.079-.1-.24-.2-.139-.338.049-.068.208-.076.318-.077,1.2-.015,2.392-.059,3.586-.017.528.019.681-.14.677-.637-.015-1.852-.006-3.705,0-5.558,0-.971,0-.972,1-.972h3.531" transform="translate(-103.041 -139.594)"/>
      <path id="Path_2818" data-name="Path 2818" d="M21.576,112.925a29.834,29.834,0,0,1-12.02-2A14.426,14.426,0,0,1,.187,98.713,28.523,28.523,0,0,1,1.881,85.635a33.571,33.571,0,0,1,6.327-11.1,25.231,25.231,0,0,1,4.243-3.92.652.652,0,0,1,1,.072,8.069,8.069,0,0,0,1.012.861c.37.265.4.445-.009.707a22.275,22.275,0,0,0-6.417,6.51A32.336,32.336,0,0,0,2.59,93.374a18.113,18.113,0,0,0,.7,8.006,11.957,11.957,0,0,0,7.214,7.29,25.513,25.513,0,0,0,8.457,1.761,33.848,33.848,0,0,0,10.619-.911,14.892,14.892,0,0,0,1.762-.563c.441-.178.742-.172,1.02.267a8.046,8.046,0,0,0,.842,1.029c.306.341.254.528-.181.7a27.16,27.16,0,0,1-6.084,1.611,32.123,32.123,0,0,1-5.361.359" transform="translate(0 -54.912)"/>
      <path id="Path_2819" data-name="Path 2819" d="M72.6,126.343c0-1.388,0-1.4-1.361-1.6a11.921,11.921,0,0,1-3.1-.895c-.49-.218-.671-.5-.473-1.034a15.488,15.488,0,0,0,.5-1.724c.115-.477.3-.576.767-.343a9.143,9.143,0,0,0,4.747,1.06,3.752,3.752,0,0,0,1.862-.559,2.184,2.184,0,0,0,.45-3.321,5.833,5.833,0,0,0-2.44-1.5,20.086,20.086,0,0,1-2.808-1.231,5.348,5.348,0,0,1-2.867-3.317,5.119,5.119,0,0,1,2.573-5.791,6.188,6.188,0,0,1,1.72-.672c.459-.088.594-.337.578-.77-.022-.617.006-1.236-.009-1.853-.01-.416.154-.6.581-.583.482.02.966.024,1.448,0s.675.144.651.63c-.026.539.014,1.082-.011,1.621-.02.45.118.642.608.682a9.686,9.686,0,0,1,3.247.792c.345.156.468.341.346.715-.21.642-.405,1.29-.571,1.944-.106.42-.292.466-.663.292a8.75,8.75,0,0,0-3.926-.851,3.986,3.986,0,0,0-1.469.29,1.929,1.929,0,0,0-.591,3.331,6.606,6.606,0,0,0,1.895,1.1c1.028.441,2.085.816,3.078,1.34a5.369,5.369,0,0,1,2.534,7.5,5.752,5.752,0,0,1-3.866,2.9c-.833.22-.834.221-.835,1.079,0,.579-.017,1.159,0,1.737.016.435-.133.651-.594.633-.482-.019-.965-.013-1.448,0-.385.008-.574-.147-.555-.549.016-.347,0-.695,0-1.042" transform="translate(-52.705 -79.695)"/>
      <path id="Path_2820" data-name="Path 2820" d="M48.677,3.4a8.721,8.721,0,0,1,.153-2.016A1.591,1.591,0,0,1,51.111.136a16.255,16.255,0,0,1,2.443,1.188,11.931,11.931,0,0,0,6.134,1.617,12.649,12.649,0,0,0,5.268-1.6c.635-.327,1.26-.673,1.9-.978C68.589-.457,69.7.187,69.821,2.1a17,17,0,0,1-.863,6.728,12.261,12.261,0,0,1-4.269,6.121,9.305,9.305,0,0,1-13.212-2.4,15.655,15.655,0,0,1-2.8-9.145M59.243,14.271A6.908,6.908,0,0,0,64.57,11.76a13.309,13.309,0,0,0,2.88-8.434c.017-.411-.13-.471-.477-.289-.649.342-1.3.678-1.964.992a12.516,12.516,0,0,1-10.216.53,28.648,28.648,0,0,1-3.193-1.5c-.432-.23-.554-.1-.515.34.035.384.058.77.09,1.154A12.8,12.8,0,0,0,53.5,11.183a7.05,7.05,0,0,0,5.744,3.088" transform="translate(-37.958 0)"/>
      <path id="Path_2821" data-name="Path 2821" d="M139.743,92.1c-1.217-.025-1.121.195-1.351-.947a31.739,31.739,0,0,0-8.562-16.509,15.934,15.934,0,0,0-2.937-2.342c-.434-.268-.412-.462-.014-.742a6.526,6.526,0,0,0,.967-.825c.371-.388.674-.346,1.089-.041a28.16,28.16,0,0,1,7.582,8.648,35.306,35.306,0,0,1,4.364,11.833c.161.919.145.922-.79.924h-.347" transform="translate(-98.702 -54.939)"/>
    </g>
  </g>
</svg>
