<?xml version="1.0" encoding="UTF-8"?>
<svg id="Layer_1" data-name="Layer 1" xmlns="http://www.w3.org/2000/svg" viewBox="0 0 43.2 43.23">
  <defs>
    <style>
      .cls-1 {
        fill: #000;
        stroke-width: 0px;
      }
    </style>
  </defs>
  <g id="Group_1624" data-name="Group 1624">
    <g id="Group_1624-2" data-name="Group 1624-2">
      <path id="Path_2864" data-name="Path 2864" class="cls-1" d="M35.67,43.23c-1.41-.01-2.55-1.6-2.54-3.56,0-1.95,1.16-3.53,2.57-3.52,1.41.01,2.55,1.6,2.54,3.56,0,.02,0,.03,0,.05-.05,1.92-1.18,3.45-2.57,3.47"/>
      <path id="Path_2865" data-name="Path 2865" class="cls-1" d="M28.16,10.58c-1.84-2.57-4.93-3.64-7.78-2.68-2.72.67-4.82,3.03-5.36,6.03-.56,2.45.22,4.58,1.42,6.49,1.01,1.61,2.13,3.15,3.24,4.65l2.81,3.82,1.84-3.01c1.64-2.2,3.18-4.5,4.6-6.88,1.56-2.87,1.17-5.84-.76-8.41M26.29,17.42c-.28.56-.59,1.09-.93,1.61-1.65,2.42-2.98,4.8-2.98,4.8,0,0-1.08-1.63-2.19-3.31-.65-.95-1.24-1.94-1.77-2.97-.93-1.6-.72-3.69.51-5.02,1.18-1.48,3.07-2.04,4.77-1.4,1.68.41,2.91,1.97,3.06,3.85.08.85-.08,1.71-.47,2.45"/>
      <path id="Path_2866" data-name="Path 2866" class="cls-1" d="M24.04,15.69c0,1.28-.75,2.33-1.68,2.33-.93,0-1.68-1.04-1.68-2.33s.75-2.33,1.68-2.33h0c.93,0,1.68,1.04,1.68,2.33"/>
      <path id="Path_2867" data-name="Path 2867" class="cls-1" d="M7.79,7.11c-1.39-.04-2.51-1.59-2.54-3.51C5.23,1.64,6.35.03,7.76,0c1.41-.03,2.57,1.52,2.6,3.48,0,.05,0,.1,0,.16-.05,1.92-1.18,3.45-2.57,3.47"/>
      <path id="Path_2868" data-name="Path 2868" class="cls-1" d="M14.18,22.1c0,1.03-.6,1.86-1.35,1.86s-1.35-.83-1.35-1.86.6-1.86,1.35-1.86,1.35.83,1.35,1.86h0"/>
      <path id="Path_2869" data-name="Path 2869" class="cls-1" d="M10.09,22.1c0,1.03-.6,1.86-1.35,1.86s-1.35-.83-1.35-1.86c0-1.03.6-1.86,1.35-1.86s1.35.83,1.35,1.86h0"/>
      <path id="Path_2870" data-name="Path 2870" class="cls-1" d="M31.17,40.72c0,1.03-.6,1.86-1.35,1.86s-1.35-.83-1.35-1.86.6-1.86,1.35-1.86h0c.74,0,1.35.83,1.35,1.86"/>
      <path id="Path_2871" data-name="Path 2871" class="cls-1" d="M26.89,40.72c0,1.03-.6,1.86-1.35,1.86s-1.35-.83-1.35-1.86.6-1.86,1.35-1.86h0c.74,0,1.35.83,1.35,1.86"/>
      <path id="Path_2872" data-name="Path 2872" class="cls-1" d="M22.61,40.72c0,1.03-.6,1.86-1.35,1.86s-1.35-.83-1.35-1.86.6-1.86,1.35-1.86h0c.74,0,1.35.83,1.35,1.86"/>
      <path id="Path_2873" data-name="Path 2873" class="cls-1" d="M18.33,40.72c0,1.03-.6,1.86-1.35,1.86s-1.35-.83-1.35-1.86c0-1.03.6-1.86,1.35-1.86h0c.74,0,1.35.83,1.35,1.86"/>
      <path id="Path_2874" data-name="Path 2874" class="cls-1" d="M14.06,40.72c0,1.03-.6,1.86-1.35,1.86s-1.35-.83-1.35-1.86c0-1.03.6-1.86,1.35-1.86h0c.74,0,1.35.83,1.35,1.86"/>
      <path id="Path_2875" data-name="Path 2875" class="cls-1" d="M9.78,40.15c0,1.03-.6,1.86-1.35,1.86s-1.35-.83-1.35-1.86c0-1.03.6-1.86,1.35-1.86h0c.74,0,1.35.83,1.35,1.86"/>
      <path id="Path_2876" data-name="Path 2876" class="cls-1" d="M5.42,38.59c0,1.03-.6,1.86-1.35,1.86s-1.35-.83-1.35-1.86.6-1.86,1.35-1.86h0c.74,0,1.35.83,1.35,1.86"/>
      <path id="Path_2877" data-name="Path 2877" class="cls-1" d="M5.94,23.24c0,1.03-.6,1.86-1.35,1.86s-1.35-.83-1.35-1.86.6-1.86,1.35-1.86,1.35.83,1.35,1.86h0"/>
      <path id="Path_2878" data-name="Path 2878" class="cls-1" d="M2.69,33.6c0,1.03-.6,1.86-1.35,1.86S0,34.63,0,33.6s.6-1.86,1.35-1.86h0c.74,0,1.35.83,1.35,1.86"/>
      <path id="Path_2879" data-name="Path 2879" class="cls-1" d="M3.14,27.49c0,1.03-.6,1.86-1.35,1.86s-1.35-.83-1.35-1.86c0-1.03.6-1.86,1.35-1.86h0c.74,0,1.35.83,1.35,1.86"/>
      <path id="Path_2880" data-name="Path 2880" class="cls-1" d="M29.02,22.19c0-1.03.6-1.86,1.35-1.86s1.35.83,1.35,1.86-.6,1.86-1.35,1.86h0c-.74,0-1.35-.83-1.35-1.86"/>
      <path id="Path_2881" data-name="Path 2881" class="cls-1" d="M33.11,22.19c0-1.03.6-1.86,1.35-1.86s1.35.83,1.35,1.86-.6,1.86-1.35,1.86c-.74,0-1.35-.83-1.35-1.86"/>
      <path id="Path_2882" data-name="Path 2882" class="cls-1" d="M12.03,3.57c0-1.03.6-1.86,1.35-1.86s1.35.83,1.35,1.86-.6,1.86-1.35,1.86-1.35-.83-1.35-1.86h0"/>
      <path id="Path_2883" data-name="Path 2883" class="cls-1" d="M16.31,3.57c0-1.03.6-1.86,1.35-1.86s1.35.83,1.35,1.86-.6,1.86-1.35,1.86-1.35-.83-1.35-1.86h0"/>
      <path id="Path_2884" data-name="Path 2884" class="cls-1" d="M20.59,3.57c0-1.03.6-1.86,1.35-1.86s1.35.83,1.35,1.86-.6,1.86-1.35,1.86h0c-.74,0-1.35-.83-1.35-1.86"/>
      <path id="Path_2885" data-name="Path 2885" class="cls-1" d="M24.87,3.57c0-1.03.6-1.86,1.35-1.86s1.35.83,1.35,1.86-.6,1.86-1.35,1.86h0c-.74,0-1.35-.83-1.35-1.86"/>
      <path id="Path_2886" data-name="Path 2886" class="cls-1" d="M29.14,3.57c0-1.03.6-1.86,1.35-1.86s1.35.83,1.35,1.86-.6,1.86-1.35,1.86h0c-.74,0-1.35-.83-1.35-1.86"/>
      <path id="Path_2887" data-name="Path 2887" class="cls-1" d="M33.42,4.14c0-1.03.6-1.86,1.35-1.86s1.35.83,1.35,1.86-.6,1.86-1.35,1.86c-.74,0-1.35-.83-1.35-1.86h0"/>
      <path id="Path_2888" data-name="Path 2888" class="cls-1" d="M37.78,5.7c0-1.03.6-1.86,1.35-1.86s1.35.83,1.35,1.86-.6,1.86-1.35,1.86c-.74,0-1.35-.83-1.35-1.86h0"/>
      <path id="Path_2889" data-name="Path 2889" class="cls-1" d="M37.26,21.05c0-1.03.6-1.86,1.35-1.86s1.35.83,1.35,1.86-.6,1.86-1.35,1.86-1.35-.83-1.35-1.86h0"/>
      <path id="Path_2890" data-name="Path 2890" class="cls-1" d="M40.51,10.7c0-1.03.6-1.86,1.35-1.86.74,0,1.35.83,1.35,1.86s-.6,1.86-1.35,1.86-1.35-.83-1.35-1.86h0"/>
      <path id="Path_2891" data-name="Path 2891" class="cls-1" d="M40.06,16.8c0-1.03.6-1.86,1.35-1.86s1.35.83,1.35,1.86-.6,1.86-1.35,1.86-1.35-.83-1.35-1.86h0"/>
    </g>
  </g>
</svg>