<?xml version="1.0" encoding="UTF-8"?>
<svg id="Layer_1" data-name="Layer 1" xmlns="http://www.w3.org/2000/svg" viewBox="0 0 43.2 43.2">
  <defs>
    <style>
      .cls-1 {
        fill: #000;
        stroke-width: 0px;
      }
    </style>
  </defs>
  <g id="Group_1626" data-name="Group 1626">
    <g id="Group_1625" data-name="Group 1625">
      <path id="Path_2892" data-name="Path 2892" class="cls-1" d="M9.82,19.61h9.81V2.36c0-.17,0-.35,0-.52.07-1.08,1.01-1.9,2.1-1.83.99.07,1.77.85,1.83,1.84.01.17,0,.35,0,.52,0,5.54,0,11.09,0,16.63v.59h9.81V2.13c-.07-.91.49-1.75,1.36-2.03,1.02-.33,2.12.23,2.45,1.25.01.04.03.09.04.13.06.28.08.56.08.84,0,6.09,0,12.18.01,18.28,0,.4.08.8.24,1.18,1.8,4.24,3.63,8.48,5.44,12.72.12.29.18.59.18.9.01,1.88,0,3.77,0,5.65.1,1.08-.69,2.03-1.76,2.13-.12.01-.25.01-.37,0H2.14c-1.08.1-2.03-.69-2.13-1.76-.01-.13-.01-.25,0-.38,0-1.88-.02-3.77,0-5.65,0-.33.08-.65.2-.95,1.84-4.31,3.7-8.62,5.53-12.93.1-.28.14-.57.13-.87,0-6.11,0-12.22,0-18.33,0-.25.01-.5.06-.75.22-1.06,1.25-1.74,2.31-1.52.87.18,1.51.92,1.56,1.81,0,.16,0,.31,0,.47v17.28M5.02,33.32h33.14c-.04-.12-.07-.21-.1-.29-1.29-3.03-2.6-6.05-3.88-9.08-.15-.35-.37-.35-.66-.35-7.95,0-15.9,0-23.84,0-.33-.03-.63.18-.71.49-.92,2.18-1.86,4.35-2.79,6.53-.38.89-.76,1.78-1.15,2.71M3.95,39.22h35.29v-1.87H3.95v1.87Z"/>
    </g>
  </g>
</svg>