<svg id="Group_1616" data-name="Group 1616" xmlns="http://www.w3.org/2000/svg" xmlns:xlink="http://www.w3.org/1999/xlink" width="47.247" height="42.543" viewBox="0 0 47.247 42.543">
  <defs>
    <clipPath id="clip-path">
      <rect id="Rectangle_774" data-name="Rectangle 774" width="47.247" height="42.543" fill="none"/>
    </clipPath>
    <style>
      .cls-1 {
        fill: #000000;
      }
      .cls-2 {
        fill: none;
      }
    </style>
  </defs>
  <g id="Group_1615" data-name="Group 1615" clip-path="url(#clip-path)">
    <path id="Path_2848" data-name="Path 2848" class="cls-1" d="M46.578,83.06h-.087a.737.737,0,0,0-.7.505l-1.354,4.087-1.36-4.088a.737.737,0,0,0-.7-.5h-.125a.737.737,0,0,0-.7.505L40.2,87.652l-1.36-4.088a.737.737,0,0,0-.7-.5h-.087a.737.737,0,0,0-.7.974l2.09,6.163a.737.737,0,0,0,.7.5h.107a.737.737,0,0,0,.7-.5l1.37-4.068,1.363,4.067a.738.738,0,0,0,.7.5h.107a.737.737,0,0,0,.7-.5l2.09-6.163a.737.737,0,0,0-.7-.974" transform="translate(-30.304 -67.452)" fill="#fff"/>
    <path id="Path_2849" data-name="Path 2849" class="cls-1" d="M100.975,83.06h-.087a.737.737,0,0,0-.7.505l-1.354,4.087-1.36-4.088a.737.737,0,0,0-.7-.5H96.65a.737.737,0,0,0-.7.505L94.6,87.652l-1.36-4.088a.737.737,0,0,0-.7-.5H92.45a.737.737,0,0,0-.7.974l2.09,6.163a.737.737,0,0,0,.7.5h.107a.737.737,0,0,0,.7-.5l1.37-4.068,1.364,4.067a.738.738,0,0,0,.7.5h.107a.737.737,0,0,0,.7-.5l2.09-6.163a.737.737,0,0,0-.7-.974" transform="translate(-74.479 -67.452)" fill="#fff"/>
    <path id="Path_2850" data-name="Path 2850" class="cls-1" d="M155.373,83.06h-.087a.737.737,0,0,0-.7.505l-1.354,4.087-1.36-4.088a.737.737,0,0,0-.7-.5h-.125a.737.737,0,0,0-.7.505l-1.354,4.087-1.36-4.088a.737.737,0,0,0-.7-.5h-.087a.737.737,0,0,0-.7.974l2.09,6.163a.737.737,0,0,0,.7.5h.107a.737.737,0,0,0,.7-.5l1.37-4.068,1.363,4.067a.738.738,0,0,0,.7.5h.107a.737.737,0,0,0,.7-.5l2.09-6.163a.737.737,0,0,0-.7-.974" transform="translate(-118.655 -67.452)" fill="#fff"/>
    <path id="Path_2851" data-name="Path 2851" class="cls-1" d="M3.207,37.189V9.556H41.26V25.368A4.182,4.182,0,0,1,44,24.352a4.292,4.292,0,0,1,.465.026V2.672A2.675,2.675,0,0,0,41.8,0H2.672A2.675,2.675,0,0,0,0,2.672V37.724A2.675,2.675,0,0,0,2.672,40.4H28.166a9.446,9.446,0,0,1-1.3-3.207Zm35.119-32.7a.987.987,0,0,1,.987-.987H40.3a.987.987,0,0,1,.987.987V5.605a.987.987,0,0,1-.987.987h-.987a.986.986,0,0,1-.987-.987Zm-4.588,0a.987.987,0,0,1,.987-.987h.987a.986.986,0,0,1,.987.987V5.605a.987.987,0,0,1-.987.987h-.987a.987.987,0,0,1-.987-.987Zm-4.588,0a.987.987,0,0,1,.987-.987h.987a.987.987,0,0,1,.987.987V5.605a.987.987,0,0,1-.987.987h-.987a.987.987,0,0,1-.987-.987Z" transform="translate(0 0)" fill="#fff"/>
    <path id="Path_2852" data-name="Path 2852" class="cls-1" d="M171.661,145.064a1.934,1.934,0,0,0-.57-1.377l-1.456-1.456a1.946,1.946,0,0,0-2.753,0l-2.223,2.222a7.241,7.241,0,1,0,3.027,5.889c0-.162-.006-.323-.017-.483l3.42-3.42a1.931,1.931,0,0,0,.571-1.376m-2.151.433-6.965,6.965a.783.783,0,0,1-.553.229h0a.783.783,0,0,1-.554-.229l-3.228-3.232a.783.783,0,0,1,0-1.106l.621-.621a.783.783,0,0,1,1.106,0l2.053,2.048,5.785-5.785a.783.783,0,0,1,1.107,0l.627.627a.782.782,0,0,1,0,1.107" transform="translate(-124.415 -115.041)" fill="#fff"/>
  </g>
</svg>
