<?xml version="1.0" encoding="UTF-8"?>
<svg id="Layer_1" data-name="Layer 1" xmlns="http://www.w3.org/2000/svg" viewBox="0 0 43.2 43.2">
  <defs>
    <style>
      .cls-1 {
        fill: #000;
        stroke-width: 0px;
      }
    </style>
  </defs>
  <g id="Group_1668" data-name="Group 1668">
    <g id="Group_1667" data-name="Group 1667">
      <path id="Path_3044" data-name="Path 3044" class="cls-1" d="M6.03,4.7c-.07.02-.14.04-.2.06l3.34,3.34h.27l-3.4-3.4ZM39.93,10.52c0-3.78-2.32-6.12-6.09-6.13-8.52-.01-17.04-.01-25.56,0h-.19l3.71,3.71c7.31,0,14.61,0,21.92,0,1.84,0,2.48.64,2.49,2.44.01,6,.01,12,0,18,0,1.44-.47,2.12-1.65,2.31l2.83,2.83c1.61-1.02,2.53-2.81,2.53-5.19.01-5.99.01-11.99,0-17.98M32.24,30.91h-.27l3.53,3.53c.07-.01.15-.03.22-.05l-3.48-3.48Z"/>
      <path id="Path_3045" data-name="Path 3045" class="cls-1" d="M15.69,11.97l5.26,5.26c-.18-2.83-2.43-5.08-5.26-5.26M21.01,19.67l-7.43-7.43c-.07.02-.14.04-.2.07l7.63,7.63v-.27"/>
      <path id="Path_3046" data-name="Path 3046" class="cls-1" d="M43.13,41.81c-.19-.03-.37-.12-.5-.26l-7.11-7.11-3.53-3.53-3.86-3.86-5.14-5.13-1.97-1.97-7.63-7.63-4.21-4.21-3.34-3.34L1.64.58c-.14-.14-.23-.31-.26-.5-.21-.12-.47-.09-.64.08L.15.74C-.05.95-.05,1.28.15,1.49l4.1,4.1c-1.38,1.05-2.14,2.77-2.14,5-.01,5.94-.01,11.88,0,17.83,0,3.89,2.3,6.2,6.17,6.21,4.26.01,8.52,0,12.78,0s8.15.01,12.23,0l8.42,8.42c.21.2.54.2.75,0l.59-.59c.17-.17.2-.44.08-.64M14.33,16.04c.08-.05.17-.09.26-.12.53-.18,1.1-.17,1.63.03,1.16.54,1.12,1.55,1.06,2.65-.02.28-.03.57-.03.86h-3.77c0-1.28-.49-2.64.87-3.43M21.03,30.91c-4.21,0-8.42,0-12.63,0-1.94,0-2.56-.61-2.57-2.52,0-5.95,0-11.89,0-17.84,0-1.26.32-1.95,1.13-2.25l4.88,4.88c-1.18.89-1.93,2.25-2.05,3.72-.22,2.76-.11,5.56-.06,8.34-.04.94.69,1.74,1.63,1.78.07,0,.13,0,.2,0,.97.04,1.79-.71,1.83-1.69,0-.03,0-.06,0-.09.06-.61.01-1.22.01-1.89h3.88c0,.59-.01,1.1,0,1.61.03,1.23.63,2.07,1.89,2.05,1.25-.02,1.82-.89,1.82-2.12,0-.85,0-1.7.02-2.55l2.96,2.96h0l.67.67h0s4.95,4.95,4.95,4.95c-2.85,0-5.7,0-8.55,0"/>
      <path id="Path_3047" data-name="Path 3047" class="cls-1" d="M32.34,13.96c.11-.96-.58-1.83-1.54-1.94-.09-.01-.19-.01-.29,0-1.19,0-1.8.78-1.85,1.93s0,2.3,0,3.63c-.55.03-.91.05-1.27.08-1.54.09-2.95.93-3.77,2.24l7.12,7.12c.88,0,1.6-.71,1.6-1.59,0-.03,0-.07,0-.1.03-3.79.03-7.57,0-11.36M28.52,23.78c-.8-.6-1.31-.98-1.83-1.37l1.38-1.34c.15.11.3.23.45.34v2.37ZM23,21.67c-.01.08-.02.16-.02.24l5.14,5.14c.09,0,.18,0,.27,0l-5.39-5.39ZM23.96,25.3c.2.25.42.47.67.67l-.67-.67Z"/>
      <path id="Path_3048" data-name="Path 3048" class="cls-1" d="M43.13,41.82c-.19-.03-.37-.12-.5-.26l-7.11-7.11-3.53-3.53-3.86-3.86-5.14-5.14-1.97-1.97-7.62-7.62-4.22-4.22-3.34-3.33L1.64.57c-.13-.14-.22-.31-.25-.5.04.02.07.05.1.08l4.54,4.54,7.54,7.55,7.43,7.43,11.24,11.24,3.48,3.48,7.32,7.32s.06.07.08.1"/>
      <path id="Path_3049" data-name="Path 3049" class="cls-1" d="M43.13,41.82c-.19-.03-.37-.12-.5-.26l-7.11-7.11-3.53-3.53-3.86-3.86-5.14-5.14-1.97-1.97-7.62-7.62-4.22-4.22-3.34-3.33L1.64.57c-.13-.14-.22-.31-.25-.5.04.02.07.05.1.08l4.54,4.54,7.54,7.55,7.43,7.43,11.24,11.24,3.48,3.48,7.32,7.32s.06.07.08.1"/>
    </g>
  </g>
</svg>