<?xml version="1.0" encoding="UTF-8"?>
<svg id="Layer_1" data-name="Layer 1" xmlns="http://www.w3.org/2000/svg" viewBox="0 0 43.2 43.2">
  <defs>
    <style>
      .cls-1 {
        fill: #000;
        stroke-width: 0px;
      }
    </style>
  </defs>
  <g id="Group_1615" data-name="Group 1615">
    <path id="Path_2848" data-name="Path 2848" class="cls-1" d="M14.88,15.85h-.08c-.29,0-.55.21-.64.51l-1.24,4.15-1.24-4.15c-.09-.3-.35-.51-.64-.51h-.11c-.29,0-.55.21-.64.51l-1.24,4.15-1.24-4.15c-.09-.3-.35-.51-.64-.51h-.08c-.37,0-.67.33-.68.75,0,.08.01.16.04.24l1.91,6.26c.09.3.35.51.64.51h.1c.29,0,.55-.2.64-.51l1.25-4.13,1.25,4.13c.09.3.35.51.64.51h.1c.29,0,.55-.2.64-.51l1.91-6.26c.12-.39-.07-.82-.42-.95-.07-.03-.14-.04-.22-.04"/>
    <path id="Path_2849" data-name="Path 2849" class="cls-1" d="M24.23,15.85h-.08c-.29,0-.55.21-.64.51l-1.24,4.15-1.24-4.15c-.09-.3-.35-.51-.64-.51h-.11c-.29,0-.55.21-.64.51l-1.23,4.15-1.24-4.15c-.09-.3-.35-.51-.64-.51h-.08c-.37,0-.67.33-.68.75,0,.08.01.16.04.24l1.91,6.26c.09.3.35.51.64.51h.1c.29,0,.55-.2.64-.51l1.25-4.13,1.25,4.13c.09.3.35.51.64.51h.1c.29,0,.55-.2.64-.51l1.91-6.26c.12-.39-.07-.82-.42-.95-.07-.03-.14-.04-.22-.04"/>
    <path id="Path_2850" data-name="Path 2850" class="cls-1" d="M33.57,15.85h-.08c-.29,0-.55.21-.64.51l-1.24,4.15-1.24-4.15c-.09-.3-.35-.51-.64-.51h-.11c-.29,0-.55.21-.64.51l-1.24,4.15-1.24-4.15c-.09-.3-.35-.51-.64-.51h-.08c-.37,0-.67.33-.68.75,0,.08.01.16.04.24l1.91,6.26c.09.3.35.51.64.51h.1c.29,0,.55-.2.64-.51l1.25-4.13,1.25,4.13c.09.3.35.51.64.51h.1c.29,0,.55-.2.64-.51l1.91-6.26c.12-.39-.07-.82-.42-.95-.07-.03-.14-.04-.22-.04"/>
    <path id="Path_2851" data-name="Path 2851" class="cls-1" d="M2.93,37.76V9.7h34.79v16.06c.7-.67,1.59-1.03,2.51-1.03.14,0,.28,0,.43.03V2.71c0-1.5-1.09-2.71-2.44-2.71H2.44C1.09,0,0,1.22,0,2.71v35.59c0,1.5,1.09,2.72,2.44,2.72h23.31c-.57-.99-.98-2.1-1.19-3.26H2.93ZM35.04,4.56c0-.55.4-1,.9-1h.9c.5,0,.9.45.9,1v1.13c0,.55-.4,1-.9,1h-.9c-.5,0-.9-.45-.9-1h0v-1.14ZM30.85,4.56c0-.55.4-1,.9-1h.9c.5,0,.9.45.9,1h0v1.14c0,.55-.4,1-.9,1h-.9c-.5,0-.9-.45-.9-1v-1.13ZM26.65,4.56c0-.55.4-1,.9-1h.9c.5,0,.9.45.9,1h0v1.13c0,.55-.4,1-.9,1h-.9c-.5,0-.9-.45-.9-1v-1.13Z"/>
    <path id="Path_2852" data-name="Path 2852" class="cls-1" d="M43.2,30.49c0-.52-.19-1.03-.52-1.4l-1.33-1.48c-.69-.77-1.82-.77-2.52,0h0s-2.03,2.26-2.03,2.26c-2.97-2.36-7.11-1.6-9.24,1.7-2.13,3.3-1.44,7.9,1.53,10.26,2.97,2.36,7.11,1.6,9.24-1.7.8-1.25,1.24-2.74,1.24-4.28,0-.16,0-.33-.02-.49l3.13-3.47c.34-.37.52-.87.52-1.4M41.23,30.93l-6.37,7.07c-.13.15-.32.23-.51.23h0c-.19,0-.37-.08-.51-.23l-2.95-3.28c-.28-.31-.28-.81,0-1.12l.57-.63c.28-.31.73-.31,1.01,0l1.88,2.08,5.29-5.87c.28-.31.73-.31,1.01,0l.57.64c.28.31.28.81,0,1.12h0"/>
  </g>
</svg>