<svg id="Group_1620" data-name="Group 1620" xmlns="http://www.w3.org/2000/svg" xmlns:xlink="http://www.w3.org/1999/xlink" width="63.318" height="69.709" viewBox="0 0 63.318 69.709">
  <defs>
    <clipPath id="clip-path">
      <rect id="Rectangle_776" data-name="Rectangle 776" width="63.318" height="69.709" fill="none"/>
    </clipPath>
  </defs>
  <g id="Group_1619" data-name="Group 1619" clip-path="url(#clip-path)">
    <path id="Path_2858" data-name="Path 2858" d="M63.3,47.8c0-3.357-.033-6.718.007-10.075a6.38,6.38,0,0,0-3.243-5.9q-8-4.92-16-9.836a7.63,7.63,0,0,0-.239,3.309,9.136,9.136,0,0,0,.4,1.645c3.6,2.242,7.226,4.421,10.83,6.641.633.39,1.23.836,2.025,1.38-8.242,4.822-16.271,9.516-24.3,14.213-2.3,1.347-4.554,2.812-6.946,3.979a3.8,3.8,0,0,1-3.125.11c-5.562-3.593-11.007-7.377-16.7-11.246.692-.453,1.152-.788,1.642-1.079q4.147-2.446,8.3-4.885c-.015-.026-.029-.055-.044-.081a8.311,8.311,0,0,1-.961-4.123q-5.831,3.44-11.662,6.887A6.329,6.329,0,0,0,0,44.608q.033,9.967,0,19.926a6.558,6.558,0,0,0,3.019,5.813C8.8,74.326,14.555,78.339,20.334,82.325a6.26,6.26,0,0,0,7.119.309Q43.754,73.121,60,63.511a6.431,6.431,0,0,0,3.313-6.1C63.26,54.212,63.3,51,63.3,47.8M22.043,78.49C16.16,74.411,10.693,70.663,5.293,66.824a3,3,0,0,1-1.1-2.08C4.1,58.574,4.141,52.4,4.141,45.757l3.262,2.2c4.55,3.081,9.111,6.14,13.631,9.269A2.314,2.314,0,0,1,22,58.777c.066,6.4.04,12.8.04,19.713m12.972-6.884a3.861,3.861,0,0,1-1.524,2.625c-2.22,1.535-4.627,2.8-7.311,4.381,0-7.005-.007-13.539.015-20.073a1.3,1.3,0,0,1,.416-.972c2.654-1.579,5.341-3.1,8.478-4.9v5.669c0,4.425.085,8.853-.074,13.274m9.733-3.847a54.436,54.436,0,0,0-5.533,3.125v-7.23c0-3.891-.04-7.782.033-11.669A2.994,2.994,0,0,1,40,49.817c2.522-1.649,5.168-3.1,8.154-4.848,0,5.912-.217,11.382.085,16.819.166,3.03-.733,4.811-3.493,5.971m14.375-9.825A2.691,2.691,0,0,1,58.052,59.8c-1.741,1.185-3.6,2.19-5.765,3.468,0-6.873-.015-13.329.029-19.79a1.774,1.774,0,0,1,.67-1.3c1.907-1.2,3.876-2.29,6.181-3.626,0,6.766.033,13.079-.044,19.385" transform="translate(0 -13.889)" fill="#000000"/>
    <path id="Path_2859" data-name="Path 2859" d="M71.5,14.2a8.651,8.651,0,0,1,.876,4.973,7.158,7.158,0,0,1-1.933,3.814,16.27,16.27,0,0,1-6.1,3.972c-1.863.652-3.63,1.579-5.382,2.356-1.13-.537-2.385-1.244-3.722-1.734a19.847,19.847,0,0,1-7.027-3.965,9.056,9.056,0,0,1-1.863-2.389,6.671,6.671,0,0,1-.626-4.436,8.414,8.414,0,0,1,.228-.935,20.365,20.365,0,0,1,.644-2.014,9.667,9.667,0,0,0-.534-8.588,1.152,1.152,0,0,1,.276-1.609C47.477,2.477,48.5,1.2,49.542,0a10.112,10.112,0,0,0,5.419,1.973,6.413,6.413,0,0,0,1.745-.243,8.288,8.288,0,0,1,2.253-.324,9.03,9.03,0,0,1,2.334.328,7.19,7.19,0,0,0,1.863.25,8.583,8.583,0,0,0,5.128-1.9c1.31,1.476,2.61,2.941,3.913,4.406.114-.1.228-.2.346-.294-.357.766-.751,1.52-1.064,2.3-.081.2-.155.4-.217.6a9.652,9.652,0,0,0-.442,4.554A10.958,10.958,0,0,0,71.5,14.2" transform="translate(-28.81)" fill="#000000"/>
  </g>
</svg>
