<?xml version="1.0" encoding="UTF-8"?>
<svg id="Layer_1" data-name="Layer 1" xmlns="http://www.w3.org/2000/svg" viewBox="0 0 43.2 43.24">
  <defs>
    <style>
      .cls-1 {
        fill: #000;
        stroke-width: 0px;
      }
    </style>
  </defs>
  <g id="Group_1621" data-name="Group 1621">
    <g id="Group_1621-2" data-name="Group 1621-2">
      <path id="Path_2860" data-name="Path 2860" class="cls-1" d="M32.84,39.59v3.65h-1.79c-8.04,0-16.07,0-24.11,0C3.01,43.24.02,40.55,0,36.94c-.03-3.58,2.94-6.28,6.89-6.29,2.87,0,5.75.05,8.62-.05,1.46.05,2.69-1.07,2.75-2.5.01-.37-.05-.73-.19-1.08-.41-1.07-1.49-1.74-2.64-1.65-2.65.03-5.29.01-8.07.01.17-1.46-.48-2.8.47-3.87-1.92-2.42-4.03-4.84-5.85-7.45C.51,11.99-.44,9.65.24,6.98.9,3.7,3.47,1.11,6.78.38c3.48-1.05,7.25.12,9.49,2.93,2.36,2.81,2.83,6.06.92,9.2-1.77,2.66-3.68,5.22-5.73,7.68-.34.45-.78.82-1.43,1.5,1.97,0,3.63-.02,5.3,0,3.59-.05,6.55,2.76,6.62,6.29-.05,3.49-2.97,6.28-6.53,6.23-.03,0-.06,0-.09,0-1.7.02-3.41,0-5.11,0-1.22,0-2.45-.03-3.67.02-1.47-.07-2.73,1.04-2.8,2.48,0,.09,0,.19,0,.28-.05,1.37,1.04,2.52,2.43,2.57.12,0,.24,0,.36-.01,8.09.04,16.18.03,24.27.05h2.04M8.82,17.36h.73c1.5-2.18,3.07-4.32,4.46-6.57.47-.81.67-1.75.57-2.68-.18-2.05-1.69-3.75-3.74-4.2-2.08-.69-4.37-.09-5.82,1.54-1.5,1.46-1.75,3.75-.62,5.49,1.36,2.21,2.94,4.29,4.42,6.43"/>
      <path id="Path_2861" data-name="Path 2861" class="cls-1" d="M43.17,18.04c-.78,1.59-1.38,2.96-2.13,4.26-.46.7-.46,1.61.02,2.31.74,1.3,1.36,2.67,2.13,4.21h-10.23v8.9h-3.58v-21.35h3.44c.07.52.14,1.01.22,1.67h10.12ZM36.78,21.75h-3.68v3.38h3.68v-3.38Z"/>
      <path id="Path_2862" data-name="Path 2862" class="cls-1" d="M10.44,10.01h0c.67-.66.67-1.73,0-2.39l-.17-.17c-.71-.62-1.8-.57-2.43.13-.59.64-.59,1.62,0,2.26l.17.16c.67.66,1.76.66,2.43,0"/>
    </g>
  </g>
</svg>