<?xml version="1.0" encoding="UTF-8"?>
<svg id="Layer_1" data-name="Layer 1" xmlns="http://www.w3.org/2000/svg" viewBox="0 0 43.21 43.2">
  <defs>
    <style>
      .cls-1 {
        fill: #000;
        stroke-width: 0px;
      }
    </style>
  </defs>
  <g id="Group_1619" data-name="Group 1619">
    <path id="Path_2858" data-name="Path 2858" class="cls-1" d="M43.19,21.02c0-2.08-.02-4.16,0-6.24.09-1.5-.77-2.92-2.21-3.66-3.64-2.03-7.28-4.06-10.92-6.1-.22.66-.27,1.36-.16,2.05.06.35.15.69.27,1.02,2.46,1.39,4.93,2.74,7.39,4.12.43.24.84.52,1.38.86-5.62,2.99-11.1,5.9-16.58,8.81-1.57.83-3.11,1.74-4.74,2.47-.67.3-1.44.32-2.13.07-3.79-2.23-7.51-4.57-11.39-6.97.47-.28.79-.49,1.12-.67,1.89-1.01,3.77-2.02,5.66-3.03-.01-.02-.02-.03-.03-.05-.46-.79-.68-1.67-.66-2.56-2.65,1.42-5.3,2.84-7.96,4.27C.79,16.12-.08,17.53,0,19.04.02,23.15.02,27.27,0,31.39c-.07,1.45.71,2.82,2.06,3.6,3.94,2.47,7.87,4.95,11.81,7.42,1.42.98,3.35,1.05,4.86.19,7.41-3.93,14.82-7.88,22.21-11.85,1.5-.75,2.38-2.23,2.26-3.78-.04-1.98,0-3.97,0-5.96M15.04,40.03c-4.01-2.53-7.74-4.85-11.43-7.23-.43-.32-.7-.78-.75-1.29-.06-3.82-.04-7.65-.04-11.77l2.23,1.36c3.1,1.91,6.22,3.81,9.3,5.74.36.22.59.57.66.96.05,3.97.03,7.93.03,12.22M23.89,35.77c-.09.65-.46,1.24-1.04,1.63-1.51.95-3.16,1.74-4.99,2.71,0-4.34,0-8.39.01-12.44,0-.23.1-.45.28-.6,1.81-.98,3.64-1.92,5.78-3.04v3.51c0,2.74.06,5.49-.05,8.23M30.53,33.39c-1.3.58-2.56,1.22-3.78,1.94v-4.48c0-2.41-.03-4.82.02-7.23-.03-.49.15-.98.52-1.35,1.72-1.02,3.53-1.92,5.56-3,0,3.66-.15,7.05.06,10.42.11,1.88-.5,2.98-2.38,3.7M40.34,27.3c-.06.46-.32.88-.73,1.16-1.19.73-2.46,1.36-3.93,2.15,0-4.26-.01-8.26.02-12.26.02-.32.18-.61.46-.81,1.3-.74,2.64-1.42,4.22-2.25,0,4.19.02,8.11-.03,12.01"/>
    <path id="Path_2859" data-name="Path 2859" class="cls-1" d="M29.13,8.8c.53.95.74,2.02.6,3.08-.16.89-.62,1.72-1.32,2.36-1.16,1.1-2.59,1.94-4.16,2.46-1.27.4-2.48.98-3.67,1.46-.77-.33-1.63-.77-2.54-1.07-1.77-.51-3.4-1.35-4.79-2.46-.51-.43-.94-.93-1.27-1.48-.49-.84-.64-1.82-.43-2.75.04-.2.09-.39.16-.58.12-.42.27-.84.44-1.25.8-1.73.67-3.7-.36-5.32-.25-.32-.17-.77.19-1,0,0,0,0,0,0,.78-.72,1.48-1.52,2.19-2.26,1.08.72,2.36,1.15,3.7,1.22.4,0,.8-.05,1.19-.15.5-.13,1.02-.2,1.54-.2.54,0,1.07.07,1.59.2.41.1.84.15,1.27.15,1.28-.04,2.5-.45,3.5-1.18.89.91,1.78,1.82,2.67,2.73.08-.06.16-.12.24-.18-.24.47-.51.94-.73,1.43-.06.12-.11.25-.15.37-.35.91-.45,1.87-.3,2.82.08.54.24,1.07.46,1.58"/>
  </g>
</svg>