<?xml version="1.0" encoding="UTF-8"?>
<svg id="Layer_1" data-name="Layer 1" xmlns="http://www.w3.org/2000/svg" viewBox="0 0 43.2 43.2">
  <defs>
    <style>
      .cls-1 {
        fill: #000;
        stroke-width: 0px;
      }
    </style>
  </defs>
  <g id="Group_1662" data-name="Group 1662">
    <g id="Group_1661" data-name="Group 1661">
      <path id="Path_3028" data-name="Path 3028" class="cls-1" d="M16.5,41.41c-4.15,0-8.16-.06-12.17.03-2.13.05-2.47-.08-2.49-1.77-.07-5.63-.14-11.25-.21-16.88-.03-2.64.06-2.71,3.27-2.95.22-1.49,1.44-1.73,3.05-1.66,3.01.14,6.03.06,9.02.28,1.64.25,3.24.62,4.8,1.11,1.71-1.23,4.25-1.39,6.79-1.5,2-.09,4.02-.07,6.02-.14,1.87-.07,3.17.46,3.54,2.11h1.17c1.42-.02,2.01.44,2.01,1.73,0,6.02.14,12.03.21,18.05.02,1.65-.15,1.59-2.19,1.52-3.8-.12-7.61-.05-11.41,0-.42.08-.76.32-.91.65-.13.75-.97,1.27-1.88,1.17-.03,0-.05,0-.08-.01-1.85-.03-3.7-.06-5.55.02-1.66.08-3.03-.02-3-1.78M7.42,36.59c4.91.45,9.66-1.08,14.05,1.07,4.55-2.21,9.64-1,14.3-1.3,0-5.41.01-10.67-.03-15.94,0-.27-.52-.78-.76-.77-3.57.2-7.14.4-10.68.8-.62.07-1.46,1.04-1.56,1.66-.21,1.78-.29,3.57-.25,5.36-.03,2.66.04,5.32-.04,7.98-.01.37-.64.73-.98,1.09-.36-.31-.67-.66-.93-1.03-.09-.34-.11-.69-.05-1.04.02-3.93.01-7.85.1-11.77.16-1.1-.76-2.1-2.08-2.28-3.65-.59-7.39-.74-11.1-.45v16.62ZM4.99,21.93c-1.34-.28-1.2.43-1.19,1.04.04,4.14.07,8.28.11,12.42.01,1.38,0,2.75,0,4.18,4.32,0,8.27.04,12.22-.02,1.6-.02,2.72.28,2.7,1.94,1.78,0,3.47.03,5.14-.03.42-.07.76-.31.92-.64.22-1.03,1.06-1.2,2.09-1.2h12.3c.05-.42.11-.63.11-.85-.09-5.36-.19-10.72-.29-16.08,0-.04.02-.1,0-.13-.17-.22-.35-.43-.52-.65-.2.2-.5.38-.56.61-.05.35-.05.7,0,1.04.1,4.14.23,8.28.29,12.42.02,1.76-.52,2.14-2.63,2.14-3.06,0-6.13-.14-9.17.05-1.37.09-2.66.88-4.04,1.25-.6.16-1.56.29-1.93.02-1.83-1.31-3.95-1.3-6.14-1.2-2.58.11-5.17.23-7.75.33-.94.04-1.54-.25-1.43-1.13.14-.7.23-1.41.26-2.12-.13-4.44-.31-8.87-.47-13.39"/>
      <path id="Path_3029" data-name="Path 3029" class="cls-1" d="M13.25,28.47c-.84.05-1.68.04-2.52-.03-.45-.07-.82-.49-1.22-.75.33-.33.63-.94.98-.96,1.89-.1,3.78-.11,5.67-.04.35.01.98.59.92.81-.14.41-.52.75-1.01.89-.94.08-1.89.09-2.83.04v.04"/>
      <path id="Path_3030" data-name="Path 3030" class="cls-1" d="M13.26,25.33c-.84.06-1.69.05-2.52-.04-.47-.09-.84-.57-1.26-.87.37-.3.74-.84,1.14-.86,1.74-.09,3.48-.08,5.22.04.43.03.81.62,1.21.95-.42.31-.9.56-1.42.74-.79.07-1.58.08-2.37.03v.02Z"/>
      <path id="Path_3031" data-name="Path 3031" class="cls-1" d="M13.57,29.88c.68-.06,1.36-.05,2.03.04.49.12.87.56,1.3.86-.41.31-.78.85-1.22.9-1.4.15-2.82.17-4.23.07-.56-.05-1.43-.55-1.5-.93-.15-.82.71-1.02,1.59-1,.68.01,1.36,0,2.04,0v.07"/>
      <path id="Path_3032" data-name="Path 3032" class="cls-1" d="M30.07,28.45c-.73.06-1.46.05-2.18-.04-.48-.11-.84-.58-1.25-.89.37-.3.71-.83,1.1-.86,1.62-.1,3.24-.12,4.86-.04.36.02,1.01.57.95.76-.14.42-.5.76-.98.92-.83.09-1.67.1-2.5.04v.11"/>
      <path id="Path_3033" data-name="Path 3033" class="cls-1" d="M27.43,25.69c-.12-.11-.8-.47-.75-.71.14-.44.54-.8,1.06-.96,1.46-.18,2.94-.25,4.41-.22.41,0,.8.49,1.2.76-.36.31-.68.85-1.08.89-1.46.17-2.94.17-4.85.25"/>
      <path id="Path_3034" data-name="Path 3034" class="cls-1" d="M30.21,31.33c-.62.07-1.25.05-1.87-.04-.49-.13-.86-.58-1.28-.88.38-.3.75-.81,1.16-.85,1.41-.11,2.83-.11,4.24-.01.4.03.75.56,1.12.86-.39.3-.72.76-1.17.85-.73.09-1.46.1-2.19.04v.03"/>
      <line id="Line_88" data-name="Line 88" class="cls-1" x1=".84" y1="7.34" x2="14.12" y2="14.63"/>
      <path id="Path_3035" data-name="Path 3035" class="cls-1" d="M14.12,15.32c-.17,0-.33-.04-.47-.12L.37,7.91c-.39-.21-.49-.64-.23-.96s.78-.41,1.17-.19l13.28,7.29c.39.21.5.64.24.96-.16.2-.42.32-.71.31"/>
      <line id="Line_89" data-name="Line 89" class="cls-1" x1="42.36" y1="7.34" x2="29.08" y2="14.63"/>
      <path id="Path_3036" data-name="Path 3036" class="cls-1" d="M29.08,15.32c-.46,0-.84-.3-.85-.69,0-.24.14-.46.38-.59l13.28-7.29c.39-.21.91-.13,1.17.19s.15.75-.23.96h0l-13.28,7.29c-.14.08-.3.12-.47.12"/>
      <path id="Path_3037" data-name="Path 3037" class="cls-1" d="M21.71,11.14c-.46,0-.84-.31-.84-.69h0V.69c0-.38.38-.69.84-.69s.84.31.84.69v9.75c0,.38-.38.69-.84.69h0"/>
    </g>
  </g>
</svg>