<?xml version="1.0" encoding="UTF-8"?>
<svg id="Layer_1" data-name="Layer 1" xmlns="http://www.w3.org/2000/svg" viewBox="0 0 43.2 43.2">
  <defs>
    <style>
      .cls-1 {
        fill: #000;
        stroke-width: 0px;
      }
    </style>
  </defs>
  <g id="Group_1613" data-name="Group 1613">
    <path id="Path_2846" data-name="Path 2846" class="cls-1" d="M36.23,18v22.32H2.79v-23.04h10.19c1.54,0,2.79-1.29,2.79-2.88H2.79v-5.76h9.04l3.64,5.17c.26.37.68.59,1.13.59h11.86c-.74-.86-1.35-1.83-1.8-2.88h-9.35l-3.22-4.58c-.53-.74-1.37-1.18-2.26-1.18H2.79C1.25,5.76,0,7.05,0,8.64v31.68c0,1.59,1.25,2.88,2.79,2.88h33.44c1.54,0,2.79-1.29,2.79-2.88h0v-22.72c-.91.26-1.84.4-2.79.4"/>
    <path id="Path_2847" data-name="Path 2847" class="cls-1" d="M36.23,0c3.85,0,6.97,3.22,6.97,7.2s-3.12,7.2-6.97,7.2c-3.85,0-6.97-3.22-6.97-7.2s3.12-7.2,6.97-7.2h0"/>
  </g>
</svg>