<?xml version="1.0" encoding="UTF-8"?>
<svg id="Layer_2" data-name="Layer 2" xmlns="http://www.w3.org/2000/svg" viewBox="0 0 357 357">
  <defs>
    <style>
      .cls-1 {
        fill: #1079d0;
        stroke-width: 0px;
      }
    </style>
  </defs>
  <g id="Layer_2-2" data-name="Layer 2">
    <g id="Layer_1-2" data-name="Layer 1-2">
      <g>
        <path class="cls-1" d="M175.05,76.21c-52.35.22-96.17,40.84-101.37,91.4-5.86,56.92,39,108.97,95.35,112.45,3.47.21,6.91.18,10.32.03-.03-.88-2.25-72.29-3.32-88.01-1.08-15.81-12.86-12.29-16.84-14.4l-22.43-.06-.88-42.7s4.13.29,40.83-.47c36.71-.76,41.42,28,41.71,41.86.14,6.93,1.1,30.61,2.02,52.56.39,9.38.44,22.93,1.62,39.3,35.16-18.98,58.94-57.9,55.36-99.19-4.37-50.44-48.56-93-102.39-92.77h.02Z"/>
        <path class="cls-1" d="M174.82.04C76.26,2.08-1.99,83.63.04,182.19c2.04,98.56,83.59,176.81,182.15,174.77s176.81-83.59,174.77-182.15C354.93,76.25,273.38-2,174.82.04ZM168.58,315.9c-76.23-4.71-136.92-75.13-128.99-152.12,7.04-68.39,66.31-123.34,137.13-123.64,72.81-.31,132.59,57.26,138.5,125.5,7.01,81.03-63.81,155.38-146.65,150.27h.01Z"/>
      </g>
    </g>
  </g>
</svg>