<svg xmlns="http://www.w3.org/2000/svg" width="143.784" height="143.731" viewBox="0 0 143.784 143.731">
<defs>
    <style>
      .cls-1 {
        fill: #00000;
        stroke: none;
        stroke-width: 1;
      }
    </style>
  </defs>
  <g id="globe-favorite-svgrepo-com" transform="translate(0.5 0.5)">
    <path id="Path_1079" class="cls-1" data-name="Path 1079" d="M71.316,0a71.609,71.609,0,1,0,66.47,45.326,43.257,43.257,0,0,1-5.519,5.5A63.961,63.961,0,0,1,135.542,67.8H112.875c-.019-.569-.053-1.132-.079-1.7-2.877,1.115-4.873-.04-7.2-1.367q.094,1.52.148,3.066H74.961V44.061h7.73q-2.6-3.45-4.863-7.137H74.961V32c-3.494-6.8-3.051-14.616,0-21.371V8.11c.388.066.774.153,1.161.245A29.632,29.632,0,0,1,82.078.862,71.417,71.417,0,0,0,71.392,0ZM67.822,8.391V36.923H43.906a72.984,72.984,0,0,1,4.866-11.062C54.1,16.187,60.784,10.137,67.822,8.393ZM51.374,10.322a54.773,54.773,0,0,0-8.857,12.1,82.258,82.258,0,0,0-6.157,14.5H17.148a64.28,64.28,0,0,1,34.225-26.6ZM13.216,44.061H34.359A118.265,118.265,0,0,0,31.214,67.8H7.242a63.91,63.91,0,0,1,5.974-23.736Zm28.52,0H67.822V67.8H38.362A110.406,110.406,0,0,1,41.736,44.061ZM7.242,74.934H31.175A119.511,119.511,0,0,0,34.023,98.67H13.216A63.91,63.91,0,0,1,7.242,74.934Zm31.073,0H67.822V98.67H41.379A111.637,111.637,0,0,1,38.315,74.934Zm36.647,0h30.83a111.634,111.634,0,0,1-3.066,23.736H74.961Zm37.946,0h22.634a63.91,63.91,0,0,1-5.974,23.736h-19.5A119.976,119.976,0,0,0,112.908,74.934ZM17.148,105.806H35.9a83.358,83.358,0,0,0,6.612,15.936,57.293,57.293,0,0,0,6.931,10.015,64.314,64.314,0,0,1-32.3-25.95Zm26.264,0h24.41v29.685c-.44-.024-.874-.069-1.311-.1-6.554-2.141-12.742-8.022-17.739-17.092a74.3,74.3,0,0,1-5.36-12.492Zm31.55,0h25.731A74.034,74.034,0,0,1,95.334,118.3C90.439,127.185,84.4,133.012,78,135.26c-1.005.1-2.019.176-3.037.231Zm33.233,0h17.441a64.333,64.333,0,0,1-30.31,25.179,58.127,58.127,0,0,0,6.262-9.243,83.1,83.1,0,0,0,6.607-15.934Z" transform="translate(0 0)"/>
    <path id="Path_1080" class="cls-1" data-name="Path 1080" d="M79.8,0c4.476,0,8.739,2.5,12.57,4.75C96.207,2.5,100.47,0,104.945,0a25.081,25.081,0,0,1,25.024,25.024v.057c-.17,11.651-9.554,22.447-18.306,30.963A156.831,156.831,0,0,1,94.224,70.612a3.741,3.741,0,0,1-4.32-.028A148.521,148.521,0,0,1,73.376,56.376c-8.4-8.392-17.445-19.243-18.579-30.993q-.018-.178-.018-.357A25.079,25.079,0,0,1,79.8,0Z" transform="translate(12.815 0)"/>
  </g>
</svg>
