<svg xmlns="http://www.w3.org/2000/svg" width="54.997" height="42.775" viewBox="0 0 54.997 42.775">
  <defs>
    <style>
      .cls-1 {
        fill: #00000;
        fill-rule: evenodd;
      }
    </style>
  </defs>
  <path id="burger-menu-right-svgrepo-com" class="cls-1" d="M6.055,5a3.055,3.055,0,1,0,0,6.111H54.942a3.055,3.055,0,0,0,0-6.111Zm9.166,21.388a3.055,3.055,0,0,1,3.055-3.055H54.942a3.055,3.055,0,0,1,0,6.111H18.277A3.055,3.055,0,0,1,15.222,26.388ZM33.554,44.72a3.055,3.055,0,0,1,3.055-3.055H54.942a3.055,3.055,0,0,1,0,6.111H36.609A3.055,3.055,0,0,1,33.554,44.72Z" transform="translate(-3 -5)"/>
</svg>
