<?xml version="1.0" encoding="UTF-8"?>
<svg id="Layer_2" data-name="Layer 2" xmlns="http://www.w3.org/2000/svg" xmlns:xlink="http://www.w3.org/1999/xlink" viewBox="0 0 2880 14484">
  <defs>
    <style>
      .cls-1 {
        clip-path: url(#clippath);
      }

      .cls-2 {
        stroke-width: 0px;
      }

      .cls-2, .cls-3 {
        fill: none;
      }

      .cls-3 {
        stroke: #fff;
        stroke-dasharray: 0 0 12 12;
        stroke-width: 5px;
      }

      .cls-4 {
        clip-path: url(#clippath-1);
      }

      .cls-5 {
        clip-path: url(#clippath-4);
      }

      .cls-6 {
        clip-path: url(#clippath-3);
      }

      .cls-7 {
        clip-path: url(#clippath-2);
      }

      .cls-8 {
        clip-path: url(#clippath-7);
      }

      .cls-9 {
        clip-path: url(#clippath-8);
      }

      .cls-10 {
        clip-path: url(#clippath-6);
      }

      .cls-11 {
        clip-path: url(#clippath-5);
      }

      .cls-12 {
        clip-path: url(#clippath-9);
      }

      .cls-13 {
        opacity: .2;
      }

      .cls-14 {
        opacity: .3;
      }

      .cls-15 {
        isolation: isolate;
      }
    </style>
    <clipPath id="clippath">
      <rect class="cls-2" width="2880" height="14484"/>
    </clipPath>
    <clipPath id="clippath-1">
      <rect class="cls-2" x="-1072.68" y="2103.59" width="4396" height="11818.39"/>
    </clipPath>
    <clipPath id="clippath-2">
      <path class="cls-2" d="M358.14,13232.39c-11.19,0-20.26,8.46-20.26,18.9v642.36c0,10.43,9.07,18.89,20.26,18.89h2146.98c11.19,0,20.25-8.46,20.25-18.89v-642.36c0-10.44-9.07-18.9-20.25-18.9H358.14Z"/>
    </clipPath>
    <clipPath id="clippath-3">
      <rect class="cls-2" x="332.82" y="13227.66" width="2197.61" height="689.59"/>
    </clipPath>
    <clipPath id="clippath-4">
      <rect class="cls-2" x="337.89" y="13232.39" width="2187.49" height="680.15"/>
    </clipPath>
    <clipPath id="clippath-5">
      <rect class="cls-2" x="327.76" y="13222.94" width="2207.74" height="699.04"/>
    </clipPath>
    <clipPath id="clippath-6">
      <rect class="cls-2" x="327.76" y="13222.94" width="2207.74" height="699.04"/>
    </clipPath>
    <clipPath id="clippath-7">
      <rect class="cls-2" x="-1072.68" y="2103.59" width="4396.01" height="11818.39"/>
    </clipPath>
    <clipPath id="clippath-8">
      <rect class="cls-2" x="-1072.68" y="2103.59" width="4396.01" height="11818.39"/>
    </clipPath>
    <clipPath id="clippath-9">
      <rect class="cls-2" x="906.55" y="4191.88" width="1184.77" height="608.25"/>
    </clipPath>
  </defs>
  <g id="Layer_1-2" data-name="Layer 1">
    <g class="cls-1">
      <g id="Group_1343" data-name="Group 1343">
        <g id="Group_1338" data-name="Group 1338">
          <g class="cls-4">
            <g id="Group_1337" data-name="Group 1337">
              <g id="Group_1332" data-name="Group 1332">
                <g class="cls-7">
                  <g id="Group_1331" data-name="Group 1331">
                    <g id="Group_1330" data-name="Group 1330" class="cls-15">
                      <g id="Group_1329" data-name="Group 1329">
                        <g class="cls-6">
                          <g id="Group_1328" data-name="Group 1328">
                            <g id="Group_1327" data-name="Group 1327">
                              <g class="cls-5">
                                <g id="Group_1326" data-name="Group 1326">
                                  <g id="Group_1322" data-name="Group 1322" class="cls-13">
                                    <g id="Group_1321" data-name="Group 1321">
                                      <g class="cls-11">
                                        <g id="Group_1320" data-name="Group 1320">
                                          <path id="Path_2398" data-name="Path 2398" class="cls-2" d="M2525.38,13222.94h-24.3c-2.61-.18-4.87,1.79-5.05,4.4s1.79,4.87,4.4,5.05c.22.01.43.01.65,0h24.3c2.61.18,4.87-1.79,5.05-4.4s-1.79-4.87-4.4-5.05c-.22-.01-.43-.01-.65,0M2476.77,13222.94h-24.3c-2.61-.18-4.87,1.79-5.05,4.4s1.79,4.87,4.4,5.05c.22.01.43.01.65,0h24.3c2.61.18,4.87-1.79,5.05-4.4s-1.79-4.87-4.4-5.05c-.22-.01-.43-.01-.65,0M2428.15,13222.94h-24.31c-2.61-.18-4.87,1.79-5.05,4.4s1.79,4.87,4.4,5.05c.22.01.43.01.65,0h24.31c2.61.18,4.87-1.79,5.05-4.4s-1.79-4.87-4.4-5.05c-.22-.01-.43-.01-.65,0M2379.54,13222.94h-24.31c-2.61-.18-4.87,1.79-5.05,4.4s1.79,4.87,4.4,5.05c.22.01.43.01.65,0h24.31c2.61.18,4.87-1.79,5.05-4.4s-1.79-4.87-4.4-5.05c-.22-.01-.43-.01-.65,0M2330.93,13222.94h-24.3c-2.61-.18-4.87,1.79-5.05,4.4s1.79,4.87,4.4,5.05c.22.01.43.01.65,0h24.31c2.61.18,4.87-1.79,5.05-4.4s-1.79-4.87-4.4-5.05c-.22-.01-.43-.01-.65,0M2282.33,13222.94h-24.3c-2.61-.18-4.87,1.79-5.05,4.4s1.79,4.87,4.4,5.05c.22.01.43.01.65,0h24.3c2.61.18,4.87-1.79,5.05-4.4s-1.79-4.87-4.4-5.05c-.22-.01-.43-.01-.65,0M2233.72,13222.94h-24.3c-2.61-.18-4.87,1.79-5.05,4.4s1.79,4.87,4.4,5.05c.22.01.43.01.65,0h24.3c2.61.18,4.87-1.79,5.05-4.4s-1.79-4.87-4.4-5.05c-.22-.01-.43-.01-.65,0M2185.1,13222.94h-24.31c-2.61-.18-4.87,1.79-5.05,4.4s1.79,4.87,4.4,5.05c.22.01.43.01.65,0h24.31c2.61.18,4.87-1.79,5.05-4.4s-1.79-4.87-4.4-5.05c-.22-.01-.43-.01-.65,0M2136.49,13222.94h-24.31c-2.61-.18-4.87,1.79-5.05,4.4s1.79,4.87,4.4,5.05c.22.01.43.01.65,0h24.31c2.61.18,4.87-1.79,5.05-4.4s-1.79-4.87-4.4-5.05c-.22-.01-.43-.01-.65,0M2087.88,13222.94h-24.3c-2.61-.18-4.87,1.79-5.05,4.4s1.79,4.87,4.4,5.05c.22.01.43.01.65,0h24.3c2.61.18,4.87-1.79,5.05-4.4s-1.79-4.87-4.4-5.05c-.22-.01-.43-.01-.65,0M2039.27,13222.94h-24.3c-2.61-.18-4.87,1.79-5.05,4.4s1.79,4.87,4.4,5.05c.22.01.43.01.65,0h24.3c2.61.18,4.87-1.79,5.05-4.4s-1.79-4.87-4.4-5.05c-.22-.01-.43-.01-.65,0M1990.66,13222.94h-24.3c-2.61-.18-4.87,1.79-5.05,4.4s1.79,4.87,4.4,5.05c.22.01.43.01.65,0h24.3c2.61.18,4.87-1.79,5.05-4.4s-1.79-4.87-4.4-5.05c-.22-.01-.43-.01-.65,0M1942.05,13222.94h-24.31c-2.61-.18-4.87,1.79-5.05,4.4s1.79,4.87,4.4,5.05c.22.01.43.01.65,0h24.31c2.61.18,4.87-1.79,5.05-4.4s-1.79-4.87-4.4-5.05c-.22-.01-.43-.01-.65,0M1893.43,13222.94h-24.3c-2.61-.18-4.87,1.79-5.05,4.4s1.79,4.87,4.4,5.05c.22.01.43.01.65,0h24.31c2.61.18,4.87-1.79,5.05-4.4s-1.79-4.87-4.4-5.05c-.22-.01-.43-.01-.65,0M1844.83,13222.94h-24.31c-2.61-.18-4.87,1.79-5.05,4.4s1.79,4.87,4.4,5.05c.22.01.43.01.65,0h24.31c2.61.18,4.87-1.79,5.05-4.4s-1.79-4.87-4.4-5.05c-.22-.01-.43-.01-.65,0M1796.22,13222.94h-24.31c-2.61-.18-4.87,1.79-5.05,4.4s1.79,4.87,4.4,5.05c.22.01.43.01.65,0h24.31c2.61.18,4.87-1.79,5.05-4.4s-1.79-4.87-4.4-5.05c-.22-.01-.43-.01-.65,0M1747.6,13222.94h-24.3c-2.61-.18-4.87,1.79-5.05,4.4s1.79,4.87,4.4,5.05c.22.01.43.01.65,0h24.3c2.61.18,4.87-1.79,5.05-4.4s-1.79-4.87-4.4-5.05c-.22-.01-.43-.01-.65,0M1698.99,13222.94h-24.31c-2.61-.18-4.87,1.79-5.05,4.4s1.79,4.87,4.4,5.05c.22.01.43.01.65,0h24.31c2.61.18,4.87-1.79,5.05-4.4s-1.79-4.87-4.4-5.05c-.22-.01-.43-.01-.65,0M1650.38,13222.94h-24.31c-2.61-.18-4.87,1.79-5.05,4.4s1.79,4.87,4.4,5.05c.22.01.43.01.65,0h24.31c2.61.18,4.87-1.79,5.05-4.4s-1.79-4.87-4.4-5.05c-.22-.01-.43-.01-.65,0M1601.77,13222.94h-24.31c-2.61-.18-4.87,1.79-5.05,4.4s1.79,4.87,4.4,5.05c.22.01.43.01.65,0h24.31c2.61.18,4.87-1.79,5.05-4.4s-1.79-4.87-4.4-5.05c-.22-.01-.43-.01-.65,0M1553.16,13222.94h-24.31c-2.61-.18-4.87,1.79-5.05,4.4s1.79,4.87,4.4,5.05c.22.01.43.01.65,0h24.31c2.61.18,4.87-1.79,5.05-4.4s-1.79-4.87-4.4-5.05c-.22-.01-.43-.01-.65,0M1504.55,13222.94h-24.31c-2.61-.18-4.87,1.79-5.05,4.4s1.79,4.87,4.4,5.05c.22.01.43.01.65,0h24.31c2.61.18,4.87-1.79,5.05-4.4s-1.79-4.87-4.4-5.05c-.22-.01-.43-.01-.65,0M1455.93,13222.94h-24.31c-2.61-.18-4.87,1.79-5.05,4.4s1.79,4.87,4.4,5.05c.22.01.43.01.65,0h24.31c2.61.18,4.87-1.79,5.05-4.4s-1.79-4.87-4.4-5.05c-.22-.01-.43-.01-.65,0M1407.33,13222.94h-24.31c-2.61-.18-4.87,1.79-5.05,4.4s1.79,4.87,4.4,5.05c.22.01.43.01.65,0h24.31c2.61.18,4.87-1.79,5.05-4.4s-1.79-4.87-4.4-5.05c-.22-.01-.43-.01-.65,0M1358.72,13222.94h-24.31c-2.61-.18-4.87,1.79-5.05,4.4s1.79,4.87,4.4,5.05c.22.01.43.01.65,0h24.31c2.61.18,4.87-1.79,5.05-4.4s-1.79-4.87-4.4-5.05c-.22-.01-.43-.01-.65,0M1310.1,13222.94h-24.31c-2.61-.18-4.87,1.79-5.05,4.4s1.79,4.87,4.4,5.05c.22.01.43.01.65,0h24.31c2.61.18,4.87-1.79,5.05-4.4s-1.79-4.87-4.4-5.05c-.22-.01-.43-.01-.65,0M1261.49,13222.94h-24.31c-2.61-.18-4.87,1.79-5.05,4.4s1.79,4.87,4.4,5.05c.22.01.43.01.65,0h24.31c2.61.18,4.87-1.79,5.05-4.4s-1.79-4.87-4.4-5.05c-.22-.01-.43-.01-.65,0M1212.88,13222.94h-24.31c-2.61-.18-4.87,1.79-5.05,4.4s1.79,4.87,4.4,5.05c.22.01.43.01.65,0h24.31c2.61.18,4.87-1.79,5.05-4.4s-1.79-4.87-4.4-5.05c-.22-.01-.43-.01-.65,0M1164.27,13222.94h-24.31c-2.61-.18-4.87,1.79-5.05,4.4s1.79,4.87,4.4,5.05c.22.01.43.01.65,0h24.31c2.61.18,4.87-1.79,5.05-4.4s-1.79-4.87-4.4-5.05c-.22-.01-.43-.01-.65,0M1115.66,13222.94h-24.31c-2.61-.18-4.87,1.79-5.05,4.4s1.79,4.87,4.4,5.05c.22.01.43.01.65,0h24.31c2.61.18,4.87-1.79,5.05-4.4s-1.79-4.87-4.4-5.05c-.22-.01-.43-.01-.65,0M1067.05,13222.94h-24.31c-2.61-.18-4.87,1.79-5.05,4.4s1.79,4.87,4.4,5.05c.22.01.43.01.65,0h24.31c2.61.18,4.87-1.79,5.05-4.4s-1.79-4.87-4.4-5.05c-.22-.01-.43-.01-.65,0M1018.44,13222.94h-24.3c-2.61-.18-4.87,1.79-5.05,4.4s1.79,4.87,4.4,5.05c.22.01.43.01.65,0h24.3c2.61.18,4.87-1.79,5.05-4.4s-1.79-4.87-4.4-5.05c-.22-.01-.43-.01-.65,0M969.83,13222.94h-24.31c-2.61-.18-4.87,1.79-5.05,4.4s1.79,4.87,4.4,5.05c.22.01.43.01.65,0h24.31c2.61.18,4.87-1.79,5.05-4.4s-1.79-4.87-4.4-5.05c-.22-.01-.43-.01-.65,0M921.22,13222.94h-24.31c-2.61-.18-4.87,1.79-5.05,4.4s1.79,4.87,4.4,5.05c.22.01.43.01.65,0h24.31c2.61.18,4.87-1.79,5.05-4.4s-1.79-4.87-4.4-5.05c-.22-.01-.43-.01-.65,0M872.6,13222.94h-24.31c-2.61-.18-4.87,1.79-5.05,4.4s1.79,4.87,4.4,5.05c.22.01.43.01.65,0h24.31c2.61.18,4.87-1.79,5.05-4.4s-1.79-4.87-4.4-5.05c-.22-.01-.43-.01-.65,0M823.99,13222.94h-24.31c-2.61-.18-4.87,1.79-5.05,4.4s1.79,4.87,4.4,5.05c.22.01.43.01.65,0h24.31c2.61.18,4.87-1.79,5.05-4.4s-1.79-4.87-4.4-5.05c-.22-.01-.43-.01-.65,0M775.38,13222.94h-24.31c-2.61-.18-4.87,1.79-5.05,4.4s1.79,4.87,4.4,5.05c.22.01.43.01.65,0h24.31c2.61.18,4.87-1.79,5.05-4.4s-1.79-4.87-4.4-5.05c-.22-.01-.43-.01-.65,0M726.77,13222.94h-24.31c-2.61-.18-4.87,1.79-5.05,4.4s1.79,4.87,4.4,5.05c.22.01.43.01.65,0h24.31c2.61.18,4.87-1.79,5.05-4.4s-1.79-4.87-4.4-5.05c-.22-.01-.43-.01-.65,0M678.16,13222.94h-24.3c-2.61-.18-4.87,1.79-5.05,4.4-.18,2.61,1.79,4.87,4.4,5.05.22.01.43.01.65,0h24.31c2.61.18,4.87-1.79,5.05-4.4s-1.79-4.87-4.4-5.05c-.22-.01-.43-.01-.65,0M629.55,13222.94h-24.31c-2.61-.18-4.87,1.79-5.05,4.4-.18,2.61,1.79,4.87,4.4,5.05.22.01.43.01.65,0h24.3c2.61.18,4.87-1.79,5.05-4.4.18-2.61-1.79-4.87-4.4-5.05-.22-.01-.43-.01-.65,0M580.94,13222.94h-24.3c-2.61-.18-4.87,1.79-5.05,4.4-.18,2.61,1.79,4.87,4.4,5.05.22.01.43.01.65,0h24.3c2.61.18,4.87-1.79,5.05-4.4.18-2.61-1.79-4.87-4.4-5.05-.22-.01-.43-.01-.65,0M532.33,13222.94h-24.3c-2.61-.18-4.87,1.79-5.05,4.4-.18,2.61,1.79,4.87,4.4,5.05.22.01.43.01.65,0h24.3c2.61.18,4.87-1.79,5.05-4.4.18-2.61-1.79-4.87-4.4-5.05-.22-.01-.43-.01-.65,0M483.72,13222.94h-24.3c-2.61-.18-4.87,1.79-5.05,4.4-.18,2.61,1.79,4.87,4.4,5.05.22.01.43.01.65,0h24.3c2.61.18,4.87-1.79,5.05-4.4.18-2.61-1.79-4.87-4.4-5.05-.22-.01-.43-.01-.65,0M435.11,13222.94h-24.3c-2.61-.18-4.87,1.79-5.05,4.4-.18,2.61,1.79,4.87,4.4,5.05.22.01.43.01.65,0h24.31c2.61.18,4.87-1.79,5.05-4.4.18-2.61-1.79-4.87-4.4-5.05-.22-.01-.43-.01-.65,0M386.5,13222.94h-24.31c-2.61-.18-4.87,1.79-5.05,4.4-.18,2.61,1.79,4.87,4.4,5.05.22.01.43.01.65,0h24.3c2.61.18,4.87-1.79,5.05-4.4.18-2.61-1.79-4.87-4.4-5.05-.22-.01-.43-.01-.65,0M332.82,13227.66c-2.7-.09-4.97,2.02-5.06,4.72v22.67c.2,2.8,2.62,4.9,5.42,4.71,2.52-.18,4.53-2.18,4.71-4.71v-22.67c-.1-2.7-2.36-4.82-5.06-4.72M332.82,13273.01c-2.7-.09-4.97,2.02-5.06,4.72v22.67c.2,2.8,2.62,4.9,5.42,4.71,2.52-.18,4.53-2.18,4.71-4.71v-22.67c-.1-2.7-2.36-4.82-5.06-4.72M332.82,13318.35c-2.7-.09-4.97,2.02-5.06,4.72v22.67c.2,2.8,2.62,4.9,5.42,4.71,2.52-.18,4.53-2.18,4.71-4.71v-22.67c-.1-2.7-2.36-4.82-5.06-4.72M332.82,13363.69c-2.7-.09-4.97,2.02-5.06,4.72v22.67c.2,2.8,2.62,4.9,5.42,4.71,2.52-.18,4.53-2.18,4.71-4.71v-22.67c-.1-2.7-2.36-4.81-5.06-4.72M332.82,13409.04c-2.7-.09-4.97,2.02-5.06,4.72v22.67c.2,2.8,2.62,4.9,5.42,4.71,2.52-.18,4.53-2.18,4.71-4.71v-22.67c-.1-2.7-2.36-4.82-5.06-4.72M332.82,13454.38c-2.7-.09-4.97,2.02-5.06,4.72v22.67c.2,2.8,2.62,4.9,5.42,4.71,2.52-.18,4.53-2.18,4.71-4.71v-22.67c-.1-2.7-2.36-4.82-5.06-4.72M332.82,13499.72c-2.7-.09-4.97,2.02-5.06,4.72v22.67c.2,2.8,2.62,4.9,5.42,4.71,2.52-.18,4.53-2.18,4.71-4.71v-22.67c-.1-2.7-2.36-4.81-5.06-4.72M332.82,13545.06c-2.7-.09-4.97,2.02-5.06,4.72v22.67c.2,2.8,2.62,4.9,5.42,4.71,2.52-.18,4.53-2.18,4.71-4.71v-22.67c-.1-2.7-2.36-4.82-5.06-4.72M332.82,13590.41c-2.7-.09-4.97,2.02-5.06,4.72v22.67c.2,2.8,2.62,4.9,5.42,4.71,2.52-.18,4.53-2.18,4.71-4.71v-22.67c-.1-2.7-2.36-4.82-5.06-4.72M332.81,13635.75c-2.7-.09-4.97,2.02-5.06,4.72v22.67c.2,2.8,2.62,4.9,5.42,4.71,2.52-.18,4.53-2.18,4.71-4.71v-22.67c-.1-2.7-2.36-4.81-5.06-4.72M332.81,13681.09c-2.7-.09-4.97,2.02-5.06,4.72v22.67c.2,2.8,2.62,4.9,5.42,4.71,2.52-.18,4.53-2.18,4.71-4.71v-22.67c-.1-2.7-2.36-4.82-5.06-4.72M332.81,13726.43c-2.7-.09-4.97,2.02-5.06,4.72v22.67c.2,2.8,2.62,4.9,5.42,4.71,2.52-.18,4.53-2.18,4.71-4.71v-22.67c-.1-2.7-2.36-4.82-5.06-4.72M332.81,13771.78c-2.7-.09-4.97,2.02-5.06,4.72v22.67c.2,2.8,2.62,4.9,5.42,4.71,2.52-.18,4.53-2.18,4.71-4.71v-22.67c-.1-2.7-2.36-4.82-5.06-4.72M332.81,13817.12c-2.7-.09-4.97,2.02-5.06,4.72v22.67c.2,2.8,2.62,4.9,5.42,4.71,2.52-.18,4.53-2.18,4.71-4.71v-22.67c-.1-2.7-2.36-4.82-5.06-4.72M332.81,13862.46c-2.7-.09-4.97,2.02-5.06,4.72v22.67c.2,2.8,2.62,4.9,5.42,4.71,2.52-.18,4.53-2.18,4.71-4.71v-22.67c-.1-2.7-2.36-4.82-5.06-4.72M362.18,13912.53h-24.29c-2.61-.18-4.87,1.79-5.04,4.4s1.79,4.87,4.4,5.04c.21.01.43.01.64,0h24.3c2.61.18,4.87-1.79,5.04-4.4s-1.79-4.87-4.4-5.04c-.21-.01-.43-.01-.64,0M410.8,13912.53h-24.31c-2.61-.18-4.87,1.79-5.04,4.4s1.79,4.87,4.4,5.04c.21.01.43.01.64,0h24.3c2.61.18,4.87-1.79,5.04-4.4s-1.79-4.87-4.4-5.04c-.21-.01-.43-.01-.64,0M459.41,13912.53h-24.3c-2.61-.18-4.87,1.79-5.04,4.4s1.79,4.87,4.4,5.04c.21.01.43.01.64,0h24.3c2.61.18,4.87-1.79,5.04-4.4s-1.79-4.87-4.4-5.04c-.21-.01-.43-.01-.64,0M508.02,13912.53h-24.3c-2.61-.18-4.87,1.79-5.04,4.4s1.79,4.87,4.4,5.04c.21.01.43.01.64,0h24.3c2.61.18,4.87-1.79,5.04-4.4s-1.79-4.87-4.4-5.04c-.21-.01-.43-.01-.64,0M556.64,13912.53h-24.31c-2.61-.18-4.87,1.79-5.04,4.4s1.79,4.87,4.4,5.04c.21.01.43.01.64,0h24.31c2.61.18,4.87-1.79,5.04-4.4s-1.79-4.87-4.4-5.04c-.21-.01-.43-.01-.64,0M605.25,13912.53h-24.31c-2.61-.18-4.87,1.79-5.04,4.4s1.79,4.87,4.4,5.04c.21.01.43.01.64,0h24.3c2.61.18,4.87-1.79,5.04-4.4s-1.79-4.87-4.4-5.04c-.21-.01-.43-.01-.64,0M653.85,13912.53h-24.3c-2.61-.18-4.87,1.79-5.04,4.4s1.79,4.87,4.4,5.04c.21.01.43.01.64,0h24.31c2.61.18,4.87-1.79,5.04-4.4s-1.79-4.87-4.4-5.04c-.21-.01-.43-.01-.64,0M702.47,13912.53h-24.31c-2.61-.18-4.87,1.79-5.04,4.4s1.79,4.87,4.4,5.04c.21.01.43.01.64,0h24.31c2.61.18,4.87-1.79,5.04-4.4s-1.79-4.87-4.4-5.04c-.21-.01-.43-.01-.64,0M751.08,13912.53h-24.31c-2.61-.18-4.87,1.79-5.04,4.4s1.79,4.87,4.4,5.04c.21.01.43.01.64,0h24.31c2.61.18,4.87-1.79,5.04-4.4s-1.79-4.87-4.4-5.04c-.21-.01-.43-.01-.64,0M799.69,13912.53h-24.31c-2.61-.18-4.87,1.79-5.04,4.4s1.79,4.87,4.4,5.04c.21.01.43.01.64,0h24.31c2.61.18,4.87-1.79,5.04-4.4s-1.79-4.87-4.4-5.04c-.21-.01-.43-.01-.64,0M848.3,13912.53h-24.31c-2.61-.18-4.87,1.79-5.04,4.4s1.79,4.87,4.4,5.04c.21.01.43.01.64,0h24.31c2.61.18,4.87-1.79,5.04-4.4s-1.79-4.87-4.4-5.04c-.21-.01-.43-.01-.64,0M896.91,13912.53h-24.31c-2.61-.18-4.87,1.79-5.04,4.4s1.79,4.87,4.4,5.04c.21.01.43.01.64,0h24.31c2.61.18,4.87-1.79,5.04-4.4s-1.79-4.87-4.4-5.04c-.21-.01-.43-.01-.64,0M945.52,13912.53h-24.31c-2.61-.18-4.87,1.79-5.04,4.4s1.79,4.87,4.4,5.04c.21.01.43.01.64,0h24.31c2.61.18,4.87-1.79,5.04-4.4s-1.79-4.87-4.4-5.04c-.21-.01-.43-.01-.64,0M994.13,13912.53h-24.31c-2.61-.18-4.87,1.79-5.04,4.4s1.79,4.87,4.4,5.04c.21.01.43.01.64,0h24.31c2.61.18,4.87-1.79,5.04-4.4s-1.79-4.87-4.4-5.04c-.21-.01-.43-.01-.64,0M1042.75,13912.53h-24.31c-2.61-.18-4.87,1.79-5.04,4.4s1.79,4.87,4.4,5.04c.21.01.43.01.64,0h24.31c2.61.18,4.87-1.79,5.04-4.4s-1.79-4.87-4.4-5.04c-.21-.01-.43-.01-.64,0M1091.35,13912.53h-24.31c-2.61-.18-4.87,1.79-5.04,4.4s1.79,4.87,4.4,5.04c.21.01.43.01.64,0h24.31c2.61.18,4.87-1.79,5.04-4.4s-1.79-4.87-4.4-5.04c-.21-.01-.43-.01-.64,0M1139.96,13912.53h-24.31c-2.61-.18-4.87,1.79-5.04,4.4s1.79,4.87,4.4,5.04c.21.01.43.01.64,0h24.31c2.61.18,4.87-1.79,5.04-4.4s-1.79-4.87-4.4-5.04c-.21-.01-.43-.01-.64,0M1188.58,13912.53h-24.31c-2.61-.18-4.87,1.79-5.04,4.4s1.79,4.87,4.4,5.04c.21.01.43.01.64,0h24.31c2.61.18,4.87-1.79,5.04-4.4s-1.79-4.87-4.4-5.04c-.21-.01-.43-.01-.64,0M1237.19,13912.53h-24.31c-2.61-.18-4.87,1.79-5.04,4.4s1.79,4.87,4.4,5.04c.21.01.43.01.64,0h24.31c2.61.18,4.87-1.79,5.04-4.4s-1.79-4.87-4.4-5.04c-.21-.01-.43-.01-.64,0M1285.8,13912.53h-24.31c-2.61-.18-4.87,1.79-5.04,4.4s1.79,4.87,4.4,5.04c.21.01.43.01.64,0h24.31c2.61.18,4.87-1.79,5.04-4.4s-1.79-4.87-4.4-5.04c-.21-.01-.43-.01-.64,0M1334.41,13912.53h-24.31c-2.61-.18-4.87,1.79-5.04,4.4s1.79,4.87,4.4,5.04c.21.01.43.01.64,0h24.31c2.61.18,4.87-1.79,5.04-4.4s-1.79-4.87-4.4-5.04c-.21-.01-.43-.01-.64,0M1383.02,13912.53h-24.31c-2.61-.18-4.87,1.79-5.04,4.4s1.79,4.87,4.4,5.04c.21.01.43.01.64,0h24.31c2.61.18,4.87-1.79,5.04-4.4s-1.79-4.87-4.4-5.04c-.21-.01-.43-.01-.64,0M1431.63,13912.53h-24.31c-2.61-.18-4.87,1.79-5.04,4.4s1.79,4.87,4.4,5.04c.21.01.43.01.64,0h24.31c2.61.18,4.87-1.79,5.04-4.4s-1.79-4.87-4.4-5.04c-.21-.01-.43-.01-.64,0M1480.24,13912.53h-24.3c-2.61-.18-4.87,1.79-5.04,4.4s1.79,4.87,4.4,5.04c.21.01.43.01.64,0h24.3c2.61.18,4.87-1.79,5.04-4.4s-1.79-4.87-4.4-5.04c-.21-.01-.43-.01-.64,0M1528.85,13912.53h-24.3c-2.61-.18-4.87,1.79-5.04,4.4s1.79,4.87,4.4,5.04c.21.01.43.01.64,0h24.31c2.61.18,4.87-1.79,5.04-4.4s-1.79-4.87-4.4-5.04c-.21-.01-.43-.01-.64,0M1577.46,13912.53h-24.31c-2.61-.18-4.87,1.79-5.04,4.4s1.79,4.87,4.4,5.04c.21.01.43.01.64,0h24.31c2.61.18,4.87-1.79,5.04-4.4s-1.79-4.87-4.4-5.04c-.21-.01-.43-.01-.64,0M1626.07,13912.53h-24.31c-2.61-.18-4.87,1.79-5.04,4.4s1.79,4.87,4.4,5.04c.21.01.43.01.64,0h24.31c2.61.18,4.87-1.79,5.04-4.4s-1.79-4.87-4.4-5.04c-.21-.01-.43-.01-.64,0M1674.69,13912.53h-24.31c-2.61-.18-4.87,1.79-5.04,4.4s1.79,4.87,4.4,5.04c.21.01.43.01.64,0h24.31c2.61.18,4.87-1.79,5.04-4.4s-1.79-4.87-4.4-5.04c-.21-.01-.43-.01-.64,0M1723.3,13912.53h-24.3c-2.61-.18-4.87,1.79-5.04,4.4s1.79,4.87,4.4,5.04c.21.01.43.01.64,0h24.3c2.61.18,4.87-1.79,5.04-4.4s-1.79-4.87-4.4-5.04c-.21-.01-.43-.01-.64,0M1771.91,13912.53h-24.3c-2.61-.18-4.87,1.79-5.04,4.4s1.79,4.87,4.4,5.04c.21.01.43.01.64,0h24.3c2.61.18,4.87-1.79,5.04-4.4s-1.79-4.87-4.4-5.04c-.21-.01-.43-.01-.64,0M1820.52,13912.53h-24.3c-2.61-.18-4.87,1.79-5.04,4.4s1.79,4.87,4.4,5.04c.21.01.43.01.64,0h24.3c2.61.18,4.87-1.79,5.04-4.4s-1.79-4.87-4.4-5.04c-.21-.01-.43-.01-.64,0M1869.13,13912.53h-24.3c-2.61-.18-4.87,1.79-5.04,4.4s1.79,4.87,4.4,5.04c.21.01.43.01.64,0h24.3c2.61.18,4.87-1.79,5.04-4.4s-1.79-4.87-4.4-5.04c-.21-.01-.43-.01-.64,0M1917.74,13912.53h-24.3c-2.61-.18-4.87,1.79-5.04,4.4s1.79,4.87,4.4,5.04c.21.01.43.01.64,0h24.3c2.61.18,4.87-1.79,5.04-4.4s-1.79-4.87-4.4-5.04c-.21-.01-.43-.01-.64,0M1966.35,13912.53h-24.3c-2.61-.18-4.87,1.79-5.04,4.4s1.79,4.87,4.4,5.04c.21.01.43.01.64,0h24.3c2.61.18,4.87-1.79,5.04-4.4s-1.79-4.87-4.4-5.04c-.21-.01-.43-.01-.64,0M2014.96,13912.53h-24.31c-2.61-.18-4.87,1.79-5.04,4.4s1.79,4.87,4.4,5.04c.21.01.43.01.64,0h24.31c2.61.18,4.87-1.79,5.04-4.4s-1.79-4.87-4.4-5.04c-.21-.01-.43-.01-.64,0M2063.57,13912.53h-24.3c-2.61-.18-4.87,1.79-5.04,4.4s1.79,4.87,4.4,5.04c.21.01.43.01.64,0h24.31c2.61.18,4.87-1.79,5.04-4.4s-1.79-4.87-4.4-5.04c-.21-.01-.43-.01-.64,0M2112.18,13912.53h-24.3c-2.61-.18-4.87,1.79-5.04,4.4s1.79,4.87,4.4,5.04c.21.01.43.01.64,0h24.3c2.61.18,4.87-1.79,5.04-4.4s-1.79-4.87-4.4-5.04c-.21-.01-.43-.01-.64,0M2160.8,13912.53h-24.3c-2.61-.18-4.87,1.79-5.04,4.4s1.79,4.87,4.4,5.04c.21.01.43.01.64,0h24.3c2.61.18,4.87-1.79,5.04-4.4s-1.79-4.87-4.4-5.04c-.21-.01-.43-.01-.64,0M2209.41,13912.53h-24.3c-2.61-.18-4.87,1.79-5.04,4.4s1.79,4.87,4.4,5.04c.21.01.43.01.64,0h24.3c2.61.18,4.87-1.79,5.04-4.4s-1.79-4.87-4.4-5.04c-.21-.01-.43-.01-.64,0M2258.02,13912.53h-24.31c-2.61-.18-4.87,1.79-5.04,4.4s1.79,4.87,4.4,5.04c.21.01.43.01.64,0h24.31c2.61.18,4.87-1.79,5.04-4.4s-1.79-4.87-4.4-5.04c-.21-.01-.43-.01-.64,0M2306.63,13912.53h-24.31c-2.61-.18-4.87,1.79-5.04,4.4s1.79,4.87,4.4,5.04c.21.01.43.01.64,0h24.31c2.61.18,4.87-1.79,5.04-4.4s-1.79-4.87-4.4-5.04c-.21-.01-.43-.01-.64,0M2355.24,13912.53h-24.3c-2.61-.18-4.87,1.79-5.04,4.4s1.79,4.87,4.4,5.04c.21.01.43.01.64,0h24.3c2.61.18,4.87-1.79,5.04-4.4s-1.79-4.87-4.4-5.04c-.21-.01-.43-.01-.64,0M2403.85,13912.53h-24.3c-2.61-.18-4.87,1.79-5.04,4.4s1.79,4.87,4.4,5.04c.21.01.43.01.64,0h24.3c2.61.18,4.87-1.79,5.04-4.4s-1.79-4.87-4.4-5.04c-.21-.01-.43-.01-.64,0M2452.46,13912.53h-24.3c-2.61-.18-4.87,1.79-5.04,4.4s1.79,4.87,4.4,5.04c.21.01.43.01.64,0h24.3c2.61.18,4.87-1.79,5.04-4.4s-1.79-4.87-4.4-5.04c-.21-.01-.43-.01-.64,0M2501.07,13912.53h-24.31c-2.61-.18-4.87,1.79-5.04,4.4s1.79,4.87,4.4,5.04c.21.01.43.01.64,0h24.31c2.61.18,4.87-1.79,5.04-4.4s-1.79-4.87-4.4-5.04c-.21-.01-.43-.01-.64,0M2530.44,13885.14c-2.7-.09-4.97,2.02-5.06,4.72v22.67c.2,2.8,2.62,4.9,5.42,4.71,2.52-.18,4.53-2.18,4.71-4.71v-22.67c-.1-2.7-2.36-4.82-5.06-4.72M2530.44,13839.8c-2.7-.09-4.97,2.02-5.06,4.72v22.67c.2,2.8,2.62,4.9,5.42,4.71,2.52-.18,4.53-2.18,4.71-4.71v-22.67c-.1-2.7-2.36-4.82-5.06-4.72M2530.44,13794.45c-2.7-.09-4.97,2.02-5.06,4.72v22.67c.2,2.8,2.62,4.9,5.42,4.71,2.52-.18,4.53-2.18,4.71-4.71v-22.67c-.1-2.7-2.36-4.81-5.06-4.72M2530.44,13749.11c-2.7-.09-4.97,2.02-5.06,4.72v22.67c.2,2.8,2.62,4.9,5.42,4.71,2.52-.18,4.53-2.18,4.71-4.71v-22.67c-.1-2.7-2.36-4.82-5.06-4.72M2530.44,13703.76c-2.7-.09-4.97,2.02-5.06,4.72v22.67c.2,2.8,2.62,4.9,5.42,4.71,2.52-.18,4.53-2.18,4.71-4.71v-22.67c-.1-2.7-2.36-4.82-5.06-4.72M2530.44,13658.42c-2.7-.09-4.97,2.02-5.06,4.72v22.67c.2,2.8,2.62,4.9,5.42,4.71,2.52-.18,4.53-2.18,4.71-4.71v-22.67c-.1-2.7-2.36-4.82-5.06-4.72M2530.44,13613.08c-2.7-.09-4.97,2.02-5.06,4.72v22.67c.2,2.8,2.62,4.9,5.42,4.71,2.52-.18,4.53-2.18,4.71-4.71v-22.67c-.1-2.7-2.36-4.81-5.06-4.72M2530.44,13567.73c-2.7-.09-4.97,2.02-5.06,4.72v22.67c.2,2.8,2.62,4.9,5.42,4.71,2.52-.18,4.53-2.18,4.71-4.71v-22.67c-.1-2.7-2.36-4.82-5.06-4.72M2530.44,13522.39c-2.7-.09-4.97,2.02-5.06,4.72v22.67c.2,2.8,2.62,4.9,5.42,4.71,2.52-.18,4.53-2.18,4.71-4.71v-22.67c-.1-2.7-2.36-4.81-5.06-4.72M2530.44,13477.05c-2.7-.09-4.97,2.02-5.06,4.73v22.67c.2,2.8,2.62,4.9,5.42,4.71,2.52-.18,4.53-2.18,4.71-4.71v-22.67c-.09-2.7-2.36-4.82-5.06-4.73M2530.44,13431.71c-2.7-.09-4.97,2.02-5.06,4.72v22.67c.2,2.8,2.62,4.9,5.42,4.71,2.52-.18,4.53-2.18,4.71-4.71v-22.67c-.1-2.7-2.36-4.81-5.06-4.72M2530.44,13386.36c-2.7-.09-4.97,2.02-5.06,4.72v22.67c.2,2.8,2.62,4.9,5.42,4.71,2.52-.18,4.53-2.18,4.71-4.71v-22.67c-.1-2.7-2.36-4.81-5.06-4.72M2530.44,13341.02c-2.7-.09-4.97,2.02-5.06,4.72v22.67c.2,2.8,2.62,4.9,5.42,4.71,2.52-.18,4.53-2.18,4.71-4.71v-22.67c-.1-2.7-2.36-4.82-5.06-4.72M2530.44,13295.68c-2.7-.09-4.97,2.02-5.06,4.72v22.67c.2,2.8,2.62,4.9,5.42,4.71,2.52-.18,4.53-2.18,4.71-4.71v-22.67c-.1-2.7-2.36-4.81-5.06-4.72M2530.44,13250.34c-2.7-.09-4.97,2.02-5.06,4.72v22.67c.2,2.8,2.62,4.9,5.42,4.71,2.52-.18,4.53-2.18,4.71-4.71v-22.67c-.1-2.7-2.36-4.82-5.06-4.72"/>
                                        </g>
                                      </g>
                                    </g>
                                  </g>
                                  <g id="Group_1325" data-name="Group 1325" class="cls-14">
                                    <g id="Group_1324" data-name="Group 1324">
                                      <g class="cls-10">
                                        <g id="Group_1323" data-name="Group 1323">
                                          <path id="Path_2399" data-name="Path 2399" class="cls-2" d="M2525.38,13222.94h-24.3c-2.61-.18-4.87,1.79-5.05,4.4s1.79,4.87,4.4,5.05c.22.01.43.01.65,0h24.3c2.61.18,4.87-1.79,5.05-4.4s-1.79-4.87-4.4-5.05c-.22-.01-.43-.01-.65,0M2476.77,13222.94h-24.3c-2.61-.18-4.87,1.79-5.05,4.4s1.79,4.87,4.4,5.05c.22.01.43.01.65,0h24.3c2.61.18,4.87-1.79,5.05-4.4s-1.79-4.87-4.4-5.05c-.22-.01-.43-.01-.65,0M2428.15,13222.94h-24.31c-2.61-.18-4.87,1.79-5.05,4.4s1.79,4.87,4.4,5.05c.22.01.43.01.65,0h24.31c2.61.18,4.87-1.79,5.05-4.4s-1.79-4.87-4.4-5.05c-.22-.01-.43-.01-.65,0M2379.54,13222.94h-24.31c-2.61-.18-4.87,1.79-5.05,4.4s1.79,4.87,4.4,5.05c.22.01.43.01.65,0h24.31c2.61.18,4.87-1.79,5.05-4.4s-1.79-4.87-4.4-5.05c-.22-.01-.43-.01-.65,0M2330.93,13222.94h-24.3c-2.61-.18-4.87,1.79-5.05,4.4s1.79,4.87,4.4,5.05c.22.01.43.01.65,0h24.31c2.61.18,4.87-1.79,5.05-4.4s-1.79-4.87-4.4-5.05c-.22-.01-.43-.01-.65,0M2282.33,13222.94h-24.3c-2.61-.18-4.87,1.79-5.05,4.4s1.79,4.87,4.4,5.05c.22.01.43.01.65,0h24.3c2.61.18,4.87-1.79,5.05-4.4s-1.79-4.87-4.4-5.05c-.22-.01-.43-.01-.65,0M2233.72,13222.94h-24.3c-2.61-.18-4.87,1.79-5.05,4.4s1.79,4.87,4.4,5.05c.22.01.43.01.65,0h24.3c2.61.18,4.87-1.79,5.05-4.4s-1.79-4.87-4.4-5.05c-.22-.01-.43-.01-.65,0M2185.1,13222.94h-24.31c-2.61-.18-4.87,1.79-5.05,4.4s1.79,4.87,4.4,5.05c.22.01.43.01.65,0h24.31c2.61.18,4.87-1.79,5.05-4.4s-1.79-4.87-4.4-5.05c-.22-.01-.43-.01-.65,0M2136.49,13222.94h-24.31c-2.61-.18-4.87,1.79-5.05,4.4s1.79,4.87,4.4,5.05c.22.01.43.01.65,0h24.31c2.61.18,4.87-1.79,5.05-4.4s-1.79-4.87-4.4-5.05c-.22-.01-.43-.01-.65,0M2087.88,13222.94h-24.3c-2.61-.18-4.87,1.79-5.05,4.4s1.79,4.87,4.4,5.05c.22.01.43.01.65,0h24.3c2.61.18,4.87-1.79,5.05-4.4s-1.79-4.87-4.4-5.05c-.22-.01-.43-.01-.65,0M2039.27,13222.94h-24.3c-2.61-.18-4.87,1.79-5.05,4.4s1.79,4.87,4.4,5.05c.22.01.43.01.65,0h24.3c2.61.18,4.87-1.79,5.05-4.4s-1.79-4.87-4.4-5.05c-.22-.01-.43-.01-.65,0M1990.66,13222.94h-24.3c-2.61-.18-4.87,1.79-5.05,4.4s1.79,4.87,4.4,5.05c.22.01.43.01.65,0h24.3c2.61.18,4.87-1.79,5.05-4.4s-1.79-4.87-4.4-5.05c-.22-.01-.43-.01-.65,0M1942.05,13222.94h-24.31c-2.61-.18-4.87,1.79-5.05,4.4s1.79,4.87,4.4,5.05c.22.01.43.01.65,0h24.31c2.61.18,4.87-1.79,5.05-4.4s-1.79-4.87-4.4-5.05c-.22-.01-.43-.01-.65,0M1893.43,13222.94h-24.3c-2.61-.18-4.87,1.79-5.05,4.4s1.79,4.87,4.4,5.05c.22.01.43.01.65,0h24.31c2.61.18,4.87-1.79,5.05-4.4s-1.79-4.87-4.4-5.05c-.22-.01-.43-.01-.65,0M1844.83,13222.94h-24.31c-2.61-.18-4.87,1.79-5.05,4.4s1.79,4.87,4.4,5.05c.22.01.43.01.65,0h24.31c2.61.18,4.87-1.79,5.05-4.4s-1.79-4.87-4.4-5.05c-.22-.01-.43-.01-.65,0M1796.22,13222.94h-24.31c-2.61-.18-4.87,1.79-5.05,4.4s1.79,4.87,4.4,5.05c.22.01.43.01.65,0h24.31c2.61.18,4.87-1.79,5.05-4.4s-1.79-4.87-4.4-5.05c-.22-.01-.43-.01-.65,0M1747.6,13222.94h-24.3c-2.61-.18-4.87,1.79-5.05,4.4s1.79,4.87,4.4,5.05c.22.01.43.01.65,0h24.3c2.61.18,4.87-1.79,5.05-4.4s-1.79-4.87-4.4-5.05c-.22-.01-.43-.01-.65,0M1698.99,13222.94h-24.31c-2.61-.18-4.87,1.79-5.05,4.4s1.79,4.87,4.4,5.05c.22.01.43.01.65,0h24.31c2.61.18,4.87-1.79,5.05-4.4s-1.79-4.87-4.4-5.05c-.22-.01-.43-.01-.65,0M1650.38,13222.94h-24.31c-2.61-.18-4.87,1.79-5.05,4.4s1.79,4.87,4.4,5.05c.22.01.43.01.65,0h24.31c2.61.18,4.87-1.79,5.05-4.4s-1.79-4.87-4.4-5.05c-.22-.01-.43-.01-.65,0M1601.77,13222.94h-24.31c-2.61-.18-4.87,1.79-5.05,4.4s1.79,4.87,4.4,5.05c.22.01.43.01.65,0h24.31c2.61.18,4.87-1.79,5.05-4.4s-1.79-4.87-4.4-5.05c-.22-.01-.43-.01-.65,0M1553.16,13222.94h-24.31c-2.61-.18-4.87,1.79-5.05,4.4s1.79,4.87,4.4,5.05c.22.01.43.01.65,0h24.31c2.61.18,4.87-1.79,5.05-4.4s-1.79-4.87-4.4-5.05c-.22-.01-.43-.01-.65,0M1504.55,13222.94h-24.31c-2.61-.18-4.87,1.79-5.05,4.4s1.79,4.87,4.4,5.05c.22.01.43.01.65,0h24.31c2.61.18,4.87-1.79,5.05-4.4s-1.79-4.87-4.4-5.05c-.22-.01-.43-.01-.65,0M1455.93,13222.94h-24.31c-2.61-.18-4.87,1.79-5.05,4.4s1.79,4.87,4.4,5.05c.22.01.43.01.65,0h24.31c2.61.18,4.87-1.79,5.05-4.4s-1.79-4.87-4.4-5.05c-.22-.01-.43-.01-.65,0M1407.33,13222.94h-24.31c-2.61-.18-4.87,1.79-5.05,4.4s1.79,4.87,4.4,5.05c.22.01.43.01.65,0h24.31c2.61.18,4.87-1.79,5.05-4.4s-1.79-4.87-4.4-5.05c-.22-.01-.43-.01-.65,0M1358.72,13222.94h-24.31c-2.61-.18-4.87,1.79-5.05,4.4s1.79,4.87,4.4,5.05c.22.01.43.01.65,0h24.31c2.61.18,4.87-1.79,5.05-4.4s-1.79-4.87-4.4-5.05c-.22-.01-.43-.01-.65,0M1310.1,13222.94h-24.31c-2.61-.18-4.87,1.79-5.05,4.4s1.79,4.87,4.4,5.05c.22.01.43.01.65,0h24.31c2.61.18,4.87-1.79,5.05-4.4s-1.79-4.87-4.4-5.05c-.22-.01-.43-.01-.65,0M1261.49,13222.94h-24.31c-2.61-.18-4.87,1.79-5.05,4.4s1.79,4.87,4.4,5.05c.22.01.43.01.65,0h24.31c2.61.18,4.87-1.79,5.05-4.4s-1.79-4.87-4.4-5.05c-.22-.01-.43-.01-.65,0M1212.88,13222.94h-24.31c-2.61-.18-4.87,1.79-5.05,4.4s1.79,4.87,4.4,5.05c.22.01.43.01.65,0h24.31c2.61.18,4.87-1.79,5.05-4.4s-1.79-4.87-4.4-5.05c-.22-.01-.43-.01-.65,0M1164.27,13222.94h-24.31c-2.61-.18-4.87,1.79-5.05,4.4s1.79,4.87,4.4,5.05c.22.01.43.01.65,0h24.31c2.61.18,4.87-1.79,5.05-4.4s-1.79-4.87-4.4-5.05c-.22-.01-.43-.01-.65,0M1115.66,13222.94h-24.31c-2.61-.18-4.87,1.79-5.05,4.4s1.79,4.87,4.4,5.05c.22.01.43.01.65,0h24.31c2.61.18,4.87-1.79,5.05-4.4s-1.79-4.87-4.4-5.05c-.22-.01-.43-.01-.65,0M1067.05,13222.94h-24.31c-2.61-.18-4.87,1.79-5.05,4.4s1.79,4.87,4.4,5.05c.22.01.43.01.65,0h24.31c2.61.18,4.87-1.79,5.05-4.4s-1.79-4.87-4.4-5.05c-.22-.01-.43-.01-.65,0M1018.44,13222.94h-24.3c-2.61-.18-4.87,1.79-5.05,4.4s1.79,4.87,4.4,5.05c.22.01.43.01.65,0h24.3c2.61.18,4.87-1.79,5.05-4.4s-1.79-4.87-4.4-5.05c-.22-.01-.43-.01-.65,0M969.83,13222.94h-24.31c-2.61-.18-4.87,1.79-5.05,4.4s1.79,4.87,4.4,5.05c.22.01.43.01.65,0h24.31c2.61.18,4.87-1.79,5.05-4.4s-1.79-4.87-4.4-5.05c-.22-.01-.43-.01-.65,0M921.22,13222.94h-24.31c-2.61-.18-4.87,1.79-5.05,4.4s1.79,4.87,4.4,5.05c.22.01.43.01.65,0h24.31c2.61.18,4.87-1.79,5.05-4.4s-1.79-4.87-4.4-5.05c-.22-.01-.43-.01-.65,0M872.6,13222.94h-24.31c-2.61-.18-4.87,1.79-5.05,4.4s1.79,4.87,4.4,5.05c.22.01.43.01.65,0h24.31c2.61.18,4.87-1.79,5.05-4.4s-1.79-4.87-4.4-5.05c-.22-.01-.43-.01-.65,0M823.99,13222.94h-24.31c-2.61-.18-4.87,1.79-5.05,4.4s1.79,4.87,4.4,5.05c.22.01.43.01.65,0h24.31c2.61.18,4.87-1.79,5.05-4.4s-1.79-4.87-4.4-5.05c-.22-.01-.43-.01-.65,0M775.38,13222.94h-24.31c-2.61-.18-4.87,1.79-5.05,4.4s1.79,4.87,4.4,5.05c.22.01.43.01.65,0h24.31c2.61.18,4.87-1.79,5.05-4.4s-1.79-4.87-4.4-5.05c-.22-.01-.43-.01-.65,0M726.77,13222.94h-24.31c-2.61-.18-4.87,1.79-5.05,4.4s1.79,4.87,4.4,5.05c.22.01.43.01.65,0h24.31c2.61.18,4.87-1.79,5.05-4.4s-1.79-4.87-4.4-5.05c-.22-.01-.43-.01-.65,0M678.16,13222.94h-24.3c-2.61-.18-4.87,1.79-5.05,4.4-.18,2.61,1.79,4.87,4.4,5.05.22.01.43.01.65,0h24.31c2.61.18,4.87-1.79,5.05-4.4s-1.79-4.87-4.4-5.05c-.22-.01-.43-.01-.65,0M629.55,13222.94h-24.31c-2.61-.18-4.87,1.79-5.05,4.4-.18,2.61,1.79,4.87,4.4,5.05.22.01.43.01.65,0h24.3c2.61.18,4.87-1.79,5.05-4.4.18-2.61-1.79-4.87-4.4-5.05-.22-.01-.43-.01-.65,0M580.94,13222.94h-24.3c-2.61-.18-4.87,1.79-5.05,4.4-.18,2.61,1.79,4.87,4.4,5.05.22.01.43.01.65,0h24.3c2.61.18,4.87-1.79,5.05-4.4.18-2.61-1.79-4.87-4.4-5.05-.22-.01-.43-.01-.65,0M532.33,13222.94h-24.3c-2.61-.18-4.87,1.79-5.05,4.4-.18,2.61,1.79,4.87,4.4,5.05.22.01.43.01.65,0h24.3c2.61.18,4.87-1.79,5.05-4.4.18-2.61-1.79-4.87-4.4-5.05-.22-.01-.43-.01-.65,0M483.72,13222.94h-24.3c-2.61-.18-4.87,1.79-5.05,4.4-.18,2.61,1.79,4.87,4.4,5.05.22.01.43.01.65,0h24.3c2.61.18,4.87-1.79,5.05-4.4.18-2.61-1.79-4.87-4.4-5.05-.22-.01-.43-.01-.65,0M435.11,13222.94h-24.3c-2.61-.18-4.87,1.79-5.05,4.4-.18,2.61,1.79,4.87,4.4,5.05.22.01.43.01.65,0h24.31c2.61.18,4.87-1.79,5.05-4.4.18-2.61-1.79-4.87-4.4-5.05-.22-.01-.43-.01-.65,0M386.5,13222.94h-24.31c-2.61-.18-4.87,1.79-5.05,4.4-.18,2.61,1.79,4.87,4.4,5.05.22.01.43.01.65,0h24.3c2.61.18,4.87-1.79,5.05-4.4.18-2.61-1.79-4.87-4.4-5.05-.22-.01-.43-.01-.65,0M332.82,13227.66c-2.7-.09-4.97,2.02-5.06,4.72v22.67c.2,2.8,2.62,4.9,5.42,4.71,2.52-.18,4.53-2.18,4.71-4.71v-22.67c-.1-2.7-2.36-4.82-5.06-4.72M332.82,13273.01c-2.7-.09-4.97,2.02-5.06,4.72v22.67c.2,2.8,2.62,4.9,5.42,4.71,2.52-.18,4.53-2.18,4.71-4.71v-22.67c-.1-2.7-2.36-4.82-5.06-4.72M332.82,13318.35c-2.7-.09-4.97,2.02-5.06,4.72v22.67c.2,2.8,2.62,4.9,5.42,4.71,2.52-.18,4.53-2.18,4.71-4.71v-22.67c-.1-2.7-2.36-4.82-5.06-4.72M332.82,13363.69c-2.7-.09-4.97,2.02-5.06,4.72v22.67c.2,2.8,2.62,4.9,5.42,4.71,2.52-.18,4.53-2.18,4.71-4.71v-22.67c-.1-2.7-2.36-4.81-5.06-4.72M332.82,13409.04c-2.7-.09-4.97,2.02-5.06,4.72v22.67c.2,2.8,2.62,4.9,5.42,4.71,2.52-.18,4.53-2.18,4.71-4.71v-22.67c-.1-2.7-2.36-4.82-5.06-4.72M332.82,13454.38c-2.7-.09-4.97,2.02-5.06,4.72v22.67c.2,2.8,2.62,4.9,5.42,4.71,2.52-.18,4.53-2.18,4.71-4.71v-22.67c-.1-2.7-2.36-4.82-5.06-4.72M332.82,13499.72c-2.7-.09-4.97,2.02-5.06,4.72v22.67c.2,2.8,2.62,4.9,5.42,4.71,2.52-.18,4.53-2.18,4.71-4.71v-22.67c-.1-2.7-2.36-4.81-5.06-4.72M332.82,13545.06c-2.7-.09-4.97,2.02-5.06,4.72v22.67c.2,2.8,2.62,4.9,5.42,4.71,2.52-.18,4.53-2.18,4.71-4.71v-22.67c-.1-2.7-2.36-4.82-5.06-4.72M332.82,13590.41c-2.7-.09-4.97,2.02-5.06,4.72v22.67c.2,2.8,2.62,4.9,5.42,4.71,2.52-.18,4.53-2.18,4.71-4.71v-22.67c-.1-2.7-2.36-4.82-5.06-4.72M332.81,13635.75c-2.7-.09-4.97,2.02-5.06,4.72v22.67c.2,2.8,2.62,4.9,5.42,4.71,2.52-.18,4.53-2.18,4.71-4.71v-22.67c-.1-2.7-2.36-4.81-5.06-4.72M332.81,13681.09c-2.7-.09-4.97,2.02-5.06,4.72v22.67c.2,2.8,2.62,4.9,5.42,4.71,2.52-.18,4.53-2.18,4.71-4.71v-22.67c-.1-2.7-2.36-4.82-5.06-4.72M332.81,13726.43c-2.7-.09-4.97,2.02-5.06,4.72v22.67c.2,2.8,2.62,4.9,5.42,4.71,2.52-.18,4.53-2.18,4.71-4.71v-22.67c-.1-2.7-2.36-4.82-5.06-4.72M332.81,13771.78c-2.7-.09-4.97,2.02-5.06,4.72v22.67c.2,2.8,2.62,4.9,5.42,4.71,2.52-.18,4.53-2.18,4.71-4.71v-22.67c-.1-2.7-2.36-4.82-5.06-4.72M332.81,13817.12c-2.7-.09-4.97,2.02-5.06,4.72v22.67c.2,2.8,2.62,4.9,5.42,4.71,2.52-.18,4.53-2.18,4.71-4.71v-22.67c-.1-2.7-2.36-4.82-5.06-4.72M332.81,13862.46c-2.7-.09-4.97,2.02-5.06,4.72v22.67c.2,2.8,2.62,4.9,5.42,4.71,2.52-.18,4.53-2.18,4.71-4.71v-22.67c-.1-2.7-2.36-4.82-5.06-4.72M362.18,13912.53h-24.29c-2.61-.18-4.87,1.79-5.04,4.4s1.79,4.87,4.4,5.04c.21.01.43.01.64,0h24.3c2.61.18,4.87-1.79,5.04-4.4s-1.79-4.87-4.4-5.04c-.21-.01-.43-.01-.64,0M410.8,13912.53h-24.31c-2.61-.18-4.87,1.79-5.04,4.4s1.79,4.87,4.4,5.04c.21.01.43.01.64,0h24.3c2.61.18,4.87-1.79,5.04-4.4s-1.79-4.87-4.4-5.04c-.21-.01-.43-.01-.64,0M459.41,13912.53h-24.3c-2.61-.18-4.87,1.79-5.04,4.4s1.79,4.87,4.4,5.04c.21.01.43.01.64,0h24.3c2.61.18,4.87-1.79,5.04-4.4s-1.79-4.87-4.4-5.04c-.21-.01-.43-.01-.64,0M508.02,13912.53h-24.3c-2.61-.18-4.87,1.79-5.04,4.4s1.79,4.87,4.4,5.04c.21.01.43.01.64,0h24.3c2.61.18,4.87-1.79,5.04-4.4s-1.79-4.87-4.4-5.04c-.21-.01-.43-.01-.64,0M556.64,13912.53h-24.31c-2.61-.18-4.87,1.79-5.04,4.4s1.79,4.87,4.4,5.04c.21.01.43.01.64,0h24.31c2.61.18,4.87-1.79,5.04-4.4s-1.79-4.87-4.4-5.04c-.21-.01-.43-.01-.64,0M605.25,13912.53h-24.31c-2.61-.18-4.87,1.79-5.04,4.4s1.79,4.87,4.4,5.04c.21.01.43.01.64,0h24.3c2.61.18,4.87-1.79,5.04-4.4s-1.79-4.87-4.4-5.04c-.21-.01-.43-.01-.64,0M653.85,13912.53h-24.3c-2.61-.18-4.87,1.79-5.04,4.4s1.79,4.87,4.4,5.04c.21.01.43.01.64,0h24.31c2.61.18,4.87-1.79,5.04-4.4s-1.79-4.87-4.4-5.04c-.21-.01-.43-.01-.64,0M702.47,13912.53h-24.31c-2.61-.18-4.87,1.79-5.04,4.4s1.79,4.87,4.4,5.04c.21.01.43.01.64,0h24.31c2.61.18,4.87-1.79,5.04-4.4s-1.79-4.87-4.4-5.04c-.21-.01-.43-.01-.64,0M751.08,13912.53h-24.31c-2.61-.18-4.87,1.79-5.04,4.4s1.79,4.87,4.4,5.04c.21.01.43.01.64,0h24.31c2.61.18,4.87-1.79,5.04-4.4s-1.79-4.87-4.4-5.04c-.21-.01-.43-.01-.64,0M799.69,13912.53h-24.31c-2.61-.18-4.87,1.79-5.04,4.4s1.79,4.87,4.4,5.04c.21.01.43.01.64,0h24.31c2.61.18,4.87-1.79,5.04-4.4s-1.79-4.87-4.4-5.04c-.21-.01-.43-.01-.64,0M848.3,13912.53h-24.31c-2.61-.18-4.87,1.79-5.04,4.4s1.79,4.87,4.4,5.04c.21.01.43.01.64,0h24.31c2.61.18,4.87-1.79,5.04-4.4s-1.79-4.87-4.4-5.04c-.21-.01-.43-.01-.64,0M896.91,13912.53h-24.31c-2.61-.18-4.87,1.79-5.04,4.4s1.79,4.87,4.4,5.04c.21.01.43.01.64,0h24.31c2.61.18,4.87-1.79,5.04-4.4s-1.79-4.87-4.4-5.04c-.21-.01-.43-.01-.64,0M945.52,13912.53h-24.31c-2.61-.18-4.87,1.79-5.04,4.4s1.79,4.87,4.4,5.04c.21.01.43.01.64,0h24.31c2.61.18,4.87-1.79,5.04-4.4s-1.79-4.87-4.4-5.04c-.21-.01-.43-.01-.64,0M994.13,13912.53h-24.31c-2.61-.18-4.87,1.79-5.04,4.4s1.79,4.87,4.4,5.04c.21.01.43.01.64,0h24.31c2.61.18,4.87-1.79,5.04-4.4s-1.79-4.87-4.4-5.04c-.21-.01-.43-.01-.64,0M1042.75,13912.53h-24.31c-2.61-.18-4.87,1.79-5.04,4.4s1.79,4.87,4.4,5.04c.21.01.43.01.64,0h24.31c2.61.18,4.87-1.79,5.04-4.4s-1.79-4.87-4.4-5.04c-.21-.01-.43-.01-.64,0M1091.35,13912.53h-24.31c-2.61-.18-4.87,1.79-5.04,4.4s1.79,4.87,4.4,5.04c.21.01.43.01.64,0h24.31c2.61.18,4.87-1.79,5.04-4.4s-1.79-4.87-4.4-5.04c-.21-.01-.43-.01-.64,0M1139.96,13912.53h-24.31c-2.61-.18-4.87,1.79-5.04,4.4s1.79,4.87,4.4,5.04c.21.01.43.01.64,0h24.31c2.61.18,4.87-1.79,5.04-4.4s-1.79-4.87-4.4-5.04c-.21-.01-.43-.01-.64,0M1188.58,13912.53h-24.31c-2.61-.18-4.87,1.79-5.04,4.4s1.79,4.87,4.4,5.04c.21.01.43.01.64,0h24.31c2.61.18,4.87-1.79,5.04-4.4s-1.79-4.87-4.4-5.04c-.21-.01-.43-.01-.64,0M1237.19,13912.53h-24.31c-2.61-.18-4.87,1.79-5.04,4.4s1.79,4.87,4.4,5.04c.21.01.43.01.64,0h24.31c2.61.18,4.87-1.79,5.04-4.4s-1.79-4.87-4.4-5.04c-.21-.01-.43-.01-.64,0M1285.8,13912.53h-24.31c-2.61-.18-4.87,1.79-5.04,4.4s1.79,4.87,4.4,5.04c.21.01.43.01.64,0h24.31c2.61.18,4.87-1.79,5.04-4.4s-1.79-4.87-4.4-5.04c-.21-.01-.43-.01-.64,0M1334.41,13912.53h-24.31c-2.61-.18-4.87,1.79-5.04,4.4s1.79,4.87,4.4,5.04c.21.01.43.01.64,0h24.31c2.61.18,4.87-1.79,5.04-4.4s-1.79-4.87-4.4-5.04c-.21-.01-.43-.01-.64,0M1383.02,13912.53h-24.31c-2.61-.18-4.87,1.79-5.04,4.4s1.79,4.87,4.4,5.04c.21.01.43.01.64,0h24.31c2.61.18,4.87-1.79,5.04-4.4s-1.79-4.87-4.4-5.04c-.21-.01-.43-.01-.64,0M1431.63,13912.53h-24.31c-2.61-.18-4.87,1.79-5.04,4.4s1.79,4.87,4.4,5.04c.21.01.43.01.64,0h24.31c2.61.18,4.87-1.79,5.04-4.4s-1.79-4.87-4.4-5.04c-.21-.01-.43-.01-.64,0M1480.24,13912.53h-24.3c-2.61-.18-4.87,1.79-5.04,4.4s1.79,4.87,4.4,5.04c.21.01.43.01.64,0h24.3c2.61.18,4.87-1.79,5.04-4.4s-1.79-4.87-4.4-5.04c-.21-.01-.43-.01-.64,0M1528.85,13912.53h-24.3c-2.61-.18-4.87,1.79-5.04,4.4s1.79,4.87,4.4,5.04c.21.01.43.01.64,0h24.31c2.61.18,4.87-1.79,5.04-4.4s-1.79-4.87-4.4-5.04c-.21-.01-.43-.01-.64,0M1577.46,13912.53h-24.31c-2.61-.18-4.87,1.79-5.04,4.4s1.79,4.87,4.4,5.04c.21.01.43.01.64,0h24.31c2.61.18,4.87-1.79,5.04-4.4s-1.79-4.87-4.4-5.04c-.21-.01-.43-.01-.64,0M1626.07,13912.53h-24.31c-2.61-.18-4.87,1.79-5.04,4.4s1.79,4.87,4.4,5.04c.21.01.43.01.64,0h24.31c2.61.18,4.87-1.79,5.04-4.4s-1.79-4.87-4.4-5.04c-.21-.01-.43-.01-.64,0M1674.69,13912.53h-24.31c-2.61-.18-4.87,1.79-5.04,4.4s1.79,4.87,4.4,5.04c.21.01.43.01.64,0h24.31c2.61.18,4.87-1.79,5.04-4.4s-1.79-4.87-4.4-5.04c-.21-.01-.43-.01-.64,0M1723.3,13912.53h-24.3c-2.61-.18-4.87,1.79-5.04,4.4s1.79,4.87,4.4,5.04c.21.01.43.01.64,0h24.3c2.61.18,4.87-1.79,5.04-4.4s-1.79-4.87-4.4-5.04c-.21-.01-.43-.01-.64,0M1771.91,13912.53h-24.3c-2.61-.18-4.87,1.79-5.04,4.4s1.79,4.87,4.4,5.04c.21.01.43.01.64,0h24.3c2.61.18,4.87-1.79,5.04-4.4s-1.79-4.87-4.4-5.04c-.21-.01-.43-.01-.64,0M1820.52,13912.53h-24.3c-2.61-.18-4.87,1.79-5.04,4.4s1.79,4.87,4.4,5.04c.21.01.43.01.64,0h24.3c2.61.18,4.87-1.79,5.04-4.4s-1.79-4.87-4.4-5.04c-.21-.01-.43-.01-.64,0M1869.13,13912.53h-24.3c-2.61-.18-4.87,1.79-5.04,4.4s1.79,4.87,4.4,5.04c.21.01.43.01.64,0h24.3c2.61.18,4.87-1.79,5.04-4.4s-1.79-4.87-4.4-5.04c-.21-.01-.43-.01-.64,0M1917.74,13912.53h-24.3c-2.61-.18-4.87,1.79-5.04,4.4s1.79,4.87,4.4,5.04c.21.01.43.01.64,0h24.3c2.61.18,4.87-1.79,5.04-4.4s-1.79-4.87-4.4-5.04c-.21-.01-.43-.01-.64,0M1966.35,13912.53h-24.3c-2.61-.18-4.87,1.79-5.04,4.4s1.79,4.87,4.4,5.04c.21.01.43.01.64,0h24.3c2.61.18,4.87-1.79,5.04-4.4s-1.79-4.87-4.4-5.04c-.21-.01-.43-.01-.64,0M2014.96,13912.53h-24.31c-2.61-.18-4.87,1.79-5.04,4.4s1.79,4.87,4.4,5.04c.21.01.43.01.64,0h24.31c2.61.18,4.87-1.79,5.04-4.4s-1.79-4.87-4.4-5.04c-.21-.01-.43-.01-.64,0M2063.57,13912.53h-24.3c-2.61-.18-4.87,1.79-5.04,4.4s1.79,4.87,4.4,5.04c.21.01.43.01.64,0h24.31c2.61.18,4.87-1.79,5.04-4.4s-1.79-4.87-4.4-5.04c-.21-.01-.43-.01-.64,0M2112.18,13912.53h-24.3c-2.61-.18-4.87,1.79-5.04,4.4s1.79,4.87,4.4,5.04c.21.01.43.01.64,0h24.3c2.61.18,4.87-1.79,5.04-4.4s-1.79-4.87-4.4-5.04c-.21-.01-.43-.01-.64,0M2160.8,13912.53h-24.3c-2.61-.18-4.87,1.79-5.04,4.4s1.79,4.87,4.4,5.04c.21.01.43.01.64,0h24.3c2.61.18,4.87-1.79,5.04-4.4s-1.79-4.87-4.4-5.04c-.21-.01-.43-.01-.64,0M2209.41,13912.53h-24.3c-2.61-.18-4.87,1.79-5.04,4.4s1.79,4.87,4.4,5.04c.21.01.43.01.64,0h24.3c2.61.18,4.87-1.79,5.04-4.4s-1.79-4.87-4.4-5.04c-.21-.01-.43-.01-.64,0M2258.02,13912.53h-24.31c-2.61-.18-4.87,1.79-5.04,4.4s1.79,4.87,4.4,5.04c.21.01.43.01.64,0h24.31c2.61.18,4.87-1.79,5.04-4.4s-1.79-4.87-4.4-5.04c-.21-.01-.43-.01-.64,0M2306.63,13912.53h-24.31c-2.61-.18-4.87,1.79-5.04,4.4s1.79,4.87,4.4,5.04c.21.01.43.01.64,0h24.31c2.61.18,4.87-1.79,5.04-4.4s-1.79-4.87-4.4-5.04c-.21-.01-.43-.01-.64,0M2355.24,13912.53h-24.3c-2.61-.18-4.87,1.79-5.04,4.4s1.79,4.87,4.4,5.04c.21.01.43.01.64,0h24.3c2.61.18,4.87-1.79,5.04-4.4s-1.79-4.87-4.4-5.04c-.21-.01-.43-.01-.64,0M2403.85,13912.53h-24.3c-2.61-.18-4.87,1.79-5.04,4.4s1.79,4.87,4.4,5.04c.21.01.43.01.64,0h24.3c2.61.18,4.87-1.79,5.04-4.4s-1.79-4.87-4.4-5.04c-.21-.01-.43-.01-.64,0M2452.46,13912.53h-24.3c-2.61-.18-4.87,1.79-5.04,4.4s1.79,4.87,4.4,5.04c.21.01.43.01.64,0h24.3c2.61.18,4.87-1.79,5.04-4.4s-1.79-4.87-4.4-5.04c-.21-.01-.43-.01-.64,0M2501.07,13912.53h-24.31c-2.61-.18-4.87,1.79-5.04,4.4s1.79,4.87,4.4,5.04c.21.01.43.01.64,0h24.31c2.61.18,4.87-1.79,5.04-4.4s-1.79-4.87-4.4-5.04c-.21-.01-.43-.01-.64,0M2530.44,13885.14c-2.7-.09-4.97,2.02-5.06,4.72v22.67c.2,2.8,2.62,4.9,5.42,4.71,2.52-.18,4.53-2.18,4.71-4.71v-22.67c-.1-2.7-2.36-4.82-5.06-4.72M2530.44,13839.8c-2.7-.09-4.97,2.02-5.06,4.72v22.67c.2,2.8,2.62,4.9,5.42,4.71,2.52-.18,4.53-2.18,4.71-4.71v-22.67c-.1-2.7-2.36-4.82-5.06-4.72M2530.44,13794.45c-2.7-.09-4.97,2.02-5.06,4.72v22.67c.2,2.8,2.62,4.9,5.42,4.71,2.52-.18,4.53-2.18,4.71-4.71v-22.67c-.1-2.7-2.36-4.81-5.06-4.72M2530.44,13749.11c-2.7-.09-4.97,2.02-5.06,4.72v22.67c.2,2.8,2.62,4.9,5.42,4.71,2.52-.18,4.53-2.18,4.71-4.71v-22.67c-.1-2.7-2.36-4.82-5.06-4.72M2530.44,13703.76c-2.7-.09-4.97,2.02-5.06,4.72v22.67c.2,2.8,2.62,4.9,5.42,4.71,2.52-.18,4.53-2.18,4.71-4.71v-22.67c-.1-2.7-2.36-4.82-5.06-4.72M2530.44,13658.42c-2.7-.09-4.97,2.02-5.06,4.72v22.67c.2,2.8,2.62,4.9,5.42,4.71,2.52-.18,4.53-2.18,4.71-4.71v-22.67c-.1-2.7-2.36-4.82-5.06-4.72M2530.44,13613.08c-2.7-.09-4.97,2.02-5.06,4.72v22.67c.2,2.8,2.62,4.9,5.42,4.71,2.52-.18,4.53-2.18,4.71-4.71v-22.67c-.1-2.7-2.36-4.81-5.06-4.72M2530.44,13567.73c-2.7-.09-4.97,2.02-5.06,4.72v22.67c.2,2.8,2.62,4.9,5.42,4.71,2.52-.18,4.53-2.18,4.71-4.71v-22.67c-.1-2.7-2.36-4.82-5.06-4.72M2530.44,13522.39c-2.7-.09-4.97,2.02-5.06,4.72v22.67c.2,2.8,2.62,4.9,5.42,4.71,2.52-.18,4.53-2.18,4.71-4.71v-22.67c-.1-2.7-2.36-4.81-5.06-4.72M2530.44,13477.05c-2.7-.09-4.97,2.02-5.06,4.73v22.67c.2,2.8,2.62,4.9,5.42,4.71,2.52-.18,4.53-2.18,4.71-4.71v-22.67c-.09-2.7-2.36-4.82-5.06-4.73M2530.44,13431.71c-2.7-.09-4.97,2.02-5.06,4.72v22.67c.2,2.8,2.62,4.9,5.42,4.71,2.52-.18,4.53-2.18,4.71-4.71v-22.67c-.1-2.7-2.36-4.81-5.06-4.72M2530.44,13386.36c-2.7-.09-4.97,2.02-5.06,4.72v22.67c.2,2.8,2.62,4.9,5.42,4.71,2.52-.18,4.53-2.18,4.71-4.71v-22.67c-.1-2.7-2.36-4.81-5.06-4.72M2530.44,13341.02c-2.7-.09-4.97,2.02-5.06,4.72v22.67c.2,2.8,2.62,4.9,5.42,4.71,2.52-.18,4.53-2.18,4.71-4.71v-22.67c-.1-2.7-2.36-4.82-5.06-4.72M2530.44,13295.68c-2.7-.09-4.97,2.02-5.06,4.72v22.67c.2,2.8,2.62,4.9,5.42,4.71,2.52-.18,4.53-2.18,4.71-4.71v-22.67c-.1-2.7-2.36-4.81-5.06-4.72M2530.44,13250.34c-2.7-.09-4.97,2.02-5.06,4.72v22.67c.2,2.8,2.62,4.9,5.42,4.71,2.52-.18,4.53-2.18,4.71-4.71v-22.67c-.1-2.7-2.36-4.82-5.06-4.72M345.35,13891.81c-.4,0-.8.04-1.19.13-2.56.48-4.25,2.94-3.78,5.5.01.05.02.11.03.16.83,3.16,2.56,6.01,4.99,8.2l.16.14c.08.07.16.14.24.21h0l.04.03h0l.04.03h0c.05.04.1.09.16.13h0l.04.03h0l.04.03h0s.08.06.12.1h0l.04.03h0s.03.03.03.03h0s.03.03.03.03h0s.05.04.08.06h0l.04.03h0s.03.03.03.03h.01s.03.03.03.03h.01s.03.03.03.03h0s.08.07.08.07h0l.04.03h0s.03.03.03.03h.01s.03.03.03.03h.01s.03.03.03.03h0s.08.07.08.07h0l.03.02h.01s.03.03.03.03h.01s.03.03.03.03h.01s.03.03.03.03h0s.08.06.08.06h.01s.03.03.03.03h.02s.03.03.03.03h.02s.03.03.03.03h.01s.03.03.03.03h.01s.04.03.04.03h0s.03.03.03.03h.02s.03.03.03.03h.02s.02.03.02.03h.02s.02.03.02.03h.02s.03.03.03.03h.01s.04.03.04.03h.02s.02.03.02.03h.02s.02.03.02.03h.02s.02.03.02.03h.02s.02.03.02.03h.02s.02.03.02.03l.04.02.03.02h.02s.02.03.02.03h.02s.02.03.02.03h.02s.02.03.02.03h.02s.02.03.02.03h.02s.02.02.02.02l.04.02h.02s.02.03.02.03h.02s.02.03.02.03h.02s.02.03.02.03h.02s.03.03.03.03h.02s.03.02.03.02h.01s.05.04.05.04h.01s.03.02.03.02h.02s.02.03.02.03h.02s.02.03.02.03h.02s.03.03.03.03h.01s.03.02.03.02h0l.07.04h.01s.03.02.03.02h.02s.02.02.02.02h.02s.02.03.02.03h.02s.02.02.02.02h.02s.06.04.1.06h.02s.03.02.03.02h.02s.03.02.03.02h.02s.03.02.03.02h.02s.03.02.03.02h.02s.1.06.1.06h.01s.03.02.03.02h.01s.03.02.03.02h.01s.03.02.03.02h.01l.03.02h0l.11.06h.01s.03.02.03.02h.01s.03.02.03.02h.02s.03.02.03.02h.01s.07.04.11.05h.01l.03.02h.01s.03.02.03.02h.01s.03.02.03.02h.01s.03.02.03.02h.01s.15.07.15.07h.01s.03.02.03.02h.02s.03.02.03.02h.01s.03.02.03.02h.01l.11.05h.04s.02.02.02.02h.03s.02.02.02.02h.03s.02.02.02.02h.03s.01.01.01.01c.04.02.08.03.11.05h.04s.01.02.01.02h.03s.01.02.01.02h.03s.01.02.01.02l.16.06h.04s.01.02.01.02h.03s.01.01.01.01h.03s.01.02.01.02h.03s0,.01,0,.01c.04.01.08.03.12.04h.04s.01.02.01.02h.03s.01.01.01.01h.03s.01.01.01.01l.12.04h.03s.01.02.01.02h.03s.02.01.02.01h.03s.02.02.02.02h.03s.01.01.01.01l.11.04h.02s.03.02.03.02h.02s.03.01.03.01h.02s.03.01.03.01h.05s.01.01.01.01l.11.04h.04s.02.02.02.02h.03s.02.01.02.01h.03s.02.02.02.02h.03s0,0,0,0c.04.01.08.03.12.04h.05s.01.01.01.01h.03s.02.01.02.01h.03s.01.01.01.01h.03s.09.03.09.03h.03s.02,0,.02,0h.03s.02.01.02.01h.03s.02.01.02.01h.03s.02.01.02.01l.11.03h.01s.03.01.03.01h.05s.02.01.02.01h.03s.02.01.02.01h.03s.02,0,.02,0h.03s.02.01.02.01h.06s.02.02.02.02h.03s.02,0,.02,0h.03s.02,0,.02,0h.03s.02.01.02.01h.03s.02.01.02.01h.06s.01.01.01.01h.03s.02.01.02.01h.03s.02.01.02.01h.03s.02,0,.02,0h.03s.02,0,.02,0h.03s.02,0,.02,0h.06s.02.01.02.01h.03s.02,0,.02,0h.03s.02,0,.02,0h.03s.02,0,.02,0h.08s.02,0,.02,0h.07s.01.01.01.01h.08s.03,0,.03,0h.03s.02,0,.02,0h.03s.02,0,.02,0h.03s.04,0,.04,0h.03s.03.01.03.01h.05s.02,0,.02,0h.08s.02,0,.02,0h.1s.02,0,.02,0h.03s.02,0,.02,0h.03s.03,0,.03,0h.21s.02,0,.02,0h.32s.02,0,.02,0h.32s.02,0,.02,0h.27s0,0,0,0h2.81c2.61.18,4.87-1.79,5.05-4.4.18-2.61-1.79-4.87-4.4-5.05-.22-.01-.43-.01-.65,0h-1.01c-3.63.09-6.87-2.28-7.88-5.77-.63-2.18-2.65-3.67-4.92-3.62M344.97,13847.19c-2.7-.09-4.97,2.02-5.06,4.72v22.67c.2,2.8,2.62,4.9,5.42,4.71,2.52-.18,4.53-2.18,4.71-4.71v-22.67c-.1-2.7-2.36-4.82-5.06-4.72M344.97,13801.85c-2.7-.09-4.97,2.02-5.06,4.72v22.67c.2,2.8,2.62,4.9,5.42,4.71,2.52-.18,4.53-2.18,4.71-4.71v-22.24c-.1-2.7-2.36-4.82-5.06-4.72M344.97,13756.94c-2.7-.09-4.97,2.02-5.06,4.72v22.67c.2,2.8,2.62,4.9,5.42,4.71,2.52-.18,4.53-2.18,4.71-4.71v-22.67c-.1-2.7-2.36-4.82-5.06-4.72M344.97,13711.59c-2.7-.09-4.97,2.02-5.06,4.72v22.67c.2,2.8,2.62,4.9,5.42,4.71,2.52-.18,4.53-2.18,4.71-4.71v-22.67c-.1-2.7-2.36-4.82-5.06-4.72M344.97,13666.24c-2.7-.09-4.97,2.02-5.06,4.72v22.67c.2,2.8,2.62,4.9,5.42,4.71,2.52-.18,4.53-2.18,4.71-4.71v-22.67c-.1-2.7-2.36-4.82-5.06-4.72M344.97,13620.9c-2.7-.09-4.97,2.02-5.06,4.72v22.67c.2,2.8,2.62,4.9,5.42,4.71,2.52-.18,4.53-2.18,4.71-4.71v-22.67c-.1-2.7-2.36-4.82-5.06-4.72M344.97,13575.56c-2.7-.09-4.97,2.02-5.06,4.72v22.67c.2,2.8,2.62,4.9,5.42,4.71,2.52-.18,4.53-2.18,4.71-4.71v-22.67c-.1-2.7-2.36-4.82-5.06-4.72M344.96,13530.22c-2.7-.09-4.97,2.02-5.06,4.72v22.67c.2,2.8,2.62,4.9,5.42,4.71,2.52-.18,4.53-2.18,4.71-4.71v-22.67c-.1-2.7-2.36-4.82-5.06-4.72M344.96,13484.87c-2.7-.09-4.97,2.02-5.06,4.72v22.67c.2,2.8,2.62,4.9,5.42,4.71,2.52-.18,4.53-2.18,4.71-4.71v-22.67c-.1-2.7-2.36-4.82-5.06-4.72M344.96,13439.53c-2.7-.09-4.97,2.02-5.06,4.72v22.67c.2,2.8,2.62,4.9,5.42,4.71,2.52-.18,4.53-2.18,4.71-4.71v-22.67c-.1-2.7-2.36-4.82-5.06-4.72M344.96,13394.19c-2.7-.09-4.97,2.02-5.06,4.72v22.67c.2,2.8,2.62,4.9,5.42,4.71,2.52-.18,4.53-2.18,4.71-4.71v-22.67c-.1-2.7-2.36-4.82-5.06-4.72M344.96,13348.84c-2.7-.09-4.97,2.02-5.06,4.72v22.67c.2,2.8,2.62,4.9,5.42,4.71,2.52-.18,4.53-2.18,4.71-4.71v-22.67c-.1-2.7-2.36-4.81-5.06-4.72M344.96,13303.5c-2.7-.09-4.97,2.02-5.06,4.72v22.67c.2,2.8,2.62,4.9,5.42,4.71,2.52-.18,4.53-2.18,4.71-4.71v-22.67c-.1-2.7-2.36-4.82-5.06-4.72M344.96,13258.16c-2.7-.09-4.97,2.02-5.06,4.72v22.67c.2,2.8,2.62,4.9,5.42,4.71,2.52-.18,4.53-2.18,4.71-4.71v-22.67c-.1-2.7-2.36-4.82-5.06-4.72M365.66,13234.28h-8.75s-.01,0-.01,0h-.26s-.09,0-.13,0h-.27s0,0,0,0l-.13.02h-.2s-.01,0-.01,0l-.19.02h-.07s-.01,0-.01,0h-.05s-.01,0-.01,0l-.26.04h-.07s0,0,0,0h-.06s0,0,0,0c-.09.01-.17.03-.26.04h-.07s0,0,0,0h-.06c-4.35.75-8.3,3.02-11.12,6.42-1.59,1.92-1.32,4.77.6,6.36.11.09.23.18.35.26.9.63,1.97.97,3.07.97,1.55.01,3.03-.67,4.03-1.86,1.59-1.91,3.96-3.01,6.45-2.98h7.54c2.61.19,4.87-1.78,5.06-4.38.19-2.61-1.78-4.87-4.38-5.06-.23-.02-.45-.02-.68,0M414.29,13234.18h-24.31c-2.61-.19-4.87,1.78-5.06,4.38-.19,2.61,1.78,4.87,4.38,5.06.23.02.45.02.68,0h24.3c2.61.19,4.87-1.78,5.06-4.38.19-2.61-1.78-4.87-4.38-5.06-.23-.02-.45-.02-.68,0M462.9,13234.18h-24.31c-2.61-.19-4.87,1.78-5.06,4.38-.19,2.61,1.78,4.87,4.38,5.06.23.02.45.02.68,0h24.3c2.61.19,4.87-1.78,5.06-4.38.19-2.61-1.78-4.87-4.38-5.06-.23-.02-.45-.02-.68,0M511.51,13234.18h-24.3c-2.61-.19-4.87,1.78-5.06,4.38-.19,2.61,1.78,4.87,4.38,5.06.23.02.45.02.68,0h24.3c2.61.19,4.87-1.78,5.06-4.38.19-2.61-1.78-4.87-4.38-5.06-.23-.02-.45-.02-.68,0M560.12,13234.18h-24.3c-2.61-.19-4.87,1.78-5.06,4.38-.19,2.61,1.78,4.87,4.38,5.06.23.02.45.02.68,0h24.3c2.61.19,4.87-1.78,5.06-4.38.19-2.61-1.78-4.87-4.38-5.06-.23-.02-.45-.02-.68,0M608.73,13234.18h-24.31c-2.61-.19-4.87,1.78-5.06,4.38-.19,2.61,1.78,4.87,4.38,5.06.23.02.45.02.68,0h24.31c2.61.19,4.87-1.78,5.06-4.38.19-2.61-1.78-4.87-4.38-5.06-.23-.02-.45-.02-.68,0M657.35,13234.18h-24.31c-2.61-.19-4.87,1.78-5.06,4.38-.19,2.61,1.78,4.87,4.38,5.06.23.02.45.02.68,0h24.3c2.61.19,4.87-1.78,5.06-4.38.19-2.61-1.78-4.87-4.38-5.06-.23-.02-.45-.02-.68,0M705.95,13234.18h-24.31c-2.61-.19-4.87,1.78-5.06,4.38-.19,2.61,1.78,4.87,4.38,5.06.23.02.45.02.68,0h24.31c2.61.19,4.87-1.78,5.06-4.38.19-2.61-1.78-4.87-4.38-5.06-.23-.02-.45-.02-.68,0M754.56,13234.18h-24.31c-2.61-.19-4.87,1.78-5.06,4.38-.19,2.61,1.78,4.87,4.38,5.06.23.02.45.02.68,0h24.31c2.61.19,4.87-1.78,5.06-4.38.19-2.61-1.78-4.87-4.38-5.06-.23-.02-.45-.02-.68,0M803.18,13234.18h-24.31c-2.61-.19-4.87,1.78-5.06,4.38-.19,2.61,1.78,4.87,4.38,5.06.23.02.45.02.68,0h24.31c2.61.19,4.87-1.78,5.06-4.38.19-2.61-1.78-4.87-4.38-5.06-.23-.02-.45-.02-.68,0M851.79,13234.18h-24.31c-2.61-.19-4.87,1.78-5.06,4.38-.19,2.61,1.78,4.87,4.38,5.06.23.02.45.02.68,0h24.31c2.61.19,4.87-1.78,5.06-4.38.19-2.61-1.78-4.87-4.38-5.06-.23-.02-.45-.02-.68,0M900.4,13234.18h-24.31c-2.61-.19-4.87,1.78-5.06,4.38-.19,2.61,1.78,4.87,4.38,5.06.23.02.45.02.68,0h24.31c2.61.19,4.87-1.78,5.06-4.38.19-2.61-1.78-4.87-4.38-5.06-.23-.02-.45-.02-.68,0M949.01,13234.18h-24.31c-2.61-.19-4.87,1.78-5.06,4.38-.19,2.61,1.78,4.87,4.38,5.06.23.02.45.02.68,0h24.31c2.61.19,4.87-1.78,5.06-4.38.19-2.61-1.78-4.87-4.38-5.06-.23-.02-.45-.02-.68,0M997.62,13234.18h-24.31c-2.61-.19-4.87,1.78-5.06,4.38-.19,2.61,1.78,4.87,4.38,5.06.23.02.45.02.68,0h24.31c2.61.19,4.87-1.78,5.06-4.38.19-2.61-1.78-4.87-4.38-5.06-.23-.02-.45-.02-.68,0M1046.23,13234.18h-24.31c-2.61-.19-4.87,1.78-5.06,4.38-.19,2.61,1.78,4.87,4.38,5.06.23.02.45.02.68,0h24.31c2.61.19,4.87-1.78,5.06-4.38.19-2.61-1.78-4.87-4.38-5.06-.23-.02-.45-.02-.68,0M1094.85,13234.18h-24.31c-2.61-.19-4.87,1.78-5.06,4.38-.19,2.61,1.78,4.87,4.38,5.06.23.02.45.02.68,0h24.31c2.61.19,4.87-1.78,5.06-4.38.19-2.61-1.78-4.87-4.38-5.06-.23-.02-.45-.02-.68,0M1143.45,13234.18h-24.31c-2.61-.19-4.87,1.78-5.06,4.38-.19,2.61,1.78,4.87,4.38,5.06.23.02.45.02.68,0h24.31c2.61.19,4.87-1.78,5.06-4.38.19-2.61-1.78-4.87-4.38-5.06-.23-.02-.45-.02-.68,0M1192.07,13234.18h-24.31c-2.61-.19-4.87,1.78-5.06,4.38-.19,2.61,1.78,4.87,4.38,5.06.23.02.45.02.68,0h24.31c2.61.19,4.87-1.78,5.06-4.38.19-2.61-1.78-4.87-4.38-5.06-.23-.02-.45-.02-.68,0M1240.68,13234.18h-24.31c-2.61-.19-4.87,1.78-5.06,4.38-.19,2.61,1.78,4.87,4.38,5.06.23.02.45.02.68,0h24.31c2.61.19,4.87-1.78,5.06-4.38.19-2.61-1.78-4.87-4.38-5.06-.23-.02-.45-.02-.68,0M1289.29,13234.18h-24.31c-2.61-.19-4.87,1.78-5.06,4.38-.19,2.61,1.78,4.87,4.38,5.06.23.02.45.02.68,0h24.31c2.61.19,4.87-1.78,5.06-4.38.19-2.61-1.78-4.87-4.38-5.06-.23-.02-.45-.02-.68,0M1337.9,13234.18h-24.31c-2.61-.19-4.87,1.78-5.06,4.38-.19,2.61,1.78,4.87,4.38,5.06.23.02.45.02.68,0h24.31c2.61.19,4.87-1.78,5.06-4.38.19-2.61-1.78-4.87-4.38-5.06-.23-.02-.45-.02-.68,0M1386.51,13234.18h-24.31c-2.61-.19-4.87,1.78-5.06,4.38-.19,2.61,1.78,4.87,4.38,5.06.23.02.45.02.68,0h24.31c2.61.19,4.87-1.78,5.06-4.38.19-2.61-1.78-4.87-4.38-5.06-.23-.02-.45-.02-.68,0M1435.12,13234.18h-24.31c-2.61-.19-4.87,1.78-5.06,4.38-.19,2.61,1.78,4.87,4.38,5.06.23.02.45.02.68,0h24.31c2.61.19,4.87-1.78,5.06-4.38.19-2.61-1.78-4.87-4.38-5.06-.23-.02-.45-.02-.68,0M1483.73,13234.18h-24.31c-2.61-.19-4.87,1.78-5.06,4.38-.19,2.61,1.78,4.87,4.38,5.06.23.02.45.02.68,0h24.31c2.61.19,4.87-1.78,5.06-4.38.19-2.61-1.78-4.87-4.38-5.06-.23-.02-.45-.02-.68,0M1532.34,13234.18h-24.3c-2.61-.19-4.87,1.78-5.06,4.38-.19,2.61,1.78,4.87,4.38,5.06.23.02.45.02.68,0h24.3c2.61.19,4.87-1.78,5.06-4.38.19-2.61-1.78-4.87-4.38-5.06-.23-.02-.45-.02-.68,0M1580.95,13234.18h-24.31c-2.61-.19-4.87,1.78-5.06,4.38-.19,2.61,1.78,4.87,4.38,5.06.23.02.45.02.68,0h24.31c2.61.19,4.87-1.78,5.06-4.38.19-2.61-1.78-4.87-4.38-5.06-.23-.02-.45-.02-.68,0M1629.56,13234.18h-24.3c-2.61-.19-4.87,1.78-5.06,4.38-.19,2.61,1.78,4.87,4.38,5.06.23.02.45.02.68,0h24.31c2.61.19,4.87-1.78,5.06-4.38.19-2.61-1.78-4.87-4.38-5.06-.23-.02-.45-.02-.68,0M1678.17,13234.18h-24.31c-2.61-.19-4.87,1.78-5.06,4.38-.19,2.61,1.78,4.87,4.38,5.06.23.02.45.02.68,0h24.31c2.61.19,4.87-1.78,5.06-4.38.19-2.61-1.78-4.87-4.38-5.06-.23-.02-.45-.02-.68,0M1726.78,13234.18h-24.3c-2.61-.19-4.87,1.78-5.06,4.38-.19,2.61,1.78,4.87,4.38,5.06.23.02.45.02.68,0h24.3c2.61.19,4.87-1.78,5.06-4.38.19-2.61-1.78-4.87-4.38-5.06-.23-.02-.45-.02-.68,0M1775.4,13234.18h-24.3c-2.61-.19-4.87,1.78-5.06,4.38-.19,2.61,1.78,4.87,4.38,5.06.23.02.45.02.68,0h24.3c2.61.19,4.87-1.78,5.06-4.38.19-2.61-1.78-4.87-4.38-5.06-.23-.02-.45-.02-.68,0M1824.01,13234.18h-24.3c-2.61-.19-4.87,1.78-5.06,4.38-.19,2.61,1.78,4.87,4.38,5.06.23.02.45.02.68,0h24.3c2.61.19,4.87-1.78,5.06-4.38.19-2.61-1.78-4.87-4.38-5.06-.23-.02-.45-.02-.68,0M1872.62,13234.18h-24.3c-2.61-.19-4.87,1.78-5.06,4.38-.19,2.61,1.78,4.87,4.38,5.06.23.02.45.02.68,0h24.3c2.61.19,4.87-1.78,5.06-4.38.19-2.61-1.78-4.87-4.38-5.06-.23-.02-.45-.02-.68,0M1921.23,13234.18h-24.3c-2.61-.19-4.87,1.78-5.06,4.38-.19,2.61,1.78,4.87,4.38,5.06.23.02.45.02.68,0h24.3c2.61.19,4.87-1.78,5.06-4.38.19-2.61-1.78-4.87-4.38-5.06-.23-.02-.45-.02-.68,0M1969.84,13234.18h-24.3c-2.61-.19-4.87,1.78-5.06,4.38-.19,2.61,1.78,4.87,4.38,5.06.23.02.45.02.68,0h24.3c2.61.19,4.87-1.78,5.06-4.38.19-2.61-1.78-4.87-4.38-5.06-.23-.02-.45-.02-.68,0M2018.45,13234.18h-24.3c-2.61-.19-4.87,1.78-5.06,4.38-.19,2.61,1.78,4.87,4.38,5.06.23.02.45.02.68,0h24.3c2.61.19,4.87-1.78,5.06-4.38.19-2.61-1.78-4.87-4.38-5.06-.23-.02-.45-.02-.68,0M2067.06,13234.18h-24.3c-2.61-.19-4.87,1.78-5.06,4.38-.19,2.61,1.78,4.87,4.38,5.06.23.02.45.02.68,0h24.3c2.61.19,4.87-1.78,5.06-4.38.19-2.61-1.78-4.87-4.38-5.06-.23-.02-.45-.02-.68,0M2115.67,13234.18h-24.31c-2.61-.19-4.87,1.78-5.06,4.38-.19,2.61,1.78,4.87,4.38,5.06.23.02.45.02.68,0h24.31c2.61.19,4.87-1.78,5.06-4.38.19-2.61-1.78-4.87-4.38-5.06-.23-.02-.45-.02-.68,0M2164.28,13234.18h-24.3c-2.61-.19-4.87,1.78-5.06,4.38-.19,2.61,1.78,4.87,4.38,5.06.23.02.45.02.68,0h24.31c2.61.19,4.87-1.78,5.06-4.38.19-2.61-1.78-4.87-4.38-5.06-.23-.02-.45-.02-.68,0M2212.89,13234.18h-24.3c-2.61-.19-4.87,1.78-5.06,4.38-.19,2.61,1.78,4.87,4.38,5.06.23.02.45.02.68,0h24.3c2.61.19,4.87-1.78,5.06-4.38.19-2.61-1.78-4.87-4.38-5.06-.23-.02-.45-.02-.68,0M2261.51,13234.18h-24.3c-2.61-.19-4.87,1.78-5.06,4.38-.19,2.61,1.78,4.87,4.38,5.06.23.02.45.02.68,0h24.3c2.61.19,4.87-1.78,5.06-4.38.19-2.61-1.78-4.87-4.38-5.06-.23-.02-.45-.02-.68,0M2310.12,13234.18h-24.3c-2.61-.19-4.87,1.78-5.06,4.38-.19,2.61,1.78,4.87,4.38,5.06.23.02.45.02.68,0h24.3c2.61.19,4.87-1.78,5.06-4.38.19-2.61-1.78-4.87-4.38-5.06-.23-.02-.45-.02-.68,0M2358.73,13234.18h-24.31c-2.61-.19-4.87,1.78-5.06,4.38-.19,2.61,1.78,4.87,4.38,5.06.23.02.45.02.68,0h24.31c2.61.19,4.87-1.78,5.06-4.38.19-2.61-1.78-4.87-4.38-5.06-.23-.02-.45-.02-.68,0M2407.34,13234.18h-24.31c-2.61-.19-4.87,1.78-5.06,4.38-.19,2.61,1.78,4.87,4.38,5.06.23.02.45.02.68,0h24.3c2.61.19,4.87-1.78,5.06-4.38.19-2.61-1.78-4.87-4.38-5.06-.23-.02-.45-.02-.68,0M2455.95,13234.18h-24.3c-2.61-.19-4.87,1.78-5.06,4.38-.19,2.61,1.78,4.87,4.38,5.06.23.02.45.02.68,0h24.3c2.61.19,4.87-1.78,5.06-4.38.19-2.61-1.78-4.87-4.38-5.06-.23-.02-.45-.02-.68,0M2504.56,13234.18h-24.3c-2.61-.19-4.87,1.78-5.06,4.38-.19,2.61,1.78,4.87,4.38,5.06.23.02.45.02.68,0h24.3c2.61.19,4.87-1.78,5.06-4.38.19-2.61-1.78-4.87-4.38-5.06-.23-.02-.45-.02-.68,0M2517.82,13243.2c-.45,0-.9.06-1.34.17-2.53.55-4.14,3.04-3.6,5.58.02.07.03.15.05.22.19.65.29,1.33.29,2.01v18.1c.2,2.8,2.62,4.9,5.42,4.71,2.52-.18,4.53-2.18,4.71-4.71v-18.15h0v-.17h0v-.16h0v-.11h0v-.11h0v-.11h0s0-.11,0-.11h0v-.1h0c-.07-1.23-.28-2.44-.63-3.62-.7-2.09-2.67-3.48-4.87-3.44M2518.31,13287.25c-2.7-.09-4.97,2.02-5.06,4.72v22.67c.2,2.8,2.62,4.9,5.42,4.71,2.52-.18,4.53-2.18,4.71-4.71v-22.67c-.1-2.7-2.36-4.82-5.06-4.72M2518.31,13332.6c-2.7-.09-4.97,2.02-5.06,4.72v22.67c.2,2.8,2.62,4.9,5.42,4.71,2.52-.18,4.53-2.18,4.71-4.71v-22.59c-.1-2.7-2.36-4.82-5.06-4.72M2518.31,13378.02c-2.7-.09-4.97,2.02-5.06,4.72v22.67c.2,2.8,2.62,4.9,5.42,4.71,2.52-.18,4.53-2.18,4.71-4.71v-22.67c-.1-2.7-2.36-4.82-5.06-4.72M2518.31,13423.36c-2.7-.09-4.97,2.02-5.06,4.73v22.67c.2,2.8,2.62,4.9,5.42,4.71,2.52-.18,4.53-2.18,4.71-4.71v-22.67c-.09-2.7-2.36-4.82-5.06-4.73M2518.31,13468.71c-2.7-.09-4.97,2.02-5.06,4.72v22.67c.2,2.8,2.62,4.9,5.42,4.71,2.52-.18,4.53-2.18,4.71-4.71v-22.67c-.1-2.7-2.36-4.81-5.06-4.72M2518.31,13514.05c-2.7-.09-4.97,2.02-5.06,4.72v22.67c.2,2.8,2.62,4.9,5.42,4.71,2.52-.18,4.53-2.18,4.71-4.71v-22.67c-.1-2.7-2.36-4.82-5.06-4.72M2518.31,13559.39c-2.7-.09-4.97,2.02-5.06,4.72v22.67c.2,2.8,2.62,4.9,5.42,4.71,2.52-.18,4.53-2.18,4.71-4.71v-22.67c-.1-2.7-2.36-4.81-5.06-4.72M2518.31,13604.74c-2.7-.09-4.97,2.02-5.06,4.72v22.67c.2,2.8,2.62,4.9,5.42,4.71,2.52-.18,4.53-2.18,4.71-4.71v-22.67c-.1-2.7-2.36-4.82-5.06-4.72M2518.31,13650.08c-2.7-.09-4.97,2.02-5.06,4.72v22.67c.2,2.8,2.62,4.9,5.42,4.71,2.52-.18,4.53-2.18,4.71-4.71v-22.67c-.1-2.7-2.36-4.81-5.06-4.72M2518.31,13695.42c-2.7-.09-4.97,2.02-5.06,4.72v22.67c.2,2.8,2.62,4.9,5.42,4.71,2.52-.18,4.53-2.18,4.71-4.71v-22.67c-.1-2.7-2.36-4.81-5.06-4.72M2518.31,13740.76c-2.7-.09-4.97,2.02-5.06,4.72v22.67c.2,2.8,2.62,4.9,5.42,4.71,2.52-.18,4.53-2.18,4.71-4.71v-22.67c-.1-2.7-2.36-4.81-5.06-4.72M2518.31,13786.11c-2.7-.09-4.97,2.02-5.06,4.72v22.67c.2,2.8,2.62,4.9,5.42,4.71,2.52-.18,4.53-2.18,4.71-4.71v-22.67c-.1-2.7-2.36-4.81-5.06-4.72M2518.31,13831.45c-2.7-.09-4.97,2.02-5.06,4.72v22.67c.2,2.8,2.62,4.9,5.42,4.71,2.52-.18,4.53-2.18,4.71-4.71v-22.67c-.1-2.7-2.36-4.81-5.06-4.72M2518.31,13876.79c-2.7-.09-4.97,2.02-5.06,4.72v12.12c0,1.59-.53,3.13-1.5,4.39-1.53,1.98-1.16,4.82.82,6.34.11.09.23.17.35.25.87.58,1.9.88,2.94.88,1.61.02,3.13-.71,4.12-1.97.37-.48.71-.98,1.02-1.49h0s.05-.09.08-.13h0s.02-.03.02-.03h0s.02-.04.02-.04h0s.03-.06.03-.06h0s.02-.03.02-.03v-.02s.02-.02.02-.02v-.02s.02-.02.02-.02l.02-.04h0s.02-.04.02-.04v-.02s.02-.03.02-.03h0s.02-.04.02-.04h0s.01-.04.02-.05h0l.02-.04h0s.02-.05.02-.05h0s.07-.14.07-.14h0c.03-.06.06-.12.09-.18.79-1.53,1.33-3.18,1.6-4.89.01-.07.02-.14.03-.21h0c0-.05.01-.11.02-.16v-.05h0s.01-.07.01-.1v-.05s0,0,0,0v-.04s0,0,0,0v-.1s.01,0,.01,0v-.04s0,0,0,0v-.04h0s0-.07.01-.1h0v-.05h0v-.06h0v-.1h0v-.05h0s0-.11,0-.11h0v-.05h0v-.06h0v-.06h0v-.15h0v-.06h0v-.05h0v-.17h0v-.49h0v-12.19c-.1-2.7-2.36-4.81-5.06-4.72M2498.08,13901.22h-24.24c-2.61-.18-4.87,1.79-5.05,4.4s1.79,4.87,4.4,5.05c.22.01.43.01.65,0h24.31c2.61.18,4.87-1.79,5.05-4.4s-1.79-4.87-4.4-5.05c-.22-.01-.43-.01-.65,0M2449.53,13901.22h-24.31c-2.61-.18-4.87,1.79-5.05,4.4s1.79,4.87,4.4,5.05c.22.01.43.01.65,0h24.31c2.61.18,4.87-1.79,5.05-4.4s-1.79-4.87-4.4-5.05c-.22-.01-.43-.01-.65,0M2400.93,13901.22h-24.31c-2.61-.18-4.87,1.79-5.05,4.4s1.79,4.87,4.4,5.05c.22.01.43.01.65,0h24.3c2.61.18,4.87-1.79,5.05-4.4s-1.79-4.87-4.4-5.05c-.22-.01-.43-.01-.65,0M2352.31,13901.22h-24.3c-2.61-.18-4.87,1.79-5.05,4.4s1.79,4.87,4.4,5.05c.22.01.43.01.65,0h24.3c2.61.18,4.87-1.79,5.05-4.4s-1.79-4.87-4.4-5.05c-.22-.01-.43-.01-.65,0M2303.7,13901.22h-24.3c-2.61-.18-4.87,1.79-5.05,4.4s1.79,4.87,4.4,5.05c.22.01.43.01.65,0h24.3c2.61.18,4.87-1.79,5.05-4.4s-1.79-4.87-4.4-5.05c-.22-.01-.43-.01-.65,0M2255.09,13901.22h-24.31c-2.61-.18-4.87,1.79-5.05,4.4s1.79,4.87,4.4,5.05c.22.01.43.01.65,0h24.31c2.61.18,4.87-1.79,5.05-4.4s-1.79-4.87-4.4-5.05c-.22-.01-.43-.01-.65,0M2206.48,13901.22h-24.31c-2.61-.18-4.87,1.79-5.05,4.4s1.79,4.87,4.4,5.05c.22.01.43.01.65,0h24.31c2.61.18,4.87-1.79,5.05-4.4s-1.79-4.87-4.4-5.05c-.22-.01-.43-.01-.65,0M2157.87,13901.22h-24.3c-2.61-.18-4.87,1.79-5.05,4.4s1.79,4.87,4.4,5.05c.22.01.43.01.65,0h24.3c2.61.18,4.87-1.79,5.05-4.4s-1.79-4.87-4.4-5.05c-.22-.01-.43-.01-.65,0M2109.26,13901.22h-24.3c-2.61-.18-4.87,1.79-5.05,4.4s1.79,4.87,4.4,5.05c.22.01.43.01.65,0h24.3c2.61.18,4.87-1.79,5.05-4.4s-1.79-4.87-4.4-5.05c-.22-.01-.43-.01-.65,0M2060.65,13901.22h-24.31c-2.61-.18-4.87,1.79-5.05,4.4s1.79,4.87,4.4,5.05c.22.01.43.01.65,0h24.3c2.61.18,4.87-1.79,5.05-4.4s-1.79-4.87-4.4-5.05c-.22-.01-.43-.01-.65,0M2012.03,13901.22h-24.31c-2.61-.18-4.87,1.79-5.05,4.4s1.79,4.87,4.4,5.05c.22.01.43.01.65,0h24.31c2.61.18,4.87-1.79,5.05-4.4s-1.79-4.87-4.4-5.05c-.22-.01-.43-.01-.65,0M1963.43,13901.22h-24.3c-2.61-.18-4.87,1.79-5.05,4.4s1.79,4.87,4.4,5.05c.22.01.43.01.65,0h24.3c2.61.18,4.87-1.79,5.05-4.4s-1.79-4.87-4.4-5.05c-.22-.01-.43-.01-.65,0M1914.82,13901.22h-24.31c-2.61-.18-4.87,1.79-5.05,4.4s1.79,4.87,4.4,5.05c.22.01.43.01.65,0h24.31c2.61.18,4.87-1.79,5.05-4.4s-1.79-4.87-4.4-5.05c-.22-.01-.43-.01-.65,0M1866.2,13901.22h-24.31c-2.61-.18-4.87,1.79-5.05,4.4s1.79,4.87,4.4,5.05c.22.01.43.01.65,0h24.3c2.61.18,4.87-1.79,5.05-4.4s-1.79-4.87-4.4-5.05c-.22-.01-.43-.01-.65,0M1817.59,13901.22h-24.3c-2.61-.18-4.87,1.79-5.05,4.4s1.79,4.87,4.4,5.05c.22.01.43.01.65,0h24.3c2.61.18,4.87-1.79,5.05-4.4s-1.79-4.87-4.4-5.05c-.22-.01-.43-.01-.65,0M1768.98,13901.22h-24.31c-2.61-.18-4.87,1.79-5.05,4.4s1.79,4.87,4.4,5.05c.22.01.43.01.65,0h24.31c2.61.18,4.87-1.79,5.05-4.4s-1.79-4.87-4.4-5.05c-.22-.01-.43-.01-.65,0M1720.37,13901.22h-24.3c-2.61-.18-4.87,1.79-5.05,4.4s1.79,4.87,4.4,5.05c.22.01.43.01.65,0h24.3c2.61.18,4.87-1.79,5.05-4.4s-1.79-4.87-4.4-5.05c-.22-.01-.43-.01-.65,0M1671.76,13901.22h-24.31c-2.61-.18-4.87,1.79-5.05,4.4s1.79,4.87,4.4,5.05c.22.01.43.01.65,0h24.31c2.61.18,4.87-1.79,5.05-4.4s-1.79-4.87-4.4-5.05c-.22-.01-.43-.01-.65,0M1623.15,13901.22h-24.31c-2.61-.18-4.87,1.79-5.05,4.4s1.79,4.87,4.4,5.05c.22.01.43.01.65,0h24.31c2.61.18,4.87-1.79,5.05-4.4s-1.79-4.87-4.4-5.05c-.22-.01-.43-.01-.65,0M1574.54,13901.22h-24.31c-2.61-.18-4.87,1.79-5.05,4.4s1.79,4.87,4.4,5.05c.22.01.43.01.65,0h24.31c2.61.18,4.87-1.79,5.05-4.4s-1.79-4.87-4.4-5.05c-.22-.01-.43-.01-.65,0M1525.93,13901.22h-24.31c-2.61-.18-4.87,1.79-5.05,4.4s1.79,4.87,4.4,5.05c.22.01.43.01.65,0h24.31c2.61.18,4.87-1.79,5.05-4.4s-1.79-4.87-4.4-5.05c-.22-.01-.43-.01-.65,0M1477.32,13901.22h-24.31c-2.61-.18-4.87,1.79-5.05,4.4s1.79,4.87,4.4,5.05c.22.01.43.01.65,0h24.31c2.61.18,4.87-1.79,5.05-4.4s-1.79-4.87-4.4-5.05c-.22-.01-.43-.01-.65,0M1428.7,13901.22h-24.31c-2.61-.18-4.87,1.79-5.05,4.4s1.79,4.87,4.4,5.05c.22.01.43.01.65,0h24.31c2.61.18,4.87-1.79,5.05-4.4s-1.79-4.87-4.4-5.05c-.22-.01-.43-.01-.65,0M1380.09,13901.22h-24.31c-2.61-.18-4.87,1.79-5.05,4.4s1.79,4.87,4.4,5.05c.22.01.43.01.65,0h24.31c2.61.18,4.87-1.79,5.05-4.4s-1.79-4.87-4.4-5.05c-.22-.01-.43-.01-.65,0M1331.48,13901.22h-24.31c-2.61-.18-4.87,1.79-5.05,4.4s1.79,4.87,4.4,5.05c.22.01.43.01.65,0h24.31c2.61.18,4.87-1.79,5.05-4.4s-1.79-4.87-4.4-5.05c-.22-.01-.43-.01-.65,0M1282.87,13901.22h-24.31c-2.61-.18-4.87,1.79-5.05,4.4s1.79,4.87,4.4,5.05c.22.01.43.01.65,0h24.31c2.61.18,4.87-1.79,5.05-4.4s-1.79-4.87-4.4-5.05c-.22-.01-.43-.01-.65,0M1234.26,13901.22h-24.31c-2.61-.18-4.87,1.79-5.05,4.4s1.79,4.87,4.4,5.05c.22.01.43.01.65,0h24.31c2.61.18,4.87-1.79,5.05-4.4s-1.79-4.87-4.4-5.05c-.22-.01-.43-.01-.65,0M1185.65,13901.22h-24.31c-2.61-.18-4.87,1.79-5.05,4.4s1.79,4.87,4.4,5.05c.22.01.43.01.65,0h24.31c2.61.18,4.87-1.79,5.05-4.4s-1.79-4.87-4.4-5.05c-.22-.01-.43-.01-.65,0M1137.04,13901.22h-24.3c-2.61-.18-4.87,1.79-5.05,4.4s1.79,4.87,4.4,5.05c.22.01.43.01.65,0h24.3c2.61.18,4.87-1.79,5.05-4.4s-1.79-4.87-4.4-5.05c-.22-.01-.43-.01-.65,0M1088.43,13901.22h-24.31c-2.61-.18-4.87,1.79-5.05,4.4s1.79,4.87,4.4,5.05c.22.01.43.01.65,0h24.31c2.61.18,4.87-1.79,5.05-4.4s-1.79-4.87-4.4-5.05c-.22-.01-.43-.01-.65,0M1039.82,13901.22h-24.31c-2.61-.18-4.87,1.79-5.05,4.4s1.79,4.87,4.4,5.05c.22.01.43.01.65,0h24.31c2.61.18,4.87-1.79,5.05-4.4s-1.79-4.87-4.4-5.05c-.22-.01-.43-.01-.65,0M991.2,13901.22h-24.31c-2.61-.18-4.87,1.79-5.05,4.4s1.79,4.87,4.4,5.05c.22.01.43.01.65,0h24.31c2.61.18,4.87-1.79,5.05-4.4s-1.79-4.87-4.4-5.05c-.22-.01-.43-.01-.65,0M942.59,13901.22h-24.31c-2.61-.18-4.87,1.79-5.05,4.4s1.79,4.87,4.4,5.05c.22.01.43.01.65,0h24.31c2.61.18,4.87-1.79,5.05-4.4s-1.79-4.87-4.4-5.05c-.22-.01-.43-.01-.65,0M893.98,13901.22h-24.31c-2.61-.18-4.87,1.79-5.05,4.4s1.79,4.87,4.4,5.05c.22.01.43.01.65,0h24.31c2.61.18,4.87-1.79,5.05-4.4s-1.79-4.87-4.4-5.05c-.22-.01-.43-.01-.65,0M845.37,13901.22h-24.31c-2.61-.18-4.87,1.79-5.05,4.4s1.79,4.87,4.4,5.05c.22.01.43.01.65,0h24.31c2.61.18,4.87-1.79,5.05-4.4s-1.79-4.87-4.4-5.05c-.22-.01-.43-.01-.65,0M796.76,13901.22h-24.3c-2.61-.18-4.87,1.79-5.05,4.4s1.79,4.87,4.4,5.05c.22.01.43.01.65,0h24.31c2.61.18,4.87-1.79,5.05-4.4s-1.79-4.87-4.4-5.05c-.22-.01-.43-.01-.65,0M748.15,13901.22h-24.3c-2.61-.18-4.87,1.79-5.05,4.4s1.79,4.87,4.4,5.05c.22.01.43.01.65,0h24.31c2.61.18,4.87-1.79,5.05-4.4s-1.79-4.87-4.4-5.05c-.22-.01-.43-.01-.65,0M699.54,13901.22h-24.3c-2.61-.18-4.87,1.79-5.05,4.4s1.79,4.87,4.4,5.05c.22.01.43.01.65,0h24.3c2.61.18,4.87-1.79,5.05-4.4s-1.79-4.87-4.4-5.05c-.22-.01-.43-.01-.65,0M650.93,13901.22h-24.3c-2.61-.18-4.87,1.79-5.05,4.4-.18,2.61,1.79,4.87,4.4,5.05.22.01.43.01.65,0h24.31c2.61.18,4.87-1.79,5.05-4.4.18-2.61-1.79-4.87-4.4-5.05-.22-.01-.43-.01-.65,0M602.32,13901.22h-24.31c-2.61-.18-4.87,1.79-5.05,4.4-.18,2.61,1.79,4.87,4.4,5.05.22.01.43.01.65,0h24.3c2.61.18,4.87-1.79,5.05-4.4.18-2.61-1.79-4.87-4.4-5.05-.22-.01-.43-.01-.65,0M553.71,13901.22h-24.3c-2.61-.18-4.87,1.79-5.05,4.4-.18,2.61,1.79,4.87,4.4,5.05.22.01.43.01.65,0h24.3c2.61.18,4.87-1.79,5.05-4.4.18-2.61-1.79-4.87-4.4-5.05-.22-.01-.43-.01-.65,0M505.1,13901.22h-24.3c-2.61-.18-4.87,1.79-5.05,4.4-.18,2.61,1.79,4.87,4.4,5.05.22.01.43.01.65,0h24.3c2.61.18,4.87-1.79,5.05-4.4.18-2.61-1.79-4.87-4.4-5.05-.22-.01-.43-.01-.65,0M456.49,13901.22h-24.3c-2.61-.18-4.87,1.79-5.05,4.4-.18,2.61,1.79,4.87,4.4,5.05.22.01.43.01.65,0h24.31c2.61.18,4.87-1.79,5.05-4.4.18-2.61-1.79-4.87-4.4-5.05-.22-.01-.43-.01-.65,0M407.88,13901.22h-24.31c-2.61-.18-4.87,1.79-5.05,4.4-.18,2.61,1.79,4.87,4.4,5.05.22.01.43.01.65,0h24.3c2.61.18,4.87-1.79,5.05-4.4.18-2.61-1.79-4.87-4.4-5.05-.22-.01-.43-.01-.65,0"/>
                                        </g>
                                      </g>
                                    </g>
                                  </g>
                                </g>
                              </g>
                            </g>
                          </g>
                        </g>
                      </g>
                    </g>
                  </g>
                </g>
              </g>
              <g id="Group_1334" data-name="Group 1334">
                <g class="cls-8">
                  <g id="Group_1333" data-name="Group 1333">
                    <path id="Path_2401" data-name="Path 2401" class="cls-3" d="M-1072.68,2108.31H441.44v1057.89H-903.66"/>
                  </g>
                </g>
              </g>
              <path id="Path_2402" data-name="Path 2402" class="cls-3" d="M3108.19,2261.03h-341.82v1474.79h-375.32v-143.52l-278.87,5.65v115.77"/>
              <path id="Path_2403" data-name="Path 2403" class="cls-3" d="M896.91,5268.51v154.94H222.65v-107.92h-891.12"/>
              <g id="Group_1336" data-name="Group 1336">
                <g class="cls-9">
                  <g id="Group_1335" data-name="Group 1335">
                    <path id="Path_2404" data-name="Path 2404" class="cls-3" d="M-358.59,5706.06l1601.08-5.63v-341.91h381.15v222.6h882.5v216.03h-393.95v69.18"/>
                    <path id="Path_2405" data-name="Path 2405" class="cls-3" d="M2112.18,6354.84v227.1h-646.93v-136.5h-570.33v205.7l-541.2.97v181.62c177.72,0,365.48,1.89,543.2,1.89v70.05"/>
                    <path id="Path_2406" data-name="Path 2406" class="cls-3" d="M898.12,7394.18v234.69H153.41v130.96h1488.85v-192.91l469.92,6.29v418.54"/>
                    <path id="Path_2407" data-name="Path 2407" class="cls-3" d="M2112.18,8500.59v188.62h547.52v-614.18h352.22"/>
                    <path id="Path_2408" data-name="Path 2408" class="cls-3" d="M901.04,9208.96v-307.24h738.09v168.26h1684.2"/>
                    <path id="Path_2409" data-name="Path 2409" class="cls-3" d="M901.04,9693.47v117.2h-474.48v-78.36H-338.42"/>
                    <path id="Path_2410" data-name="Path 2410" class="cls-3" d="M-272.94,10151.46h1682.8v-211.04h435.17v211.04h259.75v82.58"/>
                    <path id="Path_2411" data-name="Path 2411" class="cls-3" d="M2104.78,10866.99v198.02H874.41v332.87"/>
                    <line id="Line_82" data-name="Line 82" class="cls-3" x1="337.89" y1="13580.02" x2="-400.87" y2="13580.02"/>
                    <line id="Line_83" data-name="Line 83" class="cls-3" x1="3259.34" y1="13591.35" x2="2520.58" y2="13591.35"/>
                  </g>
                </g>
              </g>
            </g>
          </g>
        </g>
        <g id="Group_1342" data-name="Group 1342">
          <g class="cls-12">
            <g id="Group_1341" data-name="Group 1341">
              <path id="Path_2412" data-name="Path 2412" class="cls-3" d="M2086.42,4191.88v321.14h-417.59v-194.23h-757.39v481.35"/>
            </g>
          </g>
        </g>
      </g>
    </g>
  </g>
</svg>