<svg xmlns="http://www.w3.org/2000/svg" xmlns:xlink="http://www.w3.org/1999/xlink" width="2170.38" height="6255.44" viewBox="0 0 2170.38 6255.44">
  <defs>
    <clipPath id="clip-path">
      <rect id="Rectangle_667" data-name="Rectangle 667" width="2170.38" height="6255.44" fill="none"/>
    </clipPath>
    <clipPath id="clip-path-2">
      <path id="Path_2400" data-name="Path 2400" d="M706.423,5890.439a10,10,0,0,0-10,10v340a10,10,0,0,0,10,10h1060a10,10,0,0,0,10-10v-340a10,10,0,0,0-10-10Z" fill="none"/>
    </clipPath>
    <clipPath id="clip-path-3">
      <rect id="Rectangle_664" data-name="Rectangle 664" width="1084.998" height="365" transform="translate(693.922 5887.94)" fill="none"/>
    </clipPath>
    <clipPath id="clip-path-4">
      <rect id="Rectangle_663" data-name="Rectangle 663" width="1080" height="360" transform="translate(696.422 5890.44)" fill="none"/>
    </clipPath>
    <clipPath id="clip-path-5">
      <rect id="Rectangle_661" data-name="Rectangle 661" width="1089.998" height="370" transform="translate(691.422 5885.44)" fill="none"/>
    </clipPath>
    <clipPath id="clip-path-7">
      <rect id="Rectangle_665" data-name="Rectangle 665" width="2170.385" height="6255.438" transform="translate(0 0.002)" fill="none"/>
    </clipPath>
  </defs>
  <g id="Group_1339" data-name="Group 1339" transform="translate(-137.809 -184)">
    <g id="Group_1338" data-name="Group 1338" transform="translate(137.809 184)">
      <g id="Group_1337" data-name="Group 1337" clip-path="url(#clip-path)">
        <g id="Group_1332" data-name="Group 1332">
          <g id="Group_1331" data-name="Group 1331" clip-path="url(#clip-path-2)">
            <g id="Group_1330" data-name="Group 1330" style="isolation: isolate">
              <g id="Group_1329" data-name="Group 1329">
                <g id="Group_1328" data-name="Group 1328" clip-path="url(#clip-path-3)">
                  <g id="Group_1327" data-name="Group 1327">
                    <g id="Group_1326" data-name="Group 1326" clip-path="url(#clip-path-4)">
                      <g id="Group_1322" data-name="Group 1322" opacity="0.2">
                        <g id="Group_1321" data-name="Group 1321">
                          <g id="Group_1320" data-name="Group 1320" clip-path="url(#clip-path-5)">
                            <path id="Path_2398" data-name="Path 2398" d="M1776.422,5885.44h-12a2.5,2.5,0,0,0,0,5h12a2.5,2.5,0,1,0,0-5m-24,0h-12a2.5,2.5,0,0,0,0,5h12a2.5,2.5,0,1,0,0-5m-24,0h-12a2.5,2.5,0,0,0,0,5h12a2.5,2.5,0,1,0,0-5m-24,0h-12a2.5,2.5,0,0,0,0,5h12a2.5,2.5,0,1,0,0-5m-24,0h-12a2.5,2.5,0,0,0,0,5h12a2.5,2.5,0,1,0,0-5m-24,0h-12a2.5,2.5,0,0,0,0,5h12a2.5,2.5,0,1,0,0-5m-24,0h-12a2.5,2.5,0,0,0,0,5h12a2.5,2.5,0,1,0,0-5m-24,0h-12a2.5,2.5,0,0,0,0,5h12a2.5,2.5,0,1,0,0-5m-24,0h-12a2.5,2.5,0,0,0,0,5h12a2.5,2.5,0,1,0,0-5m-24,0h-12a2.5,2.5,0,0,0,0,5h12a2.5,2.5,0,1,0,0-5m-24,0h-12a2.5,2.5,0,0,0,0,5h12a2.5,2.5,0,1,0,0-5m-24,0h-12a2.5,2.5,0,0,0,0,5h12a2.5,2.5,0,1,0,0-5m-24,0h-12a2.5,2.5,0,0,0,0,5h12a2.5,2.5,0,1,0,0-5m-24,0h-12a2.5,2.5,0,0,0,0,5h12a2.5,2.5,0,1,0,0-5m-24,0h-12a2.5,2.5,0,0,0,0,5h12a2.5,2.5,0,1,0,0-5m-24,0h-12a2.5,2.5,0,0,0,0,5h12a2.5,2.5,0,1,0,0-5m-24,0h-12a2.5,2.5,0,0,0,0,5h12a2.5,2.5,0,1,0,0-5m-24,0h-12a2.5,2.5,0,0,0,0,5h12a2.5,2.5,0,1,0,0-5m-24,0h-12a2.5,2.5,0,0,0,0,5h12a2.5,2.5,0,1,0,0-5m-24,0h-12a2.5,2.5,0,0,0,0,5h12a2.5,2.5,0,1,0,0-5m-24,0h-12a2.5,2.5,0,0,0,0,5h12a2.5,2.5,0,1,0,0-5m-24,0h-12a2.5,2.5,0,0,0,0,5h12a2.5,2.5,0,1,0,0-5m-24,0h-12a2.5,2.5,0,0,0,0,5h12a2.5,2.5,0,1,0,0-5m-24,0h-12a2.5,2.5,0,0,0,0,5h12a2.5,2.5,0,1,0,0-5m-24,0h-12a2.5,2.5,0,0,0,0,5h12a2.5,2.5,0,1,0,0-5m-24,0h-12a2.5,2.5,0,0,0,0,5h12a2.5,2.5,0,1,0,0-5m-24,0h-12a2.5,2.5,0,0,0,0,5h12a2.5,2.5,0,1,0,0-5m-24,0h-12a2.5,2.5,0,0,0,0,5h12a2.5,2.5,0,1,0,0-5m-24,0h-12a2.5,2.5,0,0,0,0,5h12a2.5,2.5,0,1,0,0-5m-24,0h-12a2.5,2.5,0,0,0,0,5h12a2.5,2.5,0,1,0,0-5m-24,0h-12a2.5,2.5,0,0,0,0,5h12a2.5,2.5,0,1,0,0-5m-24,0h-12a2.5,2.5,0,0,0,0,5h12a2.5,2.5,0,1,0,0-5m-24,0h-12a2.5,2.5,0,0,0,0,5h12a2.5,2.5,0,1,0,0-5m-24,0h-12a2.5,2.5,0,0,0,0,5h12a2.5,2.5,0,0,0,0-5m-24,0h-12a2.5,2.5,0,0,0,0,5h12a2.5,2.5,0,0,0,0-5m-24,0h-12a2.5,2.5,0,0,0,0,5h12a2.5,2.5,0,0,0,0-5m-24,0h-12a2.5,2.5,0,0,0,0,5h12a2.5,2.5,0,0,0,0-5m-24,0h-12a2.5,2.5,0,0,0,0,5h12a2.5,2.5,0,0,0,0-5m-24,0h-12a2.5,2.5,0,0,0,0,5h12a2.5,2.5,0,0,0,0-5m-24,0h-12a2.5,2.5,0,0,0,0,5h12a2.5,2.5,0,0,0,0-5m-24,0h-12a2.5,2.5,0,0,0,0,5h12a2.5,2.5,0,0,0,0-5m-24,0h-12a2.5,2.5,0,0,0,0,5h12a2.5,2.5,0,0,0,0-5m-24,0h-12a2.5,2.5,0,0,0,0,5h12a2.5,2.5,0,0,0,0-5m-24,0h-12a2.5,2.5,0,0,0,0,5h12a2.5,2.5,0,0,0,0-5m-24,0h-12a2.5,2.5,0,0,0,0,5h12a2.5,2.5,0,0,0,0-5m-26.5,2.5a2.5,2.5,0,0,0-2.5,2.5v12a2.5,2.5,0,0,0,5,0v-12a2.5,2.5,0,0,0-2.5-2.5m0,24a2.5,2.5,0,0,0-2.5,2.5v12a2.5,2.5,0,0,0,5,0v-12a2.5,2.5,0,0,0-2.5-2.5m0,24a2.5,2.5,0,0,0-2.5,2.5v12a2.5,2.5,0,0,0,5,0v-12a2.5,2.5,0,0,0-2.5-2.5m0,24a2.5,2.5,0,0,0-2.5,2.5v12a2.5,2.5,0,0,0,5,0v-12a2.5,2.5,0,0,0-2.5-2.5m0,24a2.5,2.5,0,0,0-2.5,2.5v12a2.5,2.5,0,0,0,5,0v-12a2.5,2.5,0,0,0-2.5-2.5m0,24a2.5,2.5,0,0,0-2.5,2.5v12a2.5,2.5,0,0,0,5,0v-12a2.5,2.5,0,0,0-2.5-2.5m0,24a2.5,2.5,0,0,0-2.5,2.5v12a2.5,2.5,0,0,0,5,0v-12a2.5,2.5,0,0,0-2.5-2.5m0,24a2.5,2.5,0,0,0-2.5,2.5v12a2.5,2.5,0,0,0,5,0v-12a2.5,2.5,0,0,0-2.5-2.5m0,24a2.5,2.5,0,0,0-2.5,2.5v12a2.5,2.5,0,0,0,5,0v-12a2.5,2.5,0,0,0-2.5-2.5m0,24a2.5,2.5,0,0,0-2.5,2.5v12a2.5,2.5,0,0,0,5,0v-12a2.5,2.5,0,0,0-2.5-2.5m0,24a2.5,2.5,0,0,0-2.5,2.5v12a2.5,2.5,0,0,0,5,0v-12a2.5,2.5,0,0,0-2.5-2.5m0,24a2.5,2.5,0,0,0-2.5,2.5v12a2.5,2.5,0,0,0,5,0v-12a2.5,2.5,0,0,0-2.5-2.5m0,24a2.5,2.5,0,0,0-2.5,2.5v12a2.5,2.5,0,0,0,5,0v-12a2.5,2.5,0,0,0-2.5-2.5m0,24a2.5,2.5,0,0,0-2.5,2.5v12a2.5,2.5,0,0,0,5,0v-12a2.5,2.5,0,0,0-2.5-2.5m0,24a2.5,2.5,0,0,0-2.5,2.5v12a2.5,2.5,0,0,0,5,0v-12a2.5,2.5,0,0,0-2.5-2.5m14.5,26.5h-12a2.5,2.5,0,0,0,0,5h12a2.5,2.5,0,0,0,0-5m24,0h-12a2.5,2.5,0,0,0,0,5h12a2.5,2.5,0,0,0,0-5m24,0h-12a2.5,2.5,0,0,0,0,5h12a2.5,2.5,0,0,0,0-5m24,0h-12a2.5,2.5,0,0,0,0,5h12a2.5,2.5,0,0,0,0-5m24,0h-12a2.5,2.5,0,0,0,0,5h12a2.5,2.5,0,0,0,0-5m24,0h-12a2.5,2.5,0,0,0,0,5h12a2.5,2.5,0,0,0,0-5m24,0h-12a2.5,2.5,0,0,0,0,5h12a2.5,2.5,0,0,0,0-5m24,0h-12a2.5,2.5,0,0,0,0,5h12a2.5,2.5,0,0,0,0-5m24,0h-12a2.5,2.5,0,0,0,0,5h12a2.5,2.5,0,0,0,0-5m24,0h-12a2.5,2.5,0,0,0,0,5h12a2.5,2.5,0,0,0,0-5m24,0h-12a2.5,2.5,0,0,0,0,5h12a2.5,2.5,0,0,0,0-5m24,0h-12a2.5,2.5,0,0,0,0,5h12a2.5,2.5,0,0,0,0-5m24,0h-12a2.5,2.5,0,0,0,0,5h12a2.5,2.5,0,0,0,0-5m24,0h-12a2.5,2.5,0,0,0,0,5h12a2.5,2.5,0,1,0,0-5m24,0h-12a2.5,2.5,0,0,0,0,5h12a2.5,2.5,0,1,0,0-5m24,0h-12a2.5,2.5,0,0,0,0,5h12a2.5,2.5,0,1,0,0-5m24,0h-12a2.5,2.5,0,0,0,0,5h12a2.5,2.5,0,1,0,0-5m24,0h-12a2.5,2.5,0,0,0,0,5h12a2.5,2.5,0,1,0,0-5m24,0h-12a2.5,2.5,0,0,0,0,5h12a2.5,2.5,0,1,0,0-5m24,0h-12a2.5,2.5,0,0,0,0,5h12a2.5,2.5,0,1,0,0-5m24,0h-12a2.5,2.5,0,0,0,0,5h12a2.5,2.5,0,1,0,0-5m24,0h-12a2.5,2.5,0,0,0,0,5h12a2.5,2.5,0,1,0,0-5m24,0h-12a2.5,2.5,0,0,0,0,5h12a2.5,2.5,0,1,0,0-5m24,0h-12a2.5,2.5,0,0,0,0,5h12a2.5,2.5,0,1,0,0-5m24,0h-12a2.5,2.5,0,0,0,0,5h12a2.5,2.5,0,1,0,0-5m24,0h-12a2.5,2.5,0,0,0,0,5h12a2.5,2.5,0,1,0,0-5m24,0h-12a2.5,2.5,0,0,0,0,5h12a2.5,2.5,0,1,0,0-5m24,0h-12a2.5,2.5,0,0,0,0,5h12a2.5,2.5,0,1,0,0-5m24,0h-12a2.5,2.5,0,0,0,0,5h12a2.5,2.5,0,1,0,0-5m24,0h-12a2.5,2.5,0,0,0,0,5h12a2.5,2.5,0,1,0,0-5m24,0h-12a2.5,2.5,0,0,0,0,5h12a2.5,2.5,0,1,0,0-5m24,0h-12a2.5,2.5,0,0,0,0,5h12a2.5,2.5,0,1,0,0-5m24,0h-12a2.5,2.5,0,0,0,0,5h12a2.5,2.5,0,1,0,0-5m24,0h-12a2.5,2.5,0,0,0,0,5h12a2.5,2.5,0,1,0,0-5m24,0h-12a2.5,2.5,0,0,0,0,5h12a2.5,2.5,0,1,0,0-5m24,0h-12a2.5,2.5,0,0,0,0,5h12a2.5,2.5,0,1,0,0-5m24,0h-12a2.5,2.5,0,0,0,0,5h12a2.5,2.5,0,1,0,0-5m24,0h-12a2.5,2.5,0,0,0,0,5h12a2.5,2.5,0,1,0,0-5m24,0h-12a2.5,2.5,0,0,0,0,5h12a2.5,2.5,0,1,0,0-5m24,0h-12a2.5,2.5,0,0,0,0,5h12a2.5,2.5,0,1,0,0-5m24,0h-12a2.5,2.5,0,0,0,0,5h12a2.5,2.5,0,1,0,0-5m24,0h-12a2.5,2.5,0,0,0,0,5h12a2.5,2.5,0,1,0,0-5m24,0h-12a2.5,2.5,0,0,0,0,5h12a2.5,2.5,0,1,0,0-5m24,0h-12a2.5,2.5,0,0,0,0,5h12a2.5,2.5,0,1,0,0-5m24,0h-12a2.5,2.5,0,0,0,0,5h12a2.5,2.5,0,1,0,0-5m14.5-14.5a2.5,2.5,0,0,0-2.5,2.5v12a2.5,2.5,0,0,0,5,0v-12a2.5,2.5,0,0,0-2.5-2.5m0-24a2.5,2.5,0,0,0-2.5,2.5v12a2.5,2.5,0,0,0,5,0v-12a2.5,2.5,0,0,0-2.5-2.5m0-24a2.5,2.5,0,0,0-2.5,2.5v12a2.5,2.5,0,0,0,5,0v-12a2.5,2.5,0,0,0-2.5-2.5m0-24a2.5,2.5,0,0,0-2.5,2.5v12a2.5,2.5,0,0,0,5,0v-12a2.5,2.5,0,0,0-2.5-2.5m0-24a2.5,2.5,0,0,0-2.5,2.5v12a2.5,2.5,0,0,0,5,0v-12a2.5,2.5,0,0,0-2.5-2.5m0-24a2.5,2.5,0,0,0-2.5,2.5v12a2.5,2.5,0,0,0,5,0v-12a2.5,2.5,0,0,0-2.5-2.5m0-24a2.5,2.5,0,0,0-2.5,2.5v12a2.5,2.5,0,0,0,5,0v-12a2.5,2.5,0,0,0-2.5-2.5m0-24a2.5,2.5,0,0,0-2.5,2.5v12a2.5,2.5,0,0,0,5,0v-12a2.5,2.5,0,0,0-2.5-2.5m0-24a2.5,2.5,0,0,0-2.5,2.5v12a2.5,2.5,0,0,0,5,0v-12a2.5,2.5,0,0,0-2.5-2.5m0-24a2.5,2.5,0,0,0-2.5,2.5v12a2.5,2.5,0,0,0,5,0v-12a2.5,2.5,0,0,0-2.5-2.5m0-24a2.5,2.5,0,0,0-2.5,2.5v12a2.5,2.5,0,0,0,5,0v-12a2.5,2.5,0,0,0-2.5-2.5m0-24a2.5,2.5,0,0,0-2.5,2.5v12a2.5,2.5,0,0,0,5,0v-12a2.5,2.5,0,0,0-2.5-2.5m0-24a2.5,2.5,0,0,0-2.5,2.5v12a2.5,2.5,0,0,0,5,0v-12a2.5,2.5,0,0,0-2.5-2.5m0-24a2.5,2.5,0,0,0-2.5,2.5v12a2.5,2.5,0,0,0,5,0v-12a2.5,2.5,0,0,0-2.5-2.5m0-24a2.5,2.5,0,0,0-2.5,2.5v12a2.5,2.5,0,0,0,5,0v-12a2.5,2.5,0,0,0-2.5-2.5" fill="#fff"/>
                          </g>
                        </g>
                      </g>
                      <g id="Group_1325" data-name="Group 1325" opacity="0.302">
                        <g id="Group_1324" data-name="Group 1324">
                          <g id="Group_1323" data-name="Group 1323" clip-path="url(#clip-path-5)">
                            <path id="Path_2399" data-name="Path 2399" d="M1776.422,5885.44h-12a2.5,2.5,0,0,0,0,5h12a2.5,2.5,0,1,0,0-5m-24,0h-12a2.5,2.5,0,0,0,0,5h12a2.5,2.5,0,1,0,0-5m-24,0h-12a2.5,2.5,0,0,0,0,5h12a2.5,2.5,0,1,0,0-5m-24,0h-12a2.5,2.5,0,0,0,0,5h12a2.5,2.5,0,1,0,0-5m-24,0h-12a2.5,2.5,0,0,0,0,5h12a2.5,2.5,0,1,0,0-5m-24,0h-12a2.5,2.5,0,0,0,0,5h12a2.5,2.5,0,1,0,0-5m-24,0h-12a2.5,2.5,0,0,0,0,5h12a2.5,2.5,0,1,0,0-5m-24,0h-12a2.5,2.5,0,0,0,0,5h12a2.5,2.5,0,1,0,0-5m-24,0h-12a2.5,2.5,0,0,0,0,5h12a2.5,2.5,0,1,0,0-5m-24,0h-12a2.5,2.5,0,0,0,0,5h12a2.5,2.5,0,1,0,0-5m-24,0h-12a2.5,2.5,0,0,0,0,5h12a2.5,2.5,0,1,0,0-5m-24,0h-12a2.5,2.5,0,0,0,0,5h12a2.5,2.5,0,1,0,0-5m-24,0h-12a2.5,2.5,0,0,0,0,5h12a2.5,2.5,0,1,0,0-5m-24,0h-12a2.5,2.5,0,0,0,0,5h12a2.5,2.5,0,1,0,0-5m-24,0h-12a2.5,2.5,0,0,0,0,5h12a2.5,2.5,0,1,0,0-5m-24,0h-12a2.5,2.5,0,0,0,0,5h12a2.5,2.5,0,1,0,0-5m-24,0h-12a2.5,2.5,0,0,0,0,5h12a2.5,2.5,0,1,0,0-5m-24,0h-12a2.5,2.5,0,0,0,0,5h12a2.5,2.5,0,1,0,0-5m-24,0h-12a2.5,2.5,0,0,0,0,5h12a2.5,2.5,0,1,0,0-5m-24,0h-12a2.5,2.5,0,0,0,0,5h12a2.5,2.5,0,1,0,0-5m-24,0h-12a2.5,2.5,0,0,0,0,5h12a2.5,2.5,0,1,0,0-5m-24,0h-12a2.5,2.5,0,0,0,0,5h12a2.5,2.5,0,1,0,0-5m-24,0h-12a2.5,2.5,0,0,0,0,5h12a2.5,2.5,0,1,0,0-5m-24,0h-12a2.5,2.5,0,0,0,0,5h12a2.5,2.5,0,1,0,0-5m-24,0h-12a2.5,2.5,0,0,0,0,5h12a2.5,2.5,0,1,0,0-5m-24,0h-12a2.5,2.5,0,0,0,0,5h12a2.5,2.5,0,1,0,0-5m-24,0h-12a2.5,2.5,0,0,0,0,5h12a2.5,2.5,0,1,0,0-5m-24,0h-12a2.5,2.5,0,0,0,0,5h12a2.5,2.5,0,1,0,0-5m-24,0h-12a2.5,2.5,0,0,0,0,5h12a2.5,2.5,0,1,0,0-5m-24,0h-12a2.5,2.5,0,0,0,0,5h12a2.5,2.5,0,1,0,0-5m-24,0h-12a2.5,2.5,0,0,0,0,5h12a2.5,2.5,0,1,0,0-5m-24,0h-12a2.5,2.5,0,0,0,0,5h12a2.5,2.5,0,1,0,0-5m-24,0h-12a2.5,2.5,0,0,0,0,5h12a2.5,2.5,0,1,0,0-5m-24,0h-12a2.5,2.5,0,0,0,0,5h12a2.5,2.5,0,0,0,0-5m-24,0h-12a2.5,2.5,0,0,0,0,5h12a2.5,2.5,0,0,0,0-5m-24,0h-12a2.5,2.5,0,0,0,0,5h12a2.5,2.5,0,0,0,0-5m-24,0h-12a2.5,2.5,0,0,0,0,5h12a2.5,2.5,0,0,0,0-5m-24,0h-12a2.5,2.5,0,0,0,0,5h12a2.5,2.5,0,0,0,0-5m-24,0h-12a2.5,2.5,0,0,0,0,5h12a2.5,2.5,0,0,0,0-5m-24,0h-12a2.5,2.5,0,0,0,0,5h12a2.5,2.5,0,0,0,0-5m-24,0h-12a2.5,2.5,0,0,0,0,5h12a2.5,2.5,0,0,0,0-5m-24,0h-12a2.5,2.5,0,0,0,0,5h12a2.5,2.5,0,0,0,0-5m-24,0h-12a2.5,2.5,0,0,0,0,5h12a2.5,2.5,0,0,0,0-5m-24,0h-12a2.5,2.5,0,0,0,0,5h12a2.5,2.5,0,0,0,0-5m-24,0h-12a2.5,2.5,0,0,0,0,5h12a2.5,2.5,0,0,0,0-5m-26.5,2.5a2.5,2.5,0,0,0-2.5,2.5v12a2.5,2.5,0,0,0,5,0v-12a2.5,2.5,0,0,0-2.5-2.5m0,24a2.5,2.5,0,0,0-2.5,2.5v12a2.5,2.5,0,0,0,5,0v-12a2.5,2.5,0,0,0-2.5-2.5m0,24a2.5,2.5,0,0,0-2.5,2.5v12a2.5,2.5,0,0,0,5,0v-12a2.5,2.5,0,0,0-2.5-2.5m0,24a2.5,2.5,0,0,0-2.5,2.5v12a2.5,2.5,0,0,0,5,0v-12a2.5,2.5,0,0,0-2.5-2.5m0,24a2.5,2.5,0,0,0-2.5,2.5v12a2.5,2.5,0,0,0,5,0v-12a2.5,2.5,0,0,0-2.5-2.5m0,24a2.5,2.5,0,0,0-2.5,2.5v12a2.5,2.5,0,0,0,5,0v-12a2.5,2.5,0,0,0-2.5-2.5m0,24a2.5,2.5,0,0,0-2.5,2.5v12a2.5,2.5,0,0,0,5,0v-12a2.5,2.5,0,0,0-2.5-2.5m0,24a2.5,2.5,0,0,0-2.5,2.5v12a2.5,2.5,0,0,0,5,0v-12a2.5,2.5,0,0,0-2.5-2.5m0,24a2.5,2.5,0,0,0-2.5,2.5v12a2.5,2.5,0,0,0,5,0v-12a2.5,2.5,0,0,0-2.5-2.5m0,24a2.5,2.5,0,0,0-2.5,2.5v12a2.5,2.5,0,0,0,5,0v-12a2.5,2.5,0,0,0-2.5-2.5m0,24a2.5,2.5,0,0,0-2.5,2.5v12a2.5,2.5,0,0,0,5,0v-12a2.5,2.5,0,0,0-2.5-2.5m0,24a2.5,2.5,0,0,0-2.5,2.5v12a2.5,2.5,0,0,0,5,0v-12a2.5,2.5,0,0,0-2.5-2.5m0,24a2.5,2.5,0,0,0-2.5,2.5v12a2.5,2.5,0,0,0,5,0v-12a2.5,2.5,0,0,0-2.5-2.5m0,24a2.5,2.5,0,0,0-2.5,2.5v12a2.5,2.5,0,0,0,5,0v-12a2.5,2.5,0,0,0-2.5-2.5m0,24a2.5,2.5,0,0,0-2.5,2.5v12a2.5,2.5,0,0,0,5,0v-12a2.5,2.5,0,0,0-2.5-2.5m14.5,26.5h-12a2.5,2.5,0,0,0,0,5h12a2.5,2.5,0,0,0,0-5m24,0h-12a2.5,2.5,0,0,0,0,5h12a2.5,2.5,0,0,0,0-5m24,0h-12a2.5,2.5,0,0,0,0,5h12a2.5,2.5,0,0,0,0-5m24,0h-12a2.5,2.5,0,0,0,0,5h12a2.5,2.5,0,0,0,0-5m24,0h-12a2.5,2.5,0,0,0,0,5h12a2.5,2.5,0,0,0,0-5m24,0h-12a2.5,2.5,0,0,0,0,5h12a2.5,2.5,0,0,0,0-5m24,0h-12a2.5,2.5,0,0,0,0,5h12a2.5,2.5,0,0,0,0-5m24,0h-12a2.5,2.5,0,0,0,0,5h12a2.5,2.5,0,0,0,0-5m24,0h-12a2.5,2.5,0,0,0,0,5h12a2.5,2.5,0,0,0,0-5m24,0h-12a2.5,2.5,0,0,0,0,5h12a2.5,2.5,0,0,0,0-5m24,0h-12a2.5,2.5,0,0,0,0,5h12a2.5,2.5,0,0,0,0-5m24,0h-12a2.5,2.5,0,0,0,0,5h12a2.5,2.5,0,0,0,0-5m24,0h-12a2.5,2.5,0,0,0,0,5h12a2.5,2.5,0,0,0,0-5m24,0h-12a2.5,2.5,0,0,0,0,5h12a2.5,2.5,0,1,0,0-5m24,0h-12a2.5,2.5,0,0,0,0,5h12a2.5,2.5,0,1,0,0-5m24,0h-12a2.5,2.5,0,0,0,0,5h12a2.5,2.5,0,1,0,0-5m24,0h-12a2.5,2.5,0,0,0,0,5h12a2.5,2.5,0,1,0,0-5m24,0h-12a2.5,2.5,0,0,0,0,5h12a2.5,2.5,0,1,0,0-5m24,0h-12a2.5,2.5,0,0,0,0,5h12a2.5,2.5,0,1,0,0-5m24,0h-12a2.5,2.5,0,0,0,0,5h12a2.5,2.5,0,1,0,0-5m24,0h-12a2.5,2.5,0,0,0,0,5h12a2.5,2.5,0,1,0,0-5m24,0h-12a2.5,2.5,0,0,0,0,5h12a2.5,2.5,0,1,0,0-5m24,0h-12a2.5,2.5,0,0,0,0,5h12a2.5,2.5,0,1,0,0-5m24,0h-12a2.5,2.5,0,0,0,0,5h12a2.5,2.5,0,1,0,0-5m24,0h-12a2.5,2.5,0,0,0,0,5h12a2.5,2.5,0,1,0,0-5m24,0h-12a2.5,2.5,0,0,0,0,5h12a2.5,2.5,0,1,0,0-5m24,0h-12a2.5,2.5,0,0,0,0,5h12a2.5,2.5,0,1,0,0-5m24,0h-12a2.5,2.5,0,0,0,0,5h12a2.5,2.5,0,1,0,0-5m24,0h-12a2.5,2.5,0,0,0,0,5h12a2.5,2.5,0,1,0,0-5m24,0h-12a2.5,2.5,0,0,0,0,5h12a2.5,2.5,0,1,0,0-5m24,0h-12a2.5,2.5,0,0,0,0,5h12a2.5,2.5,0,1,0,0-5m24,0h-12a2.5,2.5,0,0,0,0,5h12a2.5,2.5,0,1,0,0-5m24,0h-12a2.5,2.5,0,0,0,0,5h12a2.5,2.5,0,1,0,0-5m24,0h-12a2.5,2.5,0,0,0,0,5h12a2.5,2.5,0,1,0,0-5m24,0h-12a2.5,2.5,0,0,0,0,5h12a2.5,2.5,0,1,0,0-5m24,0h-12a2.5,2.5,0,0,0,0,5h12a2.5,2.5,0,1,0,0-5m24,0h-12a2.5,2.5,0,0,0,0,5h12a2.5,2.5,0,1,0,0-5m24,0h-12a2.5,2.5,0,0,0,0,5h12a2.5,2.5,0,1,0,0-5m24,0h-12a2.5,2.5,0,0,0,0,5h12a2.5,2.5,0,1,0,0-5m24,0h-12a2.5,2.5,0,0,0,0,5h12a2.5,2.5,0,1,0,0-5m24,0h-12a2.5,2.5,0,0,0,0,5h12a2.5,2.5,0,1,0,0-5m24,0h-12a2.5,2.5,0,0,0,0,5h12a2.5,2.5,0,1,0,0-5m24,0h-12a2.5,2.5,0,0,0,0,5h12a2.5,2.5,0,1,0,0-5m24,0h-12a2.5,2.5,0,0,0,0,5h12a2.5,2.5,0,1,0,0-5m24,0h-12a2.5,2.5,0,0,0,0,5h12a2.5,2.5,0,1,0,0-5m14.5-14.5a2.5,2.5,0,0,0-2.5,2.5v12a2.5,2.5,0,0,0,5,0v-12a2.5,2.5,0,0,0-2.5-2.5m0-24a2.5,2.5,0,0,0-2.5,2.5v12a2.5,2.5,0,0,0,5,0v-12a2.5,2.5,0,0,0-2.5-2.5m0-24a2.5,2.5,0,0,0-2.5,2.5v12a2.5,2.5,0,0,0,5,0v-12a2.5,2.5,0,0,0-2.5-2.5m0-24a2.5,2.5,0,0,0-2.5,2.5v12a2.5,2.5,0,0,0,5,0v-12a2.5,2.5,0,0,0-2.5-2.5m0-24a2.5,2.5,0,0,0-2.5,2.5v12a2.5,2.5,0,0,0,5,0v-12a2.5,2.5,0,0,0-2.5-2.5m0-24a2.5,2.5,0,0,0-2.5,2.5v12a2.5,2.5,0,0,0,5,0v-12a2.5,2.5,0,0,0-2.5-2.5m0-24a2.5,2.5,0,0,0-2.5,2.5v12a2.5,2.5,0,0,0,5,0v-12a2.5,2.5,0,0,0-2.5-2.5m0-24a2.5,2.5,0,0,0-2.5,2.5v12a2.5,2.5,0,0,0,5,0v-12a2.5,2.5,0,0,0-2.5-2.5m0-24a2.5,2.5,0,0,0-2.5,2.5v12a2.5,2.5,0,0,0,5,0v-12a2.5,2.5,0,0,0-2.5-2.5m0-24a2.5,2.5,0,0,0-2.5,2.5v12a2.5,2.5,0,0,0,5,0v-12a2.5,2.5,0,0,0-2.5-2.5m0-24a2.5,2.5,0,0,0-2.5,2.5v12a2.5,2.5,0,0,0,5,0v-12a2.5,2.5,0,0,0-2.5-2.5m0-24a2.5,2.5,0,0,0-2.5,2.5v12a2.5,2.5,0,0,0,5,0v-12a2.5,2.5,0,0,0-2.5-2.5m0-24a2.5,2.5,0,0,0-2.5,2.5v12a2.5,2.5,0,0,0,5,0v-12a2.5,2.5,0,0,0-2.5-2.5m0-24a2.5,2.5,0,0,0-2.5,2.5v12a2.5,2.5,0,0,0,5,0v-12a2.5,2.5,0,0,0-2.5-2.5m0-24a2.5,2.5,0,0,0-2.5,2.5v12a2.5,2.5,0,0,0,5,0v-12a2.5,2.5,0,0,0-2.5-2.5M700.1,6239.472a2.547,2.547,0,0,0-.589.07,2.5,2.5,0,0,0-1.848,3,8.99,8.99,0,0,0,2.466,4.34l.078.075c.039.037.078.074.118.11h0l.018.017h0l.018.017h0c.026.024.052.048.079.071l0,0,.018.016,0,0,.018.016h0l.061.053h0l.018.016,0,0,.016.014,0,0,.016.015,0,0c.013.012.027.023.04.034h0l.02.016,0,0,.015.013.006.005.015.012,0,0,.016.013,0,0,.041.033h0l.019.015,0,0,.016.013.005,0,.016.012.005,0,.016.013,0,0,.041.032,0,0,.016.013.006,0,.014.011.007,0,.014.011.006,0,.016.012,0,0,.041.031.007,0,.013.01.008.006.013.009.008.006.014.01.006.005.015.011.006,0,.02.015,0,0,.016.012.008,0,.013.009.009.006.011.009.01.007.011.008.009.006.014.01.007,0,.02.014.008.007.012.008.011.007.01.007.01.007.011.007.01.007.01.008.011.007.009.006.019.013.013.008.009.006.011.008.011.007.01.007.011.007.01.006.011.008.01.007.011.007.01.006.02.013.01.007.012.007.01.006.012.008.009.006.011.007.009.006.013.008.008,0,.013.008.007,0,.027.016.006,0,.013.007.009.006.012.007.009.006.012.007.009.006.013.008.007,0,.014.009h0l.033.02.007,0,.013.008.009,0,.012.007.01.006.011.007.01.006.012.007.009,0,.047.028.008,0,.013.008.008,0,.013.008.009.005.013.007.009,0,.013.007.008,0,.05.027.005,0,.015.008.007,0,.015.008.006,0,.015.008.007,0,.015.009h0l.056.029,0,0,.016.008.007,0,.014.007.008,0,.015.008,0,0,.054.028.005,0,.015.008.007,0,.015.008.007,0,.015.007.006,0,.016.008.006,0,.075.036.006,0,.015.008.008,0,.015.007.007,0,.015.007.006,0,.054.026.006,0,.015.007.008,0,.014.006.008,0,.015.007.008,0,.015.007.005,0,.057.025,0,0,.017.007.006,0,.017.007.006,0,.016.007.006,0,.079.033,0,0,.018.007.005,0,.017.007.006,0,.017.007.005,0,.017.007h0l.059.023,0,0,.017.007.007,0,.016.006.007,0,.016.007.006,0,.059.023h0l.017.006.007,0,.016,0,.008,0,.015.006.008,0,.016.006.005,0,.055.019.009,0,.014,0,.01,0,.014,0,.009,0,.015,0,.009,0,.015.006.007,0,.055.019.008,0,.014,0,.01,0,.015,0,.009,0,.015,0,.008,0,.016,0h0c.019.007.039.013.058.019l.008,0,.016.006.007,0,.016,0,.009,0,.016,0,.007,0,.017.005h0l.042.012h0l.016,0,.008,0,.016,0,.009,0,.015,0,.009,0,.015,0,.009,0,.055.015.007,0,.015,0,.011,0,.014,0,.01,0,.014,0,.011,0,.014,0,.012,0,.013,0,.01,0,.029.007.008,0,.016,0,.009,0,.014,0,.012,0,.013,0,.011,0,.014,0,.011,0,.031.007.007,0,.014,0,.01,0,.015,0,.01,0,.015,0,.01,0,.015,0,.01,0,.015,0,.01,0,.029.006.009,0,.014,0,.012,0,.014,0,.01,0,.015,0,.011,0,.015,0,.009,0,.016,0,.008,0,.034.007h.006l.015,0,.011,0,.013,0,.013,0,.013,0,.012,0,.014,0,.012,0,.013,0,.018,0,.015,0,.017,0,.011,0,.015,0,.012,0,.014,0,.011,0,.015,0,.012,0,.015,0,.01,0,.025,0,.01,0,.017,0h.011l.014,0,.013,0,.013,0,.013,0,.013,0,.013,0,.014,0,.012,0,.024,0,.012,0,.014,0,.012,0,.015,0,.012,0,.014,0h.012l.015,0,.011,0,.02,0h.006l.025,0,.011,0,.016,0h.011l.015,0h.012l.015,0,.011,0h.016l.011,0,.022,0h0l.026,0h.01l.016,0h.012l.014,0h.013l.013,0h.04l.025,0h0l.024,0h.009l.018,0h.01l.016,0h.065l.026,0h.006l.021,0h.01l.016,0h.092l.027,0h1.048a2.5,2.5,0,0,0,0-5h-.555a3.985,3.985,0,0,1-3.889-3.054,2.5,2.5,0,0,0-2.428-1.914m-.183-23.393a2.5,2.5,0,0,0-2.5,2.5v12a2.5,2.5,0,0,0,5,0v-12a2.5,2.5,0,0,0-2.5-2.5m0-24a2.5,2.5,0,0,0-2.5,2.5v12a2.5,2.5,0,0,0,5,0v-12a2.5,2.5,0,0,0-2.5-2.5m0-24a2.5,2.5,0,0,0-2.5,2.5v12a2.5,2.5,0,0,0,5,0v-12a2.5,2.5,0,0,0-2.5-2.5m0-24a2.5,2.5,0,0,0-2.5,2.5v12a2.5,2.5,0,0,0,5,0v-12a2.5,2.5,0,0,0-2.5-2.5m0-24a2.5,2.5,0,0,0-2.5,2.5v12a2.5,2.5,0,0,0,5,0v-12a2.5,2.5,0,0,0-2.5-2.5m0-24a2.5,2.5,0,0,0-2.5,2.5v12a2.5,2.5,0,0,0,5,0v-12a2.5,2.5,0,0,0-2.5-2.5m0-24a2.5,2.5,0,0,0-2.5,2.5v12a2.5,2.5,0,0,0,5,0v-12a2.5,2.5,0,0,0-2.5-2.5m0-24a2.5,2.5,0,0,0-2.5,2.5v12a2.5,2.5,0,0,0,5,0v-12a2.5,2.5,0,0,0-2.5-2.5m0-24a2.5,2.5,0,0,0-2.5,2.5v12a2.5,2.5,0,0,0,5,0v-12a2.5,2.5,0,0,0-2.5-2.5m0-24a2.5,2.5,0,0,0-2.5,2.5v12a2.5,2.5,0,0,0,5,0v-12a2.5,2.5,0,0,0-2.5-2.5m0-24a2.5,2.5,0,0,0-2.5,2.5v12a2.5,2.5,0,0,0,5,0v-12a2.5,2.5,0,0,0-2.5-2.5m0-24a2.5,2.5,0,0,0-2.5,2.5v12a2.5,2.5,0,0,0,5,0v-12a2.5,2.5,0,0,0-2.5-2.5m0-24a2.5,2.5,0,0,0-2.5,2.5v12a2.5,2.5,0,0,0,5,0v-12a2.5,2.5,0,0,0-2.5-2.5m0-24a2.5,2.5,0,0,0-2.5,2.5v12a2.5,2.5,0,0,0,5,0v-12a2.5,2.5,0,0,0-2.5-2.5m10.222-12.639h-4.136l-.026,0h-.074l-.023,0h-.009l-.064,0H705.8l-.025,0h-.009l-.023,0h-.041l-.026,0h-.006l-.064,0H705.6l-.025,0h-.008l-.024,0h-.008l-.025,0h-.007l-.028,0h0l-.063.007H705.4l-.024,0h-.008l-.024,0h-.009l-.025,0h-.006l-.095.013h-.006l-.026,0h-.006l-.027,0h-.005l-.128.019h0l-.028,0h0l-.029,0h0l-.128.022h0l-.029,0h0l-.031.005a9,9,0,0,0-5.49,3.391,2.5,2.5,0,1,0,3.974,3.033,3.978,3.978,0,0,1,3.185-1.578h3.722a2.5,2.5,0,0,0,0-5m24,0h-12a2.5,2.5,0,0,0,0,5h12a2.5,2.5,0,0,0,0-5m24,0h-12a2.5,2.5,0,0,0,0,5h12a2.5,2.5,0,0,0,0-5m24,0h-12a2.5,2.5,0,0,0,0,5h12a2.5,2.5,0,0,0,0-5m24,0h-12a2.5,2.5,0,0,0,0,5h12a2.5,2.5,0,0,0,0-5m24,0h-12a2.5,2.5,0,0,0,0,5h12a2.5,2.5,0,0,0,0-5m24,0h-12a2.5,2.5,0,0,0,0,5h12a2.5,2.5,0,0,0,0-5m24,0h-12a2.5,2.5,0,0,0,0,5h12a2.5,2.5,0,0,0,0-5m24,0h-12a2.5,2.5,0,0,0,0,5h12a2.5,2.5,0,0,0,0-5m24,0h-12a2.5,2.5,0,0,0,0,5h12a2.5,2.5,0,0,0,0-5m24,0h-12a2.5,2.5,0,0,0,0,5h12a2.5,2.5,0,0,0,0-5m24,0h-12a2.5,2.5,0,0,0,0,5h12a2.5,2.5,0,0,0,0-5m24,0h-12a2.5,2.5,0,0,0,0,5h12a2.5,2.5,0,1,0,0-5m24,0h-12a2.5,2.5,0,1,0,0,5h12a2.5,2.5,0,1,0,0-5m24,0h-12a2.5,2.5,0,0,0,0,5h12a2.5,2.5,0,0,0,0-5m24,0h-12a2.5,2.5,0,0,0,0,5h12a2.5,2.5,0,0,0,0-5m24,0h-12a2.5,2.5,0,0,0,0,5h12a2.5,2.5,0,0,0,0-5m24,0h-12a2.5,2.5,0,0,0,0,5h12a2.5,2.5,0,0,0,0-5m24,0h-12a2.5,2.5,0,0,0,0,5h12a2.5,2.5,0,0,0,0-5m24,0h-12a2.5,2.5,0,0,0,0,5h12a2.5,2.5,0,0,0,0-5m24,0h-12a2.5,2.5,0,0,0,0,5h12a2.5,2.5,0,0,0,0-5m24,0h-12a2.5,2.5,0,0,0,0,5h12a2.5,2.5,0,0,0,0-5m24,0h-12a2.5,2.5,0,0,0,0,5h12a2.5,2.5,0,0,0,0-5m24,0h-12a2.5,2.5,0,0,0,0,5h12a2.5,2.5,0,0,0,0-5m24,0h-12a2.5,2.5,0,0,0,0,5h12a2.5,2.5,0,0,0,0-5m24,0h-12a2.5,2.5,0,0,0,0,5h12a2.5,2.5,0,0,0,0-5m24,0h-12a2.5,2.5,0,0,0,0,5h12a2.5,2.5,0,0,0,0-5m24,0h-12a2.5,2.5,0,0,0,0,5h12a2.5,2.5,0,0,0,0-5m24,0h-12a2.5,2.5,0,0,0,0,5h12a2.5,2.5,0,0,0,0-5m24,0h-12a2.5,2.5,0,0,0,0,5h12a2.5,2.5,0,0,0,0-5m24,0h-12a2.5,2.5,0,0,0,0,5h12a2.5,2.5,0,0,0,0-5m24,0h-12a2.5,2.5,0,0,0,0,5h12a2.5,2.5,0,0,0,0-5m24,0h-12a2.5,2.5,0,0,0,0,5h12a2.5,2.5,0,0,0,0-5m24,0h-12a2.5,2.5,0,0,0,0,5h12a2.5,2.5,0,0,0,0-5m24,0h-12a2.5,2.5,0,0,0,0,5h12a2.5,2.5,0,0,0,0-5m24,0h-12a2.5,2.5,0,0,0,0,5h12a2.5,2.5,0,0,0,0-5m24,0h-12a2.5,2.5,0,0,0,0,5h12a2.5,2.5,0,0,0,0-5m24,0h-12a2.5,2.5,0,0,0,0,5h12a2.5,2.5,0,0,0,0-5m24,0h-12a2.5,2.5,0,0,0,0,5h12a2.5,2.5,0,0,0,0-5m24,0h-12a2.5,2.5,0,0,0,0,5h12a2.5,2.5,0,0,0,0-5m24,0h-12a2.5,2.5,0,0,0,0,5h12a2.5,2.5,0,0,0,0-5m24,0h-12a2.5,2.5,0,0,0,0,5h12a2.5,2.5,0,0,0,0-5m24,0h-12a2.5,2.5,0,0,0,0,5h12a2.5,2.5,0,0,0,0-5m24,0h-12a2.5,2.5,0,0,0,0,5h12a2.5,2.5,0,0,0,0-5m24,0h-12a2.5,2.5,0,0,0,0,5h12a2.5,2.5,0,0,0,0-5m6.548,4.773a2.5,2.5,0,0,0-2.412,3.162,4.033,4.033,0,0,1,.142,1.065v9.583a2.5,2.5,0,0,0,5,0v-9.641h0v-.057h0v-.057h0v-.089c0-.017,0-.035,0-.053v0l0-.054v0l0-.054v0l0-.055v0a8.938,8.938,0,0,0-.312-1.914,2.5,2.5,0,0,0-2.4-1.82m.23,23.31a2.5,2.5,0,0,0-2.5,2.5v12a2.5,2.5,0,0,0,5,0v-12a2.5,2.5,0,0,0-2.5-2.5m0,24a2.5,2.5,0,0,0-2.5,2.5v12a2.5,2.5,0,0,0,5,0v-12a2.5,2.5,0,0,0-2.5-2.5m0,24a2.5,2.5,0,0,0-2.5,2.5v12a2.5,2.5,0,0,0,5,0v-12a2.5,2.5,0,0,0-2.5-2.5m0,24a2.5,2.5,0,0,0-2.5,2.5v12a2.5,2.5,0,0,0,5,0v-12a2.5,2.5,0,0,0-2.5-2.5m0,24a2.5,2.5,0,0,0-2.5,2.5v12a2.5,2.5,0,0,0,5,0v-12a2.5,2.5,0,0,0-2.5-2.5m0,24a2.5,2.5,0,0,0-2.5,2.5v12a2.5,2.5,0,0,0,5,0v-12a2.5,2.5,0,0,0-2.5-2.5m0,24a2.5,2.5,0,0,0-2.5,2.5v12a2.5,2.5,0,0,0,5,0v-12a2.5,2.5,0,0,0-2.5-2.5m0,24a2.5,2.5,0,0,0-2.5,2.5v12a2.5,2.5,0,0,0,5,0v-12a2.5,2.5,0,0,0-2.5-2.5m0,24a2.5,2.5,0,0,0-2.5,2.5v12a2.5,2.5,0,0,0,5,0v-12a2.5,2.5,0,0,0-2.5-2.5m0,24a2.5,2.5,0,0,0-2.5,2.5v12a2.5,2.5,0,0,0,5,0v-12a2.5,2.5,0,0,0-2.5-2.5m0,24a2.5,2.5,0,0,0-2.5,2.5v12a2.5,2.5,0,0,0,5,0v-12a2.5,2.5,0,0,0-2.5-2.5m0,24a2.5,2.5,0,0,0-2.5,2.5v12a2.5,2.5,0,0,0,5,0v-12a2.5,2.5,0,0,0-2.5-2.5m0,24a2.5,2.5,0,0,0-2.5,2.5v12a2.5,2.5,0,0,0,5,0v-12a2.5,2.5,0,0,0-2.5-2.5m0,24a2.5,2.5,0,0,0-2.5,2.5v6.417a3.963,3.963,0,0,1-.743,2.322,2.5,2.5,0,0,0,4.067,2.91,9.226,9.226,0,0,0,.5-.788h0l.04-.071,0,0,.008-.014,0-.006.008-.015,0,0,.016-.03,0,0,.008-.014,0-.008.007-.012.005-.01.006-.011.011-.02,0-.005.009-.017.005-.009.007-.014,0-.008.009-.016,0,0c0-.008.007-.015.011-.023v0l.011-.02,0-.006.011-.019v0l.036-.071v0c.016-.032.031-.064.047-.1a8.95,8.95,0,0,0,.792-2.587c.006-.038.011-.075.016-.112h0c0-.028.007-.056.011-.084l0-.027v0c0-.018.005-.037.007-.056l0-.026v0l0-.024v0l.006-.053v0l0-.023v0l0-.024v0c0-.018,0-.037.005-.055v0l0-.022v-.005l0-.026h0l0-.028,0-.026v-.006l0-.022v0l0-.054v-.06l0-.027v-.088l0-.026v-.062l0-.053v-6.709a2.5,2.5,0,0,0-2.5-2.5m-9.945,12.917h-12a2.5,2.5,0,0,0,0,5h12a2.5,2.5,0,0,0,0-5m-24,0h-12a2.5,2.5,0,0,0,0,5h12a2.5,2.5,0,0,0,0-5m-24,0h-12a2.5,2.5,0,0,0,0,5h12a2.5,2.5,0,0,0,0-5m-24,0h-12a2.5,2.5,0,0,0,0,5h12a2.5,2.5,0,0,0,0-5m-24,0h-12a2.5,2.5,0,0,0,0,5h12a2.5,2.5,0,0,0,0-5m-24,0h-12a2.5,2.5,0,0,0,0,5h12a2.5,2.5,0,0,0,0-5m-24,0h-12a2.5,2.5,0,0,0,0,5h12a2.5,2.5,0,0,0,0-5m-24,0h-12a2.5,2.5,0,0,0,0,5h12a2.5,2.5,0,0,0,0-5m-24,0h-12a2.5,2.5,0,0,0,0,5h12a2.5,2.5,0,0,0,0-5m-24,0h-12a2.5,2.5,0,0,0,0,5h12a2.5,2.5,0,0,0,0-5m-24,0h-12a2.5,2.5,0,0,0,0,5h12a2.5,2.5,0,0,0,0-5m-24,0h-12a2.5,2.5,0,0,0,0,5h12a2.5,2.5,0,0,0,0-5m-24,0h-12a2.5,2.5,0,0,0,0,5h12a2.5,2.5,0,0,0,0-5m-24,0h-12a2.5,2.5,0,0,0,0,5h12a2.5,2.5,0,0,0,0-5m-24,0h-12a2.5,2.5,0,0,0,0,5h12a2.5,2.5,0,0,0,0-5m-24,0h-12a2.5,2.5,0,0,0,0,5h12a2.5,2.5,0,0,0,0-5m-24,0h-12a2.5,2.5,0,0,0,0,5h12a2.5,2.5,0,0,0,0-5m-24,0h-12a2.5,2.5,0,0,0,0,5h12a2.5,2.5,0,0,0,0-5m-24,0h-12a2.5,2.5,0,0,0,0,5h12a2.5,2.5,0,0,0,0-5m-24,0h-12a2.5,2.5,0,0,0,0,5h12a2.5,2.5,0,0,0,0-5m-24,0h-12a2.5,2.5,0,0,0,0,5h12a2.5,2.5,0,0,0,0-5m-24,0h-12a2.5,2.5,0,0,0,0,5h12a2.5,2.5,0,0,0,0-5m-24,0h-12a2.5,2.5,0,0,0,0,5h12a2.5,2.5,0,0,0,0-5m-24,0h-12a2.5,2.5,0,0,0,0,5h12a2.5,2.5,0,0,0,0-5m-24,0h-12a2.5,2.5,0,0,0,0,5h12a2.5,2.5,0,0,0,0-5m-24,0h-12a2.5,2.5,0,0,0,0,5h12a2.5,2.5,0,0,0,0-5m-24,0h-12a2.5,2.5,0,0,0,0,5h12a2.5,2.5,0,0,0,0-5m-24,0h-12a2.5,2.5,0,0,0,0,5h12a2.5,2.5,0,0,0,0-5m-24,0h-12a2.5,2.5,0,0,0,0,5h12a2.5,2.5,0,0,0,0-5m-24,0h-12a2.5,2.5,0,0,0,0,5h12a2.5,2.5,0,0,0,0-5m-24,0h-12a2.5,2.5,0,0,0,0,5h12a2.5,2.5,0,0,0,0-5m-24,0h-12a2.5,2.5,0,1,0,0,5h12a2.5,2.5,0,0,0,0-5m-24,0h-12a2.5,2.5,0,0,0,0,5h12a2.5,2.5,0,0,0,0-5m-24,0h-12a2.5,2.5,0,0,0,0,5h12a2.5,2.5,0,0,0,0-5m-24,0h-12a2.5,2.5,0,0,0,0,5h12a2.5,2.5,0,0,0,0-5m-24,0h-12a2.5,2.5,0,0,0,0,5h12a2.5,2.5,0,0,0,0-5m-24,0h-12a2.5,2.5,0,0,0,0,5h12a2.5,2.5,0,0,0,0-5m-24,0h-12a2.5,2.5,0,0,0,0,5h12a2.5,2.5,0,0,0,0-5m-24,0h-12a2.5,2.5,0,0,0,0,5h12a2.5,2.5,0,0,0,0-5m-24,0h-12a2.5,2.5,0,0,0,0,5h12a2.5,2.5,0,0,0,0-5m-24,0h-12a2.5,2.5,0,0,0,0,5h12a2.5,2.5,0,0,0,0-5m-24,0h-12a2.5,2.5,0,0,0,0,5h12a2.5,2.5,0,0,0,0-5m-24,0h-12a2.5,2.5,0,0,0,0,5h12a2.5,2.5,0,0,0,0-5m-24,0h-12a2.5,2.5,0,0,0,0,5h12a2.5,2.5,0,0,0,0-5" fill="#fff"/>
                          </g>
                        </g>
                      </g>
                    </g>
                  </g>
                </g>
              </g>
            </g>
          </g>
        </g>
        <g id="Group_1334" data-name="Group 1334">
          <g id="Group_1333" data-name="Group 1333" clip-path="url(#clip-path-7)">
            <path id="Path_2401" data-name="Path 2401" d="M0,2.5H747.547V562.439H83.452" fill="none" stroke="#fff" stroke-width="5" stroke-dasharray="12 12"/>
          </g>
        </g>
        <path id="Path_2402" data-name="Path 2402" d="M2064.167,281.82H1895.4v780.6H1710.1V986.458l-137.682,2.992v61.277" fill="none" stroke="#fff" stroke-width="5" stroke-dasharray="12 12"/>
        <path id="Path_2403" data-name="Path 2403" d="M972.422,1860.44v82.011H639.529v-57.125H199.569" fill="none" stroke="#fff" stroke-width="5" stroke-dasharray="12 12"/>
        <g id="Group_1336" data-name="Group 1336">
          <g id="Group_1335" data-name="Group 1335" clip-path="url(#clip-path-7)">
            <path id="Path_2404" data-name="Path 2404" d="M352.559,2044.394l790.482-2.982V1860.44h188.178v117.824h435.7v114.342h-194.5v36.618" fill="none" stroke="#fff" stroke-width="5" stroke-dasharray="12 12"/>
            <path id="Path_2405" data-name="Path 2405" d="M1572.422,2381.44v120.2h-319.4V2429.4H971.438v108.876l-267.2.515v96.129c87.743,0,180.441,1,268.184,1v37.077" fill="none" stroke="#fff" stroke-width="5" stroke-dasharray="12 12"/>
            <path id="Path_2406" data-name="Path 2406" d="M973.02,2904.44v124.219H605.341v69.319h735.071V2995.872l232.009,3.327v221.535" fill="none" stroke="#fff" stroke-width="5" stroke-dasharray="12 12"/>
            <path id="Path_2407" data-name="Path 2407" d="M1572.422,3471.132v99.834h270.319V3245.881h173.9" fill="none" stroke="#fff" stroke-width="5" stroke-dasharray="12 12"/>
            <path id="Path_2408" data-name="Path 2408" d="M974.459,3758.734v-162.62h364.408v89.061h831.518" fill="none" stroke="#fff" stroke-width="5" stroke-dasharray="12 12"/>
            <path id="Path_2409" data-name="Path 2409" d="M961.314,4060.132v62.033H727.056v-41.474H349.372" fill="none" stroke="#fff" stroke-width="5" stroke-dasharray="12 12"/>
            <path id="Path_2410" data-name="Path 2410" d="M415.31,4322.7h830.826V4211h214.852v111.7H1589.23v43.708" fill="none" stroke="#fff" stroke-width="5" stroke-dasharray="12 12"/>
            <path id="Path_2411" data-name="Path 2411" d="M1568.766,4638.44v104.813H961.314V4919.44" fill="none" stroke="#fff" stroke-width="5" stroke-dasharray="12 12"/>
            <line id="Line_82" data-name="Line 82" x1="364.738" transform="translate(331.684 6074.44)" fill="none" stroke="#fff" stroke-width="5" stroke-dasharray="12 12"/>
            <line id="Line_83" data-name="Line 83" x1="364.738" transform="translate(1774.053 6080.44)" fill="none" stroke="#fff" stroke-width="5" stroke-dasharray="12 12"/>
          </g>
        </g>
      </g>
    </g>
  </g>
</svg>
