<svg xmlns="http://www.w3.org/2000/svg" width="99.982" height="126.451" viewBox="0 0 99.982 126.451">
  <g id="Group_1489" data-name="Group 1489" transform="translate(0.001 0)">
    <path id="Path_2612" data-name="Path 2612" d="M12.838,67.73,11,77.429l7.719,7.544,23.525,45.982,47.05,1.8L95.176,119.5l5.881-17.279L102.9,63.778l-7.719-7.544L83.413,50.487,65.77,44.739l-11.763-1.8L48.126,16H36.363L34.525,77.429l-11.763-11.5Z" transform="translate(-6.957 -10.252)" fill="#fff"/>
    <path id="Path_2613" data-name="Path 2613" d="M29.406,109.208v17.243H88.219V109.244H82.338V120.7H35.288v-11.5Zm-5.881,0h5.881v-11.5H23.525Zm64.694,0H94.1V91.964H88.219Zm-70.575-11.5h5.881v-11.5H17.644Zm-5.881-11.5h5.881v-11.5H11.763Zm-5.881-11.5h5.881V68.973H5.881ZM0,51.73V68.973H5.881v-11.5H17.644V51.73ZM94.1,91.964h5.881V51.73H94.1ZM88.219,51.73H94.1V45.982H88.219Zm-11.763-11.5V63.226h5.881V45.982h5.881V40.234ZM58.813,34.487V57.478h5.881V40.234H76.457V34.487ZM23.525,5.748v51.73H17.644v5.748h5.881v5.748h5.881V5.748Zm17.644,0v51.73H47.05V34.487H58.813V28.739H47.05V5.748Zm-11.763,0H41.169V0H29.406Z" transform="translate(-0.001 0)"/>
  </g>
</svg>
