<svg id="onetier-logo" xmlns="http://www.w3.org/2000/svg" xmlns:xlink="http://www.w3.org/1999/xlink" width="191.257" height="46.519" viewBox="0 0 191.257 46.519">
  <defs>
    <style>
      .cls-1 {
        fill: url(#linear-gradient);
      }
    </style>
    <linearGradient id="linear-gradient" x1="0.5" x2="0.5" y2="1" gradientUnits="objectBoundingBox">
      <stop offset="0" stop-color="#1079d0"/>
      <stop offset="1" stop-color="#083d68"/>
    </linearGradient>
  </defs>
  <g id="Group_384" data-name="Group 384" transform="translate(39.399 0)">
    <path id="Path_700" data-name="Path 700" class="cls-1" d="M416.737,77.278a8.29,8.29,0,0,0,4.161,6.743c4.376,2.547,11.388,1.04,13.181-2.511a2.21,2.21,0,0,0,.179-.43h8.482a6.263,6.263,0,0,1-.2.753,17.084,17.084,0,0,1-15.853,10.9,17.34,17.34,0,0,1-16.427-10.365c-4.178-9.451-.287-19.96,9.182-24.1a17.986,17.986,0,0,1,8.16-1.506,17.5,17.5,0,0,1,7.317,2.206,17.851,17.851,0,0,1,6.743,6.653,21.19,21.19,0,0,1,2.421,10.76v1.04l-27.33-.108Zm.413-6.348h18.328c-1.022-4.483-5.29-7.335-10.186-6.886C421.328,64.4,417.293,67.828,417.15,70.93Z" transform="translate(-374.756 -46.613)"/>
    <path id="Path_701" data-name="Path 701" class="cls-1" d="M219.972,59.857h7.855v3.766c.072-.09.144-.2.215-.287.09-.108.161-.2.251-.3a12.625,12.625,0,0,1,3.515-2.672,13.85,13.85,0,0,1,9.756-.646,12.265,12.265,0,0,1,5.362,2.995,13.666,13.666,0,0,1,2.959,4.9,19.646,19.646,0,0,1,.628,2.708c.072.538.126,1.022.143,1.327.09.915.108,1.632.108,2.044.09,3.963.036,16.785.036,16.785V94.88h-8.106V73.791a7.191,7.191,0,0,0-.161-1.506,6.487,6.487,0,0,0-.484-1.417,6.755,6.755,0,0,0-1.775-2.367,7.809,7.809,0,0,0-5.237-1.757,7.686,7.686,0,0,0-5,1.883,6.223,6.223,0,0,0-2.008,3.282,5.293,5.293,0,0,0-.108.933c-.108,2.278-.126,4.143-.143,5.452v7.173c0,3.874-.036,5.165-.018,8.339v1.04H219.9v-.735q0-17.135.036-34.27Z" transform="translate(-219.9 -48.577)"/>
    <path id="Path_702" data-name="Path 702" class="cls-1" d="M813.783,83.1a18.452,18.452,0,0,1-6.886,8.751,16.629,16.629,0,0,1-3.73,1.811,17.536,17.536,0,0,1-23.044-13.54c-1.488-8.518,1.9-15.925,9.074-19.4,7.873-3.838,22.757-1.829,25.34,12.75a29.45,29.45,0,0,1,.377,3.838V78h-30.72a10.57,10.57,0,0,0,.054,1.2A13.228,13.228,0,0,0,792.8,89.946a12.966,12.966,0,0,0,5.416.664,12.572,12.572,0,0,0,10.419-6.779,7.712,7.712,0,0,0,.341-.7h4.806Zm-3.569-8.59a2.054,2.054,0,0,0-.036-.43,2.078,2.078,0,0,0-.054-.269,22.267,22.267,0,0,0-5-8.572h0A12.858,12.858,0,0,0,787.8,66.7a15.634,15.634,0,0,0-3.389,6.653c-.108.466-.162.861-.2,1.13H810.2Z" transform="translate(-679.374 -48.485)"/>
    <path id="Path_703" data-name="Path 703" class="cls-1" d="M732.3,96.376h-4.2V62.5h4.2V96.376Z" transform="translate(-636.964 -51.346)"/>
    <path id="Path_704" data-name="Path 704" class="cls-1" d="M732.3,1.318V8.133h-4.2V1.3h4.2Z" transform="translate(-636.964 -1.121)"/>
    <path id="Path_705" data-name="Path 705" class="cls-1" d="M260.5,76.4" transform="translate(-253.219 -62.753)"/>
    <path id="Path_706" data-name="Path 706" class="cls-1" d="M631.108,11.437H624.67V.3h-4.232V11.454H614v4.16h6.438V45.348h4.232V15.579h6.438V11.437Z" transform="translate(-543.325 -0.3)"/>
    <path id="Path_707" data-name="Path 707" class="cls-1" d="M1012.29,62.871a6.724,6.724,0,0,0-2.708,0,6.87,6.87,0,0,0-1.578.52,8.718,8.718,0,0,0-2.816,2.152c-.036.054-.3.395-.628.843a3.638,3.638,0,0,1-.233.323V62.782H1000.4V96.747h3.927V76.482c0-.556.036-1.13.054-1.686.036-.359.089-.843.2-1.4a10,10,0,0,1,.574-2.009,6.847,6.847,0,0,1,1.506-2.278,9.006,9.006,0,0,1,4.985-2.188h.646V62.871Z" transform="translate(-860.432 -51.537)"/>
  </g>
  <g id="Group_385" data-name="Group 385" transform="translate(0 10.796)">
    <path id="Path_708" data-name="Path 708" class="cls-1" d="M197.2,153.5c0,.3.018.592.018.9h0C197.218,154.092,197.218,153.8,197.2,153.5Z" transform="translate(-161.872 -136.822)"/>
    <path id="Path_709" data-name="Path 709" class="cls-1" d="M197.3,158.5Z" transform="translate(-161.954 -140.925)"/>
    <path id="Path_710" data-name="Path 710" class="cls-1" d="M18.1,60.5a17.866,17.866,0,0,0-.574,35.723c0-.43.036-.915.054-1.435,0,0,.341-7.3,0-13.7a1.8,1.8,0,0,0-.323-1.022,3.1,3.1,0,0,0-2.529-.986h-.054c-.968,0-1.919,0-2.887-.018h-.43l.054-6.779h7.873a6.083,6.083,0,0,1,3.282,1.7,7.75,7.75,0,0,1,1.793,3.8c.072.395.108.735.126.95v.215c0,.43.072,8.3.126,15.189v.879A17.9,17.9,0,0,0,35.959,78.379C35.959,70.812,31.027,60.476,18.1,60.5Z" transform="translate(-0.2 -60.5)"/>
  </g>
</svg>
