<svg id="onetier-logo" xmlns="http://www.w3.org/2000/svg" width="223.951" height="54.471" viewBox="0 0 223.951 54.471">
  <defs>
    <style>
      .cls-1 {
        fill: #000000;
      }
    </style>
  </defs>
  <g id="Group_384" data-name="Group 384" transform="translate(46.134 0)">
    <path id="Path_700" data-name="Path 700" class="cls-1" d="M418.129,80.79a9.707,9.707,0,0,0,4.872,7.9c5.124,2.982,13.334,1.218,15.434-2.94a2.6,2.6,0,0,0,.21-.5h9.932a7.345,7.345,0,0,1-.231.882,20,20,0,0,1-18.563,12.767,20.3,20.3,0,0,1-19.235-12.137c-4.893-11.066-.336-23.372,10.751-28.222a21.061,21.061,0,0,1,9.554-1.764,20.49,20.49,0,0,1,8.567,2.583,20.9,20.9,0,0,1,7.9,7.791c2.772,4.872,2.814,9.806,2.835,12.6v1.218l-32-.126Zm.483-7.434h21.461c-1.2-5.25-6.195-8.588-11.927-8.063C423.505,65.713,418.78,69.724,418.612,73.357Z" transform="translate(-368.971 -44.883)"/>
    <path id="Path_701" data-name="Path 701" class="cls-1" d="M219.984,59.982h9.2v4.41c.084-.1.168-.231.252-.336.1-.126.189-.231.294-.357a14.782,14.782,0,0,1,4.116-3.129,16.217,16.217,0,0,1,11.423-.756,14.362,14.362,0,0,1,6.279,3.507,16,16,0,0,1,3.465,5.733,23,23,0,0,1,.735,3.171c.084.63.147,1.2.168,1.554.1,1.071.126,1.911.126,2.394.1,4.641.042,19.655.042,19.655v5.166h-9.491V76.3a8.421,8.421,0,0,0-.189-1.764,7.6,7.6,0,0,0-.567-1.659,7.909,7.909,0,0,0-2.079-2.772,9.144,9.144,0,0,0-6.132-2.058,9,9,0,0,0-5.859,2.2,7.287,7.287,0,0,0-2.352,3.843,6.2,6.2,0,0,0-.126,1.092c-.126,2.667-.147,4.851-.168,6.384v8.4c0,4.536-.042,6.048-.021,9.764v1.218h-9.2v-.861q0-20.064.042-40.128Z" transform="translate(-219.9 -46.774)"/>
    <path id="Path_702" data-name="Path 702" class="cls-1" d="M819.6,87.212a21.607,21.607,0,0,1-8.063,10.247,19.471,19.471,0,0,1-4.368,2.121,20.533,20.533,0,0,1-26.983-15.854c-1.743-9.974,2.226-18.647,10.625-22.721,9.218-4.494,26.647-2.142,29.671,14.93a34.481,34.481,0,0,1,.441,4.494v.819H784.948a12.4,12.4,0,0,0,.063,1.407,15.488,15.488,0,0,0,10.016,12.578,15.183,15.183,0,0,0,6.342.777,14.721,14.721,0,0,0,12.2-7.938,9.03,9.03,0,0,0,.4-.819H819.6Zm-4.179-10.058a2.407,2.407,0,0,0-.042-.5,2.44,2.44,0,0,0-.063-.315A26.075,26.075,0,0,0,809.454,66.3h0a15.057,15.057,0,0,0-20.285,1.722A18.309,18.309,0,0,0,785.2,75.81c-.126.546-.189,1.008-.231,1.323H815.4Z" transform="translate(-662.211 -46.685)"/>
    <path id="Path_703" data-name="Path 703" class="cls-1" d="M733.014,102.167H728.1V62.5h4.914v39.667Z" transform="translate(-621.385 -49.439)"/>
    <path id="Path_704" data-name="Path 704" class="cls-1" d="M733.014,1.321V9.3H728.1v-8h4.914Z" transform="translate(-621.385 -1.09)"/>
    <path id="Path_705" data-name="Path 705" class="cls-1" d="M260.5,76.4" transform="translate(-251.975 -60.42)"/>
    <path id="Path_706" data-name="Path 706" class="cls-1" d="M634.033,13.34h-7.539V.3h-4.956V13.361H614v4.872h7.539V53.049h4.956V18.191h7.539V13.34Z" transform="translate(-531.244 -0.3)"/>
    <path id="Path_707" data-name="Path 707" class="cls-1" d="M1014.322,62.895a7.873,7.873,0,0,0-3.171,0,8.05,8.05,0,0,0-1.848.609,10.207,10.207,0,0,0-3.3,2.52c-.042.063-.357.462-.735.987a4.273,4.273,0,0,1-.273.378v-4.6h-4.6v39.772h4.6V78.833c0-.651.042-1.323.063-1.974.042-.42.1-.987.231-1.638a11.686,11.686,0,0,1,.672-2.352,8.014,8.014,0,0,1,1.764-2.667,10.546,10.546,0,0,1,5.838-2.562h.756V62.895Z" transform="translate(-836.505 -49.624)"/>
  </g>
  <g id="Group_385" data-name="Group 385" transform="translate(0 12.641)">
    <path id="Path_708" data-name="Path 708" class="cls-1" d="M197.2,153.5c0,.357.021.693.021,1.05h0C197.221,154.193,197.221,153.857,197.2,153.5Z" transform="translate(-155.833 -133.971)"/>
    <path id="Path_709" data-name="Path 709" class="cls-1" d="M197.3,158.5Z" transform="translate(-155.912 -137.921)"/>
    <path id="Path_710" data-name="Path 710" class="cls-1" d="M21.157,60.5a20.92,20.92,0,0,0-.672,41.829c0-.5.042-1.071.063-1.68,0,0,.4-8.546,0-16.043a2.108,2.108,0,0,0-.378-1.2,3.635,3.635,0,0,0-2.961-1.155h-.063c-1.134,0-2.247,0-3.381-.021h-.5l.063-7.938h9.218a7.123,7.123,0,0,1,3.843,1.995,9.075,9.075,0,0,1,2.1,4.452c.084.462.126.861.147,1.113v.252c0,.5.084,9.722.147,17.786v1.029A20.965,20.965,0,0,0,42.071,81.436c0-8.861-6.688-20.936-20.957-20.936Z" transform="translate(-0.2 -60.5)"/>
  </g>
</svg>
