<svg xmlns="http://www.w3.org/2000/svg" xmlns:xlink="http://www.w3.org/1999/xlink" width="822.79" height="144.365" viewBox="0 0 822.79 144.365">
  <defs>
    <style>
      .cls-1 {
        fill: url(#linear-gradient);
      }

      .cls-2 {
        fill: none;
        stroke-width: 13px;
      }

      .cls-2, .cls-3, .cls-4, .cls-5 {
        stroke: #fff;
      }

      .cls-2, .cls-4 {
        stroke-linecap: round;
      }

      .cls-3, .cls-6 {
        fill: #525d81;
      }

      .cls-3 {
        stroke-width: 3px;
      }

      .cls-4, .cls-5 {
        fill: rgba(0,0,0,0);
        stroke-width: 13.5px;
      }
    </style>
    <linearGradient id="linear-gradient" x1="0.5" x2="0.5" y2="1" gradientUnits="objectBoundingBox">
      <stop offset="0" stop-color="#e2edff"/>
      <stop offset="1" stop-color="#e2edff"/>
    </linearGradient>
  </defs>
  <g id="Group_690" data-name="Group 690" transform="translate(156.371)">
    <g id="Group_742" data-name="Group 742">
      <g id="Layer_1" data-name="Layer 1" transform="translate(150.572)">
        <path id="Path_1039" data-name="Path 1039" class="cls-1" d="M195.96,139.489H34.041A33.963,33.963,0,0,1,0,105.335V105C.451,83.862,13.357,65.151,32.8,56.134c9.074-20.233,30.039-33.7,53.71-33.7,1.127,0,2.311,0,3.494.113A59.583,59.583,0,0,1,137.065,0c26.658,0,49.2,17.077,56.246,40.353A59.419,59.419,0,0,1,221.66,54.1a54.675,54.675,0,0,1,18.429,35,17.936,17.936,0,0,1,.395,3.494v2.423a44.522,44.522,0,0,1-44.467,44.467ZM32.857,105.5a1.418,1.418,0,0,0,.338.733,1.159,1.159,0,0,0,.845.338H195.96a11.69,11.69,0,0,0,11.666-11.666v-.395a6.208,6.208,0,0,0-.113-1.014c-.789-12.061-12.061-21.473-25.587-21.473a11.463,11.463,0,0,0-1.24.056h-.564a16.4,16.4,0,0,1-17.471-16.344v-.451c-.169-12.455-11.61-22.544-25.643-22.544-10.539,0-19.895,5.636-23.84,14.372A16.413,16.413,0,0,1,93.95,56.19a28.166,28.166,0,0,0-7.439-1.014,26.882,26.882,0,0,0-16.344,5.3,23.293,23.293,0,0,0-8.623,12.4A16.431,16.431,0,0,1,50.329,84.426c-10.2,3.043-17.189,11.441-17.528,21.022Z" transform="translate(0 0)"/>
      </g>
      <line id="Line_8" data-name="Line 8" class="cls-2" x1="111" transform="translate(412.5 100.448)"/>
      <line id="Line_33" data-name="Line 33" class="cls-2" x1="111" transform="translate(10.5 100.448)"/>
      <g id="laptop-svgrepo-com" transform="translate(-154.871 41.88)">
        <g id="Group_661" data-name="Group 661" transform="translate(0 0)">
          <g id="Group_660" data-name="Group 660">
            <path id="Path_1040" data-name="Path 1040" class="cls-3" d="M137.573,152.567h-2.567V77.514A9.525,9.525,0,0,0,125.492,68H14.346a9.525,9.525,0,0,0-9.514,9.514v75.053H2.265A2.265,2.265,0,0,0,0,154.832v4.832a7.106,7.106,0,0,0,7.1,7.1H132.74a7.106,7.106,0,0,0,7.1-7.1v-4.832A2.265,2.265,0,0,0,137.573,152.567ZM9.363,77.514a4.989,4.989,0,0,1,4.983-4.983H125.492a4.989,4.989,0,0,1,4.983,4.983v75.053H9.363Zm125.945,82.151a2.57,2.57,0,0,1-2.567,2.567H7.1a2.57,2.57,0,0,1-2.567-2.567V157.1H55.58c0,.05-.008.1-.008.151a2.265,2.265,0,0,0,2.265,2.265H82a2.265,2.265,0,0,0,2.265-2.265c0-.051,0-.1-.008-.151h51.05Z" transform="translate(0 -68)"/>
            <path id="Path_1041" data-name="Path 1041" class="cls-3" d="M156.578,100H50.265A2.265,2.265,0,0,0,48,102.265V167.5a2.265,2.265,0,0,0,2.265,2.265H156.578a2.265,2.265,0,0,0,2.265-2.265V102.265A2.265,2.265,0,0,0,156.578,100Zm-2.265,65.238H52.53V104.53H154.313Z" transform="translate(-33.503 -90.335)"/>
          </g>
        </g>
      </g>
      <g id="server-minimalistic-svgrepo-com" transform="translate(556.66 44.907)">
        <path id="Path_1042" data-name="Path 1042" class="cls-4" d="M63.806,45.9H17.451c-4.8,0-7.2,0-9.092-.784a10.3,10.3,0,0,1-5.575-5.575C2,37.651,2,35.251,2,30.451s0-7.2.784-9.093a10.3,10.3,0,0,1,5.575-5.575C10.252,15,12.652,15,17.451,15H89.558c4.8,0,7.2,0,9.093.784a10.3,10.3,0,0,1,5.575,5.575c.784,1.893.784,4.293.784,9.093s0,7.2-.784,9.093a10.3,10.3,0,0,1-5.575,5.575c-1.893.784-4.293.784-9.093.784h-5.15" transform="translate(-2 46.806)"/>
        <path id="Path_1043" data-name="Path 1043" class="cls-5" d="M2,24.451c0-4.8,0-7.2.784-9.093A10.3,10.3,0,0,1,8.359,9.784C10.252,9,12.652,9,17.451,9H89.558c4.8,0,7.2,0,9.093.784a10.3,10.3,0,0,1,5.575,5.575c.784,1.893.784,4.293.784,9.093s0,7.2-.784,9.093a10.3,10.3,0,0,1-5.575,5.575c-1.893.784-4.293.784-9.093.784H17.451c-4.8,0-7.2,0-9.092-.784a10.3,10.3,0,0,1-5.575-5.575C2,31.651,2,29.251,2,24.451Z" transform="translate(-2 21.903)"/>
        <path id="Path_1044" data-name="Path 1044" class="cls-4" d="M43.2,3H89.558c4.8,0,7.2,0,9.093.784a10.3,10.3,0,0,1,5.575,5.575c.784,1.893.784,4.293.784,9.092s0,7.2-.784,9.092a10.3,10.3,0,0,1-5.575,5.575c-1.893.784-4.293.784-9.093.784H17.451c-4.8,0-7.2,0-9.092-.784a10.3,10.3,0,0,1-5.575-5.575C2,25.651,2,23.251,2,18.451s0-7.2.784-9.092A10.3,10.3,0,0,1,8.359,3.784C10.252,3,12.652,3,17.451,3H22.6" transform="translate(-2 -3)"/>
        <ellipse id="Ellipse_10" data-name="Ellipse 10" class="cls-6" cx="5.167" cy="5.373" rx="5.167" ry="5.373" transform="translate(10.746 40.506)"/>
        <circle id="Ellipse_11" data-name="Ellipse 11" class="cls-6" cx="5.167" cy="5.167" r="5.167" transform="translate(10.746 10.746)"/>
        <circle id="Ellipse_12" data-name="Ellipse 12" class="cls-6" cx="5.167" cy="5.167" r="5.167" transform="translate(10.746 72.332)"/>
      </g>
    </g>
  </g>
</svg>
