<svg xmlns="http://www.w3.org/2000/svg" width="44.045" height="44.045" viewBox="0 0 44.045 44.045">
  <path id="globe-alt-1-svgrepo-com" d="M43.045,23.022A20.022,20.022,0,0,1,23.022,43.045M43.045,23.022A20.022,20.022,0,0,0,23.022,3M43.045,23.022c0,3.686-8.964,6.674-20.022,6.674S3,26.709,3,23.022m40.045,0c0-3.686-8.964-6.674-20.022-6.674S3,19.336,3,23.022M23.022,43.045A20.022,20.022,0,0,1,3,23.022M23.022,43.045c-3.686,0-6.674-8.964-6.674-20.022S19.336,3,23.022,3m0,40.045c3.686,0,6.674-8.964,6.674-20.022S26.709,3,23.022,3M3,23.022A20.022,20.022,0,0,1,23.022,3" transform="translate(-1 -1)" fill="none" stroke="#000000" stroke-linecap="round" stroke-linejoin="round" stroke-width="4"/>
</svg>
