<svg xmlns="http://www.w3.org/2000/svg" width="45.67" height="28.442" viewBox="0 0 45.67 28.442">
  <g id="Layer_x0020_1" transform="translate(-19.003 -29.909)">
    <path id="Path_1060" data-name="Path 1060" d="M8.3,15.466a6.441,6.441,0,0,1-4.318-1.727A6.581,6.581,0,0,1,2.16,9.325,6.535,6.535,0,0,1,3.983,5.007,6.441,6.441,0,0,1,8.3,3.28a6.06,6.06,0,0,1,6.141,6.045,6.16,6.16,0,0,1-1.823,4.414A6.086,6.086,0,0,1,8.3,15.466ZM5.9,11.82a3.408,3.408,0,0,0,2.4.959A3.836,3.836,0,0,0,10.8,11.82a3.836,3.836,0,0,0,.959-2.495,3.588,3.588,0,0,0-.959-2.4A3.836,3.836,0,0,0,8.3,5.967a3.408,3.408,0,0,0-2.4.959,3.27,3.27,0,0,0-1.055,2.4A3.484,3.484,0,0,0,5.9,11.82Z" transform="translate(20.222 30.775)" fill="#000000" stroke="#000000" stroke-width="1"/>
    <path id="Path_1061" data-name="Path 1061" d="M10.879,14.957H3.2A1.312,1.312,0,0,1,1.86,13.613V10.351c0-2.783,2.4-4.51,5.565-5.277a21.146,21.146,0,0,1,3.454-.384,20.032,20.032,0,0,1,3.454.384,12.761,12.761,0,0,1,2.878,1.055,7.316,7.316,0,0,0-2.495,1.823c-.288-.1-.576-.192-.959-.288a13.294,13.294,0,0,0-2.878-.288A14.645,14.645,0,0,0,8,7.664c-1.919.48-3.454,1.343-3.454,2.687V12.27h9.595v1.343h5.853a1.312,1.312,0,0,1-1.343,1.343H10.879Z" transform="translate(17.643 42.893)" fill="#000000" stroke="#000000" stroke-width="1"/>
    <path id="Path_1062" data-name="Path 1062" d="M11.265,15.466a6.441,6.441,0,0,1-4.318-1.727,6.381,6.381,0,0,1,0-8.731,6.381,6.381,0,0,1,8.731,0,6.381,6.381,0,0,1,0,8.731A6.5,6.5,0,0,1,11.265,15.466Zm-2.4-3.646a3.786,3.786,0,0,0,2.4.959,3.836,3.836,0,0,0,2.495-.959,3.836,3.836,0,0,0,.959-2.495,3.588,3.588,0,0,0-.959-2.4,3.836,3.836,0,0,0-2.495-.959,3.786,3.786,0,0,0-2.4.959,3.588,3.588,0,0,0-.959,2.4,3.836,3.836,0,0,0,.959,2.495Z" transform="translate(43.794 30.775)" fill="#000000" stroke="#000000" stroke-width="1"/>
    <path id="Path_1063" data-name="Path 1063" d="M13.929,14.957H6.253A1.312,1.312,0,0,1,4.91,13.613h5.757V12.27h9.691V10.351c0-1.343-1.535-2.207-3.55-2.687a13.294,13.294,0,0,0-2.878-.288,13.026,13.026,0,0,0-2.783.288c-.384.1-.672.192-1.055.288a6.09,6.09,0,0,0-2.4-1.823,11.966,11.966,0,0,1,2.783-1.055,21.146,21.146,0,0,1,3.454-.384,19.014,19.014,0,0,1,3.454.384c3.166.768,5.661,2.495,5.661,5.277v3.262A1.312,1.312,0,0,1,21.7,14.957H13.929Z" transform="translate(41.129 42.893)" fill="#000000" stroke="#000000" stroke-width="1"/>
    <path id="Path_1064" data-name="Path 1064" d="M10.6,16.909a7.115,7.115,0,0,1-4.989-2.015h0A7.29,7.29,0,0,1,3.6,9.9,7.115,7.115,0,0,1,5.615,4.915h0A7.115,7.115,0,0,1,10.6,2.9a7.29,7.29,0,0,1,4.989,2.015,7.185,7.185,0,0,1,0,9.979A7.29,7.29,0,0,1,10.6,16.909Zm-3.07-3.934a4.268,4.268,0,0,0,3.07,1.247,4.438,4.438,0,0,0,3.07-1.247A4.438,4.438,0,0,0,14.922,9.9a4.268,4.268,0,0,0-1.247-3.07A4.438,4.438,0,0,0,10.6,5.587a4.268,4.268,0,0,0-3.07,1.247h0A4.268,4.268,0,0,0,6.287,9.9a4.438,4.438,0,0,0,1.247,3.07Z" transform="translate(31.234 27.509)" fill="#000000" stroke="#000000" stroke-width="1"/>
    <path id="Path_1065" data-name="Path 1065" d="M14.392,16.246H4.2A1.3,1.3,0,0,1,3,14.9V11.065C3,7.8,6.083,5.787,10.024,5.02a21.84,21.84,0,0,1,4.368-.48,21.84,21.84,0,0,1,4.368.48C22.7,5.787,25.7,7.8,25.7,11.065V14.9a1.247,1.247,0,0,1-1.2,1.343H14.392ZM5.4,13.559H23.3V11.065c0-1.727-2.141-2.878-4.968-3.454a25.18,25.18,0,0,0-3.94-.384,25.18,25.18,0,0,0-3.94.384C7.625,8.186,5.4,9.337,5.4,11.065v2.495Z" transform="translate(27.442 41.604)" fill="#000000" stroke="#000000" stroke-width="1"/>
  </g>
</svg>
