<svg xmlns="http://www.w3.org/2000/svg" width="42.6" height="35.5" viewBox="0 0 42.6 35.5">
  <g id="overview_1_" transform="translate(0 -2)">
    <path id="Path_1066" data-name="Path 1066" d="M41.89,23.833,35.322,6.083h0A6.832,6.832,0,0,0,29.288,2a6.289,6.289,0,0,0-6.213,6.212V9.1h-3.55V8.212A6.289,6.289,0,0,0,13.313,2,6.3,6.3,0,0,0,7.455,6.26h0L.887,24.01A8.251,8.251,0,0,0,0,27.738,9.849,9.849,0,0,0,9.762,37.5a9.827,9.827,0,0,0,9.762-8.875h3.55A9.784,9.784,0,0,0,42.6,27.738,13.847,13.847,0,0,0,41.89,23.833ZM9.762,33.95a6.213,6.213,0,0,1,0-12.425,6.213,6.213,0,0,1,0,12.425Zm6.212-20.235v6.39a10.917,10.917,0,0,0-6.212-2.13,10.051,10.051,0,0,0-3.195.533L10.3,8.745,10.828,7.5h0a3.865,3.865,0,0,1,.887-1.42h0a.922.922,0,0,1,.71-.355H12.6c.177-.177.355-.177.71-.177a2.73,2.73,0,0,1,2.662,2.662Zm7.1-1.065V25.075h-3.55V12.65Zm3.55,1.065v-5.5A2.73,2.73,0,0,1,29.288,5.55c.355,0,.532,0,.71.177h.177a1.346,1.346,0,0,1,.71.355h0a3.865,3.865,0,0,1,.888,1.42h0L32.3,8.745l3.728,9.763a10.051,10.051,0,0,0-3.195-.533,9.938,9.938,0,0,0-6.212,2.308ZM32.837,33.95a6.213,6.213,0,1,1,6.213-6.212A6.289,6.289,0,0,1,32.837,33.95Z" fill="#000000"/>
  </g>
</svg>
