<svg xmlns="http://www.w3.org/2000/svg" width="36.049" height="36.051" viewBox="0 0 36.049 36.051">
  <g id="insights-portal-svgrepo-com" transform="translate(-0.001 0.001)">
    <path id="Path_1074" data-name="Path 1074" d="M0,0H36.048V36.047H0Z" transform="translate(0.001 0.002)" fill="none" fill-rule="evenodd"/>
    <path id="Path_1075" data-name="Path 1075" d="M15.021,15.792a1.033,1.033,0,0,1-.31.781,1.067,1.067,0,0,1-.781.328H1.1a1.025,1.025,0,0,1-.941-.535,1.067,1.067,0,0,1-.128-.791c.052-.244.078-.493.124-.739A18.791,18.791,0,0,1,12.235.558,11.951,11.951,0,0,1,13.753.027.955.955,0,0,1,14.808.47a.916.916,0,0,1,.214.641V15.79Z" transform="translate(0)" fill="#000000" fill-rule="evenodd"/>
    <path id="Path_1076" data-name="Path 1076" d="M35.043,17.719v.3a16.342,16.342,0,0,1-4.968,12.053,16.331,16.331,0,0,1-12.053,4.968A16.825,16.825,0,0,1,4.276,28.235,18.75,18.75,0,0,1,2.085,24.57,11.315,11.315,0,0,1,1.07,21.907c-.136-.759-.178-1.995.9-1.995H17.076a.934.934,0,0,0,.945-.945V1.945A.827.827,0,0,1,18.9,1a11.857,11.857,0,0,1,1.878.212,16.514,16.514,0,0,1,10.94,6.681,17.13,17.13,0,0,1,3.32,9.827Z" transform="translate(1.002 1.004)" fill="#000000" fill-rule="evenodd"/>
  </g>
</svg>
