<svg xmlns="http://www.w3.org/2000/svg" width="46" height="33.293" viewBox="0 0 46 33.293">
  <path id="handshake-svgrepo-com" d="M54,11.882V25.847s-2.982.583-3.6.665-2.53.7-3.926-.641c-2.152-2.1-9.783-9.7-9.783-9.7A2.908,2.908,0,0,0,33.259,16c-1.939,1.019-4.822,2.522-6.021,3.105a2.768,2.768,0,0,1-4.156-2.169,2.826,2.826,0,0,1,1.725-2.464c2.735-1.643,8.51-4.929,10.917-6.177,1.462-.821,2.514-.821,4.526.821,2.472,2.127,4.715,3.992,4.715,3.992a2.259,2.259,0,0,0,1.856.353C49.589,12.884,54,11.882,54,11.882ZM23.607,35.474a2.464,2.464,0,0,0-2.916-3.36,2.522,2.522,0,0,0-.526-2.464,2.571,2.571,0,0,0-2.464-.616,2.522,2.522,0,0,0-.534-2.464,2.776,2.776,0,0,0-3.877.107c-1.134,1.084-1.865,3.056-.821,4.222s2.169.452,3.056.246c-.246.879-.986,1.7-.074,2.85s2.169.452,3.056.246c-.246.879-.953,1.774-.082,2.842s2.333.5,3.286.205c-.37.945-1.158,1.963-.148,3.113s3.351.616,4.493-.476a2.727,2.727,0,0,0,.246-3.844,2.612,2.612,0,0,0-2.694-.608ZM44.43,28.229l-8.814-8.773a2.9,2.9,0,0,0-3.1-.559c-1.232.542-2.818,1.281-4.017,1.84a6.7,6.7,0,0,1-2.7.9,4.592,4.592,0,0,1-2.464-8.494c1.914-1.306,6.1-3.549,6.1-3.549a5.306,5.306,0,0,0-4.107-1.643c-2.809,0-8.691,3.861-8.691,3.861a4.608,4.608,0,0,1-4.05.107L8,10.33V26.266s1.306.378,2.464.821a5.2,5.2,0,0,1,1.281-2.029,5.068,5.068,0,0,1,6.966-.049,4.436,4.436,0,0,1,1.1,1.947,4.51,4.51,0,0,1,1.881,1.15,4.436,4.436,0,0,1,1.092,1.98,4.493,4.493,0,0,1,3.048,3.286A4.419,4.419,0,0,1,27.8,34.546a4.641,4.641,0,0,1,1.216,4.017h0s.657.739,1.06,1.142a2.021,2.021,0,1,0,2.859-2.859s1.643,2.037,3.516.821c1.643-1.15,1.388-2.514.608-3.286a2.62,2.62,0,0,0,3.918.107,2.013,2.013,0,0,0,.107-2.711s1.093,1.487,3.286.1a2.258,2.258,0,0,0,0-3.606Z" transform="translate(-8 -7.753)" fill="#000000"/>
</svg>
