<svg xmlns="http://www.w3.org/2000/svg" xmlns:xlink="http://www.w3.org/1999/xlink" width="398" height="376.733" viewBox="0 0 398 376.733">
  <defs>
    <style>
      .cls-1 {
        fill: #fff;
      }

      .cls-2 {
        clip-path: url(#clip-path);
      }
    </style>
    <clipPath id="clip-path">
      <rect id="Rectangle_595" data-name="Rectangle 595" class="cls-1" width="398" height="376.733"/>
    </clipPath>
  </defs>
  <g id="Group_1106" data-name="Group 1106" class="cls-2">
    <path id="Path_2271" data-name="Path 2271" class="cls-1" d="M397.621,148.428a22.471,22.471,0,0,0-16.589-17.64l-23.487-6.235V66.36A66.437,66.437,0,0,0,291.181,0H263.256a66.437,66.437,0,0,0-66.364,66.36v14a26.044,26.044,0,0,0-16.938,4.82A24.623,24.623,0,0,0,169.7,104.4l-.948,28.952c-36.809,14.8-69.76,35.1-95.63,58.964a234.069,234.069,0,0,0-40.779,49.108,153.8,153.8,0,0,0-15.517,25.168c-8.756,17.94-11.8,33.521-13.621,42.833A204.566,204.566,0,0,0,.019,332.967a41.782,41.782,0,0,0,41.619,43.1c3.469.02,125.8.29,281.231.6l34.072.069.128-183.276L388.718,170.5a22.059,22.059,0,0,0,8.9-22.072M200.538,262.75l.452-18.048a12.4,12.4,0,0,0-4.083-9.469,13.642,13.642,0,0,0-10.84-3.381,314.641,314.641,0,0,0-65.382,14.707c-39.3,13.552-67.264,32.765-86.855,51.451,8.289-23.281,24.554-51.456,56.154-78.221,27.929-23.655,64.541-43.275,105.861-56.734a12.588,12.588,0,0,0,8.913-11.523l1.11-31.109,139.746,37.108ZM323,206.022l-.1,136.586-74.379-.177v-82.4ZM174.775,286.9a15.807,15.807,0,0,0,7.321,7.837c7.985,4.344,16.756.064,17.684-.4l5.474-2.919L224.3,277.6v64.8q-44.327-.111-88.653-.216V268.175a243.444,243.444,0,0,1,38.6-10.358l-.536,23.148a14.847,14.847,0,0,0,1.071,5.936m-63.362-8.339v63.608c-42.553-.093-68.094-.152-69.583-.162a7.981,7.981,0,0,1-1.735-.2c.3-.383.6-.767.875-1.184,12.088-18.834,33.733-43.535,70.443-62.06M230.949,66.36a32.34,32.34,0,0,1,32.308-32.3h27.925a32.339,32.339,0,0,1,32.3,32.3v59.318l-38.2-10.147-54.331-15.7Z" transform="translate(0 0)"/>
  </g>
</svg>
