<svg xmlns="http://www.w3.org/2000/svg" xmlns:xlink="http://www.w3.org/1999/xlink" width="395.261" height="400" viewBox="0 0 395.261 400">
  <defs>
    <style>
      .cls-1 {
        fill: #000000;
      }

      .cls-2 {
        clip-path: url(#clip-path);
      }
    </style>
    <clipPath id="clip-path">
      <rect id="Rectangle_594" data-name="Rectangle 594" class="cls-1" width="395.261" height="400"/>
    </clipPath>
  </defs>
  <g id="Group_1101" data-name="Group 1101" class="cls-2">
    <path id="Path_2270" data-name="Path 2270" class="cls-1" d="M214.865,399.995H180.39c-.572,0-1.145-.033-1.717-.088l-3.347-.033a16.6,16.6,0,0,1-14.868-9.5,57.777,57.777,0,0,0-27.226-27.319c-22.91-10.536-44.851-.958-49.013,1.068a16.6,16.6,0,0,1-20.549-4.965l-25.86-34.486a16.609,16.609,0,0,1-1.817-16.86,53.441,53.441,0,0,0,.661-41.554,51.9,51.9,0,0,0-26.664-26.62A16.611,16.611,0,0,1,0,224.41V175.579a16.59,16.59,0,0,1,9.991-15.22,51.964,51.964,0,0,0,26.664-26.631,53.441,53.441,0,0,0-.661-41.554,16.609,16.609,0,0,1,1.817-16.86l25.86-34.486A16.6,16.6,0,0,1,84.22,35.862c4.161,2.026,26.108,11.609,49.013,1.068A57.705,57.705,0,0,0,160.458,9.611a16.613,16.613,0,0,1,14.868-9.5l3.352-.033C179.245.033,179.812,0,180.39,0h34.475c.589,0,1.156.033,1.723.083l3.352.033a16.591,16.591,0,0,1,14.857,9.5A57.752,57.752,0,0,0,262.034,36.93c22.9,10.536,44.846.958,49.013-1.068a16.588,16.588,0,0,1,20.543,4.965l25.86,34.486a16.57,16.57,0,0,1,1.811,16.86,53.465,53.465,0,0,0-.655,41.554,51.954,51.954,0,0,0,26.67,26.631,16.607,16.607,0,0,1,9.991,15.22v48.842a16.612,16.612,0,0,1-9.991,15.226,51.884,51.884,0,0,0-26.67,26.626,53.452,53.452,0,0,0,.655,41.548,16.581,16.581,0,0,1-1.811,16.866l-25.86,34.486a16.611,16.611,0,0,1-20.549,4.965c-4.161-2.031-26.1-11.615-49.007-1.073A57.8,57.8,0,0,0,234.8,390.384a16.59,16.59,0,0,1-14.857,9.5l-3.347.027a16.447,16.447,0,0,1-1.728.088m-29.537-33.2h24.611a87.491,87.491,0,0,1,89.334-40.6,99.29,99.29,0,0,1,13.26,3.044l12.914-17.229a83.465,83.465,0,0,1,36.6-97.6V185.586a83.47,83.47,0,0,1-36.6-97.6L312.533,70.767a100.532,100.532,0,0,1-13.26,3.039,87.491,87.491,0,0,1-89.334-40.6H185.328A87.513,87.513,0,0,1,95.994,73.8a99.664,99.664,0,0,1-13.26-3.039L69.809,87.985a83.427,83.427,0,0,1-36.594,97.6v28.838a83.437,83.437,0,0,1,36.594,97.6L82.734,329.25a98.467,98.467,0,0,1,13.26-3.05,87.513,87.513,0,0,1,89.334,40.6M275.47,259.98H111.781a34.415,34.415,0,0,1-34.42-34.415v-.424a56.132,56.132,0,0,1,33.154-49.4,59.171,59.171,0,0,1,54.314-34.062c1.161,0,2.334.033,3.506.1a60.142,60.142,0,0,1,47.554-22.794,58.91,58.91,0,0,1,56.862,40.772,59.987,59.987,0,0,1,28.668,13.916,55.164,55.164,0,0,1,18.627,35.361,16.931,16.931,0,0,1,.385,3.567v2.433A45.018,45.018,0,0,1,275.459,260m-164.9-34.321a1.214,1.214,0,0,0,1.217,1.117H275.465a11.767,11.767,0,0,0,11.769-11.769v-.391c-.033-.33-.072-.672-.094-1.007-.815-12.182-12.176-21.721-25.849-21.721-.237,0-.771.033-1.239.066l-.583.039a16.592,16.592,0,0,1-17.587-15.528q-.033-.52-.033-1.04v-.429c-.182-12.611-11.752-22.827-25.949-22.827a26.049,26.049,0,0,0-24.1,14.527,16.587,16.587,0,0,1-19.448,9.187,28.656,28.656,0,0,0-7.514-1.024,27.5,27.5,0,0,0-16.53,5.35,23.2,23.2,0,0,0-8.7,12.534,16.609,16.609,0,0,1-11.328,11.692,23.652,23.652,0,0,0-17.719,21.226" transform="translate(0 0.002)"/>
  </g>
</svg>
