<svg xmlns="http://www.w3.org/2000/svg" xmlns:xlink="http://www.w3.org/1999/xlink" width="398" height="312.641" viewBox="0 0 398 312.641">
  <defs>
    <style>
      .cls-1 {
        fill: #fff;
      }

      .cls-2 {
        clip-path: url(#clip-path);
      }
    </style>
    <clipPath id="clip-path">
      <rect id="Rectangle_593" data-name="Rectangle 593" class="cls-1" width="398" height="312.641"/>
    </clipPath>
  </defs>
  <g id="Group_1096" data-name="Group 1096" class="cls-2">
    <path id="Path_2268" data-name="Path 2268" class="cls-1" d="M283.413,38.935a669.419,669.419,0,0,1-65,38.958l5.4,12.46a26.187,26.187,0,0,1-7.34,30.482,23.264,23.264,0,0,1,5.09,6.763c2.745,6.019.551,8.82,3.8,12.24,2.306,2.439,4.272,1.953,5.524,4.483,1.592,3.218-.663,5.86.783,7.508,2.082,2.379,9.061-.641,10-1.045,1.471-.637,12.21-5.283,13.712-14.069.521-3.085-.288-5.567,1.717-7.762,1.833-2,3.717-1.278,4.745-3.025,1.751-2.986-2.784-6.845-1.041-10,.912-1.652,2.422-1.123,4.741-3.025a12.168,12.168,0,0,0,4.216-8.007c.469-6.613-7.228-8.854-6.565-14.49.305-2.543,1.91-2.517,6.716-8.282a64.656,64.656,0,0,0,8.033-12.24v.146A126.875,126.875,0,0,1,151.072,196.91a128.116,128.116,0,0,1-26.774-2.818,2.7,2.7,0,0,1-.2-.676,3.367,3.367,0,0,1,.981-2.749c1.1-1.157,2.074-.577,2.947-1.7a3.457,3.457,0,0,0,.572-3.089c-.215-.577-.572-.835-.447-1.114.262-.611,2.134-.133,2.254-.525.073-.241-.611-.521-1.222-1.067-1.433-1.308-1.747-3.511-1.368-3.73s1.1,1.54,2.779,1.738c.916.1,2.009-.258,2.229-.916.194-.564-.473-.813-.5-1.872,0-.852.4-1.11.267-1.923-.12-.727-.5-.826-.452-1.119.2-1.123,5.782.305,8.622-2.439,1.11-1.071,1.816-2.792,1.317-3.511-.366-.521-1.222-.344-1.592-1.05-.305-.581.181-.934-.09-1.527-.374-.8-1.446-.521-2-1.4a1.432,1.432,0,0,1-.09-1.527c.5-.555,2.022,0,3.468.551,2.392.9,3.05,1.644,3.889,1.286.559-.237.305-.6,1.407-1.992.99-1.278,1.575-1.484,1.764-2.392.146-.761-.215-.873-.095-1.527.254-1.385,2-1.239,3.257-2.87,1.123-1.463.305-2.336,1.665-3.911.654-.766,1.071-.826,1.428-1.618a4.891,4.891,0,0,0,.219-2.676c-.022-.12-.039-.232-.06-.327l-10.765,4.664a25.845,25.845,0,0,1-10.309,2.151,26.386,26.386,0,0,1-17.7-6.888,5.878,5.878,0,0,1-.327,2.409,16.257,16.257,0,0,0-1.613,4.677,12.986,12.986,0,0,0,.2,3.416c.361,2.108.83,2.444.994,3.76.073.594.065,1.239-1.222,5.029a22.508,22.508,0,0,0-1.88,6.6c-.043,1.243.168,1.015.163,2.659-.021,3.115-.787,4.862-.06,5.339.564.374,1.308-.508,1.9-.112.77.5.559,2.629-.125,4.2-.551,1.278-1.256,1.807-1,2.349.323.7,1.712.361,1.966,1.024.172.434-.323.783-.942,1.85a126.132,126.132,0,0,1-53.19-31.85A128.719,128.719,0,0,1,48,144.025c-7.512,1.953-14.753,3.661-21.667,5.133-3.106.663-6.105,1.256-9.057,1.8a156.405,156.405,0,0,0,283.905-124.8c-5.537,4.173-11.492,8.437-17.777,12.731" transform="translate(57.068 86.382)"/>
    <path id="Path_2269" data-name="Path 2269" class="cls-1" d="M396.064,53c-5.567-10.9-18.948-10.937-25.371-10.941h-.185c-7.409,0-17.05.762-28.2,1.652a216.471,216.471,0,0,0-22.751,3.025l-.869-.891c-.761-.762-1.523-1.5-2.306-2.246A156.3,156.3,0,0,0,51.9,150.414c-.052,1.484-.086,2.964-.1,4.449-2.8,1.833-5.546,3.76-8.209,5.752A243.662,243.662,0,0,0,16.8,184a89.643,89.643,0,0,0-11.78,14.366C-.15,206.586-1.334,214.163,1.5,220.874c4.47,10.588,15.729,16.229,33.447,16.758.981.03,2,.043,3.033.043a197.113,197.113,0,0,0,34.38-3.661q4.969-.891,10.274-2.022c6.449-1.368,13.2-2.951,20.174-4.75,17.58-4.535,36.708-10.377,56.718-17.347l.676-.237,3.485-1.218,3.481-1.243,1.463,3.395,5.4,12.442a18.717,18.717,0,0,0,24.61,9.732L226.6,220.651l37.783-16.371a18.773,18.773,0,0,0,9.732-24.61l-5.189-11.982-1.342-3.1,3.334-1.557,3.339-1.557.456-.211a10.251,10.251,0,0,0,3.42-2.573,658.955,658.955,0,0,0,60.268-36.4c6.647-4.543,12.924-9.052,18.711-13.445,7.293-5.516,13.806-10.838,19.3-15.764C391.3,79.713,395.083,72.49,396.649,68.209a18.515,18.515,0,0,0-.589-15.192M236.665,194.41,211.32,205.2a1.445,1.445,0,0,1-1.9-.753,1.565,1.565,0,0,1-.112-.422l-3.235-28.86a2.646,2.646,0,0,0-2.358-2.349,17.02,17.02,0,1,1,15.093-6.475,2.745,2.745,0,0,0,.056,3.442l18.419,22.1a1.6,1.6,0,0,1-.611,2.508M345.089,80.918c-6.639,5.249-14.908,11.345-25.1,18.255a636.48,636.48,0,0,1-57.734,34.583c-1.084.572-2.173,1.153-3.266,1.725l-1.05.551-2.267,1.05-1.428-3.283L245.631,113.9a18.586,18.586,0,0,0-5.133-6.871,19.065,19.065,0,0,0-12.1-4.388,18.457,18.457,0,0,0-7.379,1.54l-61.933,26.821-3.812,1.656A18.426,18.426,0,0,0,146.7,140.2a19.432,19.432,0,0,0-1.36,2.749,18.593,18.593,0,0,0,.207,14.305l.882,2.039,2.465,5.683.774,1.785,3.111,7.181,1.183,2.745,1.467,3.395-3.481,1.222-3.489,1.222C127.256,189.85,107.091,195.9,89.025,200.3l-2.538.611c-10.532,2.5-19.309,4.195-26.584,5.318a127.85,127.85,0,0,1-25.332,1.88c1.712-1.932,3.954-4.289,6.858-7.086,4.578-4.414,9.5-8.652,13.733-12.107q.432,2.014.916,4.027,1.175,4.9,2.672,9.728c7.74-1.166,17.278-3.012,28.994-5.851H87.8a127.83,127.83,0,0,1,2.384-87.334,11.562,11.562,0,0,1,1.549,3.967c.551,3.7-2.5,4.32-2.556,8.979a21.345,21.345,0,0,0,2.805,10.175c.361.718,1.613,2.676,4.165,6.535a40.909,40.909,0,0,1,4.169,6.544c1.553,3.816.6,5.3,2.624,8.437.447.706,2.216,3.451,3.8,3.093a2.446,2.446,0,0,0,1.553-1.9c.336-1.592-.9-2.749-2.263-5-1.527-2.487-3.124-6.187-2.439-6.712s3.988,1.454,5.709,4.634c1.575,2.891.546,4.462,2.444,6.712,1.441,1.712,2.371,1.222,3.812,3.093,1.592,2.061.886,3.231,2.263,4.991,1.218,1.562,2.134,1.1,5.529,2.908,4.332,2.3,4.561,3.928,7.435,4.457,2.039.379,2.259-.379,5.189-.533a20.509,20.509,0,0,1,7.667,1.458l-2.878-6.634-1.945-4.5a25.841,25.841,0,0,1-1.833-14.391,26.969,26.969,0,0,1,1.527-5.554,25.928,25.928,0,0,1,13.858-14.344l7.783-3.356c-.77-1.106-1.639-1.687-1.437-2.1.336-.675,2.93.435,3.451-.361.551-.843-2.224-2.439-2.263-4.991-.034-2.138,1.9-2.293,2.908-5.529.882-2.827,0-4.634,1.192-5.356.99-.607,2.057.4,3.446-.357a4.263,4.263,0,0,0,1.549-1.9c1.007-1.889,1.953-4.9,1.183-5.352-.891-.529-3.072,2.93-5,2.259-.968-.336-.981-1.407-1.9-1.54-1.441-.215-2.332,2.306-3.27,2.078s-1.829-3.4-.542-5.167c1.631-2.207,5.223-.34,6.716-2.444,1.407-1.966-.873-4.819,1.007-7.082.7-.822,1.6-1.157,1.549-1.9a2.08,2.08,0,0,0-1.9-1.54c-2.319-.138-4.023,4.32-4.814,3.988-.5-.211.439-1.884-.361-3.451-.7-1.368-1.884-.981-5.529-2.908-1.953-1.033-2.68-1.712-3.627-1.364a2.531,2.531,0,0,0-1.553,1.9c-.129.865.417,1.222.185,1.725-.366.77-2.242,1.093-3.455.357-1.437-.882-.886-2.6-2.082-3.274a4.221,4.221,0,0,0-4.991,2.267c-.882,2.263,1.446,5.387,2.439,6.716,1.2,1.613,2.057,2.074,2.078,3.274.03,1.622-1.506,2.1-1.368,3.627.125,1.265,1.222,1.347,2.087,3.27.585,1.317.916,3.136.357,3.451-.68.4-2.667-1.6-3.8-3.089-1.489-1.949-1.089-2.418-2.087-3.27a9.365,9.365,0,0,0-7.077-1.007c-3.21.344-3.967,1.2-5.171.538-1.157-.632-1.527-2.087-2.267-5a11.589,11.589,0,0,1-.538-5.184c.28-1.609.744-1.48,1.368-3.631.916-3.175.116-4.1,1.192-5.352,1.218-1.424,2.887-.916,3.266-2.078A3.127,3.127,0,0,0,129,69.508c-1.415-.49-2.1.71-3.451.361-2.366-.611-2.491-4.823-3.988-4.81-.736,0-1.527,1.011-1.545,1.9-.034,1.321,1.661,1.549,2.087,3.266a3.413,3.413,0,0,1-1.368,3.631c-.383.2-.478.073-1.725.181-2.2.185-2.551.611-3.451.353-1.1-.327-.865-1.1-1.9-1.54a2.127,2.127,0,0,0-.835-.168q2.7-3.053,5.6-5.976A127.133,127.133,0,0,1,259.115,40.153c-1.08,1.7-.813,4.1-2.921,6.772-2.908,3.687-6.574,3.162-6.983,5.8a4.723,4.723,0,0,0,3.016,4.746c2.087.611,3.894-1.42,5.008-.525a1.982,1.982,0,0,1,.258,2.5c-1.028,1.248-4.053-.611-5,.521-.856,1.028,1.243,2.982.525,5.008a5.856,5.856,0,0,1-4.745,3.02c-2.113.262-2.848-.7-5.081-.723a9.566,9.566,0,0,0-5.434,1.811c-3.941,4.307-4.289,6.626-3.713,7.977.977,2.254,4.965,1.764,5.52,4.479a4.884,4.884,0,0,1-1.975,5.266,4.679,4.679,0,0,1-5.275-.7,6.1,6.1,0,0,0-4.737,1.734,6.013,6.013,0,0,0-1.093,6.368c.133.344.305.736.5,1.144a26.086,26.086,0,0,1,11.066,1.807h.034a26.087,26.087,0,0,1,9.921,6.94,25.8,25.8,0,0,1,4.393,6.9l8.4,19.386c14.056-7.482,27.772-15.407,40.739-23.564q2.065-1.291,4.087-2.586,5.7-3.646,11.19-7.344c10.868-7.323,19.563-13.733,26.434-19.2.374-.305.74-.585,1.1-.873-.508.039-1.024.09-1.527.133-.688-1.166-1.4-2.336-2.134-3.489,1.317-.142,2.637-.267,3.95-.366,3.5-.28,7.228-.577,10.868-.83-2.913,2.569-6.363,5.464-10.42,8.674" transform="translate(0 0.002)"/>
  </g>
</svg>
