<svg xmlns="http://www.w3.org/2000/svg" xmlns:xlink="http://www.w3.org/1999/xlink" width="400.017" height="400" viewBox="0 0 400.017 400">
  <defs>
    <style>
      .cls-1 {
        fill: #000000;
      }

      .cls-2 {
        clip-path: url(#clip-path);
      }
    </style>
    <clipPath id="clip-path">
      <rect id="Rectangle_600" data-name="Rectangle 600" class="cls-1" width="400.017" height="400"/>
    </clipPath>
  </defs>
  <g id="Group_1125" data-name="Group 1125" class="cls-2">
    <path id="Path_2325" data-name="Path 2325" class="cls-1" d="M397.779,170.292C381.364,61.065,279.513-14.166,170.292,2.249S-14.166,120.514,2.249,229.736A199.624,199.624,0,0,0,229.6,397.746C338.847,381.381,414.144,279.552,397.779,170.3v-.022m-64.5,128.207A165.795,165.795,0,1,1,175.395,35.953a170.122,170.122,0,0,1,24.919-1.866,165.823,165.823,0,0,1,132.957,264.4" transform="translate(0.003 0.004)"/>
    <path id="Path_2326" data-name="Path 2326" class="cls-1" d="M170.328,37.755h-16.5V17.212H93.7V38.73H77.064v-21.8H16.932V79.034h19.86V92.493H16.932V154.6h19.86v13.459H16.932v62.108H77.064V208.859H93.7v21.594H153.83V209.828h16.5v20.626h60.132V168.345H210.016V154.892h20.449V92.779H210.016V79.326h20.449V17.212H170.333Zm-56.664-.572h20.191V59.361H113.664Zm0,75.567h20.191v22.178H113.664ZM36.892,36.9h20.2V59.074h-20.2Zm0,75.567h20.2v22.178h-20.2Zm20.2,97.739h-20.2V188.024h20.2ZM113.4,168.351H93.688v20.543H77.053V168.065H56.741V154.606H77.053V133.3H93.688v21.594H113.4Zm0-75.572H93.688v20.543H77.053V92.509H56.741V79.05H77.053V58.7H93.688V79.331H113.4Zm20.449,117.71H113.664V188.316h20.191Zm76.629,0h-20.2V188.311h20.2Zm-20.449-42.137H170.322v21.506h-16.5V168.351H133.375V154.892h20.444V133.3h16.5v21.594h19.712Zm20.449-33.424h-20.2V112.749h20.2ZM190.034,92.784H170.322v20.543h-16.5V92.784H133.375V79.326h20.444V57.715h16.5v21.6h19.712Zm.248-55.6h20.2V59.355h-20.2Z" transform="translate(76.271 76.246)"/>
  </g>
</svg>
