<svg xmlns="http://www.w3.org/2000/svg" xmlns:xlink="http://www.w3.org/1999/xlink" width="398" height="376.783" viewBox="0 0 398 376.783">
  <defs>
    <style>
      .cls-1 {
        fill: #fff;
      }

      .cls-2 {
        clip-path: url(#clip-path);
      }
    </style>
    <clipPath id="clip-path">
      <rect id="Rectangle_592" data-name="Rectangle 592" class="cls-1" width="398" height="376.783"/>
    </clipPath>
  </defs>
  <g id="Group_1094" data-name="Group 1094" class="cls-2">
    <path id="Path_2265" data-name="Path 2265" class="cls-1" d="M315.381,376.784c-12.646,0-25.832-.275-39.453-.809a24.734,24.734,0,0,1,.954-49.45h.99c23.535.928,45.608,1.032,65.69.264C328.686,297.914,211.659,70.746,205.94,59.635a41.327,41.327,0,0,0-6.616-9.162,39.178,39.178,0,0,0-7.653,9.883c-.327.539-.658,1.078-1.032,1.6-8.2,13.3-86.974,167.669-136.077,264.562H121.1a24.735,24.735,0,1,1,.026,49.471h-73.8c-25.246,0-36.9-10.92-42.232-20.087A39.517,39.517,0,0,1,.85,328.335a70.5,70.5,0,0,1,8.26-21.56c3.127-6.17,34.755-68.552,66.8-131.255C136.258,57.41,146.353,39.283,149.464,34.549,162.831,12.1,180.745-.17,199.93,0A47.46,47.46,0,0,1,229,10.76a82.669,82.669,0,0,1,20.268,25h-.021c.581,1.047,1.213,2.276,2.012,3.816L388.687,306.34c10.966,18.3,12.314,36.648,3.676,50.482-11.086,17.743-31.712,18.708-40.516,19.117q-17.36.817-36.472.814M190.172,62.632l-.021.021.021-.021m.6-.866h0" transform="translate(0.001 0)"/>
    <path id="Path_2266" data-name="Path 2266" class="cls-1" d="M96.7,92.393A32.181,32.181,0,1,1,64.512,60.209,32.179,32.179,0,0,1,96.7,92.393" transform="translate(135.32 251.98)"/>
    <path id="Path_2267" data-name="Path 2267" class="cls-1" d="M86.741,183.355l-3.7-144.746A4.759,4.759,0,0,0,83,37.836v-.083a4.863,4.863,0,0,0-.062-.622l-.026-.233a3.449,3.449,0,0,0-.057-.4l-.078-.446v-.1A16.586,16.586,0,0,0,80.5,30.121c-.093-.13-.181-.264-.275-.4-.047-.073-.1-.156-.156-.228a16.188,16.188,0,0,0-3.127-3.365l-.1-.083c-.15-.114-.3-.228-.456-.342l-.223-.166c-.114-.088-.239-.171-.363-.254s-.239-.161-.363-.239a2.273,2.273,0,0,0-.264-.166c-.161-.1-.342-.2-.5-.3l-.166-.1-.627-.342-.057.005h-.031c-.239-.119-.477-.233-.726-.342h-.031c-.249-.109-.493-.213-.741-.306h-.041l-.716-.249-.088-.031-.627-.181-.187-.052c-.166-.041-.342-.083-.5-.114a2.637,2.637,0,0,0-.347-.083l-.342-.057c-.161-.036-.342-.067-.493-.088l-.171-.026-.664-.083H68.07a15.465,15.465,0,0,0-1.623-.083h-.43a4.857,4.857,0,0,0-.778.041h-.083a5.211,5.211,0,0,0-.638.067l-.228.021-.368.062a16.568,16.568,0,0,0-6.191,2.276l-.223.13-.259.171c-.15.1-.29.2-.43.3l-.041.036a16.316,16.316,0,0,0-4.133,4.262c-.078.119-.161.239-.238.342l-.1.166c-.114.2-.239.389-.342.581l-.026.052c-.13.239-.254.467-.373.716L32.775,69.584A16.6,16.6,0,0,0,51.208,93.192l2.323,91.019a16.626,16.626,0,0,0,16.608,16.2h.436a16.613,16.613,0,0,0,16.183-17.033v-.005" transform="translate(129.891 93.944)"/>
  </g>
</svg>
