<svg xmlns="http://www.w3.org/2000/svg" xmlns:xlink="http://www.w3.org/1999/xlink" width="326.811" height="485.502" viewBox="0 0 326.811 485.502">
  <defs>
    <style>
      .cls-1 {
        fill: #000000;
      }

      .cls-2 {
        clip-path: url(#clip-path);
      }
    </style>
    <clipPath id="clip-path">
      <rect id="Rectangle_598" data-name="Rectangle 598" class="cls-1" width="326.811" height="485.502"/>
    </clipPath>
  </defs>
  <g id="Group_1114" data-name="Group 1114" class="cls-2">
    <path id="Path_2313" data-name="Path 2313" class="cls-1" d="M277.129,62.29H222.951c.027-.742.047-1.477.047-2.225A59.585,59.585,0,1,0,103.832,59.1v.962c0,.762,0,1.483.04,2.225H49.695A49.744,49.744,0,0,0,0,111.978V435.809A49.754,49.754,0,0,0,49.695,485.5H277.116a49.75,49.75,0,0,0,49.695-49.695V111.978A49.74,49.74,0,0,0,277.116,62.29M143.879,60.066a19.522,19.522,0,1,1,39.045,0,19.11,19.11,0,0,1-.127,2.225H144.013a20.682,20.682,0,0,1-.12-2.225M286.763,435.809a9.76,9.76,0,0,1-9.634,9.634H49.708a9.761,9.761,0,0,1-9.641-9.634V111.978a9.772,9.772,0,0,1,9.641-9.641H277.129a9.77,9.77,0,0,1,9.634,9.641Z" transform="translate(0 0)"/>
    <path id="Path_2314" data-name="Path 2314" class="cls-1" d="M24.7,262.2A10.239,10.239,0,0,1,14.3,252.12V90.482c0-36.012,30.219-65.3,67.36-65.3s67.36,29.3,67.36,65.3a10.4,10.4,0,0,1-20.792,0,46.591,46.591,0,0,0-93.136,0V252.127a10.243,10.243,0,0,1-10.4,10.082" transform="translate(81.264 143.054)"/>
    <path id="Path_2315" data-name="Path 2315" class="cls-1" d="M42.025,201.749a10.239,10.239,0,0,1-10.4-10.082V48.075a10.4,10.4,0,0,1,20.792,0v143.6a10.243,10.243,0,0,1-10.4,10.082" transform="translate(179.69 215.634)"/>
    <path id="Path_2316" data-name="Path 2316" class="cls-1" d="M45.338,199.178A24.3,24.3,0,0,1,20.7,175.3V55.633a24.653,24.653,0,0,1,49.287,0V175.3a24.3,24.3,0,0,1-24.64,23.879m0-147.274A3.82,3.82,0,0,0,41.5,55.633V175.3a3.848,3.848,0,0,0,7.7,0V55.633A3.82,3.82,0,0,0,45.345,51.9" transform="translate(117.589 179.895)"/>
    <path id="Path_2317" data-name="Path 2317" class="cls-1" d="M55.4,247.276A11.876,11.876,0,0,1,43.524,235.4V77.3a78.642,78.642,0,0,0-7.249-33.152A11.882,11.882,0,1,1,57.728,33.925l.127.274a102.344,102.344,0,0,1,9.4,43.1V235.4a11.867,11.867,0,0,1-11.872,11.872" transform="translate(199.498 154.246)"/>
    <path id="Path_2318" data-name="Path 2318" class="cls-1" d="M20.864,158.083A11.876,11.876,0,0,1,8.992,146.21V120.942A102.127,102.127,0,0,1,37.9,49.393a96.927,96.927,0,0,1,69.992-29.925h8.893A97.084,97.084,0,0,1,185.308,47.91a11.876,11.876,0,0,1-16.7,16.89,73.53,73.53,0,0,0-51.826-21.58h-8.893A73.373,73.373,0,0,0,54.945,65.942a78.5,78.5,0,0,0-22.2,54.993V146.2a11.883,11.883,0,0,1-11.886,11.873" transform="translate(51.079 110.603)"/>
    <path id="Path_2319" data-name="Path 2319" class="cls-1" d="M20.863,146.718A11.876,11.876,0,0,1,8.991,134.846V56.729a11.879,11.879,0,1,1,23.758,0v78.123a11.883,11.883,0,0,1-11.886,11.872" transform="translate(51.08 254.803)"/>
  </g>
</svg>
