<svg xmlns="http://www.w3.org/2000/svg" xmlns:xlink="http://www.w3.org/1999/xlink" width="387.791" height="400" viewBox="0 0 387.791 400">
  <defs>
    <style>
      .cls-1 {
        fill: #000000;
      }

      .cls-2 {
        clip-path: url(#clip-path);
      }
    </style>
    <clipPath id="clip-path">
      <rect id="Rectangle_597" data-name="Rectangle 597" class="cls-1" width="387.791" height="400"/>
    </clipPath>
  </defs>
  <g id="Group_1110" data-name="Group 1110" class="cls-2">
    <path id="Path_2273" data-name="Path 2273" class="cls-1" d="M26.408,51.295c-8.152,0-14.549-8.549-14.549-19.459s6.4-19.453,14.549-19.453,14.549,8.543,14.549,19.453-6.4,19.459-14.549,19.459m0-31.348c-3.831,0-6.7,6.281-6.7,11.89s2.862,11.9,6.7,11.9,6.7-6.281,6.7-11.9-2.862-11.89-6.7-11.89" transform="translate(53.42 55.782)"/>
    <path id="Path_2274" data-name="Path 2274" class="cls-1" d="M26.408,51.295c-8.152,0-14.549-8.549-14.549-19.459s6.4-19.453,14.549-19.453,14.549,8.543,14.549,19.453-6.4,19.459-14.549,19.459m0-31.348c-3.831,0-6.7,6.281-6.7,11.89s2.862,11.9,6.7,11.9,6.7-6.281,6.7-11.9-2.862-11.89-6.7-11.89" transform="translate(53.42 55.782)"/>
    <path id="Path_2275" data-name="Path 2275" class="cls-1" d="M36.4,49.081l-.165-33.11v-.49l-.017-.1v-.022a3.69,3.69,0,0,0-.523-1.338l-.066-.1-.033-.05a4.161,4.161,0,0,0-.738-.787l-.028-.017-.1-.077-.055-.044-.083-.061-.088-.055-.066-.039-.121-.072-.033-.017a.761.761,0,0,0-.149-.077h-.017l-.165-.083-.187-.072-.165-.061h-.022l-.149-.044H33.38l-.121-.033-.077-.017-.077-.022-.121-.017H32.94l-.16-.022-.391-.022h-.611a4.189,4.189,0,0,0-1.508.49l-.05.033-.061.033-.11.066a3.649,3.649,0,0,0-1.018.952l-.061.077-.022.044-.088.132a1.175,1.175,0,0,0-.094.165L24.055,22.8a3.728,3.728,0,0,0,1.536,5.048l.16.083a4.288,4.288,0,0,0,1.767.435,4.433,4.433,0,0,0,.853-.077l.1,20.84a3.9,3.9,0,0,0,3.914,3.782h.1a3.9,3.9,0,0,0,3.98-3.809v-.006" transform="translate(106.375 55.106)"/>
    <path id="Path_2276" data-name="Path 2276" class="cls-1" d="M36.4,49.081l-.165-33.11v-.49l-.017-.1v-.022a3.69,3.69,0,0,0-.523-1.338l-.066-.1-.033-.05a4.161,4.161,0,0,0-.738-.787l-.028-.017-.1-.077-.055-.044-.083-.061-.088-.055-.066-.039-.121-.072-.033-.017a.761.761,0,0,0-.149-.077h-.017l-.165-.083-.187-.072-.165-.061h-.022l-.149-.044H33.38l-.121-.033-.077-.017-.077-.022-.121-.017H32.94l-.16-.022-.391-.022h-.611a4.189,4.189,0,0,0-1.508.49l-.05.033-.061.033-.11.066a3.649,3.649,0,0,0-1.018.952l-.061.077-.022.044-.088.132a1.175,1.175,0,0,0-.094.165L24.055,22.8a3.728,3.728,0,0,0,1.536,5.048l.16.083a4.288,4.288,0,0,0,1.767.435,4.433,4.433,0,0,0,.853-.077l.1,20.84a3.9,3.9,0,0,0,3.914,3.782h.1a3.9,3.9,0,0,0,3.98-3.809v-.006" transform="translate(106.375 55.106)"/>
    <path id="Path_2277" data-name="Path 2277" class="cls-1" d="M41.6,51.118c-8.152,0-14.549-8.543-14.549-19.459s6.4-19.453,14.549-19.453,14.549,8.549,14.549,19.453S49.75,51.118,41.6,51.118m0-31.348c-3.831,0-6.7,6.281-6.7,11.89s2.862,11.9,6.7,11.9,6.7-6.281,6.7-11.9-2.862-11.89-6.7-11.89" transform="translate(121.844 54.984)"/>
    <path id="Path_2278" data-name="Path 2278" class="cls-1" d="M41.6,51.118c-8.152,0-14.549-8.543-14.549-19.459s6.4-19.453,14.549-19.453,14.549,8.549,14.549,19.453S49.75,51.118,41.6,51.118m0-31.348c-3.831,0-6.7,6.281-6.7,11.89s2.862,11.9,6.7,11.9,6.7-6.281,6.7-11.9-2.862-11.89-6.7-11.89" transform="translate(121.844 54.984)"/>
    <path id="Path_2279" data-name="Path 2279" class="cls-1" d="M49.26,49.085l-.165-33.11v-.49l-.017-.1v-.017a3.678,3.678,0,0,0-.523-1.343l-.066-.094-.033-.055a3.972,3.972,0,0,0-.738-.782l-.028-.022-.1-.077-.055-.044-.083-.061-.088-.055-.066-.039-.121-.072-.033-.017-.149-.077h-.017l-.165-.083-.187-.066-.165-.061h-.022l-.149-.044h-.044l-.121-.033-.077-.017-.077-.022-.121-.017H45.8l-.16-.017-.391-.028h-.611a4.189,4.189,0,0,0-1.508.49l-.055.033-.061.033-.1.072a3.651,3.651,0,0,0-1.024.947l-.061.077-.016.044-.088.132-.1.165-4.712,8.571a3.733,3.733,0,0,0,1.536,5.048,1.156,1.156,0,0,0,.165.083,4.289,4.289,0,0,0,1.767.435,4.433,4.433,0,0,0,.853-.077l.1,20.84a3.9,3.9,0,0,0,3.914,3.782h.1a3.89,3.89,0,0,0,3.98-3.809V49.1" transform="translate(164.3 55.151)"/>
    <path id="Path_2280" data-name="Path 2280" class="cls-1" d="M49.26,49.085l-.165-33.11v-.49l-.017-.1v-.017a3.678,3.678,0,0,0-.523-1.343l-.066-.094-.033-.055a3.972,3.972,0,0,0-.738-.782l-.028-.022-.1-.077-.055-.044-.083-.061-.088-.055-.066-.039-.121-.072-.033-.017-.149-.077h-.017l-.165-.083-.187-.066-.165-.061h-.022l-.149-.044h-.044l-.121-.033-.077-.017-.077-.022-.121-.017H45.8l-.16-.017-.391-.028h-.611a4.189,4.189,0,0,0-1.508.49l-.055.033-.061.033-.1.072a3.651,3.651,0,0,0-1.024.947l-.061.077-.016.044-.088.132-.1.165-4.712,8.571a3.733,3.733,0,0,0,1.536,5.048,1.156,1.156,0,0,0,.165.083,4.289,4.289,0,0,0,1.767.435,4.433,4.433,0,0,0,.853-.077l.1,20.84a3.9,3.9,0,0,0,3.914,3.782h.1a3.89,3.89,0,0,0,3.98-3.809V49.1" transform="translate(164.3 55.151)"/>
    <path id="Path_2281" data-name="Path 2281" class="cls-1" d="M54.46,51.127c-8.152,0-14.549-8.543-14.549-19.459s6.4-19.453,14.549-19.453,14.549,8.549,14.549,19.453-6.4,19.459-14.549,19.459m0-31.348c-3.831,0-6.7,6.281-6.7,11.89s2.862,11.9,6.7,11.9,6.7-6.281,6.7-11.9-2.862-11.89-6.7-11.89" transform="translate(179.782 55.025)"/>
    <path id="Path_2282" data-name="Path 2282" class="cls-1" d="M54.46,51.127c-8.152,0-14.549-8.543-14.549-19.459s6.4-19.453,14.549-19.453,14.549,8.549,14.549,19.453-6.4,19.459-14.549,19.459m0-31.348c-3.831,0-6.7,6.281-6.7,11.89s2.862,11.9,6.7,11.9,6.7-6.281,6.7-11.9-2.862-11.89-6.7-11.89" transform="translate(179.782 55.025)"/>
    <path id="Path_2283" data-name="Path 2283" class="cls-1" d="M46.106,49.085l-.165-33.11v-.49l-.017-.1v-.017a3.678,3.678,0,0,0-.523-1.343l-.066-.094-.033-.055a4.141,4.141,0,0,0-.738-.782l-.028-.022-.1-.077-.055-.044-.083-.061-.088-.055-.066-.039-.121-.072-.033-.017-.149-.077h-.017l-.165-.083-.187-.066-.165-.061h-.022l-.149-.044H43.09l-.121-.033-.077-.017-.077-.022-.121-.017H42.65l-.16-.017-.391-.028h-.611a4.189,4.189,0,0,0-1.508.49l-.05.033-.061.033-.11.072a3.63,3.63,0,0,0-1.018.947l-.061.077-.022.044-.088.132a1.175,1.175,0,0,0-.094.165l-4.712,8.571A3.728,3.728,0,0,0,35.3,27.854a1.1,1.1,0,0,0,.16.083,4.288,4.288,0,0,0,1.767.435,4.433,4.433,0,0,0,.853-.077l.1,20.84A3.9,3.9,0,0,0,42.1,52.916h.1a3.89,3.89,0,0,0,3.98-3.809V49.1" transform="translate(150.115 55.151)"/>
    <path id="Path_2284" data-name="Path 2284" class="cls-1" d="M46.106,49.085l-.165-33.11v-.49l-.017-.1v-.017a3.678,3.678,0,0,0-.523-1.343l-.066-.094-.033-.055a4.141,4.141,0,0,0-.738-.782l-.028-.022-.1-.077-.055-.044-.083-.061-.088-.055-.066-.039-.121-.072-.033-.017-.149-.077h-.017l-.165-.083-.187-.066-.165-.061h-.022l-.149-.044H43.09l-.121-.033-.077-.017-.077-.022-.121-.017H42.65l-.16-.017-.391-.028h-.611a4.189,4.189,0,0,0-1.508.49l-.05.033-.061.033-.11.072a3.63,3.63,0,0,0-1.018.947l-.061.077-.022.044-.088.132a1.175,1.175,0,0,0-.094.165l-4.712,8.571A3.728,3.728,0,0,0,35.3,27.854a1.1,1.1,0,0,0,.16.083,4.288,4.288,0,0,0,1.767.435,4.433,4.433,0,0,0,.853-.077l.1,20.84A3.9,3.9,0,0,0,42.1,52.916h.1a3.89,3.89,0,0,0,3.98-3.809V49.1" transform="translate(150.115 55.151)"/>
    <path id="Path_2285" data-name="Path 2285" class="cls-1" d="M32.273,51.295c-8.152,0-14.549-8.549-14.549-19.459s6.4-19.453,14.549-19.453,14.549,8.543,14.549,19.453-6.4,19.459-14.549,19.459m0-31.348c-3.831,0-6.7,6.281-6.7,11.89s2.862,11.9,6.7,11.9,6.7-6.281,6.7-11.9-2.862-11.89-6.7-11.89" transform="translate(79.839 55.782)"/>
    <path id="Path_2286" data-name="Path 2286" class="cls-1" d="M32.273,51.295c-8.152,0-14.549-8.549-14.549-19.459s6.4-19.453,14.549-19.453,14.549,8.543,14.549,19.453-6.4,19.459-14.549,19.459m0-31.348c-3.831,0-6.7,6.281-6.7,11.89s2.862,11.9,6.7,11.9,6.7-6.281,6.7-11.9-2.862-11.89-6.7-11.89" transform="translate(79.839 55.782)"/>
    <path id="Path_2287" data-name="Path 2287" class="cls-1" d="M60.339,51.024c-8.152,0-14.549-8.543-14.549-19.459s6.4-19.453,14.549-19.453,14.549,8.549,14.549,19.453-6.4,19.459-14.549,19.459m0-31.348c-3.831,0-6.7,6.281-6.7,11.89s2.862,11.9,6.7,11.9,6.7-6.281,6.7-11.9-2.862-11.89-6.7-11.89" transform="translate(206.264 54.561)"/>
    <path id="Path_2288" data-name="Path 2288" class="cls-1" d="M60.458,65.067l-.165-33.11v-.49l-.017-.1v-.017A3.679,3.679,0,0,0,59.753,30l-.066-.094-.033-.055a3.973,3.973,0,0,0-.738-.782l-.028-.022-.1-.077-.055-.044-.083-.061-.088-.055-.066-.039-.121-.072-.033-.017a.958.958,0,0,0-.149-.077h-.017l-.165-.083-.187-.066-.165-.061h-.022l-.149-.044h-.044l-.121-.033-.077-.022-.077-.017-.121-.022H57l-.16-.017-.391-.028H55.84a4.188,4.188,0,0,0-1.508.49l-.05.033-.061.039-.11.066a3.752,3.752,0,0,0-1.018.958l-.061.077-.022.044-.088.132a1.176,1.176,0,0,0-.094.165l-4.712,8.571a3.712,3.712,0,0,0,1.5,5.031l.193.1a4.288,4.288,0,0,0,1.767.435,4.918,4.918,0,0,0,.853-.077l.1,20.84A3.907,3.907,0,0,0,56.451,68.9h.1a3.9,3.9,0,0,0,3.98-3.815v-.006" transform="translate(214.732 127.116)"/>
    <path id="Path_2289" data-name="Path 2289" class="cls-1" d="M24.714,75.644c-8.152,0-14.549-8.543-14.549-19.459s6.4-19.453,14.549-19.453,14.549,8.543,14.549,19.453-6.4,19.459-14.549,19.459m0-31.348c-3.831,0-6.7,6.281-6.7,11.89s2.862,11.9,6.7,11.9,6.7-6.281,6.7-11.9S28.55,44.3,24.714,44.3" transform="translate(45.789 165.463)"/>
    <path id="Path_2290" data-name="Path 2290" class="cls-1" d="M24.714,75.644c-8.152,0-14.549-8.543-14.549-19.459s6.4-19.453,14.549-19.453,14.549,8.543,14.549,19.453-6.4,19.459-14.549,19.459m0-31.348c-3.831,0-6.7,6.281-6.7,11.89s2.862,11.9,6.7,11.9,6.7-6.281,6.7-11.9S28.55,44.3,24.714,44.3" transform="translate(45.789 165.463)"/>
    <path id="Path_2291" data-name="Path 2291" class="cls-1" d="M32.423,73.607,32.258,40.5v-.49l-.017-.1V39.88a3.691,3.691,0,0,0-.523-1.338l-.066-.1-.033-.05a4.161,4.161,0,0,0-.738-.787l-.028-.017-.1-.077-.055-.044-.083-.055-.088-.055-.066-.044-.121-.066-.033-.022-.149-.077h-.017l-.165-.077-.187-.066-.165-.066H29.6l-.149-.044h-.044l-.121-.033-.077-.017-.077-.022-.121-.011h-.044l-.16-.022-.391-.022h-.672a4.076,4.076,0,0,0-1.508.484l-.05.039-.066.033-.1.066A3.65,3.65,0,0,0,25,38.344l-.066.077-.022.044-.077.127a1.31,1.31,0,0,0-.1.165l-4.712,8.571a3.738,3.738,0,0,0,1.536,5.053l.165.083a4.267,4.267,0,0,0,1.767.435,4.858,4.858,0,0,0,.848-.077l.11,20.84a3.893,3.893,0,0,0,3.908,3.776h.1a3.89,3.89,0,0,0,3.98-3.809v-.005" transform="translate(88.209 165.634)"/>
    <path id="Path_2292" data-name="Path 2292" class="cls-1" d="M32.423,73.607,32.258,40.5v-.49l-.017-.1V39.88a3.691,3.691,0,0,0-.523-1.338l-.066-.1-.033-.05a4.161,4.161,0,0,0-.738-.787l-.028-.017-.1-.077-.055-.044-.083-.055-.088-.055-.066-.044-.121-.066-.033-.022-.149-.077h-.017l-.165-.077-.187-.066-.165-.066H29.6l-.149-.044h-.044l-.121-.033-.077-.017-.077-.022-.121-.011h-.044l-.16-.022-.391-.022h-.672a4.076,4.076,0,0,0-1.508.484l-.05.039-.066.033-.1.066A3.65,3.65,0,0,0,25,38.344l-.066.077-.022.044-.077.127a1.31,1.31,0,0,0-.1.165l-4.712,8.571a3.738,3.738,0,0,0,1.536,5.053l.165.083a4.267,4.267,0,0,0,1.767.435,4.858,4.858,0,0,0,.848-.077l.11,20.84a3.893,3.893,0,0,0,3.908,3.776h.1a3.89,3.89,0,0,0,3.98-3.809v-.005" transform="translate(88.209 165.634)"/>
    <path id="Path_2293" data-name="Path 2293" class="cls-1" d="M37.574,75.653c-8.152,0-14.549-8.543-14.549-19.459s6.4-19.453,14.549-19.453,14.549,8.543,14.549,19.453-6.4,19.459-14.549,19.459m0-31.348c-3.831,0-6.7,6.281-6.7,11.89s2.862,11.9,6.7,11.9,6.7-6.281,6.7-11.9S41.41,44.3,37.574,44.3" transform="translate(103.718 165.504)"/>
    <path id="Path_2294" data-name="Path 2294" class="cls-1" d="M37.574,75.653c-8.152,0-14.549-8.543-14.549-19.459s6.4-19.453,14.549-19.453,14.549,8.543,14.549,19.453-6.4,19.459-14.549,19.459m0-31.348c-3.831,0-6.7,6.281-6.7,11.89s2.862,11.9,6.7,11.9,6.7-6.281,6.7-11.9S41.41,44.3,37.574,44.3" transform="translate(103.718 165.504)"/>
    <path id="Path_2295" data-name="Path 2295" class="cls-1" d="M29.223,73.607,29.058,40.5v-.49l-.017-.1V39.88a3.69,3.69,0,0,0-.523-1.338l-.066-.1-.033-.05a4.346,4.346,0,0,0-.738-.787l-.028-.017-.1-.077-.055-.044-.083-.055-.088-.055-.066-.044-.121-.066-.033-.022-.149-.077h-.017l-.165-.077-.187-.066-.165-.066H26.4l-.149-.044h-.044l-.121-.033-.077-.017-.077-.022-.121-.011h-.044l-.16-.022-.391-.022h-.611a4.076,4.076,0,0,0-1.508.484l-.05.039-.061.033-.11.066a3.649,3.649,0,0,0-1.018.952l-.061.077-.022.044-.088.127c-.033.055-.066.11-.094.165l-4.712,8.571a3.733,3.733,0,0,0,1.536,5.053l.16.083a4.313,4.313,0,0,0,1.772.435,4.92,4.92,0,0,0,.853-.077l.1,20.84a3.9,3.9,0,0,0,3.908,3.776h.1a3.9,3.9,0,0,0,3.985-3.809v-.005" transform="translate(74.064 165.634)"/>
    <path id="Path_2296" data-name="Path 2296" class="cls-1" d="M29.223,73.607,29.058,40.5v-.49l-.017-.1V39.88a3.69,3.69,0,0,0-.523-1.338l-.066-.1-.033-.05a4.346,4.346,0,0,0-.738-.787l-.028-.017-.1-.077-.055-.044-.083-.055-.088-.055-.066-.044-.121-.066-.033-.022-.149-.077h-.017l-.165-.077-.187-.066-.165-.066H26.4l-.149-.044h-.044l-.121-.033-.077-.017-.077-.022-.121-.011h-.044l-.16-.022-.391-.022h-.611a4.076,4.076,0,0,0-1.508.484l-.05.039-.061.033-.11.066a3.649,3.649,0,0,0-1.018.952l-.061.077-.022.044-.088.127c-.033.055-.066.11-.094.165l-4.712,8.571a3.733,3.733,0,0,0,1.536,5.053l.16.083a4.313,4.313,0,0,0,1.772.435,4.92,4.92,0,0,0,.853-.077l.1,20.84a3.9,3.9,0,0,0,3.908,3.776h.1a3.9,3.9,0,0,0,3.985-3.809v-.005" transform="translate(74.064 165.634)"/>
    <path id="Path_2297" data-name="Path 2297" class="cls-1" d="M43.456,75.551c-8.152,0-14.549-8.543-14.549-19.459s6.4-19.453,14.549-19.453S58,45.188,58,56.092s-6.4,19.459-14.549,19.459m0-31.348c-3.831,0-6.7,6.275-6.7,11.89s2.862,11.9,6.7,11.9,6.7-6.281,6.7-11.9S47.3,44.2,43.461,44.2" transform="translate(130.213 165.044)"/>
    <path id="Path_2298" data-name="Path 2298" class="cls-1" d="M43.456,75.551c-8.152,0-14.549-8.543-14.549-19.459s6.4-19.453,14.549-19.453S58,45.188,58,56.092s-6.4,19.459-14.549,19.459m0-31.348c-3.831,0-6.7,6.275-6.7,11.89s2.862,11.9,6.7,11.9,6.7-6.281,6.7-11.9S47.3,44.2,43.461,44.2" transform="translate(130.213 165.044)"/>
    <path id="Path_2299" data-name="Path 2299" class="cls-1" d="M51.12,73.523l-.165-33.11v-.49l-.016-.1V39.8a3.678,3.678,0,0,0-.523-1.343l-.066-.094-.033-.055a3.971,3.971,0,0,0-.738-.782l-.028-.022-.1-.077-.055-.044-.083-.061-.088-.055-.066-.039-.121-.072L49,37.143a.96.96,0,0,0-.149-.077h-.016l-.165-.083-.187-.066-.165-.061H48.3l-.149-.044H48.1l-.121-.033-.077-.022-.077-.016-.121-.022h-.044L47.5,36.7l-.391-.028H46.5a4.189,4.189,0,0,0-1.508.49l-.05.033-.061.039-.11.066a3.712,3.712,0,0,0-1.018.947l-.061.083-.022.039-.088.132-.094.165-4.712,8.571a3.71,3.71,0,0,0,1.5,5.031,2.153,2.153,0,0,0,.193.1,4.313,4.313,0,0,0,1.772.435,4.431,4.431,0,0,0,.853-.077l.1,20.84a3.894,3.894,0,0,0,3.908,3.782h.1A3.906,3.906,0,0,0,51.2,73.539v-.006" transform="translate(172.668 165.206)"/>
    <path id="Path_2300" data-name="Path 2300" class="cls-1" d="M51.12,73.523l-.165-33.11v-.49l-.016-.1V39.8a3.678,3.678,0,0,0-.523-1.343l-.066-.094-.033-.055a3.971,3.971,0,0,0-.738-.782l-.028-.022-.1-.077-.055-.044-.083-.061-.088-.055-.066-.039-.121-.072L49,37.143a.96.96,0,0,0-.149-.077h-.016l-.165-.083-.187-.066-.165-.061H48.3l-.149-.044H48.1l-.121-.033-.077-.022-.077-.016-.121-.022h-.044L47.5,36.7l-.391-.028H46.5a4.189,4.189,0,0,0-1.508.49l-.05.033-.061.039-.11.066a3.712,3.712,0,0,0-1.018.947l-.061.083-.022.039-.088.132-.094.165-4.712,8.571a3.71,3.71,0,0,0,1.5,5.031,2.153,2.153,0,0,0,.193.1,4.313,4.313,0,0,0,1.772.435,4.431,4.431,0,0,0,.853-.077l.1,20.84a3.894,3.894,0,0,0,3.908,3.782h.1A3.906,3.906,0,0,0,51.2,73.539v-.006" transform="translate(172.668 165.206)"/>
    <path id="Path_2301" data-name="Path 2301" class="cls-1" d="M56.316,75.561c-8.147,0-14.549-8.543-14.549-19.459s6.4-19.453,14.549-19.453S70.87,45.2,70.87,56.1s-6.4,19.459-14.554,19.459m0-31.348c-3.826,0-6.694,6.281-6.694,11.89S52.484,68,56.316,68s6.7-6.281,6.7-11.9-2.862-11.89-6.7-11.89" transform="translate(188.142 165.089)"/>
    <path id="Path_2302" data-name="Path 2302" class="cls-1" d="M56.316,75.561c-8.147,0-14.549-8.543-14.549-19.459s6.4-19.453,14.549-19.453S70.87,45.2,70.87,56.1s-6.4,19.459-14.554,19.459m0-31.348c-3.826,0-6.694,6.281-6.694,11.89S52.484,68,56.316,68s6.7-6.281,6.7-11.9-2.862-11.89-6.7-11.89" transform="translate(188.142 165.089)"/>
    <path id="Path_2303" data-name="Path 2303" class="cls-1" d="M47.968,73.523,47.8,40.413v-.49l-.017-.1V39.8a3.678,3.678,0,0,0-.523-1.343l-.066-.094-.033-.055a3.971,3.971,0,0,0-.738-.782l-.028-.022-.1-.077-.055-.044-.083-.061-.088-.055L46,37.231l-.121-.072-.033-.017a.961.961,0,0,0-.149-.077h-.017l-.165-.083-.187-.066-.165-.061h-.022L45,36.813h-.044l-.121-.033-.077-.022-.077-.016-.121-.022h-.044l-.16-.017-.391-.028H43.35a4.189,4.189,0,0,0-1.508.49l-.055.033-.061.039-.1.066a3.733,3.733,0,0,0-1.024.947l-.061.083-.016.039-.088.132a1.31,1.31,0,0,0-.1.165l-4.712,8.571a3.735,3.735,0,0,0,1.541,5.053l.16.077a4.288,4.288,0,0,0,1.767.435,4.432,4.432,0,0,0,.853-.077l.1,20.84a3.9,3.9,0,0,0,3.914,3.782h.1a3.9,3.9,0,0,0,3.98-3.809v-.006" transform="translate(158.481 165.206)"/>
    <path id="Path_2304" data-name="Path 2304" class="cls-1" d="M47.968,73.523,47.8,40.413v-.49l-.017-.1V39.8a3.678,3.678,0,0,0-.523-1.343l-.066-.094-.033-.055a3.971,3.971,0,0,0-.738-.782l-.028-.022-.1-.077-.055-.044-.083-.061-.088-.055L46,37.231l-.121-.072-.033-.017a.961.961,0,0,0-.149-.077h-.017l-.165-.083-.187-.066-.165-.061h-.022L45,36.813h-.044l-.121-.033-.077-.022-.077-.016-.121-.022h-.044l-.16-.017-.391-.028H43.35a4.189,4.189,0,0,0-1.508.49l-.055.033-.061.039-.1.066a3.733,3.733,0,0,0-1.024.947l-.061.083-.016.039-.088.132a1.31,1.31,0,0,0-.1.165l-4.712,8.571a3.735,3.735,0,0,0,1.541,5.053l.16.077a4.288,4.288,0,0,0,1.767.435,4.432,4.432,0,0,0,.853-.077l.1,20.84a3.9,3.9,0,0,0,3.914,3.782h.1a3.9,3.9,0,0,0,3.98-3.809v-.006" transform="translate(158.481 165.206)"/>
    <path id="Path_2305" data-name="Path 2305" class="cls-1" d="M60.065,57.057,59.9,23.947v-.49l-.016-.1v-.022a3.652,3.652,0,0,0-.523-1.338l-.066-.1-.033-.05a4.161,4.161,0,0,0-.738-.787l-.028-.017-.1-.077-.055-.044-.083-.061-.088-.055-.066-.039-.121-.072-.033-.017L57.8,20.6h-.016l-.165-.083-.187-.066-.165-.061h-.022l-.149-.044h-.044l-.121-.033L56.85,20.3l-.077-.022-.121-.017h-.044l-.16-.017-.391-.028h-.611a4.189,4.189,0,0,0-1.508.49l-.055.033-.061.033-.1.072a3.651,3.651,0,0,0-1.024.947l-.061.077-.016.044-.088.132a.821.821,0,0,0-.1.165l-4.712,8.571a3.733,3.733,0,0,0,1.536,5.048,1.156,1.156,0,0,0,.165.083,4.268,4.268,0,0,0,1.767.435,4.432,4.432,0,0,0,.853-.077l.1,20.84a3.894,3.894,0,0,0,3.908,3.782h.1a3.907,3.907,0,0,0,3.985-3.815v-.005" transform="translate(212.972 91.061)"/>
    <path id="Path_2306" data-name="Path 2306" class="cls-1" d="M19.072,32.277V31.8l-.017-.1v-.022a4.042,4.042,0,0,0-.523-1.343l-.066-.088-.033-.061A4.141,4.141,0,0,0,17.7,29.4l-.028-.017-.1-.077-.055-.044-.083-.055-.088-.055-.066-.039-.121-.077-.033-.017-.149-.077h-.017l-.165-.077L16.6,28.8l-.165-.055h-.022l-.149-.044-.044-.017-.121-.028-.077-.022h-.077l-.121-.028h-.044l-.16-.017a3.046,3.046,0,0,0-.391-.022h-.308l-.16.017h-.149a4.153,4.153,0,0,0-1.5.5l-.055.022L13,29.15l-.1.061h-.022a4.139,4.139,0,0,0-1.007.952l-.066.088-.022.033-.077.132-.1.16L6.891,39.158a3.709,3.709,0,0,0,1.5,5.026l.2.1a4.061,4.061,0,0,0,1.761.435,3.743,3.743,0,0,0,.859-.066l.1,20.818a3.9,3.9,0,0,0,3.914,3.776h.1a3.9,3.9,0,0,0,3.98-3.815Z" transform="translate(29.026 128.683)"/>
    <path id="Path_2307" data-name="Path 2307" class="cls-1" d="M375.9,326.795,294.744,244.37a159.565,159.565,0,1,0-73.112,62.207c2.967-1.244,5.868-2.6,8.73-4.018l83.746,85.078a43.358,43.358,0,0,0,61.783-60.825M260.814,80.51a127.465,127.465,0,0,1,9.958,14.747,5.291,5.291,0,0,1-4.156,2.8c-3.831,0-6.7-6.275-6.7-11.9a18.83,18.83,0,0,1,.9-5.637M202,41.119c0,5.62-2.862,11.9-6.7,11.9s-6.683-6.281-6.683-11.9a18.434,18.434,0,0,1,1.244-6.556c4.013.963,7.982,2.13,11.879,3.49a17.932,17.932,0,0,1,.27,3.066m-32.378.567c0,5.62-2.857,11.9-6.688,11.9s-6.7-6.281-6.7-11.9a15.294,15.294,0,0,1,3.925-10.723c1.91,0,3.809.055,5.708.149a15.643,15.643,0,0,1,3.754,10.574M98.182,46.464c-1.068,3.864-3.3,7.068-6.039,7.068a4.444,4.444,0,0,1-3.171-1.552q4.492-2.964,9.209-5.527M40.241,133.018c0,5.6-2.857,11.89-6.688,11.89a3.759,3.759,0,0,1-1.673-.413A128.062,128.062,0,0,1,36.4,122.361a15.479,15.479,0,0,1,3.831,10.657m57.517,139a128.7,128.7,0,0,1-12.473-7.822c1.046-3.914,3.3-7.156,6.05-7.156,3.837,0,6.7,6.281,6.7,11.9a17.709,17.709,0,0,1-.275,3.094m64.381,8.846c-3.831,0-6.688-6.27-6.688-11.89s2.857-11.9,6.688-11.9,6.7,6.281,6.7,11.9-2.862,11.89-6.7,11.89m25.673-12.44c0-5.62,2.868-11.9,6.7-11.9s6.7,6.281,6.7,11.9-2.862,11.89-6.7,11.89-6.7-6.281-6.7-11.89m56.675-12.859-.017-2.659v-.2l-.022-.149v-.083l-.017-.083v-.127a3.615,3.615,0,0,0-.523-1.338l-.061-.1-.039-.055a3.972,3.972,0,0,0-.738-.782l-.017-.016-.116-.088-.05-.033-.088-.066-.077-.061-.072-.033-.11-.072-.044-.022-.149-.077-.176-.077-.176-.083-.176-.061H241.8l-.154-.044-.044-.017-.11-.028-.094-.017-.077-.017-.121-.016h-.033l-.16-.028a3.178,3.178,0,0,0-.391-.028H240a4.135,4.135,0,0,0-1.5.49l-.055.033-.072.033-.1.066a3.773,3.773,0,0,0-1.024.958l-.05.077-.028.033-.088.132v.017l-.094.154-4.7,8.582a3.681,3.681,0,0,0,1.035,4.723c-1.976,1.4-4,2.741-6.055,4.013l-.077-15.55v-.2l-.022-.149v-.044l-.011-.083v-.127a3.436,3.436,0,0,0-.523-1.338l-.061-.1-.039-.055a3.843,3.843,0,0,0-.743-.782l-.017-.016-.11-.088-.05-.033-.094-.066-.077-.061-.072-.033-.1-.072-.05-.022-.143-.077-.176-.077-.182-.083-.165-.061h-.022l-.154-.044-.044-.017-.11-.028-.088-.017-.077-.017-.121-.016h-.033l-.165-.028a3.191,3.191,0,0,0-.4-.028h-.76a4.127,4.127,0,0,0-1.5.49l-.05.033-.072.033-.1.066a3.94,3.94,0,0,0-1.024.958l-.05.077-.028.033-.083.132v.017l-.1.154-4.7,8.582a3.735,3.735,0,0,0,1.536,5.053l.16.083a4.069,4.069,0,0,0,1.761.424,4.365,4.365,0,0,0,.848-.066l.044,7.828a124.651,124.651,0,0,1-12.319,5.681,24.733,24.733,0,0,0,2.147-10.316c0-10.91-6.391-19.459-14.543-19.459s-14.549,8.549-14.549,19.459a21.4,21.4,0,0,0,6.694,16.453,127.986,127.986,0,0,1-20.086,2.686c5.9-2.455,10.106-9.738,10.106-18.572,0-10.916-6.38-19.459-14.543-19.459S147.6,258.038,147.6,268.953c0,9.077,4.415,16.508,10.591,18.754a129.729,129.729,0,0,1-16.717-1.244l-.165-33.088V252.9l-.017-.1v.011a3.819,3.819,0,0,0-.523-1.343l-.061-.094-.044-.055a3.79,3.79,0,0,0-.732-.782l-.022-.022-.11-.083-.05-.039-.088-.061-.088-.061-.061-.033-.121-.072-.033-.022-.154-.077h-.017l-.165-.083-.182-.077-.165-.061h-.028l-.149-.044-.044-.017-.121-.028-.077-.022-.077-.017-.121-.017h-.044l-.154-.022h-.022a2.2,2.2,0,0,0-.38-.028h-.622a4.134,4.134,0,0,0-1.5.49l-.05.033-.066.033-.1.061H135.1a3.993,3.993,0,0,0-1.013.958l-.061.083-.028.033-.088.132v.017l-.094.154-4.712,8.582a3.724,3.724,0,0,0,1.536,5.048l.16.083a4.087,4.087,0,0,0,1.761.424,3.793,3.793,0,0,0,.864-.066l.094,19.4q-4.731-.966-9.352-2.29l-.154-29.427v-.479L124,252.8a3.819,3.819,0,0,0-.523-1.343l-.061-.094-.044-.055a3.791,3.791,0,0,0-.732-.782l-.022-.022-.11-.083-.05-.039-.088-.061-.088-.061-.061-.033-.121-.072-.033-.022-.154-.077H121.9l-.165-.083-.182-.077-.165-.061h-.028l-.149-.044-.044-.017-.121-.028-.077-.022-.077-.017-.121-.017h-.044l-.154-.022h-.022a2.2,2.2,0,0,0-.38-.028h-.622a4.1,4.1,0,0,0-1.5.49l-.055.033-.061.033-.11.061h-.017a4.087,4.087,0,0,0-1.013.958l-.061.083-.022.033-.088.132v.017l-.1.154-4.712,8.582a3.733,3.733,0,0,0,1.536,5.048l.165.083a4.049,4.049,0,0,0,1.761.424,3.769,3.769,0,0,0,.859-.066l.066,14.549c-3.76-1.343-7.464-2.879-11.075-4.569a26.385,26.385,0,0,0,.87-6.787c0-10.916-6.385-19.459-14.549-19.459A14.3,14.3,0,0,0,78.8,259.166a131.418,131.418,0,0,1-10.046-9.05,129.5,129.5,0,0,1-18.87-23.928l-.094-20.13v-.193l-.022-.149v-.055l-.017-.088v-.127a3.384,3.384,0,0,0-.523-1.338l-.061-.094-.033-.055a3.58,3.58,0,0,0-.743-.782l-.017-.028-.11-.077-.055-.033-.088-.066-.077-.055-.072-.033-.116-.072-.039-.022-.154-.083-.165-.077-.182-.066-.165-.061h-.022l-.154-.044-.044-.022-.11-.022-.088-.022-.077-.017-.121-.022H46.5l-.171-.028a2.89,2.89,0,0,0-.385-.028h-.523l-.088.017a4.134,4.134,0,0,0-1.5.49l-.05.028-.072.039-.1.066a3.833,3.833,0,0,0-1.018.958l-.055.077-.033.033-.077.132v.017l-.1.154-1.761,3.215a128.281,128.281,0,0,1-9.336-48.209c0-2.378.077-4.739.193-7.1a11.864,11.864,0,0,0,2.328.248c8.158,0,14.554-8.554,14.554-19.464,0-8.367-3.771-15.341-9.193-18.138A127.049,127.049,0,0,1,51.294,90.33l.072,14.851a3.9,3.9,0,0,0,3.919,3.776h.1a3.907,3.907,0,0,0,3.985-3.815l-.132-25.888A129.05,129.05,0,0,1,82.813,56.405a12.58,12.58,0,0,0,9.517,4.646c8.009,0,14.312-8.235,14.532-18.859q4.517-2.031,9.193-3.732h.1a4.026,4.026,0,0,0,.853-.066l.1,20.818a3.9,3.9,0,0,0,3.908,3.776h.1a3.9,3.9,0,0,0,3.985-3.809v-.006L124.995,35.6c1.525-.424,3.061-.809,4.6-1.183a3.758,3.758,0,0,0,2.136,3.605,4.288,4.288,0,0,0,1.767.435,4.03,4.03,0,0,0,.853-.072l.1,20.818a3.9,3.9,0,0,0,3.914,3.782h.1a3.9,3.9,0,0,0,3.98-3.815v-.006l-.132-27.115q4.194-.561,8.46-.853a24.657,24.657,0,0,0-2.207,10.426c0,10.916,6.385,19.459,14.549,19.459s14.538-8.543,14.538-19.459a25.133,25.133,0,0,0-1.894-9.738c2.174.281,4.338.6,6.49.98a25.264,25.264,0,0,0-1.31,8.191c0,10.916,6.385,19.459,14.538,19.459s14.527-8.5,14.549-19.387q5.185,2.221,10.172,4.877l.072,12.683a3.9,3.9,0,0,0,3.914,3.782h.1a3.906,3.906,0,0,0,3.98-3.82l-.044-7.96c3.215,2.037,6.336,4.233,9.374,6.561v1.6a3.828,3.828,0,0,0,3.919,3.611h.1a4.385,4.385,0,0,0,1.872-.418q3.55,3.088,6.93,6.446c1.728,1.734,3.391,3.506,5.009,5.317a23.8,23.8,0,0,0-3.187,12.281c0,10.916,6.4,19.459,14.549,19.459a12.152,12.152,0,0,0,8.02-3.132,125.455,125.455,0,0,1,6.765,16.481,23.674,23.674,0,0,0-3.418,12.644c0,8.538,3.9,15.616,9.512,18.3.127,1.817.22,3.628.281,5.444a4.1,4.1,0,0,0-1.437.479l-.055.028-.061.044-.11.061a3.752,3.752,0,0,0-1.018.958l-.061.077-.027.033-.077.132v.017l-.1.154-4.706,8.582a3.736,3.736,0,0,0,1.53,5.048l.16.083a4.155,4.155,0,0,0,1.772.424,4.027,4.027,0,0,0,.853-.066L284.7,188.5a126.4,126.4,0,0,1-8.884,25.58l-.044-9.583v-.479l-.017-.1v-.027a3.513,3.513,0,0,0-.512-1.332l-.072-.1-.033-.055a3.406,3.406,0,0,0-.732-.782l-.027-.022-.1-.083-.066-.033-.077-.061-.088-.061-.061-.039-.121-.066-.044-.028-.149-.077-.176-.077-.171-.066-.176-.066h-.017l-.149-.039-.061-.022-.11-.022-.077-.022-.083-.017-.116-.028h-.308l-.154-.022h-.017a2.968,2.968,0,0,0-.391-.028h-.539l-.088.022a3.991,3.991,0,0,0-1.5.484l-.061.028-.061.044-.11.061a3.994,3.994,0,0,0-1.013.958l-.061.077-.022.039-.088.127v.022l-.088.154-4.712,8.576a3.742,3.742,0,0,0,1.53,5.053l.171.083a4.148,4.148,0,0,0,1.762.424,4.48,4.48,0,0,0,.859-.066l.055,11.554a129.167,129.167,0,0,1-17.482,21.693c-1.861,1.866-3.787,3.672-5.758,5.416" transform="translate(0.003 0.002)"/>
    <path id="Path_2308" data-name="Path 2308" class="cls-1" d="M35.074,21.069c-14.086,0-25.123,17.273-25.123,39.319S20.988,99.713,35.074,99.713,60.2,82.439,60.2,60.388,49.16,21.069,35.074,21.069m0,63.352c-6.616,0-11.565-12.688-11.565-24.033s4.949-24.033,11.565-24.033S46.639,49.038,46.639,60.388,41.69,84.421,35.074,84.421" transform="translate(44.825 94.908)"/>
    <path id="Path_2309" data-name="Path 2309" class="cls-1" d="M48.181,28.737v-.4l-.028-.286v-.1l-.017-.182-.022-.209v-.044a8.4,8.4,0,0,0-.9-2.708l-.11-.187-.066-.11a7.348,7.348,0,0,0-1.272-1.585l-.044-.044-.182-.154-.088-.088-.149-.116-.149-.11-.116-.077-.2-.149-.066-.044-.264-.154-.017-.022h-.017l-.314-.154h-.017c-.1-.055-.2-.094-.314-.149h-.017l-.286-.11-.044-.022-.253-.094-.077-.028-.209-.05-.138-.044-.143-.028-.2-.05H42.4l-.27-.044H42.1c-.215-.028-.44-.044-.672-.055H40.9a2.216,2.216,0,0,0-.27.017h-.275a6.412,6.412,0,0,0-2.593,1l-.1.061-.1.077c-.061.044-.121.077-.187.132h-.017A7.325,7.325,0,0,0,35.6,24.35l-.1.16-.044.077-.149.259v.028a2.313,2.313,0,0,0-.165.33L27,42.526A8.13,8.13,0,0,0,29.939,52.9a6.364,6.364,0,0,0,3.039.87,5.829,5.829,0,0,0,1.481-.143l.182,42.066a7.334,7.334,0,0,0,6.76,7.646h.176a7.328,7.328,0,0,0,6.881-7.706Z" transform="translate(118.013 95.206)"/>
    <path id="Path_2310" data-name="Path 2310" class="cls-1" d="M57.287,21.089c-14.086,0-25.123,17.273-25.123,39.319S43.2,99.727,57.287,99.727,82.41,82.459,82.41,60.408,71.373,21.089,57.287,21.089m0,63.352c-6.616,0-11.565-12.688-11.565-24.033S50.67,36.375,57.287,36.375,68.852,49.058,68.852,60.408,63.9,84.441,57.287,84.441" transform="translate(144.885 94.998)"/>
    <path id="Path_2311" data-name="Path 2311" class="cls-1" d="M42.716,28.737v-.4l-.028-.286v-.1l-.017-.182-.022-.209v-.044a8.4,8.4,0,0,0-.9-2.708l-.11-.187-.066-.11a7.348,7.348,0,0,0-1.272-1.585l-.044-.044-.182-.154-.088-.088-.149-.116-.149-.11-.116-.077-.2-.149-.066-.044-.264-.154-.017-.022h-.017l-.314-.154h-.017c-.1-.055-.2-.094-.314-.149h-.017l-.286-.11-.044-.022-.253-.094L37.7,21.4l-.209-.05-.138-.044-.143-.028-.2-.05h-.077l-.27-.044h-.028c-.215-.028-.44-.044-.672-.055h-.528a2.215,2.215,0,0,0-.27.017h-.094l-.154.022a6.412,6.412,0,0,0-2.593,1l-.1.061-.1.077a1.892,1.892,0,0,0-.182.132h-.022a7.326,7.326,0,0,0-1.75,1.932l-.1.154-.044.083-.149.259v.028a2.311,2.311,0,0,0-.165.33L21.568,42.548A8.13,8.13,0,0,0,24.5,52.918a6.364,6.364,0,0,0,3.039.87,6.062,6.062,0,0,0,1.481-.143L29.2,95.711a7.338,7.338,0,0,0,6.76,7.646h.176a7.328,7.328,0,0,0,6.881-7.706Z" transform="translate(93.521 95.206)"/>
    <path id="Path_2312" data-name="Path 2312" class="cls-1" d="M64.437,28.226c0-.121-.006-.237-.017-.358v-.028l-.022-.286-.017-.1-.022-.187-.016-.2v-.044a8.472,8.472,0,0,0-.9-2.714l-.11-.182-.061-.11A7.694,7.694,0,0,0,62,22.424l-.055-.044-.176-.16-.083-.083-.16-.116-.149-.11-.11-.077-.193-.149-.072-.044-.259-.154-.022-.017h-.017l-.308-.16H60.38c-.094-.05-.193-.094-.308-.149h-.028l-.281-.11-.044-.017-.248-.1-.077-.022-.209-.055-.149-.044-.132-.022L58.7,20.74H58.63l-.275-.044h-.033c-.209-.028-.435-.044-.661-.055h-.528a1.185,1.185,0,0,0-.281.022h-.1l-.149.022a6.466,6.466,0,0,0-2.6,1l-.083.061-.11.077a1.89,1.89,0,0,0-.182.132h-.017a7.062,7.062,0,0,0-1.75,1.932l-.11.154-.044.083-.149.259-.017.028a3.5,3.5,0,0,0-.154.325l-8.1,17.3A8.111,8.111,0,0,0,46.223,52.4a6.331,6.331,0,0,0,3.033.875,6.089,6.089,0,0,0,1.481-.143l.193,42.066a7.337,7.337,0,0,0,6.76,7.646h.165a7.326,7.326,0,0,0,6.886-7.706Z" transform="translate(191.349 92.98)"/>
  </g>
</svg>
