<svg xmlns="http://www.w3.org/2000/svg" xmlns:xlink="http://www.w3.org/1999/xlink" width="430.003" height="337.149" viewBox="0 0 430.003 337.149">
  <defs>
    <style>
      .cls-1 {
        fill: none;
      }

      .cls-2 {
        clip-path: url(#clip-path);
      }

      .cls-3 {
        fill: #fff;
      }
    </style>
    <clipPath id="clip-path">
      <rect id="Rectangle_599" data-name="Rectangle 599" class="cls-1" width="430.003" height="337.149"/>
    </clipPath>
  </defs>
  <g id="Group_1123" data-name="Group 1123" class="cls-2">
    <path id="Path_2320" data-name="Path 2320" class="cls-3" d="M429.731,45.158a51.243,51.243,0,0,0-15.947-34.686A42.124,42.124,0,0,0,393.347.506a36.119,36.119,0,0,0-6-.506,40.68,40.68,0,0,0-26.172,10.114c-.1.088-.2.176-.3.26L296.415,65.628l-2.427-2.185L236.137,11.279A31.238,31.238,0,0,0,215.031,2.4h-.074a31.241,31.241,0,0,0-21.12,8.876L135.995,63.443l-2.427,2.185L69.114,10.374c-.1-.084-.2-.172-.3-.26A40.671,40.671,0,0,0,42.64,0a36.2,36.2,0,0,0-6,.506A42.163,42.163,0,0,0,16.2,10.472,51.264,51.264,0,0,0,.253,45.158a57.409,57.409,0,0,0,10.17,38.375l179.6,239.777a31.632,31.632,0,0,0,24.943,13.84h.074a31.658,31.658,0,0,0,24.943-13.84l179.6-239.777a57.409,57.409,0,0,0,10.17-38.375M215,289.857,35.449,50.131a11.605,11.605,0,0,1,5.6-2.751,9.7,9.7,0,0,1,1.6-.13,11.794,11.794,0,0,1,7.363,2.867Q92.036,86.161,134.065,122.2q39.954-36.043,79.9-72.082a1.306,1.306,0,0,1,1.837-.2,1.189,1.189,0,0,1,.2.2q39.954,36.043,79.909,72.082,42.028-36.043,84.057-72.082a11.782,11.782,0,0,1,7.358-2.867,9.622,9.622,0,0,1,1.6.13,11.641,11.641,0,0,1,5.6,2.751Z" transform="translate(-0.002 0.001)"/>
    <path id="Path_2321" data-name="Path 2321" class="cls-3" d="M110.688,62.951c-4.426-7.873-16.86-21.189-35.4-21.222h-.056c-18.526.032-30.937,13.348-35.377,21.222A11.28,11.28,0,0,0,43.562,78a10.225,10.225,0,0,0,14.067-3.364c.1-.153.186-.306.269-.464.353-.594,6.347-10.416,17.334-10.453h.074c11,.042,16.99,9.859,17.343,10.453a10.206,10.206,0,0,0,13.835,4.111c.167-.088.329-.186.492-.283a11.292,11.292,0,0,0,3.716-15.046" transform="translate(139.714 151.88)"/>
    <path id="Path_2322" data-name="Path 2322" class="cls-3" d="M91.586,35.351h-.074c-32.12.042-51.607,23.11-55.258,27.829a11.343,11.343,0,0,0,1.559,15.455,10.166,10.166,0,0,0,14.337-1.1c.144-.167.283-.343.418-.52C54.158,74.96,68.4,57.38,91.549,57.334c23.156.046,37.4,17.626,38.987,19.677a10.166,10.166,0,0,0,14.234,2.041c.176-.13.353-.269.52-.418a11.343,11.343,0,0,0,1.559-15.455c-3.651-4.719-23.143-27.787-55.258-27.829" transform="translate(123.439 128.667)"/>
    <path id="Path_2323" data-name="Path 2323" class="cls-3" d="M179.735,60.311c-7.252-7.53-33.693-31.628-73.39-30.919-39.688-.71-66.124,23.388-73.385,30.919a11.36,11.36,0,0,0-.074,15.543,10.152,10.152,0,0,0,14.35.552c.167-.153.325-.311.483-.478A81.229,81.229,0,0,1,106.3,51.37h.074a81.243,81.243,0,0,1,58.594,24.558,10.161,10.161,0,0,0,14.364.413c.167-.158.325-.32.478-.487a11.374,11.374,0,0,0-.084-15.543" transform="translate(108.637 106.922)"/>
    <path id="Path_2324" data-name="Path 2324" class="cls-3" d="M71.8,63.352A14.273,14.273,0,0,0,57.59,49.09h-.07a14.262,14.262,0,1,0,0,28.525h.07A14.273,14.273,0,0,0,71.8,63.352" transform="translate(157.426 178.672)"/>
  </g>
</svg>
